<svg xmlns="http://www.w3.org/2000/svg" viewBox="0 0 1700 950" width="1700" height="950">
  <defs>
    <style>
      .cl { font-family: "Inter","Helvetica Neue",Arial,sans-serif; font-weight: 700; text-anchor: middle; dominant-baseline: central; fill: #333; letter-spacing: 1px; }
      .ol { font-family: "Inter","Helvetica Neue",Arial,sans-serif; font-weight: 300; font-style: italic; text-anchor: middle; dominant-baseline: central; fill: #6688AA; letter-spacing: 3px; opacity: 0.6; }
      .cpl { font-family: "Inter",Arial,sans-serif; font-size: 8px; font-weight: 700; text-anchor: middle; dominant-baseline: central; fill: #B8720C; }
      .lt { font-family: "Inter","Helvetica Neue",Arial,sans-serif; font-size: 9px; fill: #3a3a3a; }
      .ltt { font-family: "Inter","Helvetica Neue",Arial,sans-serif; font-size: 12px; fill: #1a1a1a; font-weight: 700; letter-spacing: 1.5px; }
    </style>
  </defs>
  <rect width="1700" height="950" fill="#C5D9E8"/>
  <!-- OCEAN -->
  <polygon points="115.62,47.50 145.93,65.00 145.93,100.00 115.62,117.50 85.31,100.00 85.31,65.00" fill="#B5CCE0" stroke="#99AABB" stroke-width="0.3"/>
  <polygon points="176.24,47.50 206.55,65.00 206.55,100.00 176.24,117.50 145.93,100.00 145.93,65.00" fill="#B5CCE0" stroke="#99AABB" stroke-width="0.3"/>
  <polygon points="236.86,47.50 267.17,65.00 267.17,100.00 236.86,117.50 206.55,100.00 206.55,65.00" fill="#B5CCE0" stroke="#99AABB" stroke-width="0.3"/>
  <polygon points="297.49,47.50 327.80,65.00 327.80,100.00 297.49,117.50 267.17,100.00 267.17,65.00" fill="#B5CCE0" stroke="#99AABB" stroke-width="0.3"/>
  <polygon points="358.11,47.50 388.42,65.00 388.42,100.00 358.11,117.50 327.80,100.00 327.80,65.00" fill="#B5CCE0" stroke="#99AABB" stroke-width="0.3"/>
  <polygon points="418.73,47.50 449.04,65.00 449.04,100.00 418.73,117.50 388.42,100.00 388.42,65.00" fill="#B5CCE0" stroke="#99AABB" stroke-width="0.3"/>
  <polygon points="479.35,47.50 509.66,65.00 509.66,100.00 479.35,117.50 449.04,100.00 449.04,65.00" fill="#B5CCE0" stroke="#99AABB" stroke-width="0.3"/>
  <polygon points="539.97,47.50 570.28,65.00 570.28,100.00 539.97,117.50 509.66,100.00 509.66,65.00" fill="#B5CCE0" stroke="#99AABB" stroke-width="0.3"/>
  <polygon points="600.59,47.50 630.91,65.00 630.91,100.00 600.59,117.50 570.28,100.00 570.28,65.00" fill="#B5CCE0" stroke="#99AABB" stroke-width="0.3"/>
  <polygon points="661.22,47.50 691.53,65.00 691.53,100.00 661.22,117.50 630.91,100.00 630.91,65.00" fill="#B5CCE0" stroke="#99AABB" stroke-width="0.3"/>
  <polygon points="721.84,47.50 752.15,65.00 752.15,100.00 721.84,117.50 691.53,100.00 691.53,65.00" fill="#B5CCE0" stroke="#99AABB" stroke-width="0.3"/>
  <polygon points="782.46,47.50 812.77,65.00 812.77,100.00 782.46,117.50 752.15,100.00 752.15,65.00" fill="#B5CCE0" stroke="#99AABB" stroke-width="0.3"/>
  <polygon points="843.08,47.50 873.39,65.00 873.39,100.00 843.08,117.50 812.77,100.00 812.77,65.00" fill="#B5CCE0" stroke="#99AABB" stroke-width="0.3"/>
  <polygon points="903.70,47.50 934.01,65.00 934.01,100.00 903.70,117.50 873.39,100.00 873.39,65.00" fill="#B5CCE0" stroke="#99AABB" stroke-width="0.3"/>
  <polygon points="964.32,47.50 994.64,65.00 994.64,100.00 964.32,117.50 934.01,100.00 934.01,65.00" fill="#B5CCE0" stroke="#99AABB" stroke-width="0.3"/>
  <polygon points="1024.95,47.50 1055.26,65.00 1055.26,100.00 1024.95,117.50 994.64,100.00 994.64,65.00" fill="#B5CCE0" stroke="#99AABB" stroke-width="0.3"/>
  <polygon points="1085.57,47.50 1115.88,65.00 1115.88,100.00 1085.57,117.50 1055.26,100.00 1055.26,65.00" fill="#B5CCE0" stroke="#99AABB" stroke-width="0.3"/>
  <polygon points="1146.19,47.50 1176.50,65.00 1176.50,100.00 1146.19,117.50 1115.88,100.00 1115.88,65.00" fill="#B5CCE0" stroke="#99AABB" stroke-width="0.3"/>
  <polygon points="1206.81,47.50 1237.12,65.00 1237.12,100.00 1206.81,117.50 1176.50,100.00 1176.50,65.00" fill="#B5CCE0" stroke="#99AABB" stroke-width="0.3"/>
  <polygon points="1267.43,47.50 1297.74,65.00 1297.74,100.00 1267.43,117.50 1237.12,100.00 1237.12,65.00" fill="#B5CCE0" stroke="#99AABB" stroke-width="0.3"/>
  <polygon points="1328.06,47.50 1358.37,65.00 1358.37,100.00 1328.06,117.50 1297.74,100.00 1297.74,65.00" fill="#B5CCE0" stroke="#99AABB" stroke-width="0.3"/>
  <polygon points="1388.68,47.50 1418.99,65.00 1418.99,100.00 1388.68,117.50 1358.37,100.00 1358.37,65.00" fill="#B5CCE0" stroke="#99AABB" stroke-width="0.3"/>
  <polygon points="145.93,100.00 176.24,117.50 176.24,152.50 145.93,170.00 115.62,152.50 115.62,117.50" fill="#B5CCE0" stroke="#99AABB" stroke-width="0.3"/>
  <polygon points="206.55,100.00 236.86,117.50 236.86,152.50 206.55,170.00 176.24,152.50 176.24,117.50" fill="#B5CCE0" stroke="#99AABB" stroke-width="0.3"/>
  <polygon points="267.17,100.00 297.49,117.50 297.49,152.50 267.17,170.00 236.86,152.50 236.86,117.50" fill="#B5CCE0" stroke="#99AABB" stroke-width="0.3"/>
  <polygon points="327.80,100.00 358.11,117.50 358.11,152.50 327.80,170.00 297.49,152.50 297.49,117.50" fill="#B5CCE0" stroke="#99AABB" stroke-width="0.3"/>
  <polygon points="388.42,100.00 418.73,117.50 418.73,152.50 388.42,170.00 358.11,152.50 358.11,117.50" fill="#B5CCE0" stroke="#99AABB" stroke-width="0.3"/>
  <polygon points="449.04,100.00 479.35,117.50 479.35,152.50 449.04,170.00 418.73,152.50 418.73,117.50" fill="#B5CCE0" stroke="#99AABB" stroke-width="0.3"/>
  <polygon points="509.66,100.00 539.97,117.50 539.97,152.50 509.66,170.00 479.35,152.50 479.35,117.50" fill="#B5CCE0" stroke="#99AABB" stroke-width="0.3"/>
  <polygon points="570.28,100.00 600.59,117.50 600.59,152.50 570.28,170.00 539.97,152.50 539.97,117.50" fill="#B5CCE0" stroke="#99AABB" stroke-width="0.3"/>
  <polygon points="630.91,100.00 661.22,117.50 661.22,152.50 630.91,170.00 600.59,152.50 600.59,117.50" fill="#B5CCE0" stroke="#99AABB" stroke-width="0.3"/>
  <polygon points="691.53,100.00 721.84,117.50 721.84,152.50 691.53,170.00 661.22,152.50 661.22,117.50" fill="#B5CCE0" stroke="#99AABB" stroke-width="0.3"/>
  <polygon points="812.77,100.00 843.08,117.50 843.08,152.50 812.77,170.00 782.46,152.50 782.46,117.50" fill="#B5CCE0" stroke="#99AABB" stroke-width="0.3"/>
  <polygon points="873.39,100.00 903.70,117.50 903.70,152.50 873.39,170.00 843.08,152.50 843.08,117.50" fill="#B5CCE0" stroke="#99AABB" stroke-width="0.3"/>
  <polygon points="934.01,100.00 964.32,117.50 964.32,152.50 934.01,170.00 903.70,152.50 903.70,117.50" fill="#B5CCE0" stroke="#99AABB" stroke-width="0.3"/>
  <polygon points="994.64,100.00 1024.95,117.50 1024.95,152.50 994.64,170.00 964.32,152.50 964.32,117.50" fill="#B5CCE0" stroke="#99AABB" stroke-width="0.3"/>
  <polygon points="1055.26,100.00 1085.57,117.50 1085.57,152.50 1055.26,170.00 1024.95,152.50 1024.95,117.50" fill="#B5CCE0" stroke="#99AABB" stroke-width="0.3"/>
  <polygon points="1115.88,100.00 1146.19,117.50 1146.19,152.50 1115.88,170.00 1085.57,152.50 1085.57,117.50" fill="#B5CCE0" stroke="#99AABB" stroke-width="0.3"/>
  <polygon points="1176.50,100.00 1206.81,117.50 1206.81,152.50 1176.50,170.00 1146.19,152.50 1146.19,117.50" fill="#B5CCE0" stroke="#99AABB" stroke-width="0.3"/>
  <polygon points="1237.12,100.00 1267.43,117.50 1267.43,152.50 1237.12,170.00 1206.81,152.50 1206.81,117.50" fill="#B5CCE0" stroke="#99AABB" stroke-width="0.3"/>
  <polygon points="1297.74,100.00 1328.06,117.50 1328.06,152.50 1297.74,170.00 1267.43,152.50 1267.43,117.50" fill="#B5CCE0" stroke="#99AABB" stroke-width="0.3"/>
  <polygon points="1358.37,100.00 1388.68,117.50 1388.68,152.50 1358.37,170.00 1328.06,152.50 1328.06,117.50" fill="#B5CCE0" stroke="#99AABB" stroke-width="0.3"/>
  <polygon points="1418.99,100.00 1449.30,117.50 1449.30,152.50 1418.99,170.00 1388.68,152.50 1388.68,117.50" fill="#B5CCE0" stroke="#99AABB" stroke-width="0.3"/>
  <polygon points="115.62,152.50 145.93,170.00 145.93,205.00 115.62,222.50 85.31,205.00 85.31,170.00" fill="#B5CCE0" stroke="#99AABB" stroke-width="0.3"/>
  <polygon points="176.24,152.50 206.55,170.00 206.55,205.00 176.24,222.50 145.93,205.00 145.93,170.00" fill="#B5CCE0" stroke="#99AABB" stroke-width="0.3"/>
  <polygon points="236.86,152.50 267.17,170.00 267.17,205.00 236.86,222.50 206.55,205.00 206.55,170.00" fill="#B5CCE0" stroke="#99AABB" stroke-width="0.3"/>
  <polygon points="297.49,152.50 327.80,170.00 327.80,205.00 297.49,222.50 267.17,205.00 267.17,170.00" fill="#B5CCE0" stroke="#99AABB" stroke-width="0.3"/>
  <polygon points="418.73,152.50 449.04,170.00 449.04,205.00 418.73,222.50 388.42,205.00 388.42,170.00" fill="#B5CCE0" stroke="#99AABB" stroke-width="0.3"/>
  <polygon points="479.35,152.50 509.66,170.00 509.66,205.00 479.35,222.50 449.04,205.00 449.04,170.00" fill="#B5CCE0" stroke="#99AABB" stroke-width="0.3"/>
  <polygon points="539.97,152.50 570.28,170.00 570.28,205.00 539.97,222.50 509.66,205.00 509.66,170.00" fill="#B5CCE0" stroke="#99AABB" stroke-width="0.3"/>
  <polygon points="600.59,152.50 630.91,170.00 630.91,205.00 600.59,222.50 570.28,205.00 570.28,170.00" fill="#B5CCE0" stroke="#99AABB" stroke-width="0.3"/>
  <polygon points="964.32,152.50 994.64,170.00 994.64,205.00 964.32,222.50 934.01,205.00 934.01,170.00" fill="#B5CCE0" stroke="#99AABB" stroke-width="0.3"/>
  <polygon points="1085.57,152.50 1115.88,170.00 1115.88,205.00 1085.57,222.50 1055.26,205.00 1055.26,170.00" fill="#B5CCE0" stroke="#99AABB" stroke-width="0.3"/>
  <polygon points="1146.19,152.50 1176.50,170.00 1176.50,205.00 1146.19,222.50 1115.88,205.00 1115.88,170.00" fill="#B5CCE0" stroke="#99AABB" stroke-width="0.3"/>
  <polygon points="1206.81,152.50 1237.12,170.00 1237.12,205.00 1206.81,222.50 1176.50,205.00 1176.50,170.00" fill="#B5CCE0" stroke="#99AABB" stroke-width="0.3"/>
  <polygon points="1267.43,152.50 1297.74,170.00 1297.74,205.00 1267.43,222.50 1237.12,205.00 1237.12,170.00" fill="#B5CCE0" stroke="#99AABB" stroke-width="0.3"/>
  <polygon points="1328.06,152.50 1358.37,170.00 1358.37,205.00 1328.06,222.50 1297.74,205.00 1297.74,170.00" fill="#B5CCE0" stroke="#99AABB" stroke-width="0.3"/>
  <polygon points="1388.68,152.50 1418.99,170.00 1418.99,205.00 1388.68,222.50 1358.37,205.00 1358.37,170.00" fill="#B5CCE0" stroke="#99AABB" stroke-width="0.3"/>
  <polygon points="145.93,205.00 176.24,222.50 176.24,257.50 145.93,275.00 115.62,257.50 115.62,222.50" fill="#B5CCE0" stroke="#99AABB" stroke-width="0.3"/>
  <polygon points="206.55,205.00 236.86,222.50 236.86,257.50 206.55,275.00 176.24,257.50 176.24,222.50" fill="#B5CCE0" stroke="#99AABB" stroke-width="0.3"/>
  <polygon points="267.17,205.00 297.49,222.50 297.49,257.50 267.17,275.00 236.86,257.50 236.86,222.50" fill="#B5CCE0" stroke="#99AABB" stroke-width="0.3"/>
  <polygon points="327.80,205.00 358.11,222.50 358.11,257.50 327.80,275.00 297.49,257.50 297.49,222.50" fill="#B5CCE0" stroke="#99AABB" stroke-width="0.3"/>
  <polygon points="388.42,205.00 418.73,222.50 418.73,257.50 388.42,275.00 358.11,257.50 358.11,222.50" fill="#B5CCE0" stroke="#99AABB" stroke-width="0.3"/>
  <polygon points="449.04,205.00 479.35,222.50 479.35,257.50 449.04,275.00 418.73,257.50 418.73,222.50" fill="#B5CCE0" stroke="#99AABB" stroke-width="0.3"/>
  <polygon points="509.66,205.00 539.97,222.50 539.97,257.50 509.66,275.00 479.35,257.50 479.35,222.50" fill="#B5CCE0" stroke="#99AABB" stroke-width="0.3"/>
  <polygon points="994.64,205.00 1024.95,222.50 1024.95,257.50 994.64,275.00 964.32,257.50 964.32,222.50" fill="#B5CCE0" stroke="#99AABB" stroke-width="0.3"/>
  <polygon points="1115.88,205.00 1146.19,222.50 1146.19,257.50 1115.88,275.00 1085.57,257.50 1085.57,222.50" fill="#B5CCE0" stroke="#99AABB" stroke-width="0.3"/>
  <polygon points="1176.50,205.00 1206.81,222.50 1206.81,257.50 1176.50,275.00 1146.19,257.50 1146.19,222.50" fill="#B5CCE0" stroke="#99AABB" stroke-width="0.3"/>
  <polygon points="1297.74,205.00 1328.06,222.50 1328.06,257.50 1297.74,275.00 1267.43,257.50 1267.43,222.50" fill="#B5CCE0" stroke="#99AABB" stroke-width="0.3"/>
  <polygon points="1358.37,205.00 1388.68,222.50 1388.68,257.50 1358.37,275.00 1328.06,257.50 1328.06,222.50" fill="#B5CCE0" stroke="#99AABB" stroke-width="0.3"/>
  <polygon points="1418.99,205.00 1449.30,222.50 1449.30,257.50 1418.99,275.00 1388.68,257.50 1388.68,222.50" fill="#B5CCE0" stroke="#99AABB" stroke-width="0.3"/>
  <polygon points="115.62,257.50 145.93,275.00 145.93,310.00 115.62,327.50 85.31,310.00 85.31,275.00" fill="#B5CCE0" stroke="#99AABB" stroke-width="0.3"/>
  <polygon points="236.86,257.50 267.17,275.00 267.17,310.00 236.86,327.50 206.55,310.00 206.55,275.00" fill="#B5CCE0" stroke="#99AABB" stroke-width="0.3"/>
  <polygon points="297.49,257.50 327.80,275.00 327.80,310.00 297.49,327.50 267.17,310.00 267.17,275.00" fill="#B5CCE0" stroke="#99AABB" stroke-width="0.3"/>
  <polygon points="358.11,257.50 388.42,275.00 388.42,310.00 358.11,327.50 327.80,310.00 327.80,275.00" fill="#B5CCE0" stroke="#99AABB" stroke-width="0.3"/>
  <polygon points="479.35,257.50 509.66,275.00 509.66,310.00 479.35,327.50 449.04,310.00 449.04,275.00" fill="#B5CCE0" stroke="#99AABB" stroke-width="0.3"/>
  <polygon points="661.22,257.50 691.53,275.00 691.53,310.00 661.22,327.50 630.91,310.00 630.91,275.00" fill="#A5C8A5" stroke="#666" stroke-width="1.5"/>
  <polygon points="721.84,257.50 752.15,275.00 752.15,310.00 721.84,327.50 691.53,310.00 691.53,275.00" fill="#B5CCE0" stroke="#99AABB" stroke-width="0.3"/>
  <polygon points="782.46,257.50 812.77,275.00 812.77,310.00 782.46,327.50 752.15,310.00 752.15,275.00" fill="#B5CCE0" stroke="#99AABB" stroke-width="0.3"/>
  <polygon points="1146.19,257.50 1176.50,275.00 1176.50,310.00 1146.19,327.50 1115.88,310.00 1115.88,275.00" fill="#B5CCE0" stroke="#99AABB" stroke-width="0.3"/>
  <polygon points="1267.43,257.50 1297.74,275.00 1297.74,310.00 1267.43,327.50 1237.12,310.00 1237.12,275.00" fill="#B5CCE0" stroke="#99AABB" stroke-width="0.3"/>
  <polygon points="1328.06,257.50 1358.37,275.00 1358.37,310.00 1328.06,327.50 1297.74,310.00 1297.74,275.00" fill="#B5CCE0" stroke="#99AABB" stroke-width="0.3"/>
  <polygon points="1388.68,257.50 1418.99,275.00 1418.99,310.00 1388.68,327.50 1358.37,310.00 1358.37,275.00" fill="#B5CCE0" stroke="#99AABB" stroke-width="0.3"/>
  <polygon points="327.80,310.00 358.11,327.50 358.11,362.50 327.80,380.00 297.49,362.50 297.49,327.50" fill="#B5CCE0" stroke="#99AABB" stroke-width="0.3"/>
  <polygon points="388.42,310.00 418.73,327.50 418.73,362.50 388.42,380.00 358.11,362.50 358.11,327.50" fill="#B5CCE0" stroke="#99AABB" stroke-width="0.3"/>
  <polygon points="449.04,310.00 479.35,327.50 479.35,362.50 449.04,380.00 418.73,362.50 418.73,327.50" fill="#B5CCE0" stroke="#99AABB" stroke-width="0.3"/>
  <polygon points="752.15,310.00 782.46,327.50 782.46,362.50 752.15,380.00 721.84,362.50 721.84,327.50" fill="#B5CCE0" stroke="#99AABB" stroke-width="0.3"/>
  <polygon points="1176.50,310.00 1206.81,327.50 1206.81,362.50 1176.50,380.00 1146.19,362.50 1146.19,327.50" fill="#B5CCE0" stroke="#99AABB" stroke-width="0.3"/>
  <polygon points="1237.12,310.00 1267.43,327.50 1267.43,362.50 1237.12,380.00 1206.81,362.50 1206.81,327.50" fill="#B5CCE0" stroke="#99AABB" stroke-width="0.3"/>
  <polygon points="1297.74,310.00 1328.06,327.50 1328.06,362.50 1297.74,380.00 1267.43,362.50 1267.43,327.50" fill="#B5CCE0" stroke="#99AABB" stroke-width="0.3"/>
  <polygon points="1358.37,310.00 1388.68,327.50 1388.68,362.50 1358.37,380.00 1328.06,362.50 1328.06,327.50" fill="#B5CCE0" stroke="#99AABB" stroke-width="0.3"/>
  <polygon points="1418.99,310.00 1449.30,327.50 1449.30,362.50 1418.99,380.00 1388.68,362.50 1388.68,327.50" fill="#B5CCE0" stroke="#99AABB" stroke-width="0.3"/>
  <polygon points="115.62,362.50 145.93,380.00 145.93,415.00 115.62,432.50 85.31,415.00 85.31,380.00" fill="#B5CCE0" stroke="#99AABB" stroke-width="0.3"/>
  <polygon points="297.49,362.50 327.80,380.00 327.80,415.00 297.49,432.50 267.17,415.00 267.17,380.00" fill="#B5CCE0" stroke="#99AABB" stroke-width="0.3"/>
  <polygon points="358.11,362.50 388.42,380.00 388.42,415.00 358.11,432.50 327.80,415.00 327.80,380.00" fill="#B5CCE0" stroke="#99AABB" stroke-width="0.3"/>
  <polygon points="418.73,362.50 449.04,380.00 449.04,415.00 418.73,432.50 388.42,415.00 388.42,380.00" fill="#B5CCE0" stroke="#99AABB" stroke-width="0.3"/>
  <polygon points="539.97,362.50 570.28,380.00 570.28,415.00 539.97,432.50 509.66,415.00 509.66,380.00" fill="#B5CCE0" stroke="#99AABB" stroke-width="0.3"/>
  <polygon points="843.08,362.50 873.39,380.00 873.39,415.00 843.08,432.50 812.77,415.00 812.77,380.00" fill="#B5CCE0" stroke="#99AABB" stroke-width="0.3"/>
  <polygon points="903.70,362.50 934.01,380.00 934.01,415.00 903.70,432.50 873.39,415.00 873.39,380.00" fill="#D4B5A5" stroke="#666" stroke-width="1.5"/>
  <polygon points="964.32,362.50 994.64,380.00 994.64,415.00 964.32,432.50 934.01,415.00 934.01,380.00" fill="#B5CCE0" stroke="#99AABB" stroke-width="0.3"/>
  <polygon points="1024.95,362.50 1055.26,380.00 1055.26,415.00 1024.95,432.50 994.64,415.00 994.64,380.00" fill="#E8D5A3" stroke="#666" stroke-width="1.5"/>
  <polygon points="1146.19,362.50 1176.50,380.00 1176.50,415.00 1146.19,432.50 1115.88,415.00 1115.88,380.00" fill="#B5CCE0" stroke="#99AABB" stroke-width="0.3"/>
  <polygon points="1206.81,362.50 1237.12,380.00 1237.12,415.00 1206.81,432.50 1176.50,415.00 1176.50,380.00" fill="#B5CCE0" stroke="#99AABB" stroke-width="0.3"/>
  <polygon points="1267.43,362.50 1297.74,380.00 1297.74,415.00 1267.43,432.50 1237.12,415.00 1237.12,380.00" fill="#B5CCE0" stroke="#99AABB" stroke-width="0.3"/>
  <polygon points="1328.06,362.50 1358.37,380.00 1358.37,415.00 1328.06,432.50 1297.74,415.00 1297.74,380.00" fill="#B5CCE0" stroke="#99AABB" stroke-width="0.3"/>
  <polygon points="1388.68,362.50 1418.99,380.00 1418.99,415.00 1388.68,432.50 1358.37,415.00 1358.37,380.00" fill="#B5CCE0" stroke="#99AABB" stroke-width="0.3"/>
  <polygon points="145.93,415.00 176.24,432.50 176.24,467.50 145.93,485.00 115.62,467.50 115.62,432.50" fill="#B5CCE0" stroke="#99AABB" stroke-width="0.3"/>
  <polygon points="267.17,415.00 297.49,432.50 297.49,467.50 267.17,485.00 236.86,467.50 236.86,432.50" fill="#B5CCE0" stroke="#99AABB" stroke-width="0.3"/>
  <polygon points="327.80,415.00 358.11,432.50 358.11,467.50 327.80,485.00 297.49,467.50 297.49,432.50" fill="#B5CCE0" stroke="#99AABB" stroke-width="0.3"/>
  <polygon points="388.42,415.00 418.73,432.50 418.73,467.50 388.42,485.00 358.11,467.50 358.11,432.50" fill="#B5CCE0" stroke="#99AABB" stroke-width="0.3"/>
  <polygon points="449.04,415.00 479.35,432.50 479.35,467.50 449.04,485.00 418.73,467.50 418.73,432.50" fill="#B5CCE0" stroke="#99AABB" stroke-width="0.3"/>
  <polygon points="509.66,415.00 539.97,432.50 539.97,467.50 509.66,485.00 479.35,467.50 479.35,432.50" fill="#B5CCE0" stroke="#99AABB" stroke-width="0.3"/>
  <polygon points="570.28,415.00 600.59,432.50 600.59,467.50 570.28,485.00 539.97,467.50 539.97,432.50" fill="#B5CCE0" stroke="#99AABB" stroke-width="0.3"/>
  <polygon points="812.77,415.00 843.08,432.50 843.08,467.50 812.77,485.00 782.46,467.50 782.46,432.50" fill="#B5CCE0" stroke="#99AABB" stroke-width="0.3"/>
  <polygon points="873.39,415.00 903.70,432.50 903.70,467.50 873.39,485.00 843.08,467.50 843.08,432.50" fill="#B5CCE0" stroke="#99AABB" stroke-width="0.3"/>
  <polygon points="934.01,415.00 964.32,432.50 964.32,467.50 934.01,485.00 903.70,467.50 903.70,432.50" fill="#B5CCE0" stroke="#99AABB" stroke-width="0.3"/>
  <polygon points="994.64,415.00 1024.95,432.50 1024.95,467.50 994.64,485.00 964.32,467.50 964.32,432.50" fill="#B5CCE0" stroke="#99AABB" stroke-width="0.3"/>
  <polygon points="1055.26,415.00 1085.57,432.50 1085.57,467.50 1055.26,485.00 1024.95,467.50 1024.95,432.50" fill="#B5CCE0" stroke="#99AABB" stroke-width="0.3"/>
  <polygon points="1176.50,415.00 1206.81,432.50 1206.81,467.50 1176.50,485.00 1146.19,467.50 1146.19,432.50" fill="#B5CCE0" stroke="#99AABB" stroke-width="0.3"/>
  <polygon points="1237.12,415.00 1267.43,432.50 1267.43,467.50 1237.12,485.00 1206.81,467.50 1206.81,432.50" fill="#B5CCE0" stroke="#99AABB" stroke-width="0.3"/>
  <polygon points="1297.74,415.00 1328.06,432.50 1328.06,467.50 1297.74,485.00 1267.43,467.50 1267.43,432.50" fill="#B5CCE0" stroke="#99AABB" stroke-width="0.3"/>
  <polygon points="1358.37,415.00 1388.68,432.50 1388.68,467.50 1358.37,485.00 1328.06,467.50 1328.06,432.50" fill="#B5CCE0" stroke="#99AABB" stroke-width="0.3"/>
  <polygon points="1418.99,415.00 1449.30,432.50 1449.30,467.50 1418.99,485.00 1388.68,467.50 1388.68,432.50" fill="#B5CCE0" stroke="#99AABB" stroke-width="0.3"/>
  <polygon points="115.62,467.50 145.93,485.00 145.93,520.00 115.62,537.50 85.31,520.00 85.31,485.00" fill="#B5CCE0" stroke="#99AABB" stroke-width="0.3"/>
  <polygon points="176.24,467.50 206.55,485.00 206.55,520.00 176.24,537.50 145.93,520.00 145.93,485.00" fill="#B5CCE0" stroke="#99AABB" stroke-width="0.3"/>
  <polygon points="297.49,467.50 327.80,485.00 327.80,520.00 297.49,537.50 267.17,520.00 267.17,485.00" fill="#B5CCE0" stroke="#99AABB" stroke-width="0.3"/>
  <polygon points="358.11,467.50 388.42,485.00 388.42,520.00 358.11,537.50 327.80,520.00 327.80,485.00" fill="#B5CCE0" stroke="#99AABB" stroke-width="0.3"/>
  <polygon points="418.73,467.50 449.04,485.00 449.04,520.00 418.73,537.50 388.42,520.00 388.42,485.00" fill="#B5CCE0" stroke="#99AABB" stroke-width="0.3"/>
  <polygon points="479.35,467.50 509.66,485.00 509.66,520.00 479.35,537.50 449.04,520.00 449.04,485.00" fill="#B5CCE0" stroke="#99AABB" stroke-width="0.3"/>
  <polygon points="539.97,467.50 570.28,485.00 570.28,520.00 539.97,537.50 509.66,520.00 509.66,485.00" fill="#B5CCE0" stroke="#99AABB" stroke-width="0.3"/>
  <polygon points="661.22,467.50 691.53,485.00 691.53,520.00 661.22,537.50 630.91,520.00 630.91,485.00" fill="#B5CCE0" stroke="#99AABB" stroke-width="0.3"/>
  <polygon points="782.46,467.50 812.77,485.00 812.77,520.00 782.46,537.50 752.15,520.00 752.15,485.00" fill="#B5CCE0" stroke="#99AABB" stroke-width="0.3"/>
  <polygon points="843.08,467.50 873.39,485.00 873.39,520.00 843.08,537.50 812.77,520.00 812.77,485.00" fill="#B5CCE0" stroke="#99AABB" stroke-width="0.3"/>
  <polygon points="903.70,467.50 934.01,485.00 934.01,520.00 903.70,537.50 873.39,520.00 873.39,485.00" fill="#B5CCE0" stroke="#99AABB" stroke-width="0.3"/>
  <polygon points="964.32,467.50 994.64,485.00 994.64,520.00 964.32,537.50 934.01,520.00 934.01,485.00" fill="#B5CCE0" stroke="#99AABB" stroke-width="0.3"/>
  <polygon points="1024.95,467.50 1055.26,485.00 1055.26,520.00 1024.95,537.50 994.64,520.00 994.64,485.00" fill="#B5CCE0" stroke="#99AABB" stroke-width="0.3"/>
  <polygon points="1085.57,467.50 1115.88,485.00 1115.88,520.00 1085.57,537.50 1055.26,520.00 1055.26,485.00" fill="#B5CCE0" stroke="#99AABB" stroke-width="0.3"/>
  <polygon points="1146.19,467.50 1176.50,485.00 1176.50,520.00 1146.19,537.50 1115.88,520.00 1115.88,485.00" fill="#B5CCE0" stroke="#99AABB" stroke-width="0.3"/>
  <polygon points="1206.81,467.50 1237.12,485.00 1237.12,520.00 1206.81,537.50 1176.50,520.00 1176.50,485.00" fill="#B5CCE0" stroke="#99AABB" stroke-width="0.3"/>
  <polygon points="1267.43,467.50 1297.74,485.00 1297.74,520.00 1267.43,537.50 1237.12,520.00 1237.12,485.00" fill="#B5CCE0" stroke="#99AABB" stroke-width="0.3"/>
  <polygon points="1328.06,467.50 1358.37,485.00 1358.37,520.00 1328.06,537.50 1297.74,520.00 1297.74,485.00" fill="#B5CCE0" stroke="#99AABB" stroke-width="0.3"/>
  <polygon points="1388.68,467.50 1418.99,485.00 1418.99,520.00 1388.68,537.50 1358.37,520.00 1358.37,485.00" fill="#B5CCE0" stroke="#99AABB" stroke-width="0.3"/>
  <polygon points="145.93,520.00 176.24,537.50 176.24,572.50 145.93,590.00 115.62,572.50 115.62,537.50" fill="#B5CCE0" stroke="#99AABB" stroke-width="0.3"/>
  <polygon points="206.55,520.00 236.86,537.50 236.86,572.50 206.55,590.00 176.24,572.50 176.24,537.50" fill="#B5CCE0" stroke="#99AABB" stroke-width="0.3"/>
  <polygon points="327.80,520.00 358.11,537.50 358.11,572.50 327.80,590.00 297.49,572.50 297.49,537.50" fill="#B5CCE0" stroke="#99AABB" stroke-width="0.3"/>
  <polygon points="388.42,520.00 418.73,537.50 418.73,572.50 388.42,590.00 358.11,572.50 358.11,537.50" fill="#B5CCE0" stroke="#99AABB" stroke-width="0.3"/>
  <polygon points="449.04,520.00 479.35,537.50 479.35,572.50 449.04,590.00 418.73,572.50 418.73,537.50" fill="#B5CCE0" stroke="#99AABB" stroke-width="0.3"/>
  <polygon points="509.66,520.00 539.97,537.50 539.97,572.50 509.66,590.00 479.35,572.50 479.35,537.50" fill="#B5CCE0" stroke="#99AABB" stroke-width="0.3"/>
  <polygon points="570.28,520.00 600.59,537.50 600.59,572.50 570.28,590.00 539.97,572.50 539.97,537.50" fill="#B5CCE0" stroke="#99AABB" stroke-width="0.3"/>
  <polygon points="630.91,520.00 661.22,537.50 661.22,572.50 630.91,590.00 600.59,572.50 600.59,537.50" fill="#B5CCE0" stroke="#99AABB" stroke-width="0.3"/>
  <polygon points="691.53,520.00 721.84,537.50 721.84,572.50 691.53,590.00 661.22,572.50 661.22,537.50" fill="#B5CCE0" stroke="#99AABB" stroke-width="0.3"/>
  <polygon points="752.15,520.00 782.46,537.50 782.46,572.50 752.15,590.00 721.84,572.50 721.84,537.50" fill="#B5CCE0" stroke="#99AABB" stroke-width="0.3"/>
  <polygon points="812.77,520.00 843.08,537.50 843.08,572.50 812.77,590.00 782.46,572.50 782.46,537.50" fill="#B5CCE0" stroke="#99AABB" stroke-width="0.3"/>
  <polygon points="873.39,520.00 903.70,537.50 903.70,572.50 873.39,590.00 843.08,572.50 843.08,537.50" fill="#B5CCE0" stroke="#99AABB" stroke-width="0.3"/>
  <polygon points="934.01,520.00 964.32,537.50 964.32,572.50 934.01,590.00 903.70,572.50 903.70,537.50" fill="#B5CCE0" stroke="#99AABB" stroke-width="0.3"/>
  <polygon points="994.64,520.00 1024.95,537.50 1024.95,572.50 994.64,590.00 964.32,572.50 964.32,537.50" fill="#B5CCE0" stroke="#99AABB" stroke-width="0.3"/>
  <polygon points="1055.26,520.00 1085.57,537.50 1085.57,572.50 1055.26,590.00 1024.95,572.50 1024.95,537.50" fill="#B5CCE0" stroke="#99AABB" stroke-width="0.3"/>
  <polygon points="1115.88,520.00 1146.19,537.50 1146.19,572.50 1115.88,590.00 1085.57,572.50 1085.57,537.50" fill="#B5CCE0" stroke="#99AABB" stroke-width="0.3"/>
  <polygon points="1176.50,520.00 1206.81,537.50 1206.81,572.50 1176.50,590.00 1146.19,572.50 1146.19,537.50" fill="#B5CCE0" stroke="#99AABB" stroke-width="0.3"/>
  <polygon points="1237.12,520.00 1267.43,537.50 1267.43,572.50 1237.12,590.00 1206.81,572.50 1206.81,537.50" fill="#B5CCE0" stroke="#99AABB" stroke-width="0.3"/>
  <polygon points="1297.74,520.00 1328.06,537.50 1328.06,572.50 1297.74,590.00 1267.43,572.50 1267.43,537.50" fill="#B5CCE0" stroke="#99AABB" stroke-width="0.3"/>
  <polygon points="1358.37,520.00 1388.68,537.50 1388.68,572.50 1358.37,590.00 1328.06,572.50 1328.06,537.50" fill="#B5CCE0" stroke="#99AABB" stroke-width="0.3"/>
  <polygon points="1418.99,520.00 1449.30,537.50 1449.30,572.50 1418.99,590.00 1388.68,572.50 1388.68,537.50" fill="#B5CCE0" stroke="#99AABB" stroke-width="0.3"/>
  <polygon points="115.62,572.50 145.93,590.00 145.93,625.00 115.62,642.50 85.31,625.00 85.31,590.00" fill="#B5CCE0" stroke="#99AABB" stroke-width="0.3"/>
  <polygon points="176.24,572.50 206.55,590.00 206.55,625.00 176.24,642.50 145.93,625.00 145.93,590.00" fill="#B5CCE0" stroke="#99AABB" stroke-width="0.3"/>
  <polygon points="236.86,572.50 267.17,590.00 267.17,625.00 236.86,642.50 206.55,625.00 206.55,590.00" fill="#B5CCE0" stroke="#99AABB" stroke-width="0.3"/>
  <polygon points="297.49,572.50 327.80,590.00 327.80,625.00 297.49,642.50 267.17,625.00 267.17,590.00" fill="#B5CCE0" stroke="#99AABB" stroke-width="0.3"/>
  <polygon points="358.11,572.50 388.42,590.00 388.42,625.00 358.11,642.50 327.80,625.00 327.80,590.00" fill="#B5CCE0" stroke="#99AABB" stroke-width="0.3"/>
  <polygon points="418.73,572.50 449.04,590.00 449.04,625.00 418.73,642.50 388.42,625.00 388.42,590.00" fill="#B5CCE0" stroke="#99AABB" stroke-width="0.3"/>
  <polygon points="479.35,572.50 509.66,590.00 509.66,625.00 479.35,642.50 449.04,625.00 449.04,590.00" fill="#B5CCE0" stroke="#99AABB" stroke-width="0.3"/>
  <polygon points="539.97,572.50 570.28,590.00 570.28,625.00 539.97,642.50 509.66,625.00 509.66,590.00" fill="#B5CCE0" stroke="#99AABB" stroke-width="0.3"/>
  <polygon points="600.59,572.50 630.91,590.00 630.91,625.00 600.59,642.50 570.28,625.00 570.28,590.00" fill="#B5CCE0" stroke="#99AABB" stroke-width="0.3"/>
  <polygon points="661.22,572.50 691.53,590.00 691.53,625.00 661.22,642.50 630.91,625.00 630.91,590.00" fill="#B5CCE0" stroke="#99AABB" stroke-width="0.3"/>
  <polygon points="721.84,572.50 752.15,590.00 752.15,625.00 721.84,642.50 691.53,625.00 691.53,590.00" fill="#B5CCE0" stroke="#99AABB" stroke-width="0.3"/>
  <polygon points="782.46,572.50 812.77,590.00 812.77,625.00 782.46,642.50 752.15,625.00 752.15,590.00" fill="#B5CCE0" stroke="#99AABB" stroke-width="0.3"/>
  <polygon points="843.08,572.50 873.39,590.00 873.39,625.00 843.08,642.50 812.77,625.00 812.77,590.00" fill="#B5CCE0" stroke="#99AABB" stroke-width="0.3"/>
  <polygon points="903.70,572.50 934.01,590.00 934.01,625.00 903.70,642.50 873.39,625.00 873.39,590.00" fill="#B5CCE0" stroke="#99AABB" stroke-width="0.3"/>
  <polygon points="964.32,572.50 994.64,590.00 994.64,625.00 964.32,642.50 934.01,625.00 934.01,590.00" fill="#B5CCE0" stroke="#99AABB" stroke-width="0.3"/>
  <polygon points="1024.95,572.50 1055.26,590.00 1055.26,625.00 1024.95,642.50 994.64,625.00 994.64,590.00" fill="#B5CCE0" stroke="#99AABB" stroke-width="0.3"/>
  <polygon points="1085.57,572.50 1115.88,590.00 1115.88,625.00 1085.57,642.50 1055.26,625.00 1055.26,590.00" fill="#B5CCE0" stroke="#99AABB" stroke-width="0.3"/>
  <polygon points="1146.19,572.50 1176.50,590.00 1176.50,625.00 1146.19,642.50 1115.88,625.00 1115.88,590.00" fill="#B5CCE0" stroke="#99AABB" stroke-width="0.3"/>
  <polygon points="1206.81,572.50 1237.12,590.00 1237.12,625.00 1206.81,642.50 1176.50,625.00 1176.50,590.00" fill="#B5CCE0" stroke="#99AABB" stroke-width="0.3"/>
  <polygon points="1267.43,572.50 1297.74,590.00 1297.74,625.00 1267.43,642.50 1237.12,625.00 1237.12,590.00" fill="#B5CCE0" stroke="#99AABB" stroke-width="0.3"/>
  <polygon points="1328.06,572.50 1358.37,590.00 1358.37,625.00 1328.06,642.50 1297.74,625.00 1297.74,590.00" fill="#B5CCE0" stroke="#99AABB" stroke-width="0.3"/>
  <polygon points="1388.68,572.50 1418.99,590.00 1418.99,625.00 1388.68,642.50 1358.37,625.00 1358.37,590.00" fill="#B5CCE0" stroke="#99AABB" stroke-width="0.3"/>
  <polygon points="145.93,625.00 176.24,642.50 176.24,677.50 145.93,695.00 115.62,677.50 115.62,642.50" fill="#B5CCE0" stroke="#99AABB" stroke-width="0.3"/>
  <polygon points="206.55,625.00 236.86,642.50 236.86,677.50 206.55,695.00 176.24,677.50 176.24,642.50" fill="#B5CCE0" stroke="#99AABB" stroke-width="0.3"/>
  <polygon points="267.17,625.00 297.49,642.50 297.49,677.50 267.17,695.00 236.86,677.50 236.86,642.50" fill="#B5CCE0" stroke="#99AABB" stroke-width="0.3"/>
  <polygon points="327.80,625.00 358.11,642.50 358.11,677.50 327.80,695.00 297.49,677.50 297.49,642.50" fill="#B5CCE0" stroke="#99AABB" stroke-width="0.3"/>
  <polygon points="388.42,625.00 418.73,642.50 418.73,677.50 388.42,695.00 358.11,677.50 358.11,642.50" fill="#B5CCE0" stroke="#99AABB" stroke-width="0.3"/>
  <polygon points="449.04,625.00 479.35,642.50 479.35,677.50 449.04,695.00 418.73,677.50 418.73,642.50" fill="#B5CCE0" stroke="#99AABB" stroke-width="0.3"/>
  <polygon points="509.66,625.00 539.97,642.50 539.97,677.50 509.66,695.00 479.35,677.50 479.35,642.50" fill="#B5CCE0" stroke="#99AABB" stroke-width="0.3"/>
  <polygon points="570.28,625.00 600.59,642.50 600.59,677.50 570.28,695.00 539.97,677.50 539.97,642.50" fill="#B5CCE0" stroke="#99AABB" stroke-width="0.3"/>
  <polygon points="630.91,625.00 661.22,642.50 661.22,677.50 630.91,695.00 600.59,677.50 600.59,642.50" fill="#B5CCE0" stroke="#99AABB" stroke-width="0.3"/>
  <polygon points="691.53,625.00 721.84,642.50 721.84,677.50 691.53,695.00 661.22,677.50 661.22,642.50" fill="#B5CCE0" stroke="#99AABB" stroke-width="0.3"/>
  <polygon points="752.15,625.00 782.46,642.50 782.46,677.50 752.15,695.00 721.84,677.50 721.84,642.50" fill="#B5CCE0" stroke="#99AABB" stroke-width="0.3"/>
  <polygon points="812.77,625.00 843.08,642.50 843.08,677.50 812.77,695.00 782.46,677.50 782.46,642.50" fill="#B5CCE0" stroke="#99AABB" stroke-width="0.3"/>
  <polygon points="873.39,625.00 903.70,642.50 903.70,677.50 873.39,695.00 843.08,677.50 843.08,642.50" fill="#B5CCE0" stroke="#99AABB" stroke-width="0.3"/>
  <polygon points="934.01,625.00 964.32,642.50 964.32,677.50 934.01,695.00 903.70,677.50 903.70,642.50" fill="#B5CCE0" stroke="#99AABB" stroke-width="0.3"/>
  <polygon points="994.64,625.00 1024.95,642.50 1024.95,677.50 994.64,695.00 964.32,677.50 964.32,642.50" fill="#B5CCE0" stroke="#99AABB" stroke-width="0.3"/>
  <polygon points="1055.26,625.00 1085.57,642.50 1085.57,677.50 1055.26,695.00 1024.95,677.50 1024.95,642.50" fill="#B5CCE0" stroke="#99AABB" stroke-width="0.3"/>
  <polygon points="1115.88,625.00 1146.19,642.50 1146.19,677.50 1115.88,695.00 1085.57,677.50 1085.57,642.50" fill="#B5CCE0" stroke="#99AABB" stroke-width="0.3"/>
  <polygon points="1176.50,625.00 1206.81,642.50 1206.81,677.50 1176.50,695.00 1146.19,677.50 1146.19,642.50" fill="#B5CCE0" stroke="#99AABB" stroke-width="0.3"/>
  <polygon points="1237.12,625.00 1267.43,642.50 1267.43,677.50 1237.12,695.00 1206.81,677.50 1206.81,642.50" fill="#B5CCE0" stroke="#99AABB" stroke-width="0.3"/>
  <polygon points="1297.74,625.00 1328.06,642.50 1328.06,677.50 1297.74,695.00 1267.43,677.50 1267.43,642.50" fill="#B5CCE0" stroke="#99AABB" stroke-width="0.3"/>
  <polygon points="1358.37,625.00 1388.68,642.50 1388.68,677.50 1358.37,695.00 1328.06,677.50 1328.06,642.50" fill="#B5CCE0" stroke="#99AABB" stroke-width="0.3"/>
  <polygon points="1418.99,625.00 1449.30,642.50 1449.30,677.50 1418.99,695.00 1388.68,677.50 1388.68,642.50" fill="#B5CCE0" stroke="#99AABB" stroke-width="0.3"/>
  <polygon points="115.62,677.50 145.93,695.00 145.93,730.00 115.62,747.50 85.31,730.00 85.31,695.00" fill="#B5CCE0" stroke="#99AABB" stroke-width="0.3"/>
  <polygon points="176.24,677.50 206.55,695.00 206.55,730.00 176.24,747.50 145.93,730.00 145.93,695.00" fill="#B5CCE0" stroke="#99AABB" stroke-width="0.3"/>
  <polygon points="236.86,677.50 267.17,695.00 267.17,730.00 236.86,747.50 206.55,730.00 206.55,695.00" fill="#B5CCE0" stroke="#99AABB" stroke-width="0.3"/>
  <polygon points="297.49,677.50 327.80,695.00 327.80,730.00 297.49,747.50 267.17,730.00 267.17,695.00" fill="#B5CCE0" stroke="#99AABB" stroke-width="0.3"/>
  <polygon points="358.11,677.50 388.42,695.00 388.42,730.00 358.11,747.50 327.80,730.00 327.80,695.00" fill="#B5CCE0" stroke="#99AABB" stroke-width="0.3"/>
  <polygon points="418.73,677.50 449.04,695.00 449.04,730.00 418.73,747.50 388.42,730.00 388.42,695.00" fill="#B5CCE0" stroke="#99AABB" stroke-width="0.3"/>
  <polygon points="479.35,677.50 509.66,695.00 509.66,730.00 479.35,747.50 449.04,730.00 449.04,695.00" fill="#B5CCE0" stroke="#99AABB" stroke-width="0.3"/>
  <polygon points="539.97,677.50 570.28,695.00 570.28,730.00 539.97,747.50 509.66,730.00 509.66,695.00" fill="#B5CCE0" stroke="#99AABB" stroke-width="0.3"/>
  <polygon points="600.59,677.50 630.91,695.00 630.91,730.00 600.59,747.50 570.28,730.00 570.28,695.00" fill="#B5CCE0" stroke="#99AABB" stroke-width="0.3"/>
  <polygon points="661.22,677.50 691.53,695.00 691.53,730.00 661.22,747.50 630.91,730.00 630.91,695.00" fill="#B5CCE0" stroke="#99AABB" stroke-width="0.3"/>
  <polygon points="721.84,677.50 752.15,695.00 752.15,730.00 721.84,747.50 691.53,730.00 691.53,695.00" fill="#B5CCE0" stroke="#99AABB" stroke-width="0.3"/>
  <polygon points="782.46,677.50 812.77,695.00 812.77,730.00 782.46,747.50 752.15,730.00 752.15,695.00" fill="#B5CCE0" stroke="#99AABB" stroke-width="0.3"/>
  <polygon points="843.08,677.50 873.39,695.00 873.39,730.00 843.08,747.50 812.77,730.00 812.77,695.00" fill="#B5CCE0" stroke="#99AABB" stroke-width="0.3"/>
  <polygon points="903.70,677.50 934.01,695.00 934.01,730.00 903.70,747.50 873.39,730.00 873.39,695.00" fill="#B5CCE0" stroke="#99AABB" stroke-width="0.3"/>
  <polygon points="964.32,677.50 994.64,695.00 994.64,730.00 964.32,747.50 934.01,730.00 934.01,695.00" fill="#B5CCE0" stroke="#99AABB" stroke-width="0.3"/>
  <polygon points="1024.95,677.50 1055.26,695.00 1055.26,730.00 1024.95,747.50 994.64,730.00 994.64,695.00" fill="#B5CCE0" stroke="#99AABB" stroke-width="0.3"/>
  <polygon points="1085.57,677.50 1115.88,695.00 1115.88,730.00 1085.57,747.50 1055.26,730.00 1055.26,695.00" fill="#B5CCE0" stroke="#99AABB" stroke-width="0.3"/>
  <polygon points="1146.19,677.50 1176.50,695.00 1176.50,730.00 1146.19,747.50 1115.88,730.00 1115.88,695.00" fill="#B5CCE0" stroke="#99AABB" stroke-width="0.3"/>
  <polygon points="1206.81,677.50 1237.12,695.00 1237.12,730.00 1206.81,747.50 1176.50,730.00 1176.50,695.00" fill="#B5CCE0" stroke="#99AABB" stroke-width="0.3"/>
  <polygon points="1267.43,677.50 1297.74,695.00 1297.74,730.00 1267.43,747.50 1237.12,730.00 1237.12,695.00" fill="#B5CCE0" stroke="#99AABB" stroke-width="0.3"/>
  <polygon points="1328.06,677.50 1358.37,695.00 1358.37,730.00 1328.06,747.50 1297.74,730.00 1297.74,695.00" fill="#B5CCE0" stroke="#99AABB" stroke-width="0.3"/>
  <polygon points="1388.68,677.50 1418.99,695.00 1418.99,730.00 1388.68,747.50 1358.37,730.00 1358.37,695.00" fill="#B5CCE0" stroke="#99AABB" stroke-width="0.3"/>
  <polygon points="145.93,730.00 176.24,747.50 176.24,782.50 145.93,800.00 115.62,782.50 115.62,747.50" fill="#B5CCE0" stroke="#99AABB" stroke-width="0.3"/>
  <polygon points="206.55,730.00 236.86,747.50 236.86,782.50 206.55,800.00 176.24,782.50 176.24,747.50" fill="#B5CCE0" stroke="#99AABB" stroke-width="0.3"/>
  <polygon points="267.17,730.00 297.49,747.50 297.49,782.50 267.17,800.00 236.86,782.50 236.86,747.50" fill="#B5CCE0" stroke="#99AABB" stroke-width="0.3"/>
  <polygon points="327.80,730.00 358.11,747.50 358.11,782.50 327.80,800.00 297.49,782.50 297.49,747.50" fill="#B5CCE0" stroke="#99AABB" stroke-width="0.3"/>
  <polygon points="388.42,730.00 418.73,747.50 418.73,782.50 388.42,800.00 358.11,782.50 358.11,747.50" fill="#B5CCE0" stroke="#99AABB" stroke-width="0.3"/>
  <polygon points="449.04,730.00 479.35,747.50 479.35,782.50 449.04,800.00 418.73,782.50 418.73,747.50" fill="#B5CCE0" stroke="#99AABB" stroke-width="0.3"/>
  <polygon points="509.66,730.00 539.97,747.50 539.97,782.50 509.66,800.00 479.35,782.50 479.35,747.50" fill="#B5CCE0" stroke="#99AABB" stroke-width="0.3"/>
  <polygon points="570.28,730.00 600.59,747.50 600.59,782.50 570.28,800.00 539.97,782.50 539.97,747.50" fill="#B5CCE0" stroke="#99AABB" stroke-width="0.3"/>
  <polygon points="630.91,730.00 661.22,747.50 661.22,782.50 630.91,800.00 600.59,782.50 600.59,747.50" fill="#B5CCE0" stroke="#99AABB" stroke-width="0.3"/>
  <polygon points="691.53,730.00 721.84,747.50 721.84,782.50 691.53,800.00 661.22,782.50 661.22,747.50" fill="#B5CCE0" stroke="#99AABB" stroke-width="0.3"/>
  <polygon points="752.15,730.00 782.46,747.50 782.46,782.50 752.15,800.00 721.84,782.50 721.84,747.50" fill="#B5CCE0" stroke="#99AABB" stroke-width="0.3"/>
  <polygon points="812.77,730.00 843.08,747.50 843.08,782.50 812.77,800.00 782.46,782.50 782.46,747.50" fill="#B5CCE0" stroke="#99AABB" stroke-width="0.3"/>
  <polygon points="873.39,730.00 903.70,747.50 903.70,782.50 873.39,800.00 843.08,782.50 843.08,747.50" fill="#B5CCE0" stroke="#99AABB" stroke-width="0.3"/>
  <polygon points="934.01,730.00 964.32,747.50 964.32,782.50 934.01,800.00 903.70,782.50 903.70,747.50" fill="#B5CCE0" stroke="#99AABB" stroke-width="0.3"/>
  <polygon points="994.64,730.00 1024.95,747.50 1024.95,782.50 994.64,800.00 964.32,782.50 964.32,747.50" fill="#B5CCE0" stroke="#99AABB" stroke-width="0.3"/>
  <polygon points="1055.26,730.00 1085.57,747.50 1085.57,782.50 1055.26,800.00 1024.95,782.50 1024.95,747.50" fill="#B5CCE0" stroke="#99AABB" stroke-width="0.3"/>
  <polygon points="1115.88,730.00 1146.19,747.50 1146.19,782.50 1115.88,800.00 1085.57,782.50 1085.57,747.50" fill="#B5CCE0" stroke="#99AABB" stroke-width="0.3"/>
  <polygon points="1176.50,730.00 1206.81,747.50 1206.81,782.50 1176.50,800.00 1146.19,782.50 1146.19,747.50" fill="#B5CCE0" stroke="#99AABB" stroke-width="0.3"/>
  <polygon points="1237.12,730.00 1267.43,747.50 1267.43,782.50 1237.12,800.00 1206.81,782.50 1206.81,747.50" fill="#B5CCE0" stroke="#99AABB" stroke-width="0.3"/>
  <polygon points="1297.74,730.00 1328.06,747.50 1328.06,782.50 1297.74,800.00 1267.43,782.50 1267.43,747.50" fill="#B5CCE0" stroke="#99AABB" stroke-width="0.3"/>
  <polygon points="1358.37,730.00 1388.68,747.50 1388.68,782.50 1358.37,800.00 1328.06,782.50 1328.06,747.50" fill="#B5CCE0" stroke="#99AABB" stroke-width="0.3"/>
  <polygon points="1418.99,730.00 1449.30,747.50 1449.30,782.50 1418.99,800.00 1388.68,782.50 1388.68,747.50" fill="#B5CCE0" stroke="#99AABB" stroke-width="0.3"/>
  <!-- CHOKEPOINTS -->
  <polygon points="1085.57,362.50 1115.88,380.00 1115.88,415.00 1085.57,432.50 1055.26,415.00 1055.26,380.00" fill="#B5CCE0" stroke="#D4880F" stroke-width="3"/>
  <polygon points="752.15,415.00 782.46,432.50 782.46,467.50 752.15,485.00 721.84,467.50 721.84,432.50" fill="#B5CCE0" stroke="#D4880F" stroke-width="3"/>
  <polygon points="236.86,467.50 267.17,485.00 267.17,520.00 236.86,537.50 206.55,520.00 206.55,485.00" fill="#B5CCE0" stroke="#D4880F" stroke-width="3"/>
  <!-- LAND -->
  <polygon points="752.15,100.00 782.46,117.50 782.46,152.50 752.15,170.00 721.84,152.50 721.84,117.50" fill="#D4A5A5" stroke="#666" stroke-width="1.5"/>
  <polygon points="358.11,152.50 388.42,170.00 388.42,205.00 358.11,222.50 327.80,205.00 327.80,170.00" fill="#8FB59A" stroke="#666" stroke-width="1.5"/>
  <polygon points="661.22,152.50 691.53,170.00 691.53,205.00 661.22,222.50 630.91,205.00 630.91,170.00" fill="#B5CCE0" stroke="#99AABB" stroke-width="0.3"/>
  <polygon points="721.84,152.50 752.15,170.00 752.15,205.00 721.84,222.50 691.53,205.00 691.53,170.00" fill="#D4A5A5" stroke="#666" stroke-width="1.5"/>
  <polygon points="782.46,152.50 812.77,170.00 812.77,205.00 782.46,222.50 752.15,205.00 752.15,170.00" fill="#D4A5A5" stroke="#666" stroke-width="1.5"/>
  <polygon points="843.08,152.50 873.39,170.00 873.39,205.00 843.08,222.50 812.77,205.00 812.77,170.00" fill="#D4A5A5" stroke="#666" stroke-width="1.5"/>
  <polygon points="903.70,152.50 934.01,170.00 934.01,205.00 903.70,222.50 873.39,205.00 873.39,170.00" fill="#D4A5A5" stroke="#666" stroke-width="1.5"/>
  <polygon points="1024.95,152.50 1055.26,170.00 1055.26,205.00 1024.95,222.50 994.64,205.00 994.64,170.00" fill="#8A8A8A" stroke="#666" stroke-width="1.5"/>
  <polygon points="570.28,205.00 600.59,222.50 600.59,257.50 570.28,275.00 539.97,257.50 539.97,222.50" fill="#8FB59A" stroke="#666" stroke-width="1.5"/>
  <polygon points="630.91,205.00 661.22,222.50 661.22,257.50 630.91,275.00 600.59,257.50 600.59,222.50" fill="#A5C8A5" stroke="#666" stroke-width="1.5"/>
  <polygon points="691.53,205.00 721.84,222.50 721.84,257.50 691.53,275.00 661.22,257.50 661.22,222.50" fill="#D4A5A5" stroke="#666" stroke-width="1.5"/>
  <polygon points="752.15,205.00 782.46,222.50 782.46,257.50 752.15,275.00 721.84,257.50 721.84,222.50" fill="#D4A5A5" stroke="#666" stroke-width="1.5"/>
  <polygon points="812.77,205.00 843.08,222.50 843.08,257.50 812.77,275.00 782.46,257.50 782.46,222.50" fill="#C8C8A5" stroke="#666" stroke-width="1.5"/>
  <polygon points="873.39,205.00 903.70,222.50 903.70,257.50 873.39,275.00 843.08,257.50 843.08,222.50" fill="#C8C8A5" stroke="#666" stroke-width="1.5"/>
  <polygon points="934.01,205.00 964.32,222.50 964.32,257.50 934.01,275.00 903.70,257.50 903.70,222.50" fill="#E8D5A3" stroke="#666" stroke-width="1.5"/>
  <polygon points="1055.26,205.00 1085.57,222.50 1085.57,257.50 1055.26,275.00 1024.95,257.50 1024.95,222.50" fill="#A5C8D4" stroke="#666" stroke-width="1.5"/>
  <polygon points="1237.12,205.00 1267.43,222.50 1267.43,257.50 1237.12,275.00 1206.81,257.50 1206.81,222.50" fill="#A5B5C8" stroke="#666" stroke-width="1.5"/>
  <polygon points="176.24,257.50 206.55,275.00 206.55,310.00 176.24,327.50 145.93,310.00 145.93,275.00" fill="#D4B896" stroke="#666" stroke-width="1.5"/>
  <polygon points="418.73,257.50 449.04,275.00 449.04,310.00 418.73,327.50 388.42,310.00 388.42,275.00" fill="#8AA5B5" stroke="#666" stroke-width="1.5"/>
  <polygon points="539.97,257.50 570.28,275.00 570.28,310.00 539.97,327.50 509.66,310.00 509.66,275.00" fill="#8FB59A" stroke="#666" stroke-width="1.5"/>
  <polygon points="600.59,257.50 630.91,275.00 630.91,310.00 600.59,327.50 570.28,310.00 570.28,275.00" fill="#D4B58A" stroke="#666" stroke-width="1.5"/>
  <polygon points="843.08,257.50 873.39,275.00 873.39,310.00 843.08,327.50 812.77,310.00 812.77,275.00" fill="#C8C8A5" stroke="#666" stroke-width="1.5"/>
  <polygon points="903.70,257.50 934.01,275.00 934.01,310.00 903.70,327.50 873.39,310.00 873.39,275.00" fill="#B5CCE0" stroke="#99AABB" stroke-width="0.3"/>
  <polygon points="964.32,257.50 994.64,275.00 994.64,310.00 964.32,327.50 934.01,310.00 934.01,275.00" fill="#E8D5A3" stroke="#666" stroke-width="1.5"/>
  <polygon points="1024.95,257.50 1055.26,275.00 1055.26,310.00 1024.95,327.50 994.64,310.00 994.64,275.00" fill="#E8D5A3" stroke="#666" stroke-width="1.5"/>
  <polygon points="1085.57,257.50 1115.88,275.00 1115.88,310.00 1085.57,327.50 1055.26,310.00 1055.26,275.00" fill="#E8D5A3" stroke="#666" stroke-width="1.5"/>
  <polygon points="1206.81,257.50 1237.12,275.00 1237.12,310.00 1206.81,327.50 1176.50,310.00 1176.50,275.00" fill="#A5B5C8" stroke="#666" stroke-width="1.5"/>
  <polygon points="145.93,310.00 176.24,327.50 176.24,362.50 145.93,380.00 115.62,362.50 115.62,327.50" fill="#D4B896" stroke="#666" stroke-width="1.5"/>
  <polygon points="206.55,310.00 236.86,327.50 236.86,362.50 206.55,380.00 176.24,362.50 176.24,327.50" fill="#D4B896" stroke="#666" stroke-width="1.5"/>
  <polygon points="267.17,310.00 297.49,327.50 297.49,362.50 267.17,380.00 236.86,362.50 236.86,327.50" fill="#D4B896" stroke="#666" stroke-width="1.5"/>
  <polygon points="509.66,310.00 539.97,327.50 539.97,362.50 509.66,380.00 479.35,362.50 479.35,327.50" fill="#B5A5C8" stroke="#666" stroke-width="1.5"/>
  <polygon points="570.28,310.00 600.59,327.50 600.59,362.50 570.28,380.00 539.97,362.50 539.97,327.50" fill="#B5A5C8" stroke="#666" stroke-width="1.5"/>
  <polygon points="630.91,310.00 661.22,327.50 661.22,362.50 630.91,380.00 600.59,362.50 600.59,327.50" fill="#B5CCE0" stroke="#99AABB" stroke-width="0.3"/>
  <polygon points="691.53,310.00 721.84,327.50 721.84,362.50 691.53,380.00 661.22,362.50 661.22,327.50" fill="#B5A08A" stroke="#666" stroke-width="1.5"/>
  <polygon points="812.77,310.00 843.08,327.50 843.08,362.50 812.77,380.00 782.46,362.50 782.46,327.50" fill="#C8A57A" stroke="#666" stroke-width="1.5"/>
  <polygon points="873.39,310.00 903.70,327.50 903.70,362.50 873.39,380.00 843.08,362.50 843.08,327.50" fill="#D4B5A5" stroke="#666" stroke-width="1.5"/>
  <polygon points="934.01,310.00 964.32,327.50 964.32,362.50 934.01,380.00 903.70,362.50 903.70,327.50" fill="#D4B5A5" stroke="#666" stroke-width="1.5"/>
  <polygon points="994.64,310.00 1024.95,327.50 1024.95,362.50 994.64,380.00 964.32,362.50 964.32,327.50" fill="#E8D5A3" stroke="#666" stroke-width="1.5"/>
  <polygon points="1055.26,310.00 1085.57,327.50 1085.57,362.50 1055.26,380.00 1024.95,362.50 1024.95,327.50" fill="#E8D5A3" stroke="#666" stroke-width="1.5"/>
  <polygon points="1115.88,310.00 1146.19,327.50 1146.19,362.50 1115.88,380.00 1085.57,362.50 1085.57,327.50" fill="#B5CCE0" stroke="#99AABB" stroke-width="0.3"/>
  <polygon points="176.24,362.50 206.55,380.00 206.55,415.00 176.24,432.50 145.93,415.00 145.93,380.00" fill="#D4B896" stroke="#666" stroke-width="1.5"/>
  <polygon points="236.86,362.50 267.17,380.00 267.17,415.00 236.86,432.50 206.55,415.00 206.55,380.00" fill="#D4B896" stroke="#666" stroke-width="1.5"/>
  <polygon points="479.35,362.50 509.66,380.00 509.66,415.00 479.35,432.50 449.04,415.00 449.04,380.00" fill="#D4A5B5" stroke="#666" stroke-width="1.5"/>
  <polygon points="600.59,362.50 630.91,380.00 630.91,415.00 600.59,432.50 570.28,415.00 570.28,380.00" fill="#D4D4A5" stroke="#666" stroke-width="1.5"/>
  <polygon points="661.22,362.50 691.53,380.00 691.53,415.00 661.22,432.50 630.91,415.00 630.91,380.00" fill="#B5A08A" stroke="#666" stroke-width="1.5"/>
  <polygon points="721.84,362.50 752.15,380.00 752.15,415.00 721.84,432.50 691.53,415.00 691.53,380.00" fill="#C8A57A" stroke="#666" stroke-width="1.5"/>
  <polygon points="782.46,362.50 812.77,380.00 812.77,415.00 782.46,432.50 752.15,415.00 752.15,380.00" fill="#C8A57A" stroke="#666" stroke-width="1.5"/>
  <polygon points="206.55,415.00 236.86,432.50 236.86,467.50 206.55,485.00 176.24,467.50 176.24,432.50" fill="#D4B896" stroke="#666" stroke-width="1.5"/>
  <polygon points="630.91,415.00 661.22,432.50 661.22,467.50 630.91,485.00 600.59,467.50 600.59,432.50" fill="#C8B896" stroke="#666" stroke-width="1.5"/>
  <polygon points="691.53,415.00 721.84,432.50 721.84,467.50 691.53,485.00 661.22,467.50 661.22,432.50" fill="#C8B896" stroke="#666" stroke-width="1.5"/>
  <polygon points="1115.88,415.00 1146.19,432.50 1146.19,467.50 1115.88,485.00 1085.57,467.50 1085.57,432.50" fill="#8AC8B5" stroke="#666" stroke-width="1.5"/>
  <polygon points="600.59,467.50 630.91,485.00 630.91,520.00 600.59,537.50 570.28,520.00 570.28,485.00" fill="#B5A896" stroke="#666" stroke-width="1.5"/>
  <polygon points="721.84,467.50 752.15,485.00 752.15,520.00 721.84,537.50 691.53,520.00 691.53,485.00" fill="#D4BFA5" stroke="#666" stroke-width="1.5"/>
  <polygon points="267.17,520.00 297.49,537.50 297.49,572.50 267.17,590.00 236.86,572.50 236.86,537.50" fill="#A5C8A0" stroke="#666" stroke-width="1.5"/>
  <!-- INTERNAL BORDERS -->
  <line x1="176.24" y1="327.50" x2="145.93" y2="310.00" stroke="#BBB" stroke-width="0.5" stroke-dasharray="2,3"/>
  <line x1="206.55" y1="310.00" x2="176.24" y2="327.50" stroke="#BBB" stroke-width="0.5" stroke-dasharray="2,3"/>
  <line x1="176.24" y1="327.50" x2="176.24" y2="362.50" stroke="#BBB" stroke-width="0.5" stroke-dasharray="2,3"/>
  <line x1="176.24" y1="362.50" x2="145.93" y2="380.00" stroke="#BBB" stroke-width="0.5" stroke-dasharray="2,3"/>
  <line x1="236.86" y1="327.50" x2="236.86" y2="362.50" stroke="#BBB" stroke-width="0.5" stroke-dasharray="2,3"/>
  <line x1="206.55" y1="380.00" x2="176.24" y2="362.50" stroke="#BBB" stroke-width="0.5" stroke-dasharray="2,3"/>
  <line x1="236.86" y1="362.50" x2="206.55" y2="380.00" stroke="#BBB" stroke-width="0.5" stroke-dasharray="2,3"/>
  <line x1="267.17" y1="380.00" x2="236.86" y2="362.50" stroke="#BBB" stroke-width="0.5" stroke-dasharray="2,3"/>
  <line x1="206.55" y1="380.00" x2="206.55" y2="415.00" stroke="#BBB" stroke-width="0.5" stroke-dasharray="2,3"/>
  <line x1="206.55" y1="415.00" x2="176.24" y2="432.50" stroke="#BBB" stroke-width="0.5" stroke-dasharray="2,3"/>
  <line x1="236.86" y1="432.50" x2="206.55" y2="415.00" stroke="#BBB" stroke-width="0.5" stroke-dasharray="2,3"/>
  <line x1="570.28" y1="275.00" x2="539.97" y2="257.50" stroke="#BBB" stroke-width="0.5" stroke-dasharray="2,3"/>
  <line x1="661.22" y1="257.50" x2="630.91" y2="275.00" stroke="#BBB" stroke-width="0.5" stroke-dasharray="2,3"/>
  <line x1="539.97" y1="327.50" x2="539.97" y2="362.50" stroke="#BBB" stroke-width="0.5" stroke-dasharray="2,3"/>
  <line x1="691.53" y1="380.00" x2="661.22" y2="362.50" stroke="#BBB" stroke-width="0.5" stroke-dasharray="2,3"/>
  <line x1="752.15" y1="170.00" x2="721.84" y2="152.50" stroke="#BBB" stroke-width="0.5" stroke-dasharray="2,3"/>
  <line x1="782.46" y1="152.50" x2="752.15" y2="170.00" stroke="#BBB" stroke-width="0.5" stroke-dasharray="2,3"/>
  <line x1="691.53" y1="170.00" x2="691.53" y2="205.00" stroke="#BBB" stroke-width="0.5" stroke-dasharray="2,3"/>
  <line x1="691.53" y1="205.00" x2="661.22" y2="222.50" stroke="#BBB" stroke-width="0.5" stroke-dasharray="2,3"/>
  <line x1="752.15" y1="170.00" x2="752.15" y2="205.00" stroke="#BBB" stroke-width="0.5" stroke-dasharray="2,3"/>
  <line x1="721.84" y1="222.50" x2="691.53" y2="205.00" stroke="#BBB" stroke-width="0.5" stroke-dasharray="2,3"/>
  <line x1="752.15" y1="205.00" x2="721.84" y2="222.50" stroke="#BBB" stroke-width="0.5" stroke-dasharray="2,3"/>
  <line x1="812.77" y1="170.00" x2="812.77" y2="205.00" stroke="#BBB" stroke-width="0.5" stroke-dasharray="2,3"/>
  <line x1="782.46" y1="222.50" x2="752.15" y2="205.00" stroke="#BBB" stroke-width="0.5" stroke-dasharray="2,3"/>
  <line x1="873.39" y1="170.00" x2="873.39" y2="205.00" stroke="#BBB" stroke-width="0.5" stroke-dasharray="2,3"/>
  <line x1="721.84" y1="222.50" x2="721.84" y2="257.50" stroke="#BBB" stroke-width="0.5" stroke-dasharray="2,3"/>
  <line x1="843.08" y1="222.50" x2="843.08" y2="257.50" stroke="#BBB" stroke-width="0.5" stroke-dasharray="2,3"/>
  <line x1="843.08" y1="257.50" x2="812.77" y2="275.00" stroke="#BBB" stroke-width="0.5" stroke-dasharray="2,3"/>
  <line x1="873.39" y1="275.00" x2="843.08" y2="257.50" stroke="#BBB" stroke-width="0.5" stroke-dasharray="2,3"/>
  <line x1="812.77" y1="380.00" x2="782.46" y2="362.50" stroke="#BBB" stroke-width="0.5" stroke-dasharray="2,3"/>
  <line x1="752.15" y1="380.00" x2="752.15" y2="415.00" stroke="#BBB" stroke-width="0.5" stroke-dasharray="2,3"/>
  <line x1="661.22" y1="432.50" x2="661.22" y2="467.50" stroke="#BBB" stroke-width="0.5" stroke-dasharray="2,3"/>
  <line x1="903.70" y1="362.50" x2="873.39" y2="380.00" stroke="#BBB" stroke-width="0.5" stroke-dasharray="2,3"/>
  <line x1="934.01" y1="380.00" x2="903.70" y2="362.50" stroke="#BBB" stroke-width="0.5" stroke-dasharray="2,3"/>
  <line x1="903.70" y1="327.50" x2="903.70" y2="362.50" stroke="#BBB" stroke-width="0.5" stroke-dasharray="2,3"/>
  <line x1="964.32" y1="257.50" x2="934.01" y2="275.00" stroke="#BBB" stroke-width="0.5" stroke-dasharray="2,3"/>
  <line x1="994.64" y1="275.00" x2="994.64" y2="310.00" stroke="#BBB" stroke-width="0.5" stroke-dasharray="2,3"/>
  <line x1="994.64" y1="310.00" x2="964.32" y2="327.50" stroke="#BBB" stroke-width="0.5" stroke-dasharray="2,3"/>
  <line x1="1055.26" y1="275.00" x2="1055.26" y2="310.00" stroke="#BBB" stroke-width="0.5" stroke-dasharray="2,3"/>
  <line x1="1024.95" y1="327.50" x2="994.64" y2="310.00" stroke="#BBB" stroke-width="0.5" stroke-dasharray="2,3"/>
  <line x1="1055.26" y1="310.00" x2="1024.95" y2="327.50" stroke="#BBB" stroke-width="0.5" stroke-dasharray="2,3"/>
  <line x1="1085.57" y1="327.50" x2="1055.26" y2="310.00" stroke="#BBB" stroke-width="0.5" stroke-dasharray="2,3"/>
  <line x1="1024.95" y1="362.50" x2="994.64" y2="380.00" stroke="#BBB" stroke-width="0.5" stroke-dasharray="2,3"/>
  <line x1="1024.95" y1="327.50" x2="1024.95" y2="362.50" stroke="#BBB" stroke-width="0.5" stroke-dasharray="2,3"/>
  <line x1="1024.95" y1="362.50" x2="1055.26" y2="380.00" stroke="#BBB" stroke-width="0.5" stroke-dasharray="2,3"/>
  <line x1="1237.12" y1="275.00" x2="1206.81" y2="257.50" stroke="#BBB" stroke-width="0.5" stroke-dasharray="2,3"/>
  <!-- LABELS -->
  <text x="418.7" y="292.5" class="cl" font-size="9">ALBION</text>
  <text x="903.7" y="362.5" class="cl" font-size="10">BHARATA</text>
  <text x="267.2" y="555.0" class="cl" font-size="9">CARIBE</text>
  <text x="1010.6" y="317.5" class="cl" font-size="12">CATHAY</text>
  <text x="1024.9" y="187.5" class="cl" font-size="9">CHOSON</text>
  <text x="202.2" y="367.5" class="cl" font-size="12">COLUMBIA</text>
  <text x="1115.9" y="450.0" class="cl" font-size="9">FORMOSA</text>
  <text x="600.6" y="292.5" class="cl" font-size="9">FREELAND</text>
  <text x="540.0" y="345.0" class="cl" font-size="9">GALLIA</text>
  <text x="1055.2" y="240.0" class="cl" font-size="9">HANGUK</text>
  <text x="646.0" y="266.3" class="cl" font-size="9">HEARTLAND</text>
  <text x="600.6" y="502.5" class="cl" font-size="9">HORN</text>
  <text x="600.6" y="397.5" class="cl" font-size="9">LEVANTIA</text>
  <text x="721.8" y="502.5" class="cl" font-size="9">MIRAGE</text>
  <text x="763.5" y="194.1" class="cl" font-size="12">NORDOSTAN</text>
  <text x="772.3" y="380.0" class="cl" font-size="10">PERSIA</text>
  <text x="676.4" y="371.3" class="cl" font-size="9">PHRYGIA</text>
  <text x="479.3" y="397.5" class="cl" font-size="9">PONTE</text>
  <text x="843.1" y="257.5" class="cl" font-size="10">SOGDIANA</text>
  <text x="661.2" y="450.0" class="cl" font-size="9">SOLARIA</text>
  <text x="555.1" y="266.3" class="cl" font-size="10">TEUTONIA</text>
  <text x="358.1" y="187.5" class="cl" font-size="9">THULE</text>
  <text x="1221.9" y="266.3" class="cl" font-size="9">YAMATO</text>
  <text x="327.8" y="345.0" class="ol" font-size="22">TETHYS</text>
  <text x="1267.4" y="292.5" class="ol" font-size="24">MIROVIA</text>
  <text x="752.1" y="660.0" class="ol" font-size="20">RHEIC OCEAN</text>
  <text x="782.4" y="82.5" class="ol" font-size="18">ARCTIC SEA</text>
  <text x="752.1" y="472.0" class="cpl">Gulf Gate</text>
  <text x="1085.5" y="419.5" class="cpl">Formosa Strait</text>
  <text x="236.8" y="524.5" class="cpl">Caribe Passage</text>
  <rect x="20" y="680" width="220" height="210" rx="6" fill="white" fill-opacity="0.85" stroke="#aaa" stroke-width="0.5"/>
  <text x="35" y="702" class="ltt">THE THUCYDIDES TRAP</text>
  <text x="35" y="718" class="lt" font-size="8" fill="#666">Strategic Hex World Map</text>
  <rect x="35" y="735" width="12" height="10" rx="1" fill="#D4B896" stroke="#666" stroke-width="0.5"/>
  <text x="53" y="743" class="lt">Columbia</text>
  <rect x="35" y="751" width="12" height="10" rx="1" fill="#E8D5A3" stroke="#666" stroke-width="0.5"/>
  <text x="53" y="759" class="lt">Cathay</text>
  <rect x="35" y="767" width="12" height="10" rx="1" fill="#D4A5A5" stroke="#666" stroke-width="0.5"/>
  <text x="53" y="775" class="lt">Nordostan</text>
  <rect x="35" y="783" width="12" height="10" rx="1" fill="#A5C8A5" stroke="#666" stroke-width="0.5"/>
  <text x="53" y="791" class="lt">Heartland</text>
  <rect x="35" y="799" width="12" height="10" rx="1" fill="#8FB59A" stroke="#666" stroke-width="0.5"/>
  <text x="53" y="807" class="lt">Teutonia</text>
  <rect x="35" y="815" width="12" height="10" rx="1" fill="#C8A57A" stroke="#666" stroke-width="0.5"/>
  <text x="53" y="823" class="lt">Persia</text>
  <rect x="35" y="831" width="12" height="10" rx="1" fill="#D4B5A5" stroke="#666" stroke-width="0.5"/>
  <text x="53" y="839" class="lt">Bharata</text>
  <rect x="35" y="847" width="12" height="10" rx="1" fill="#A5B5C8" stroke="#666" stroke-width="0.5"/>
  <text x="53" y="855" class="lt">Yamato</text>
  <rect x="35" y="863" width="12" height="10" rx="1" fill="#B5CCE0" stroke="#D4880F" stroke-width="2"/>
  <text x="53" y="871" class="lt">Chokepoint</text>
  <text x="35" y="881" class="lt" font-size="7" fill="#888">1 hex = 1 strategic zone</text>

  <!-- GRID COORDINATE LABELS -->
  <text x="115.6" y="20" font-family="sans-serif" font-size="10" fill="#AAAAAA" text-anchor="middle">1</text>
  <text x="176.2" y="20" font-family="sans-serif" font-size="10" fill="#AAAAAA" text-anchor="middle">2</text>
  <text x="236.9" y="20" font-family="sans-serif" font-size="10" fill="#AAAAAA" text-anchor="middle">3</text>
  <text x="297.5" y="20" font-family="sans-serif" font-size="10" fill="#AAAAAA" text-anchor="middle">4</text>
  <text x="358.1" y="20" font-family="sans-serif" font-size="10" fill="#AAAAAA" text-anchor="middle">5</text>
  <text x="418.7" y="20" font-family="sans-serif" font-size="10" fill="#AAAAAA" text-anchor="middle">6</text>
  <text x="479.4" y="20" font-family="sans-serif" font-size="10" fill="#AAAAAA" text-anchor="middle">7</text>
  <text x="540.0" y="20" font-family="sans-serif" font-size="10" fill="#AAAAAA" text-anchor="middle">8</text>
  <text x="600.6" y="20" font-family="sans-serif" font-size="10" fill="#AAAAAA" text-anchor="middle">9</text>
  <text x="661.2" y="20" font-family="sans-serif" font-size="10" fill="#AAAAAA" text-anchor="middle">10</text>
  <text x="721.8" y="20" font-family="sans-serif" font-size="10" fill="#AAAAAA" text-anchor="middle">11</text>
  <text x="782.5" y="20" font-family="sans-serif" font-size="10" fill="#AAAAAA" text-anchor="middle">12</text>
  <text x="843.1" y="20" font-family="sans-serif" font-size="10" fill="#AAAAAA" text-anchor="middle">13</text>
  <text x="903.7" y="20" font-family="sans-serif" font-size="10" fill="#AAAAAA" text-anchor="middle">14</text>
  <text x="964.3" y="20" font-family="sans-serif" font-size="10" fill="#AAAAAA" text-anchor="middle">15</text>
  <text x="1024.9" y="20" font-family="sans-serif" font-size="10" fill="#AAAAAA" text-anchor="middle">16</text>
  <text x="1085.6" y="20" font-family="sans-serif" font-size="10" fill="#AAAAAA" text-anchor="middle">17</text>
  <text x="1146.2" y="20" font-family="sans-serif" font-size="10" fill="#AAAAAA" text-anchor="middle">18</text>
  <text x="1206.8" y="20" font-family="sans-serif" font-size="10" fill="#AAAAAA" text-anchor="middle">19</text>
  <text x="1267.4" y="20" font-family="sans-serif" font-size="10" fill="#AAAAAA" text-anchor="middle">20</text>
  <text x="1328.1" y="20" font-family="sans-serif" font-size="10" fill="#AAAAAA" text-anchor="middle">21</text>
  <text x="1388.7" y="20" font-family="sans-serif" font-size="10" fill="#AAAAAA" text-anchor="middle">22</text>
  <text x="1449.3" y="20" font-family="sans-serif" font-size="10" fill="#AAAAAA" text-anchor="middle">23</text>
  <text x="15" y="82.5" font-family="sans-serif" font-size="10" fill="#AAAAAA" text-anchor="start" dominant-baseline="central">1</text>
  <text x="15" y="135.0" font-family="sans-serif" font-size="10" fill="#AAAAAA" text-anchor="start" dominant-baseline="central">2</text>
  <text x="15" y="187.5" font-family="sans-serif" font-size="10" fill="#AAAAAA" text-anchor="start" dominant-baseline="central">3</text>
  <text x="15" y="240.0" font-family="sans-serif" font-size="10" fill="#AAAAAA" text-anchor="start" dominant-baseline="central">4</text>
  <text x="15" y="292.5" font-family="sans-serif" font-size="10" fill="#AAAAAA" text-anchor="start" dominant-baseline="central">5</text>
  <text x="15" y="345.0" font-family="sans-serif" font-size="10" fill="#AAAAAA" text-anchor="start" dominant-baseline="central">6</text>
  <text x="15" y="397.5" font-family="sans-serif" font-size="10" fill="#AAAAAA" text-anchor="start" dominant-baseline="central">7</text>
  <text x="15" y="450.0" font-family="sans-serif" font-size="10" fill="#AAAAAA" text-anchor="start" dominant-baseline="central">8</text>
  <text x="15" y="502.5" font-family="sans-serif" font-size="10" fill="#AAAAAA" text-anchor="start" dominant-baseline="central">9</text>
  <text x="15" y="555.0" font-family="sans-serif" font-size="10" fill="#AAAAAA" text-anchor="start" dominant-baseline="central">10</text>
  <text x="15" y="607.5" font-family="sans-serif" font-size="10" fill="#AAAAAA" text-anchor="start" dominant-baseline="central">11</text>
  <text x="15" y="660.0" font-family="sans-serif" font-size="10" fill="#AAAAAA" text-anchor="start" dominant-baseline="central">12</text>
  <text x="15" y="712.5" font-family="sans-serif" font-size="10" fill="#AAAAAA" text-anchor="start" dominant-baseline="central">13</text>
  <text x="15" y="765.0" font-family="sans-serif" font-size="10" fill="#AAAAAA" text-anchor="start" dominant-baseline="central">14</text>
  <text x="15" y="817.5" font-family="sans-serif" font-size="10" fill="#AAAAAA" text-anchor="start" dominant-baseline="central">15</text>
</svg>