<svg xmlns="http://www.w3.org/2000/svg" viewBox="-25 -25 782 653" width="752" height="623">
  <defs><style>.lbl{font-family:Inter,Helvetica,Arial,sans-serif;text-anchor:middle;dominant-baseline:central;font-size:9px;fill:#333}.country-lbl-lg{font-family:Inter,Helvetica,Arial,sans-serif;text-anchor:middle;dominant-baseline:central;font-size:13px;font-weight:700;fill:#333;letter-spacing:1.5px}.country-lbl-sm{font-family:Inter,Helvetica,Arial,sans-serif;text-anchor:middle;dominant-baseline:central;font-size:9px;font-weight:700;fill:#333;letter-spacing:1px}.ocean-lbl{font-family:Inter,Helvetica,Arial,sans-serif;text-anchor:middle;dominant-baseline:central;font-size:20px;font-style:italic;fill:#6688AA;opacity:0.5;letter-spacing:3px}.grid-lbl{font-family:Inter,Helvetica,Arial,sans-serif;text-anchor:middle;dominant-baseline:central;font-size:10px;fill:#AAA}.cp-lbl{font-family:Inter,Helvetica,Arial,sans-serif;text-anchor:middle;dominant-baseline:central;font-size:8px;font-weight:700;fill:#B8720C}.dh-lbl{font-family:Inter,Helvetica,Arial,sans-serif;text-anchor:middle;dominant-baseline:central;font-size:7px;font-weight:700;fill:#CC0000}</style></defs>
  <pattern id="occ_heartland_nordostan" width="8" height="8" patternUnits="userSpaceOnUse" patternTransform="rotate(45)">
    <rect width="8" height="8" fill="#A5C8A5"/>
    <rect width="4" height="8" fill="#D4A5A5" opacity="0.5"/>
  </pattern>
  <pattern id="occ_nordostan_nordostan" width="8" height="8" patternUnits="userSpaceOnUse" patternTransform="rotate(45)">
    <rect width="8" height="8" fill="#D4A5A5"/>
    <rect width="4" height="8" fill="#D4A5A5" opacity="0.5"/>
  </pattern>
  <rect width="732" height="603" fill="#C5D9E8"/>
  <!-- HEXES -->
  <polygon points="85.31,12.50 55.00,-5.00 24.69,12.50 24.69,47.50 55.00,65.00 85.31,47.50" fill="#D4A5A5" stroke="#666666" stroke-width="1.5"/>
  <polygon points="145.93,12.50 115.62,-5.00 85.31,12.50 85.31,47.50 115.62,65.00 145.93,47.50" fill="#D4A5A5" stroke="#666666" stroke-width="1.5"/>
  <polygon points="206.55,12.50 176.24,-5.00 145.93,12.50 145.93,47.50 176.24,65.00 206.55,47.50" fill="#D4A5A5" stroke="#666666" stroke-width="1.5"/>
  <polygon points="267.18,12.50 236.87,-5.00 206.55,12.50 206.55,47.50 236.87,65.00 267.18,47.50" fill="#D4A5A5" stroke="#666666" stroke-width="1.5"/>
  <polygon points="327.80,12.50 297.49,-5.00 267.18,12.50 267.18,47.50 297.49,65.00 327.80,47.50" fill="#D4A5A5" stroke="#666666" stroke-width="1.5"/>
  <polygon points="388.42,12.50 358.11,-5.00 327.80,12.50 327.80,47.50 358.11,65.00 388.42,47.50" fill="#D4A5A5" stroke="#666666" stroke-width="1.5"/>
  <polygon points="449.04,12.50 418.73,-5.00 388.42,12.50 388.42,47.50 418.73,65.00 449.04,47.50" fill="#D4A5A5" stroke="#666666" stroke-width="1.5"/>
  <polygon points="509.66,12.50 479.35,-5.00 449.04,12.50 449.04,47.50 479.35,65.00 509.66,47.50" fill="#D4A5A5" stroke="#666666" stroke-width="1.5"/>
  <polygon points="570.29,12.50 539.97,-5.00 509.66,12.50 509.66,47.50 539.97,65.00 570.29,47.50" fill="#D4A5A5" stroke="#666666" stroke-width="1.5"/>
  <polygon points="630.91,12.50 600.60,-5.00 570.29,12.50 570.29,47.50 600.60,65.00 630.91,47.50" fill="#D4A5A5" stroke="#666666" stroke-width="1.5"/>
  <polygon points="115.62,65.00 85.31,47.50 55.00,65.00 55.00,100.00 85.31,117.50 115.62,100.00" fill="#D4A5A5" stroke="#666666" stroke-width="1.5"/>
  <polygon points="176.24,65.00 145.93,47.50 115.62,65.00 115.62,100.00 145.93,117.50 176.24,100.00" fill="#D4A5A5" stroke="#666666" stroke-width="1.5"/>
  <polygon points="236.87,65.00 206.55,47.50 176.24,65.00 176.24,100.00 206.55,117.50 236.87,100.00" fill="#D4A5A5" stroke="#666666" stroke-width="1.5"/>
  <polygon points="297.49,65.00 267.18,47.50 236.87,65.00 236.87,100.00 267.18,117.50 297.49,100.00" fill="#D4A5A5" stroke="#666666" stroke-width="1.5"/>
  <polygon points="358.11,65.00 327.80,47.50 297.49,65.00 297.49,100.00 327.80,117.50 358.11,100.00" fill="#D4A5A5" stroke="#666666" stroke-width="1.5"/>
  <polygon points="418.73,65.00 388.42,47.50 358.11,65.00 358.11,100.00 388.42,117.50 418.73,100.00" fill="#D4A5A5" stroke="#666666" stroke-width="1.5"/>
  <polygon points="479.35,65.00 449.04,47.50 418.73,65.00 418.73,100.00 449.04,117.50 479.35,100.00" fill="#D4A5A5" stroke="#666666" stroke-width="1.5"/>
  <polygon points="539.97,65.00 509.66,47.50 479.35,65.00 479.35,100.00 509.66,117.50 539.97,100.00" fill="#D4A5A5" stroke="#666666" stroke-width="1.5"/>
  <polygon points="600.60,65.00 570.29,47.50 539.97,65.00 539.97,100.00 570.29,117.50 600.60,100.00" fill="#D4A5A5" stroke="#666666" stroke-width="1.5"/>
  <polygon points="661.22,65.00 630.91,47.50 600.60,65.00 600.60,100.00 630.91,117.50 661.22,100.00" fill="#D4A5A5" stroke="#666666" stroke-width="1.5"/>
  <polygon points="85.31,117.50 55.00,100.00 24.69,117.50 24.69,152.50 55.00,170.00 85.31,152.50" fill="#A5C8A5" stroke="#666666" stroke-width="1.5"/>
  <polygon points="145.93,117.50 115.62,100.00 85.31,117.50 85.31,152.50 115.62,170.00 145.93,152.50" fill="#A5C8A5" stroke="#666666" stroke-width="1.5"/>
  <polygon points="206.55,117.50 176.24,100.00 145.93,117.50 145.93,152.50 176.24,170.00 206.55,152.50" fill="#A5C8A5" stroke="#666666" stroke-width="1.5"/>
  <polygon points="267.18,117.50 236.87,100.00 206.55,117.50 206.55,152.50 236.87,170.00 267.18,152.50" fill="#D4A5A5" stroke="#666666" stroke-width="1.5"/>
  <polygon points="327.80,117.50 297.49,100.00 267.18,117.50 267.18,152.50 297.49,170.00 327.80,152.50" fill="#D4A5A5" stroke="#666666" stroke-width="1.5"/>
  <polygon points="388.42,117.50 358.11,100.00 327.80,117.50 327.80,152.50 358.11,170.00 388.42,152.50" fill="#D4A5A5" stroke="#666666" stroke-width="1.5"/>
  <polygon points="449.04,117.50 418.73,100.00 388.42,117.50 388.42,152.50 418.73,170.00 449.04,152.50" fill="#D4A5A5" stroke="#666666" stroke-width="1.5"/>
  <polygon points="509.66,117.50 479.35,100.00 449.04,117.50 449.04,152.50 479.35,170.00 509.66,152.50" fill="#D4A5A5" stroke="#666666" stroke-width="1.5"/>
  <polygon points="570.29,117.50 539.97,100.00 509.66,117.50 509.66,152.50 539.97,170.00 570.29,152.50" fill="#D4A5A5" stroke="#666666" stroke-width="1.5"/>
  <polygon points="630.91,117.50 600.60,100.00 570.29,117.50 570.29,152.50 600.60,170.00 630.91,152.50" fill="#D4A5A5" stroke="#666666" stroke-width="1.5"/>
  <polygon points="115.62,170.00 85.31,152.50 55.00,170.00 55.00,205.00 85.31,222.50 115.62,205.00" fill="#A5C8A5" stroke="#666666" stroke-width="1.5"/>
  <polygon points="176.24,170.00 145.93,152.50 115.62,170.00 115.62,205.00 145.93,222.50 176.24,205.00" fill="#A5C8A5" stroke="#666666" stroke-width="1.5"/>
  <polygon points="236.87,170.00 206.55,152.50 176.24,170.00 176.24,205.00 206.55,222.50 236.87,205.00" fill="#A5C8A5" stroke="#666666" stroke-width="1.5"/>
  <polygon points="297.49,170.00 267.18,152.50 236.87,170.00 236.87,205.00 267.18,222.50 297.49,205.00" fill="#A5C8A5" stroke="#666666" stroke-width="1.5"/>
  <polygon points="358.11,170.00 327.80,152.50 297.49,170.00 297.49,205.00 327.80,222.50 358.11,205.00" fill="url(#occ_heartland_nordostan)" stroke="#666666" stroke-width="1.5"/>
  <polygon points="418.73,170.00 388.42,152.50 358.11,170.00 358.11,205.00 388.42,222.50 418.73,205.00" fill="url(#occ_heartland_nordostan)" stroke="#666666" stroke-width="1.5"/>
  <polygon points="479.35,170.00 449.04,152.50 418.73,170.00 418.73,205.00 449.04,222.50 479.35,205.00" fill="#D4A5A5" stroke="#666666" stroke-width="1.5"/>
  <polygon points="539.97,170.00 509.66,152.50 479.35,170.00 479.35,205.00 509.66,222.50 539.97,205.00" fill="#D4A5A5" stroke="#666666" stroke-width="1.5"/>
  <polygon points="600.60,170.00 570.29,152.50 539.97,170.00 539.97,205.00 570.29,222.50 600.60,205.00" fill="#D4A5A5" stroke="#666666" stroke-width="1.5"/>
  <polygon points="661.22,170.00 630.91,152.50 600.60,170.00 600.60,205.00 630.91,222.50 661.22,205.00" fill="#D4A5A5" stroke="#666666" stroke-width="1.5"/>
  <polygon points="85.31,222.50 55.00,205.00 24.69,222.50 24.69,257.50 55.00,275.00 85.31,257.50" fill="#A5C8A5" stroke="#666666" stroke-width="1.5"/>
  <polygon points="145.93,222.50 115.62,205.00 85.31,222.50 85.31,257.50 115.62,275.00 145.93,257.50" fill="#A5C8A5" stroke="#666666" stroke-width="1.5"/>
  <polygon points="206.55,222.50 176.24,205.00 145.93,222.50 145.93,257.50 176.24,275.00 206.55,257.50" fill="#A5C8A5" stroke="#666666" stroke-width="1.5"/>
  <polygon points="267.18,222.50 236.87,205.00 206.55,222.50 206.55,257.50 236.87,275.00 267.18,257.50" fill="#A5C8A5" stroke="#666666" stroke-width="1.5"/>
  <polygon points="327.80,222.50 297.49,205.00 267.18,222.50 267.18,257.50 297.49,275.00 327.80,257.50" fill="#A5C8A5" stroke="#666666" stroke-width="1.5"/>
  <polygon points="388.42,222.50 358.11,205.00 327.80,222.50 327.80,257.50 358.11,275.00 388.42,257.50" fill="url(#occ_heartland_nordostan)" stroke="#666666" stroke-width="1.5"/>
  <polygon points="449.04,222.50 418.73,205.00 388.42,222.50 388.42,257.50 418.73,275.00 449.04,257.50" fill="url(#occ_heartland_nordostan)" stroke="#666666" stroke-width="1.5"/>
  <polygon points="509.66,222.50 479.35,205.00 449.04,222.50 449.04,257.50 479.35,275.00 509.66,257.50" fill="url(#occ_nordostan_nordostan)" stroke="#666666" stroke-width="1.5"/>
  <polygon points="570.29,222.50 539.97,205.00 509.66,222.50 509.66,257.50 539.97,275.00 570.29,257.50" fill="#D4A5A5" stroke="#666666" stroke-width="1.5"/>
  <polygon points="630.91,222.50 600.60,205.00 570.29,222.50 570.29,257.50 600.60,275.00 630.91,257.50" fill="#D4A5A5" stroke="#666666" stroke-width="1.5"/>
  <polygon points="115.62,275.00 85.31,257.50 55.00,275.00 55.00,310.00 85.31,327.50 115.62,310.00" fill="#A5C8A5" stroke="#666666" stroke-width="1.5"/>
  <polygon points="176.24,275.00 145.93,257.50 115.62,275.00 115.62,310.00 145.93,327.50 176.24,310.00" fill="#A5C8A5" stroke="#666666" stroke-width="1.5"/>
  <polygon points="236.87,275.00 206.55,257.50 176.24,275.00 176.24,310.00 206.55,327.50 236.87,310.00" fill="#A5C8A5" stroke="#666666" stroke-width="1.5"/>
  <polygon points="297.49,275.00 267.18,257.50 236.87,275.00 236.87,310.00 267.18,327.50 297.49,310.00" fill="#A5C8A5" stroke="#666666" stroke-width="1.5"/>
  <polygon points="358.11,275.00 327.80,257.50 297.49,275.00 297.49,310.00 327.80,327.50 358.11,310.00" fill="#A5C8A5" stroke="#666666" stroke-width="1.5"/>
  <polygon points="418.73,275.00 388.42,257.50 358.11,275.00 358.11,310.00 388.42,327.50 418.73,310.00" fill="#A5C8A5" stroke="#CC0000" stroke-width="3" stroke-dasharray="6,3"/>
  <text x="388.4" y="310.3" class="dh-lbl">Die Hard</text>
  <polygon points="479.35,275.00 449.04,257.50 418.73,275.00 418.73,310.00 449.04,327.50 479.35,310.00" fill="url(#occ_heartland_nordostan)" stroke="#666666" stroke-width="1.5"/>
  <polygon points="539.97,275.00 509.66,257.50 479.35,275.00 479.35,310.00 509.66,327.50 539.97,310.00" fill="#D4A5A5" stroke="#666666" stroke-width="1.5"/>
  <polygon points="600.60,275.00 570.29,257.50 539.97,275.00 539.97,310.00 570.29,327.50 600.60,310.00" fill="#D4A5A5" stroke="#666666" stroke-width="1.5"/>
  <polygon points="661.22,275.00 630.91,257.50 600.60,275.00 600.60,310.00 630.91,327.50 661.22,310.00" fill="#D4A5A5" stroke="#666666" stroke-width="1.5"/>
  <polygon points="85.31,327.50 55.00,310.00 24.69,327.50 24.69,362.50 55.00,380.00 85.31,362.50" fill="#A5C8A5" stroke="#666666" stroke-width="1.5"/>
  <polygon points="145.93,327.50 115.62,310.00 85.31,327.50 85.31,362.50 115.62,380.00 145.93,362.50" fill="#A5C8A5" stroke="#666666" stroke-width="1.5"/>
  <polygon points="206.55,327.50 176.24,310.00 145.93,327.50 145.93,362.50 176.24,380.00 206.55,362.50" fill="#A5C8A5" stroke="#666666" stroke-width="1.5"/>
  <polygon points="267.18,327.50 236.87,310.00 206.55,327.50 206.55,362.50 236.87,380.00 267.18,362.50" fill="#A5C8A5" stroke="#666666" stroke-width="1.5"/>
  <polygon points="327.80,327.50 297.49,310.00 267.18,327.50 267.18,362.50 297.49,380.00 327.80,362.50" fill="#A5C8A5" stroke="#666666" stroke-width="1.5"/>
  <polygon points="388.42,327.50 358.11,310.00 327.80,327.50 327.80,362.50 358.11,380.00 388.42,362.50" fill="url(#occ_heartland_nordostan)" stroke="#666666" stroke-width="1.5"/>
  <polygon points="449.04,327.50 418.73,310.00 388.42,327.50 388.42,362.50 418.73,380.00 449.04,362.50" fill="url(#occ_heartland_nordostan)" stroke="#666666" stroke-width="1.5"/>
  <polygon points="509.66,327.50 479.35,310.00 449.04,327.50 449.04,362.50 479.35,380.00 509.66,362.50" fill="url(#occ_heartland_nordostan)" stroke="#666666" stroke-width="1.5"/>
  <polygon points="570.29,327.50 539.97,310.00 509.66,327.50 509.66,362.50 539.97,380.00 570.29,362.50" fill="#D4A5A5" stroke="#666666" stroke-width="1.5"/>
  <polygon points="630.91,327.50 600.60,310.00 570.29,327.50 570.29,362.50 600.60,380.00 630.91,362.50" fill="#D4A5A5" stroke="#666666" stroke-width="1.5"/>
  <polygon points="115.62,380.00 85.31,362.50 55.00,380.00 55.00,415.00 85.31,432.50 115.62,415.00" fill="#A5C8A5" stroke="#666666" stroke-width="1.5"/>
  <polygon points="176.24,380.00 145.93,362.50 115.62,380.00 115.62,415.00 145.93,432.50 176.24,415.00" fill="#A5C8A5" stroke="#666666" stroke-width="1.5"/>
  <polygon points="236.87,380.00 206.55,362.50 176.24,380.00 176.24,415.00 206.55,432.50 236.87,415.00" fill="#A5C8A5" stroke="#666666" stroke-width="1.5"/>
  <polygon points="297.49,380.00 267.18,362.50 236.87,380.00 236.87,415.00 267.18,432.50 297.49,415.00" fill="#B5CCE0" stroke="#99AABB" stroke-width="0.3"/>
  <polygon points="358.11,380.00 327.80,362.50 297.49,380.00 297.49,415.00 327.80,432.50 358.11,415.00" fill="url(#occ_heartland_nordostan)" stroke="#666666" stroke-width="1.5"/>
  <polygon points="418.73,380.00 388.42,362.50 358.11,380.00 358.11,415.00 388.42,432.50 418.73,415.00" fill="#B5CCE0" stroke="#99AABB" stroke-width="0.3"/>
  <polygon points="479.35,380.00 449.04,362.50 418.73,380.00 418.73,415.00 449.04,432.50 479.35,415.00" fill="#B5CCE0" stroke="#99AABB" stroke-width="0.3"/>
  <polygon points="539.97,380.00 509.66,362.50 479.35,380.00 479.35,415.00 509.66,432.50 539.97,415.00" fill="#B5CCE0" stroke="#99AABB" stroke-width="0.3"/>
  <polygon points="600.60,380.00 570.29,362.50 539.97,380.00 539.97,415.00 570.29,432.50 600.60,415.00" fill="#D4A5A5" stroke="#666666" stroke-width="1.5"/>
  <polygon points="661.22,380.00 630.91,362.50 600.60,380.00 600.60,415.00 630.91,432.50 661.22,415.00" fill="#D4A5A5" stroke="#666666" stroke-width="1.5"/>
  <polygon points="85.31,432.50 55.00,415.00 24.69,432.50 24.69,467.50 55.00,485.00 85.31,467.50" fill="#A5C8A5" stroke="#666666" stroke-width="1.5"/>
  <polygon points="145.93,432.50 115.62,415.00 85.31,432.50 85.31,467.50 115.62,485.00 145.93,467.50" fill="#A5C8A5" stroke="#666666" stroke-width="1.5"/>
  <polygon points="206.55,432.50 176.24,415.00 145.93,432.50 145.93,467.50 176.24,485.00 206.55,467.50" fill="#A5C8A5" stroke="#666666" stroke-width="1.5"/>
  <polygon points="267.18,432.50 236.87,415.00 206.55,432.50 206.55,467.50 236.87,485.00 267.18,467.50" fill="#B5CCE0" stroke="#99AABB" stroke-width="0.3"/>
  <polygon points="327.80,432.50 297.49,415.00 267.18,432.50 267.18,467.50 297.49,485.00 327.80,467.50" fill="url(#occ_heartland_nordostan)" stroke="#666666" stroke-width="1.5"/>
  <polygon points="388.42,432.50 358.11,415.00 327.80,432.50 327.80,467.50 358.11,485.00 388.42,467.50" fill="url(#occ_heartland_nordostan)" stroke="#666666" stroke-width="1.5"/>
  <polygon points="449.04,432.50 418.73,415.00 388.42,432.50 388.42,467.50 418.73,485.00 449.04,467.50" fill="#B5CCE0" stroke="#99AABB" stroke-width="0.3"/>
  <polygon points="509.66,432.50 479.35,415.00 449.04,432.50 449.04,467.50 479.35,485.00 509.66,467.50" fill="#B5CCE0" stroke="#99AABB" stroke-width="0.3"/>
  <polygon points="570.29,432.50 539.97,415.00 509.66,432.50 509.66,467.50 539.97,485.00 570.29,467.50" fill="#B5CCE0" stroke="#99AABB" stroke-width="0.3"/>
  <polygon points="630.91,432.50 600.60,415.00 570.29,432.50 570.29,467.50 600.60,485.00 630.91,467.50" fill="#B5CCE0" stroke="#99AABB" stroke-width="0.3"/>
  <polygon points="115.62,485.00 85.31,467.50 55.00,485.00 55.00,520.00 85.31,537.50 115.62,520.00" fill="#A5C8A5" stroke="#666666" stroke-width="1.5"/>
  <polygon points="176.24,485.00 145.93,467.50 115.62,485.00 115.62,520.00 145.93,537.50 176.24,520.00" fill="#A5C8A5" stroke="#666666" stroke-width="1.5"/>
  <polygon points="236.87,485.00 206.55,467.50 176.24,485.00 176.24,520.00 206.55,537.50 236.87,520.00" fill="#B5CCE0" stroke="#99AABB" stroke-width="0.3"/>
  <polygon points="297.49,485.00 267.18,467.50 236.87,485.00 236.87,520.00 267.18,537.50 297.49,520.00" fill="#B5CCE0" stroke="#99AABB" stroke-width="0.3"/>
  <polygon points="358.11,485.00 327.80,467.50 297.49,485.00 297.49,520.00 327.80,537.50 358.11,520.00" fill="#B5CCE0" stroke="#99AABB" stroke-width="0.3"/>
  <polygon points="418.73,485.00 388.42,467.50 358.11,485.00 358.11,520.00 388.42,537.50 418.73,520.00" fill="#B5CCE0" stroke="#99AABB" stroke-width="0.3"/>
  <polygon points="479.35,485.00 449.04,467.50 418.73,485.00 418.73,520.00 449.04,537.50 479.35,520.00" fill="#B5CCE0" stroke="#99AABB" stroke-width="0.3"/>
  <polygon points="539.97,485.00 509.66,467.50 479.35,485.00 479.35,520.00 509.66,537.50 539.97,520.00" fill="#B5CCE0" stroke="#99AABB" stroke-width="0.3"/>
  <polygon points="600.60,485.00 570.29,467.50 539.97,485.00 539.97,520.00 570.29,537.50 600.60,520.00" fill="#B5CCE0" stroke="#99AABB" stroke-width="0.3"/>
  <polygon points="661.22,485.00 630.91,467.50 600.60,485.00 600.60,520.00 630.91,537.50 661.22,520.00" fill="#B5CCE0" stroke="#99AABB" stroke-width="0.3"/>
  <!-- GRID LABELS -->
  <text x="55.0" y="-10" class="grid-lbl">1</text>
  <text x="115.6" y="-10" class="grid-lbl">2</text>
  <text x="176.2" y="-10" class="grid-lbl">3</text>
  <text x="236.9" y="-10" class="grid-lbl">4</text>
  <text x="297.5" y="-10" class="grid-lbl">5</text>
  <text x="358.1" y="-10" class="grid-lbl">6</text>
  <text x="418.7" y="-10" class="grid-lbl">7</text>
  <text x="479.4" y="-10" class="grid-lbl">8</text>
  <text x="540.0" y="-10" class="grid-lbl">9</text>
  <text x="600.6" y="-10" class="grid-lbl">10</text>
  <text x="-10" y="30.0" class="grid-lbl">1</text>
  <text x="-10" y="82.5" class="grid-lbl">2</text>
  <text x="-10" y="135.0" class="grid-lbl">3</text>
  <text x="-10" y="187.5" class="grid-lbl">4</text>
  <text x="-10" y="240.0" class="grid-lbl">5</text>
  <text x="-10" y="292.5" class="grid-lbl">6</text>
  <text x="-10" y="345.0" class="grid-lbl">7</text>
  <text x="-10" y="397.5" class="grid-lbl">8</text>
  <text x="-10" y="450.0" class="grid-lbl">9</text>
  <text x="-10" y="502.5" class="grid-lbl">10</text>
  <!-- COUNTRY LABELS -->
  <text x="429.8" y="144.0" class="country-lbl-lg">Nordostan</text>
  <text x="224.6" y="306.3" class="country-lbl-lg">Heartland</text>
</svg>
