<svg xmlns="http://www.w3.org/2000/svg" viewBox="0 0 1400 800" width="1400" height="800">
  <defs>
    <style>
      .node-label { font-family: 'Inter', 'Helvetica Neue', Arial, sans-serif; font-size: 7.5px; fill: #fff; text-anchor: middle; dominant-baseline: central; font-weight: 600; }
      .node-label-dark { font-family: 'Inter', 'Helvetica Neue', Arial, sans-serif; font-size: 7px; fill: #222; text-anchor: middle; dominant-baseline: central; font-weight: 600; }
      .node-label-sea { font-family: 'Inter', 'Helvetica Neue', Arial, sans-serif; font-size: 5.5px; fill: #c0ddf0; text-anchor: middle; dominant-baseline: central; font-weight: 500; }
      .country-label { font-family: 'Inter', 'Helvetica Neue', Arial, sans-serif; font-size: 13px; text-anchor: middle; font-weight: 700; letter-spacing: 1.5px; }
      .continent-label { font-family: 'Inter', 'Helvetica Neue', Arial, sans-serif; font-size: 16px; fill: #7a9ab8; text-anchor: middle; font-weight: 200; letter-spacing: 6px; opacity: 0.5; }
      .unit-info { font-family: 'Inter', 'Helvetica Neue', Arial, sans-serif; font-size: 5.5px; fill: #444; text-anchor: middle; font-weight: 600; }
      .unit-badge { font-family: 'Inter', 'Helvetica Neue', Arial, sans-serif; font-size: 5.5px; fill: white; text-anchor: middle; dominant-baseline: central; font-weight: 700; }
      .legend-text { font-family: 'Inter', 'Helvetica Neue', Arial, sans-serif; font-size: 8px; fill: #444; }
      .legend-title { font-family: 'Inter', 'Helvetica Neue', Arial, sans-serif; font-size: 11px; fill: #222; font-weight: 700; }
      .chokepoint-label { font-family: 'Inter', Arial, sans-serif; font-size: 5.5px; fill: #cc2222; text-anchor: middle; font-weight: 700; }
      .link-land { stroke: #7a8a7a; stroke-width: 1.4; fill: none; }
      .link-sea { stroke: #4a7aaa; stroke-width: 0.8; fill: none; stroke-dasharray: 5,4; opacity: 0.5; }
      .link-mixed { stroke: #6a8a9a; stroke-width: 0.9; fill: none; stroke-dasharray: 2,2; opacity: 0.6; }
    </style>
  </defs>

  <!-- LIGHT BLUE SEA BACKGROUND -->
  <rect width="1400" height="800" fill="#D6EAF8"/>

  <!-- Title bar -->
  <rect x="0" y="0" width="1400" height="50" fill="#1a3050" opacity="0.85"/>
  <text x="700" y="22" font-family="'Inter', 'Helvetica Neue', Arial, sans-serif" font-size="17" fill="#e0eaf4" text-anchor="middle" font-weight="700" letter-spacing="2.5">THUCYDIDES TRAP -- STRATEGIC NETWORK</text>
  <text x="700" y="39" font-family="'Inter', Arial, sans-serif" font-size="9.5" fill="#8ab0d0" text-anchor="middle" letter-spacing="1.2">ADJACENCY GRAPH  /  45 ZONES  /  8 CHOKEPOINTS  /  20 COUNTRIES</text>

  <!-- ================================================ -->
  <!-- CONTINENT LABELS (behind everything)             -->
  <!-- ================================================ -->
  <text x="130" y="380" class="continent-label">COLUMBIA</text>
  <text x="420" y="90" class="continent-label">EREB</text>
  <text x="680" y="58" class="continent-label">NORDOSTAN</text>
  <text x="700" y="300" class="continent-label">MASHRIQ</text>
  <text x="1080" y="110" class="continent-label">ASU</text>

  <!-- ================================================ -->
  <!-- COUNTRY CLUSTER BACKGROUNDS (subtle halos)       -->
  <!-- ================================================ -->
  <ellipse cx="130" cy="240" rx="100" ry="110" fill="#5a7a4a" opacity="0.08"/>
  <ellipse cx="420" cy="195" rx="100" ry="95" fill="#7a5a7a" opacity="0.07"/>
  <ellipse cx="680" cy="120" rx="130" ry="60" fill="#7a6a4a" opacity="0.07"/>
  <ellipse cx="700" cy="340" rx="120" ry="90" fill="#8a7a3a" opacity="0.07"/>
  <ellipse cx="920" cy="340" rx="60" ry="55" fill="#6a5a7a" opacity="0.07"/>
  <ellipse cx="1100" cy="220" rx="140" ry="120" fill="#8a6a2a" opacity="0.07"/>

  <!-- ================================================ -->
  <!-- ADJACENCY LINKS (drawn first, behind nodes)      -->
  <!-- ================================================ -->

  <!-- COLUMBIA internal links (land) -->
  <line x1="130" y1="195" x2="130" y2="240" class="link-land"/>
  <line x1="130" y1="195" x2="70" y2="270" class="link-land"/>
  <line x1="130" y1="240" x2="70" y2="270" class="link-mixed"/>

  <!-- Columbia to seas -->
  <line x1="130" y1="195" x2="85" y2="150" class="link-mixed"/>
  <line x1="70" y1="270" x2="55" y2="340" class="link-mixed"/>
  <line x1="70" y1="270" x2="85" y2="150" class="link-mixed"/>
  <line x1="130" y1="240" x2="230" y2="255" class="link-mixed"/>
  <line x1="130" y1="240" x2="190" y2="320" class="link-mixed"/>
  <line x1="130" y1="240" x2="170" y2="305" class="link-land"/>

  <!-- Caribe links -->
  <line x1="170" y1="305" x2="190" y2="320" class="link-mixed"/>
  <line x1="170" y1="305" x2="230" y2="255" class="link-mixed"/>

  <!-- Atlantic links -->
  <line x1="230" y1="255" x2="330" y2="250" class="link-sea"/>
  <line x1="230" y1="255" x2="275" y2="120" class="link-sea"/>

  <!-- GIUK and Arctic -->
  <line x1="330" y1="250" x2="350" y2="155" class="link-sea"/>
  <line x1="350" y1="155" x2="275" y2="120" class="link-sea"/>
  <line x1="350" y1="155" x2="520" y2="80" class="link-sea"/>
  <line x1="275" y1="120" x2="520" y2="80" class="link-sea"/>
  <line x1="85" y1="150" x2="520" y2="80" class="link-sea"/>
  <line x1="130" y1="195" x2="520" y2="80" class="link-mixed"/>

  <!-- Europe internal links -->
  <line x1="370" y1="170" x2="330" y2="250" class="link-mixed"/>
  <line x1="370" y1="170" x2="350" y2="155" class="link-mixed"/>
  <line x1="370" y1="170" x2="415" y2="215" class="link-land"/>
  <line x1="415" y1="215" x2="445" y2="170" class="link-land"/>
  <line x1="415" y1="215" x2="455" y2="240" class="link-land"/>
  <line x1="445" y1="170" x2="455" y2="240" class="link-land"/>
  <line x1="445" y1="170" x2="485" y2="170" class="link-land"/>
  <line x1="445" y1="170" x2="465" y2="135" class="link-mixed"/>

  <!-- Baltic links -->
  <line x1="465" y1="135" x2="485" y2="170" class="link-mixed"/>
  <line x1="465" y1="135" x2="600" y2="115" class="link-mixed"/>

  <!-- Freeland to Nordostan -->
  <line x1="485" y1="170" x2="600" y2="115" class="link-land"/>

  <!-- Med links -->
  <line x1="415" y1="215" x2="430" y2="290" class="link-mixed"/>
  <line x1="330" y1="250" x2="430" y2="290" class="link-sea"/>
  <line x1="455" y1="240" x2="430" y2="290" class="link-mixed"/>
  <line x1="455" y1="240" x2="510" y2="295" class="link-mixed"/>
  <line x1="430" y1="290" x2="510" y2="295" class="link-sea"/>

  <!-- E.Med connections -->
  <line x1="510" y1="295" x2="590" y2="290" class="link-mixed"/>
  <line x1="510" y1="295" x2="635" y2="320" class="link-mixed"/>
  <line x1="510" y1="295" x2="630" y2="385" class="link-sea"/>

  <!-- Black Sea -->
  <line x1="590" y1="290" x2="575" y2="215" class="link-mixed"/>
  <line x1="575" y1="215" x2="600" y2="115" class="link-mixed"/>

  <!-- Nordostan internal -->
  <line x1="600" y1="115" x2="690" y2="115" class="link-land"/>
  <line x1="690" y1="115" x2="780" y2="115" class="link-land"/>
  <line x1="690" y1="115" x2="520" y2="80" class="link-mixed"/>
  <line x1="780" y1="115" x2="520" y2="80" class="link-mixed"/>
  <line x1="780" y1="115" x2="85" y2="150" class="link-mixed" opacity="0.3"/>

  <!-- Central Asia links -->
  <line x1="690" y1="115" x2="760" y2="220" class="link-land"/>
  <line x1="760" y1="220" x2="730" y2="310" class="link-land"/>
  <line x1="760" y1="220" x2="920" y2="340" class="link-land"/>
  <line x1="760" y1="220" x2="1020" y2="200" class="link-land"/>

  <!-- Mashriq links -->
  <line x1="590" y1="290" x2="600" y2="115" class="link-mixed"/>
  <line x1="635" y1="320" x2="590" y2="290" class="link-land"/>
  <line x1="635" y1="320" x2="680" y2="340" class="link-land"/>
  <line x1="680" y1="340" x2="730" y2="310" class="link-land"/>
  <line x1="680" y1="340" x2="730" y2="375" class="link-land"/>
  <line x1="680" y1="340" x2="630" y2="385" class="link-mixed"/>
  <line x1="730" y1="310" x2="730" y2="375" class="link-land"/>
  <line x1="730" y1="310" x2="760" y2="365" class="link-mixed"/>
  <line x1="680" y1="340" x2="760" y2="365" class="link-mixed"/>
  <line x1="730" y1="375" x2="760" y2="365" class="link-mixed"/>
  <line x1="730" y1="375" x2="810" y2="405" class="link-mixed"/>
  <line x1="760" y1="365" x2="810" y2="405" class="link-sea"/>
  <line x1="630" y1="385" x2="810" y2="405" class="link-sea"/>

  <!-- Horn links -->
  <line x1="680" y1="430" x2="630" y2="385" class="link-mixed"/>
  <line x1="680" y1="430" x2="810" y2="405" class="link-mixed"/>
  <line x1="680" y1="430" x2="680" y2="340" class="link-land"/>
  <line x1="680" y1="430" x2="560" y2="440" class="link-land"/>

  <!-- C.Africa -->
  <line x1="560" y1="440" x2="330" y2="250" class="link-mixed"/>

  <!-- Arabian Sea connections -->
  <line x1="810" y1="405" x2="920" y2="340" class="link-mixed"/>
  <line x1="810" y1="405" x2="870" y2="440" class="link-sea"/>

  <!-- Indian Ocean links -->
  <line x1="870" y1="440" x2="920" y2="340" class="link-mixed"/>
  <line x1="870" y1="440" x2="970" y2="410" class="link-sea"/>

  <!-- SE Asia / Malacca to SCS -->
  <line x1="970" y1="410" x2="1060" y2="340" class="link-sea"/>
  <line x1="970" y1="410" x2="1080" y2="280" class="link-mixed"/>

  <!-- Cathay internal -->
  <line x1="1080" y1="190" x2="1020" y2="200" class="link-land"/>
  <line x1="1080" y1="190" x2="1080" y2="280" class="link-land"/>
  <line x1="1020" y1="200" x2="1080" y2="280" class="link-land"/>

  <!-- Cathay sea connections -->
  <line x1="1080" y1="190" x2="1130" y2="250" class="link-mixed"/>
  <line x1="1080" y1="190" x2="1060" y2="340" class="link-mixed"/>
  <line x1="1080" y1="280" x2="1060" y2="340" class="link-mixed"/>
  <line x1="1080" y1="280" x2="970" y2="410" class="link-mixed"/>

  <!-- East China Sea links -->
  <line x1="1130" y1="250" x2="1200" y2="300" class="link-sea" stroke-dasharray="6,5"/>
  <line x1="1130" y1="250" x2="1210" y2="190" class="link-sea" stroke-dasharray="6,5"/>
  <line x1="1130" y1="250" x2="1140" y2="170" class="link-mixed"/>
  <line x1="1130" y1="250" x2="1060" y2="340" class="link-sea"/>
  <line x1="1130" y1="250" x2="1230" y2="170" class="link-sea"/>

  <!-- SCS to Formosa (sea route) -->
  <line x1="1060" y1="340" x2="1200" y2="300" class="link-sea" stroke-dasharray="6,5"/>

  <!-- Yamato links -->
  <line x1="1210" y1="190" x2="1140" y2="170" class="link-land"/>
  <line x1="1210" y1="190" x2="1230" y2="170" class="link-mixed"/>

  <!-- Hanguk/Choson/Cathay -->
  <line x1="1140" y1="170" x2="1110" y2="148" class="link-land"/>
  <line x1="1140" y1="170" x2="1080" y2="190" class="link-land"/>
  <line x1="1110" y1="148" x2="1080" y2="190" class="link-land"/>
  <line x1="1110" y1="148" x2="780" y2="115" class="link-land"/>

  <!-- N.Pacific links (faint wide arc) -->
  <line x1="85" y1="150" x2="1230" y2="170" class="link-sea" opacity="0.25"/>
  <line x1="85" y1="150" x2="70" y2="270" class="link-sea"/>
  <line x1="55" y1="340" x2="85" y2="150" class="link-sea"/>
  <line x1="55" y1="340" x2="190" y2="320" class="link-sea"/>

  <!-- ================================================ -->
  <!-- SEA ZONE NODES (small, dark blue, subtle)        -->
  <!-- ================================================ -->

  <!-- North Pacific -->
  <circle cx="85" cy="150" r="9" fill="#2a4a6a" stroke="#1a3a5a" stroke-width="1" opacity="0.7"/>
  <text x="85" y="151" class="node-label-sea">N.PAC</text>

  <!-- Central Pacific -->
  <circle cx="55" cy="340" r="8" fill="#2a4a6a" stroke="#1a3a5a" stroke-width="1" opacity="0.7"/>
  <text x="55" y="341" class="node-label-sea">C.PAC</text>

  <!-- Western Atlantic -->
  <circle cx="230" cy="255" r="9" fill="#2a4a6a" stroke="#1a3a5a" stroke-width="1" opacity="0.7"/>
  <text x="230" y="256" class="node-label-sea">W.ATL</text>

  <!-- Gulf & Caribbean -->
  <circle cx="190" cy="320" r="8" fill="#2a4a6a" stroke="#1a3a5a" stroke-width="1" opacity="0.7"/>
  <text x="190" y="318" class="node-label-sea">GULF</text>
  <text x="190" y="325" class="node-label-sea">CARIB</text>
  <circle cx="190" cy="320" r="12" fill="none" stroke="#cc2222" stroke-width="1.5" opacity="0.7"/>

  <!-- Eastern Atlantic -->
  <circle cx="330" cy="250" r="8" fill="#2a4a6a" stroke="#1a3a5a" stroke-width="1" opacity="0.7"/>
  <text x="330" y="251" class="node-label-sea">E.ATL</text>

  <!-- GIUK Gap -->
  <circle cx="350" cy="155" r="8" fill="#2a4a6a" stroke="#1a3a5a" stroke-width="1" opacity="0.7"/>
  <text x="350" y="156" class="node-label-sea">GIUK</text>
  <circle cx="350" cy="155" r="12" fill="none" stroke="#cc2222" stroke-width="1.5" opacity="0.7"/>

  <!-- Arctic -->
  <circle cx="520" cy="80" r="10" fill="#2a4a6a" stroke="#1a3a5a" stroke-width="1" opacity="0.7"/>
  <text x="520" y="81" class="node-label-sea">ARCTIC</text>

  <!-- Baltic -->
  <circle cx="465" cy="135" r="7" fill="#2a4a6a" stroke="#1a3a5a" stroke-width="1" opacity="0.7"/>
  <text x="465" y="136" class="node-label-sea">BALTIC</text>

  <!-- Black Sea -->
  <circle cx="575" cy="215" r="8" fill="#2a4a6a" stroke="#1a3a5a" stroke-width="1" opacity="0.7"/>
  <text x="575" y="213" class="node-label-sea">BLACK</text>
  <text x="575" y="220" class="node-label-sea">SEA</text>
  <circle cx="575" cy="215" r="12" fill="none" stroke="#cc2222" stroke-width="1.5" opacity="0.7"/>
  <text x="575" y="234" class="chokepoint-label">BOSPHORUS</text>

  <!-- W. Mediterranean -->
  <circle cx="430" cy="290" r="8" fill="#2a4a6a" stroke="#1a3a5a" stroke-width="1" opacity="0.7"/>
  <text x="430" y="291" class="node-label-sea">W.MED</text>

  <!-- E. Mediterranean -->
  <circle cx="510" cy="295" r="8" fill="#2a4a6a" stroke="#1a3a5a" stroke-width="1" opacity="0.7"/>
  <text x="510" y="296" class="node-label-sea">E.MED</text>
  <circle cx="510" cy="295" r="12" fill="none" stroke="#cc2222" stroke-width="1.5" opacity="0.7"/>
  <text x="510" y="314" class="chokepoint-label">SUEZ</text>

  <!-- Red Sea -->
  <circle cx="630" cy="385" r="8" fill="#2a4a6a" stroke="#1a3a5a" stroke-width="1" opacity="0.7"/>
  <text x="630" y="383" class="node-label-sea">RED</text>
  <text x="630" y="390" class="node-label-sea">SEA</text>
  <circle cx="630" cy="385" r="12" fill="none" stroke="#cc2222" stroke-width="1.5" opacity="0.7"/>
  <text x="630" y="403" class="chokepoint-label">BAB EL-M.</text>

  <!-- Persian Gulf -->
  <circle cx="760" cy="365" r="8" fill="#2a4a6a" stroke="#1a3a5a" stroke-width="1" opacity="0.7"/>
  <text x="760" y="363" class="node-label-sea">PERS.</text>
  <text x="760" y="370" class="node-label-sea">GULF</text>
  <circle cx="760" cy="365" r="12" fill="none" stroke="#cc2222" stroke-width="1.5" opacity="0.7"/>
  <text x="760" y="384" class="chokepoint-label">HORMUZ</text>

  <!-- Arabian Sea -->
  <circle cx="810" cy="405" r="9" fill="#2a4a6a" stroke="#1a3a5a" stroke-width="1" opacity="0.7"/>
  <text x="810" y="403" class="node-label-sea">ARAB.</text>
  <text x="810" y="410" class="node-label-sea">SEA</text>

  <!-- Indian Ocean -->
  <circle cx="870" cy="440" r="9" fill="#2a4a6a" stroke="#1a3a5a" stroke-width="1" opacity="0.7"/>
  <text x="870" y="438" class="node-label-sea">INDIAN</text>
  <text x="870" y="445" class="node-label-sea">OCEAN</text>

  <!-- SE Asia / Malacca -->
  <circle cx="970" cy="410" r="9" fill="#2a4a6a" stroke="#1a3a5a" stroke-width="1" opacity="0.7"/>
  <text x="970" y="408" class="node-label-sea">SE.ASI</text>
  <text x="970" y="415" class="node-label-sea">MALAC</text>
  <circle cx="970" cy="410" r="13" fill="none" stroke="#cc2222" stroke-width="1.5" opacity="0.7"/>

  <!-- South China Sea -->
  <circle cx="1060" cy="340" r="10" fill="#2a4a6a" stroke="#1a3a5a" stroke-width="1" opacity="0.7"/>
  <text x="1060" y="341" class="node-label-sea">SCS</text>
  <circle cx="1060" cy="340" r="14" fill="none" stroke="#cc2222" stroke-width="1.5" opacity="0.7"/>

  <!-- East China Sea -->
  <circle cx="1130" cy="250" r="9" fill="#2a4a6a" stroke="#1a3a5a" stroke-width="1" opacity="0.7"/>
  <text x="1130" y="248" class="node-label-sea">E.CHI</text>
  <text x="1130" y="255" class="node-label-sea">SEA</text>

  <!-- N.Pacific (east side) -->
  <circle cx="1230" cy="170" r="7" fill="#2a4a6a" stroke="#1a3a5a" stroke-width="1" opacity="0.6"/>
  <text x="1230" y="171" class="node-label-sea" font-size="4.5">N.PAC-E</text>

  <!-- ================================================ -->
  <!-- LAND ZONE NODES (large, colorful, POP)           -->
  <!-- ================================================ -->

  <!-- COLUMBIA -->
  <!-- Alaska -->
  <circle cx="130" cy="195" r="21" fill="#5a7a4a" stroke="#3a5a2a" stroke-width="2.5"/>
  <text x="130" y="190" class="node-label">COL</text>
  <text x="130" y="200" class="node-label">ALASKA</text>

  <!-- Continental -->
  <circle cx="130" cy="240" r="24" fill="#4a6a3a" stroke="#3a5a2a" stroke-width="2.5"/>
  <text x="130" y="235" class="node-label">COL</text>
  <text x="130" y="245" class="node-label">CONT.</text>
  <!-- Unit badges: Ground -->
  <rect x="152" y="248" width="18" height="10" rx="2" fill="#3a5a2a" stroke="#2a4a1a" stroke-width="0.5"/>
  <text x="155" y="254" class="unit-badge" font-size="5" text-anchor="start">G:8</text>
  <!-- Naval -->
  <rect x="152" y="236" width="18" height="10" rx="2" fill="#2a4a6a" stroke="#1a3a5a" stroke-width="0.5"/>
  <text x="155" y="242" class="unit-badge" font-size="5" text-anchor="start">N:5</text>
  <!-- Air -->
  <rect x="152" y="224" width="18" height="10" rx="2" fill="#5a4a6a" stroke="#4a3a5a" stroke-width="0.5"/>
  <text x="155" y="230" class="unit-badge" font-size="5" text-anchor="start">A:4</text>

  <!-- Hawaii / PACOM -->
  <circle cx="70" cy="270" r="19" fill="#5a7a4a" stroke="#3a5a2a" stroke-width="2.5"/>
  <text x="70" y="267" class="node-label">COL</text>
  <text x="70" y="276" class="node-label">PACOM</text>
  <rect x="87" y="265" width="18" height="10" rx="2" fill="#2a4a6a" stroke="#1a3a5a" stroke-width="0.5"/>
  <text x="90" y="271" class="unit-badge" font-size="5" text-anchor="start">N:3</text>

  <!-- Caribe -->
  <circle cx="170" cy="305" r="16" fill="#8a6a5a" stroke="#6a4a3a" stroke-width="2"/>
  <text x="170" y="306" class="node-label">CARIBE</text>

  <!-- THULE (was Greenland, same color as Teutonia) -->
  <circle cx="275" cy="120" r="16" fill="#5a7a5a" stroke="#3a5a3a" stroke-width="2"/>
  <text x="275" y="121" class="node-label">THULE</text>

  <!-- EUROPE -->
  <!-- Albion -->
  <circle cx="370" cy="170" r="19" fill="#5a6a7a" stroke="#3a4a5a" stroke-width="2.5"/>
  <text x="370" y="171" class="node-label">ALBION</text>
  <rect x="387" y="165" width="18" height="10" rx="2" fill="#2a4a6a" stroke="#1a3a5a" stroke-width="0.5"/>
  <text x="390" y="171" class="unit-badge" font-size="5" text-anchor="start">N:2</text>

  <!-- Gallia -->
  <circle cx="415" cy="215" r="19" fill="#7a5a7a" stroke="#5a3a5a" stroke-width="2.5"/>
  <text x="415" y="216" class="node-label">GALLIA</text>
  <rect x="432" y="210" width="18" height="10" rx="2" fill="#3a5a2a" stroke="#2a4a1a" stroke-width="0.5"/>
  <text x="435" y="216" class="unit-badge" font-size="5" text-anchor="start">G:3</text>

  <!-- Teutonia -->
  <circle cx="445" cy="170" r="19" fill="#5a7a5a" stroke="#3a5a3a" stroke-width="2.5"/>
  <text x="445" y="168" class="node-label">TEUTO-</text>
  <text x="445" y="177" class="node-label">NIA</text>
  <rect x="462" y="165" width="18" height="10" rx="2" fill="#3a5a2a" stroke="#2a4a1a" stroke-width="0.5"/>
  <text x="465" y="171" class="unit-badge" font-size="5" text-anchor="start">G:3</text>

  <!-- Ponte -->
  <circle cx="455" cy="240" r="16" fill="#7a6a4a" stroke="#5a4a2a" stroke-width="2"/>
  <text x="455" y="241" class="node-label">PONTE</text>

  <!-- Freeland -->
  <circle cx="485" cy="170" r="19" fill="#6a5a7a" stroke="#4a3a5a" stroke-width="2.5"/>
  <text x="485" y="167" class="node-label">FREE-</text>
  <text x="485" y="177" class="node-label">LAND</text>
  <!-- EE Theater indicator -->
  <circle cx="485" cy="170" r="24" fill="none" stroke="#cc2222" stroke-width="1.8" stroke-dasharray="4,3"/>
  <text x="485" y="150" font-family="'Inter', Arial, sans-serif" font-size="6.5" fill="#cc2222" text-anchor="middle" font-weight="700">EE THEATER</text>

  <!-- NORDOSTAN -->
  <!-- Western -->
  <circle cx="600" cy="115" r="21" fill="#7a6a4a" stroke="#5a4a2a" stroke-width="2.5"/>
  <text x="600" y="110" class="node-label">NOR</text>
  <text x="600" y="120" class="node-label">WEST</text>
  <rect x="619" y="120" width="18" height="10" rx="2" fill="#3a5a2a" stroke="#2a4a1a" stroke-width="0.5"/>
  <text x="622" y="126" class="unit-badge" font-size="5" text-anchor="start">G:6</text>

  <!-- Central -->
  <circle cx="690" cy="115" r="21" fill="#7a6a4a" stroke="#5a4a2a" stroke-width="2.5"/>
  <text x="690" y="110" class="node-label">NOR</text>
  <text x="690" y="120" class="node-label">CENT.</text>
  <rect x="709" y="110" width="18" height="10" rx="2" fill="#3a5a2a" stroke="#2a4a1a" stroke-width="0.5"/>
  <text x="712" y="116" class="unit-badge" font-size="5" text-anchor="start">G:4</text>

  <!-- Far East -->
  <circle cx="780" cy="115" r="19" fill="#7a6a4a" stroke="#5a4a2a" stroke-width="2.5"/>
  <text x="780" y="110" class="node-label">NOR</text>
  <text x="780" y="120" class="node-label">EAST</text>
  <rect x="797" y="110" width="18" height="10" rx="2" fill="#2a4a6a" stroke="#1a3a5a" stroke-width="0.5"/>
  <text x="800" y="116" class="unit-badge" font-size="5" text-anchor="start">N:2</text>

  <!-- MIDDLE EAST -->
  <!-- Phrygia -->
  <circle cx="590" cy="290" r="18" fill="#8a7a4a" stroke="#6a5a2a" stroke-width="2"/>
  <text x="590" y="288" class="node-label">PHRY-</text>
  <text x="590" y="297" class="node-label">GIA</text>

  <!-- Levantia -->
  <circle cx="635" cy="320" r="16" fill="#5a7a4a" stroke="#3a5a2a" stroke-width="2"/>
  <text x="635" y="318" class="node-label">LEVAN-</text>
  <text x="635" y="327" class="node-label">TIA</text>
  <rect x="649" y="315" width="18" height="10" rx="2" fill="#3a5a2a" stroke="#2a4a1a" stroke-width="0.5"/>
  <text x="652" y="321" class="unit-badge" font-size="5" text-anchor="start">G:3</text>

  <!-- Solaria -->
  <circle cx="680" cy="340" r="19" fill="#8a7a3a" stroke="#6a5a1a" stroke-width="2.5"/>
  <text x="680" y="338" class="node-label">SOLA-</text>
  <text x="680" y="347" class="node-label">RIA</text>

  <!-- Persia -->
  <circle cx="730" cy="310" r="21" fill="#8a5a3a" stroke="#6a3a1a" stroke-width="2.5"/>
  <text x="730" y="311" class="node-label">PERSIA</text>
  <!-- ME Theater indicator -->
  <circle cx="730" cy="310" r="26" fill="none" stroke="#cc2222" stroke-width="1.8" stroke-dasharray="4,3"/>
  <text x="730" y="288" font-family="'Inter', Arial, sans-serif" font-size="6.5" fill="#cc2222" text-anchor="middle" font-weight="700">ME THEATER</text>
  <rect x="749" y="305" width="18" height="10" rx="2" fill="#3a5a2a" stroke="#2a4a1a" stroke-width="0.5"/>
  <text x="752" y="311" class="unit-badge" font-size="5" text-anchor="start">G:3</text>

  <!-- Mirage -->
  <circle cx="730" cy="375" r="15" fill="#8a8a5a" stroke="#6a6a3a" stroke-width="2"/>
  <text x="730" y="376" class="node-label">MIRAGE</text>

  <!-- Bharata -->
  <circle cx="920" cy="340" r="23" fill="#6a5a7a" stroke="#4a3a5a" stroke-width="2.5"/>
  <text x="920" y="336" class="node-label">BHA-</text>
  <text x="920" y="346" class="node-label">RATA</text>
  <rect x="941" y="345" width="18" height="10" rx="2" fill="#3a5a2a" stroke="#2a4a1a" stroke-width="0.5"/>
  <text x="944" y="351" class="unit-badge" font-size="5" text-anchor="start">G:4</text>
  <rect x="941" y="333" width="18" height="10" rx="2" fill="#2a4a6a" stroke="#1a3a5a" stroke-width="0.5"/>
  <text x="944" y="339" class="unit-badge" font-size="5" text-anchor="start">N:2</text>

  <!-- EAST ASIA -->
  <!-- Cathay Eastern -->
  <circle cx="1080" cy="190" r="23" fill="#8a6a2a" stroke="#6a4a0a" stroke-width="2.5"/>
  <text x="1080" y="186" class="node-label">CATHAY</text>
  <text x="1080" y="196" class="node-label">EAST</text>
  <rect x="1101" y="195" width="18" height="10" rx="2" fill="#3a5a2a" stroke="#2a4a1a" stroke-width="0.5"/>
  <text x="1104" y="201" class="unit-badge" font-size="5" text-anchor="start">G:8</text>
  <rect x="1101" y="183" width="18" height="10" rx="2" fill="#2a4a6a" stroke="#1a3a5a" stroke-width="0.5"/>
  <text x="1104" y="189" class="unit-badge" font-size="5" text-anchor="start">N:4</text>
  <rect x="1101" y="171" width="18" height="10" rx="2" fill="#5a4a6a" stroke="#4a3a5a" stroke-width="0.5"/>
  <text x="1104" y="177" class="unit-badge" font-size="5" text-anchor="start">A:3</text>

  <!-- Cathay Interior -->
  <circle cx="1020" cy="200" r="20" fill="#8a6a2a" stroke="#6a4a0a" stroke-width="2.5"/>
  <text x="1020" y="196" class="node-label">CATHAY</text>
  <text x="1020" y="206" class="node-label">INT.</text>

  <!-- Cathay Southern -->
  <circle cx="1080" cy="280" r="20" fill="#8a6a2a" stroke="#6a4a0a" stroke-width="2.5"/>
  <text x="1080" y="276" class="node-label">CATHAY</text>
  <text x="1080" y="286" class="node-label">SOUTH</text>

  <!-- Yamato (ISLAND, separated with blue water gap) -->
  <circle cx="1210" cy="190" r="19" fill="#3a6a8a" stroke="#1a4a6a" stroke-width="2.5"/>
  <text x="1210" y="188" class="node-label">YAMA-</text>
  <text x="1210" y="197" class="node-label">TO</text>
  <rect x="1227" y="185" width="18" height="10" rx="2" fill="#3a5a2a" stroke="#2a4a1a" stroke-width="0.5"/>
  <text x="1230" y="191" class="unit-badge" font-size="5" text-anchor="start">G:2</text>
  <rect x="1227" y="173" width="18" height="10" rx="2" fill="#2a4a6a" stroke="#1a3a5a" stroke-width="0.5"/>
  <text x="1230" y="179" class="unit-badge" font-size="5" text-anchor="start">N:3</text>

  <!-- Formosa (ISLAND, separated with blue water gap) -->
  <circle cx="1200" cy="300" r="17" fill="#4a8a5a" stroke="#2a6a3a" stroke-width="2.5"/>
  <text x="1200" y="296" class="node-label">FOR-</text>
  <text x="1200" y="305" class="node-label">MOSA</text>
  <rect x="1215" y="295" width="18" height="10" rx="2" fill="#3a5a2a" stroke="#2a4a1a" stroke-width="0.5"/>
  <text x="1218" y="301" class="unit-badge" font-size="5" text-anchor="start">G:3</text>

  <!-- Hanguk -->
  <circle cx="1140" cy="170" r="16" fill="#4a6a8a" stroke="#2a4a6a" stroke-width="2.5"/>
  <text x="1140" y="168" class="node-label">HAN-</text>
  <text x="1140" y="177" class="node-label">GUK</text>
  <rect x="1154" y="165" width="18" height="10" rx="2" fill="#3a5a2a" stroke="#2a4a1a" stroke-width="0.5"/>
  <text x="1157" y="171" class="unit-badge" font-size="5" text-anchor="start">G:3</text>

  <!-- Choson -->
  <circle cx="1110" cy="148" r="15" fill="#6a5a4a" stroke="#4a3a2a" stroke-width="2"/>
  <text x="1110" y="146" class="node-label">CHO-</text>
  <text x="1110" y="155" class="node-label">SON</text>
  <rect x="1123" y="143" width="18" height="10" rx="2" fill="#aa2222" stroke="#881111" stroke-width="0.5"/>
  <text x="1126" y="149" class="unit-badge" font-size="5" text-anchor="start">M:2</text>

  <!-- ================================================ -->
  <!-- CONTESTED ZONE NODES (gray, dashed border)       -->
  <!-- ================================================ -->

  <!-- Central Asia -->
  <circle cx="760" cy="220" r="17" fill="#b0b0b0" stroke="#888" stroke-width="1.8" stroke-dasharray="3,2"/>
  <text x="760" y="218" class="node-label-dark" font-size="6">CENT.</text>
  <text x="760" y="226" class="node-label-dark" font-size="6">ASIA</text>

  <!-- Horn of Africa -->
  <circle cx="680" cy="430" r="15" fill="#b0b0b0" stroke="#888" stroke-width="1.8" stroke-dasharray="3,2"/>
  <text x="680" y="431" class="node-label-dark" font-size="6">HORN</text>

  <!-- Central Africa -->
  <circle cx="560" cy="440" r="15" fill="#b0b0b0" stroke="#888" stroke-width="1.8" stroke-dasharray="3,2"/>
  <text x="560" y="438" class="node-label-dark" font-size="6">C.AFR-</text>
  <text x="560" y="446" class="node-label-dark" font-size="6">ICA</text>

  <!-- ================================================ -->
  <!-- COUNTRY CLUSTER LABELS                           -->
  <!-- ================================================ -->
  <text x="130" y="145" class="country-label" fill="#4a6a3a">COLUMBIA</text>
  <text x="430" y="130" class="country-label" fill="#5a4a6a">EREB</text>
  <text x="690" y="80" class="country-label" fill="#6a5a3a">NORDOSTAN</text>
  <text x="700" y="270" class="country-label" fill="#7a5a2a">MASHRIQ</text>
  <text x="920" y="380" class="country-label" fill="#4a3a5a" font-size="10">S. ASIA</text>
  <text x="1100" y="135" class="country-label" fill="#7a5a2a">ASU</text>

  <!-- ================================================ -->
  <!-- LEGEND                                           -->
  <!-- ================================================ -->
  <rect x="20" y="520" width="380" height="260" fill="white" stroke="#bbb" stroke-width="1" rx="6" opacity="0.92"/>
  <text x="210" y="543" class="legend-title" text-anchor="middle">LEGEND -- STRATEGIC NETWORK MAP</text>

  <!-- Node types -->
  <text x="35" y="565" class="legend-text" font-weight="700">NODES:</text>
  <circle cx="47" cy="580" r="10" fill="#5a7a4a" stroke="#3a5a2a" stroke-width="2"/>
  <text x="63" y="583" class="legend-text">Home territory (country color, large)</text>
  <circle cx="47" cy="600" r="6" fill="#2a4a6a" stroke="#1a3a5a" stroke-width="1" opacity="0.7"/>
  <text x="63" y="603" class="legend-text">Sea zone (dark blue, small, subtle)</text>
  <circle cx="47" cy="620" r="8" fill="#b0b0b0" stroke="#888" stroke-width="1.5" stroke-dasharray="2,1"/>
  <text x="63" y="623" class="legend-text">Contested zone (gray, dashed)</text>
  <circle cx="47" cy="640" r="6" fill="#2a4a6a" stroke="#cc2222" stroke-width="2"/>
  <text x="63" y="643" class="legend-text">Chokepoint (red ring on sea node)</text>

  <!-- Link types -->
  <text x="35" y="663" class="legend-text" font-weight="700">LINKS (adjacency):</text>
  <line x1="35" y1="675" x2="62" y2="675" class="link-land"/>
  <text x="70" y="678" class="legend-text">Land-land adjacency (solid)</text>
  <line x1="35" y1="690" x2="62" y2="690" class="link-sea"/>
  <text x="70" y="693" class="legend-text">Sea-sea adjacency (dashed blue)</text>
  <line x1="35" y1="705" x2="62" y2="705" class="link-mixed"/>
  <text x="70" y="708" class="legend-text">Land-sea adjacency (dotted)</text>

  <!-- Unit badges -->
  <text x="35" y="728" class="legend-text" font-weight="700">UNIT BADGES (next to nodes):</text>
  <rect x="35" y="735" width="18" height="10" rx="2" fill="#3a5a2a"/>
  <text x="38" y="741" class="unit-badge" font-size="5" text-anchor="start">G:4</text>
  <text x="58" y="743" class="legend-text">Ground</text>
  <rect x="100" y="735" width="18" height="10" rx="2" fill="#2a4a6a"/>
  <text x="103" y="741" class="unit-badge" font-size="5" text-anchor="start">N:2</text>
  <text x="123" y="743" class="legend-text">Naval</text>
  <rect x="162" y="735" width="18" height="10" rx="2" fill="#5a4a6a"/>
  <text x="165" y="741" class="unit-badge" font-size="5" text-anchor="start">A:3</text>
  <text x="185" y="743" class="legend-text">Air</text>
  <rect x="215" y="735" width="18" height="10" rx="2" fill="#aa2222"/>
  <text x="218" y="741" class="unit-badge" font-size="5" text-anchor="start">M:2</text>
  <text x="238" y="743" class="legend-text">Missile</text>

  <!-- Theater -->
  <text x="35" y="765" class="legend-text" font-weight="700">THEATERS:</text>
  <circle cx="115" cy="762" r="9" fill="none" stroke="#cc2222" stroke-width="1.5" stroke-dasharray="3,2"/>
  <text x="130" y="765" class="legend-text">= Active theater zone</text>

  <!-- ================================================ -->
  <!-- CHOKEPOINTS LIST                                 -->
  <!-- ================================================ -->
  <rect x="420" y="520" width="220" height="260" fill="white" stroke="#bbb" stroke-width="1" rx="6" opacity="0.92"/>
  <text x="530" y="543" class="legend-title" text-anchor="middle">8 CHOKEPOINTS</text>
  <text x="435" y="565" class="legend-text">1. Gulf Gate</text>
  <text x="435" y="582" class="legend-text">2. Suez Canal</text>
  <text x="435" y="599" class="legend-text">3. Bab el-Mandeb</text>
  <text x="435" y="616" class="legend-text">4. Bosphorus Strait</text>
  <text x="435" y="633" class="legend-text">5. GIUK Gap</text>
  <text x="435" y="650" class="legend-text">6. Malacca Strait</text>
  <text x="435" y="667" class="legend-text">7. South China Sea / Taiwan Str.</text>
  <text x="435" y="684" class="legend-text">8. Caribbean Passages</text>
  <line x1="435" y1="696" x2="625" y2="696" stroke="#ddd"/>
  <text x="435" y="714" class="legend-text" font-style="italic">Active theaters marked with</text>
  <text x="435" y="730" class="legend-text" font-style="italic">dashed red ring around node</text>
  <text x="435" y="752" class="legend-text" font-style="italic">2 active: Eastern Ereb,</text>
  <text x="435" y="768" class="legend-text" font-style="italic">Mashriq</text>

  <!-- NOTE box -->
  <rect x="660" y="520" width="280" height="120" fill="white" stroke="#bbb" stroke-width="1" rx="6" opacity="0.92"/>
  <text x="800" y="543" class="legend-title" text-anchor="middle">ABOUT THIS VIEW</text>
  <text x="675" y="565" class="legend-text">This graph shows the logical adjacency</text>
  <text x="675" y="582" class="legend-text">structure of all 45 global zones.</text>
  <text x="675" y="599" class="legend-text">Geography is approximated by layout.</text>
  <text x="675" y="616" class="legend-text">Lines show which zones can interact.</text>
  <text x="675" y="633" class="legend-text">Sea background = ocean. Land nodes POP.</text>

  <!-- Watermark -->
  <text x="1350" y="790" font-family="'Inter', Arial, sans-serif" font-size="7.5" fill="#7a9ab8" text-anchor="end" opacity="0.6">OPTION G2: STRATEGIC NETWORK REFINED v2.0 | Thucydides Trap SIM</text>
</svg>