<svg xmlns="http://www.w3.org/2000/svg" viewBox="0 0 1600 900" width="1600" height="900">
  <defs>
    <style>
      .cl { font-family: "Inter","Helvetica Neue",Arial,sans-serif; font-weight: 700; text-anchor: middle; dominant-baseline: central; fill: #333; letter-spacing: 1px; }
      .ol { font-family: "Inter","Helvetica Neue",Arial,sans-serif; font-weight: 300; font-style: italic; text-anchor: middle; dominant-baseline: central; fill: #6688AA; letter-spacing: 3px; opacity: 0.6; }
      .cpl { font-family: "Inter",Arial,sans-serif; font-size: 8px; font-weight: 700; text-anchor: middle; dominant-baseline: central; fill: #B8720C; }
      .lt { font-family: "Inter","Helvetica Neue",Arial,sans-serif; font-size: 9px; fill: #3a3a3a; }
      .ltt { font-family: "Inter","Helvetica Neue",Arial,sans-serif; font-size: 12px; fill: #1a1a1a; font-weight: 700; letter-spacing: 1.5px; }
    </style>
  </defs>
  <rect width="1600" height="900" fill="#C5D9E8"/>
  <!-- OCEAN -->
  <polygon points="55.00,-5.00 85.31,12.50 85.31,47.50 55.00,65.00 24.69,47.50 24.69,12.50" fill="#B5CCE0" stroke="#99AABB" stroke-width="0.3"/>
  <polygon points="115.62,-5.00 145.93,12.50 145.93,47.50 115.62,65.00 85.31,47.50 85.31,12.50" fill="#B5CCE0" stroke="#99AABB" stroke-width="0.3"/>
  <polygon points="176.24,-5.00 206.55,12.50 206.55,47.50 176.24,65.00 145.93,47.50 145.93,12.50" fill="#B5CCE0" stroke="#99AABB" stroke-width="0.3"/>
  <polygon points="236.87,-5.00 267.18,12.50 267.18,47.50 236.87,65.00 206.55,47.50 206.55,12.50" fill="#B5CCE0" stroke="#99AABB" stroke-width="0.3"/>
  <polygon points="297.49,-5.00 327.80,12.50 327.80,47.50 297.49,65.00 267.18,47.50 267.18,12.50" fill="#B5CCE0" stroke="#99AABB" stroke-width="0.3"/>
  <polygon points="358.11,-5.00 388.42,12.50 388.42,47.50 358.11,65.00 327.80,47.50 327.80,12.50" fill="#B5CCE0" stroke="#99AABB" stroke-width="0.3"/>
  <polygon points="418.73,-5.00 449.04,12.50 449.04,47.50 418.73,65.00 388.42,47.50 388.42,12.50" fill="#B5CCE0" stroke="#99AABB" stroke-width="0.3"/>
  <polygon points="479.35,-5.00 509.66,12.50 509.66,47.50 479.35,65.00 449.04,47.50 449.04,12.50" fill="#B5CCE0" stroke="#99AABB" stroke-width="0.3"/>
  <polygon points="539.97,-5.00 570.29,12.50 570.29,47.50 539.97,65.00 509.66,47.50 509.66,12.50" fill="#B5CCE0" stroke="#99AABB" stroke-width="0.3"/>
  <polygon points="600.60,-5.00 630.91,12.50 630.91,47.50 600.60,65.00 570.29,47.50 570.29,12.50" fill="#B5CCE0" stroke="#99AABB" stroke-width="0.3"/>
  <polygon points="661.22,-5.00 691.53,12.50 691.53,47.50 661.22,65.00 630.91,47.50 630.91,12.50" fill="#B5CCE0" stroke="#99AABB" stroke-width="0.3"/>
  <polygon points="721.84,-5.00 752.15,12.50 752.15,47.50 721.84,65.00 691.53,47.50 691.53,12.50" fill="#B5CCE0" stroke="#99AABB" stroke-width="0.3"/>
  <polygon points="782.46,-5.00 812.77,12.50 812.77,47.50 782.46,65.00 752.15,47.50 752.15,12.50" fill="#B5CCE0" stroke="#99AABB" stroke-width="0.3"/>
  <polygon points="843.08,-5.00 873.39,12.50 873.39,47.50 843.08,65.00 812.77,47.50 812.77,12.50" fill="#B5CCE0" stroke="#99AABB" stroke-width="0.3"/>
  <polygon points="903.70,-5.00 934.02,12.50 934.02,47.50 903.70,65.00 873.39,47.50 873.39,12.50" fill="#B5CCE0" stroke="#99AABB" stroke-width="0.3"/>
  <polygon points="964.33,-5.00 994.64,12.50 994.64,47.50 964.33,65.00 934.02,47.50 934.02,12.50" fill="#B5CCE0" stroke="#99AABB" stroke-width="0.3"/>
  <polygon points="1024.95,-5.00 1055.26,12.50 1055.26,47.50 1024.95,65.00 994.64,47.50 994.64,12.50" fill="#B5CCE0" stroke="#99AABB" stroke-width="0.3"/>
  <polygon points="1085.57,-5.00 1115.88,12.50 1115.88,47.50 1085.57,65.00 1055.26,47.50 1055.26,12.50" fill="#B5CCE0" stroke="#99AABB" stroke-width="0.3"/>
  <polygon points="1146.19,-5.00 1176.50,12.50 1176.50,47.50 1146.19,65.00 1115.88,47.50 1115.88,12.50" fill="#B5CCE0" stroke="#99AABB" stroke-width="0.3"/>
  <polygon points="1206.81,-5.00 1237.12,12.50 1237.12,47.50 1206.81,65.00 1176.50,47.50 1176.50,12.50" fill="#B5CCE0" stroke="#99AABB" stroke-width="0.3"/>
  <polygon points="1267.44,-5.00 1297.75,12.50 1297.75,47.50 1267.44,65.00 1237.12,47.50 1237.12,12.50" fill="#B5CCE0" stroke="#99AABB" stroke-width="0.3"/>
  <polygon points="1328.06,-5.00 1358.37,12.50 1358.37,47.50 1328.06,65.00 1297.75,47.50 1297.75,12.50" fill="#B5CCE0" stroke="#99AABB" stroke-width="0.3"/>
  <polygon points="85.31,47.50 115.62,65.00 115.62,100.00 85.31,117.50 55.00,100.00 55.00,65.00" fill="#B5CCE0" stroke="#99AABB" stroke-width="0.3"/>
  <polygon points="145.93,47.50 176.24,65.00 176.24,100.00 145.93,117.50 115.62,100.00 115.62,65.00" fill="#B5CCE0" stroke="#99AABB" stroke-width="0.3"/>
  <polygon points="206.55,47.50 236.87,65.00 236.87,100.00 206.55,117.50 176.24,100.00 176.24,65.00" fill="#B5CCE0" stroke="#99AABB" stroke-width="0.3"/>
  <polygon points="267.18,47.50 297.49,65.00 297.49,100.00 267.18,117.50 236.87,100.00 236.87,65.00" fill="#B5CCE0" stroke="#99AABB" stroke-width="0.3"/>
  <polygon points="327.80,47.50 358.11,65.00 358.11,100.00 327.80,117.50 297.49,100.00 297.49,65.00" fill="#B5CCE0" stroke="#99AABB" stroke-width="0.3"/>
  <polygon points="388.42,47.50 418.73,65.00 418.73,100.00 388.42,117.50 358.11,100.00 358.11,65.00" fill="#B5CCE0" stroke="#99AABB" stroke-width="0.3"/>
  <polygon points="449.04,47.50 479.35,65.00 479.35,100.00 449.04,117.50 418.73,100.00 418.73,65.00" fill="#B5CCE0" stroke="#99AABB" stroke-width="0.3"/>
  <polygon points="509.66,47.50 539.97,65.00 539.97,100.00 509.66,117.50 479.35,100.00 479.35,65.00" fill="#B5CCE0" stroke="#99AABB" stroke-width="0.3"/>
  <polygon points="570.29,47.50 600.60,65.00 600.60,100.00 570.29,117.50 539.97,100.00 539.97,65.00" fill="#B5CCE0" stroke="#99AABB" stroke-width="0.3"/>
  <polygon points="630.91,47.50 661.22,65.00 661.22,100.00 630.91,117.50 600.60,100.00 600.60,65.00" fill="#B5CCE0" stroke="#99AABB" stroke-width="0.3"/>
  <polygon points="752.15,47.50 782.46,65.00 782.46,100.00 752.15,117.50 721.84,100.00 721.84,65.00" fill="#B5CCE0" stroke="#99AABB" stroke-width="0.3"/>
  <polygon points="812.77,47.50 843.08,65.00 843.08,100.00 812.77,117.50 782.46,100.00 782.46,65.00" fill="#B5CCE0" stroke="#99AABB" stroke-width="0.3"/>
  <polygon points="873.39,47.50 903.70,65.00 903.70,100.00 873.39,117.50 843.08,100.00 843.08,65.00" fill="#B5CCE0" stroke="#99AABB" stroke-width="0.3"/>
  <polygon points="934.02,47.50 964.33,65.00 964.33,100.00 934.02,117.50 903.70,100.00 903.70,65.00" fill="#B5CCE0" stroke="#99AABB" stroke-width="0.3"/>
  <polygon points="994.64,47.50 1024.95,65.00 1024.95,100.00 994.64,117.50 964.33,100.00 964.33,65.00" fill="#B5CCE0" stroke="#99AABB" stroke-width="0.3"/>
  <polygon points="1055.26,47.50 1085.57,65.00 1085.57,100.00 1055.26,117.50 1024.95,100.00 1024.95,65.00" fill="#B5CCE0" stroke="#99AABB" stroke-width="0.3"/>
  <polygon points="1115.88,47.50 1146.19,65.00 1146.19,100.00 1115.88,117.50 1085.57,100.00 1085.57,65.00" fill="#B5CCE0" stroke="#99AABB" stroke-width="0.3"/>
  <polygon points="1176.50,47.50 1206.81,65.00 1206.81,100.00 1176.50,117.50 1146.19,100.00 1146.19,65.00" fill="#B5CCE0" stroke="#99AABB" stroke-width="0.3"/>
  <polygon points="1237.12,47.50 1267.44,65.00 1267.44,100.00 1237.12,117.50 1206.81,100.00 1206.81,65.00" fill="#B5CCE0" stroke="#99AABB" stroke-width="0.3"/>
  <polygon points="1297.75,47.50 1328.06,65.00 1328.06,100.00 1297.75,117.50 1267.44,100.00 1267.44,65.00" fill="#B5CCE0" stroke="#99AABB" stroke-width="0.3"/>
  <polygon points="1358.37,47.50 1388.68,65.00 1388.68,100.00 1358.37,117.50 1328.06,100.00 1328.06,65.00" fill="#B5CCE0" stroke="#99AABB" stroke-width="0.3"/>
  <polygon points="55.00,100.00 85.31,117.50 85.31,152.50 55.00,170.00 24.69,152.50 24.69,117.50" fill="#B5CCE0" stroke="#99AABB" stroke-width="0.3"/>
  <polygon points="115.62,100.00 145.93,117.50 145.93,152.50 115.62,170.00 85.31,152.50 85.31,117.50" fill="#B5CCE0" stroke="#99AABB" stroke-width="0.3"/>
  <polygon points="176.24,100.00 206.55,117.50 206.55,152.50 176.24,170.00 145.93,152.50 145.93,117.50" fill="#B5CCE0" stroke="#99AABB" stroke-width="0.3"/>
  <polygon points="236.87,100.00 267.18,117.50 267.18,152.50 236.87,170.00 206.55,152.50 206.55,117.50" fill="#B5CCE0" stroke="#99AABB" stroke-width="0.3"/>
  <polygon points="358.11,100.00 388.42,117.50 388.42,152.50 358.11,170.00 327.80,152.50 327.80,117.50" fill="#B5CCE0" stroke="#99AABB" stroke-width="0.3"/>
  <polygon points="418.73,100.00 449.04,117.50 449.04,152.50 418.73,170.00 388.42,152.50 388.42,117.50" fill="#B5CCE0" stroke="#99AABB" stroke-width="0.3"/>
  <polygon points="479.35,100.00 509.66,117.50 509.66,152.50 479.35,170.00 449.04,152.50 449.04,117.50" fill="#B5CCE0" stroke="#99AABB" stroke-width="0.3"/>
  <polygon points="539.97,100.00 570.29,117.50 570.29,152.50 539.97,170.00 509.66,152.50 509.66,117.50" fill="#B5CCE0" stroke="#99AABB" stroke-width="0.3"/>
  <polygon points="903.70,100.00 934.02,117.50 934.02,152.50 903.70,170.00 873.39,152.50 873.39,117.50" fill="#B5CCE0" stroke="#99AABB" stroke-width="0.3"/>
  <polygon points="1024.95,100.00 1055.26,117.50 1055.26,152.50 1024.95,170.00 994.64,152.50 994.64,117.50" fill="#B5CCE0" stroke="#99AABB" stroke-width="0.3"/>
  <polygon points="1085.57,100.00 1115.88,117.50 1115.88,152.50 1085.57,170.00 1055.26,152.50 1055.26,117.50" fill="#B5CCE0" stroke="#99AABB" stroke-width="0.3"/>
  <polygon points="1146.19,100.00 1176.50,117.50 1176.50,152.50 1146.19,170.00 1115.88,152.50 1115.88,117.50" fill="#B5CCE0" stroke="#99AABB" stroke-width="0.3"/>
  <polygon points="1206.81,100.00 1237.12,117.50 1237.12,152.50 1206.81,170.00 1176.50,152.50 1176.50,117.50" fill="#B5CCE0" stroke="#99AABB" stroke-width="0.3"/>
  <polygon points="1267.44,100.00 1297.75,117.50 1297.75,152.50 1267.44,170.00 1237.12,152.50 1237.12,117.50" fill="#B5CCE0" stroke="#99AABB" stroke-width="0.3"/>
  <polygon points="1328.06,100.00 1358.37,117.50 1358.37,152.50 1328.06,170.00 1297.75,152.50 1297.75,117.50" fill="#B5CCE0" stroke="#99AABB" stroke-width="0.3"/>
  <polygon points="85.31,152.50 115.62,170.00 115.62,205.00 85.31,222.50 55.00,205.00 55.00,170.00" fill="#B5CCE0" stroke="#99AABB" stroke-width="0.3"/>
  <polygon points="145.93,152.50 176.24,170.00 176.24,205.00 145.93,222.50 115.62,205.00 115.62,170.00" fill="#B5CCE0" stroke="#99AABB" stroke-width="0.3"/>
  <polygon points="206.55,152.50 236.87,170.00 236.87,205.00 206.55,222.50 176.24,205.00 176.24,170.00" fill="#B5CCE0" stroke="#99AABB" stroke-width="0.3"/>
  <polygon points="267.18,152.50 297.49,170.00 297.49,205.00 267.18,222.50 236.87,205.00 236.87,170.00" fill="#B5CCE0" stroke="#99AABB" stroke-width="0.3"/>
  <polygon points="327.80,152.50 358.11,170.00 358.11,205.00 327.80,222.50 297.49,205.00 297.49,170.00" fill="#B5CCE0" stroke="#99AABB" stroke-width="0.3"/>
  <polygon points="388.42,152.50 418.73,170.00 418.73,205.00 388.42,222.50 358.11,205.00 358.11,170.00" fill="#B5CCE0" stroke="#99AABB" stroke-width="0.3"/>
  <polygon points="449.04,152.50 479.35,170.00 479.35,205.00 449.04,222.50 418.73,205.00 418.73,170.00" fill="#B5CCE0" stroke="#99AABB" stroke-width="0.3"/>
  <polygon points="934.02,152.50 964.33,170.00 964.33,205.00 934.02,222.50 903.70,205.00 903.70,170.00" fill="#B5CCE0" stroke="#99AABB" stroke-width="0.3"/>
  <polygon points="1055.26,152.50 1085.57,170.00 1085.57,205.00 1055.26,222.50 1024.95,205.00 1024.95,170.00" fill="#B5CCE0" stroke="#99AABB" stroke-width="0.3"/>
  <polygon points="1115.88,152.50 1146.19,170.00 1146.19,205.00 1115.88,222.50 1085.57,205.00 1085.57,170.00" fill="#B5CCE0" stroke="#99AABB" stroke-width="0.3"/>
  <polygon points="1237.12,152.50 1267.44,170.00 1267.44,205.00 1237.12,222.50 1206.81,205.00 1206.81,170.00" fill="#B5CCE0" stroke="#99AABB" stroke-width="0.3"/>
  <polygon points="1297.75,152.50 1328.06,170.00 1328.06,205.00 1297.75,222.50 1267.44,205.00 1267.44,170.00" fill="#B5CCE0" stroke="#99AABB" stroke-width="0.3"/>
  <polygon points="1358.37,152.50 1388.68,170.00 1388.68,205.00 1358.37,222.50 1328.06,205.00 1328.06,170.00" fill="#B5CCE0" stroke="#99AABB" stroke-width="0.3"/>
  <polygon points="55.00,205.00 85.31,222.50 85.31,257.50 55.00,275.00 24.69,257.50 24.69,222.50" fill="#B5CCE0" stroke="#99AABB" stroke-width="0.3"/>
  <polygon points="176.24,205.00 206.55,222.50 206.55,257.50 176.24,275.00 145.93,257.50 145.93,222.50" fill="#B5CCE0" stroke="#99AABB" stroke-width="0.3"/>
  <polygon points="236.87,205.00 267.18,222.50 267.18,257.50 236.87,275.00 206.55,257.50 206.55,222.50" fill="#B5CCE0" stroke="#99AABB" stroke-width="0.3"/>
  <polygon points="297.49,205.00 327.80,222.50 327.80,257.50 297.49,275.00 267.18,257.50 267.18,222.50" fill="#B5CCE0" stroke="#99AABB" stroke-width="0.3"/>
  <polygon points="418.73,205.00 449.04,222.50 449.04,257.50 418.73,275.00 388.42,257.50 388.42,222.50" fill="#B5CCE0" stroke="#99AABB" stroke-width="0.3"/>
  <polygon points="600.60,205.00 630.91,222.50 630.91,257.50 600.60,275.00 570.29,257.50 570.29,222.50" fill="#B5CCE0" stroke="#99AABB" stroke-width="0.3"/>
  <polygon points="661.22,205.00 691.53,222.50 691.53,257.50 661.22,275.00 630.91,257.50 630.91,222.50" fill="#B5CCE0" stroke="#99AABB" stroke-width="0.3"/>
  <polygon points="721.84,205.00 752.15,222.50 752.15,257.50 721.84,275.00 691.53,257.50 691.53,222.50" fill="#B5CCE0" stroke="#99AABB" stroke-width="0.3"/>
  <polygon points="1085.57,205.00 1115.88,222.50 1115.88,257.50 1085.57,275.00 1055.26,257.50 1055.26,222.50" fill="#B5CCE0" stroke="#99AABB" stroke-width="0.3"/>
  <polygon points="1206.81,205.00 1237.12,222.50 1237.12,257.50 1206.81,275.00 1176.50,257.50 1176.50,222.50" fill="#B5CCE0" stroke="#99AABB" stroke-width="0.3"/>
  <polygon points="1267.44,205.00 1297.75,222.50 1297.75,257.50 1267.44,275.00 1237.12,257.50 1237.12,222.50" fill="#B5CCE0" stroke="#99AABB" stroke-width="0.3"/>
  <polygon points="1328.06,205.00 1358.37,222.50 1358.37,257.50 1328.06,275.00 1297.75,257.50 1297.75,222.50" fill="#B5CCE0" stroke="#99AABB" stroke-width="0.3"/>
  <polygon points="267.18,257.50 297.49,275.00 297.49,310.00 267.18,327.50 236.87,310.00 236.87,275.00" fill="#B5CCE0" stroke="#99AABB" stroke-width="0.3"/>
  <polygon points="327.80,257.50 358.11,275.00 358.11,310.00 327.80,327.50 297.49,310.00 297.49,275.00" fill="#B5CCE0" stroke="#99AABB" stroke-width="0.3"/>
  <polygon points="388.42,257.50 418.73,275.00 418.73,310.00 388.42,327.50 358.11,310.00 358.11,275.00" fill="#B5CCE0" stroke="#99AABB" stroke-width="0.3"/>
  <polygon points="691.53,257.50 721.84,275.00 721.84,310.00 691.53,327.50 661.22,310.00 661.22,275.00" fill="#B5CCE0" stroke="#99AABB" stroke-width="0.3"/>
  <polygon points="1115.88,257.50 1146.19,275.00 1146.19,310.00 1115.88,327.50 1085.57,310.00 1085.57,275.00" fill="#B5CCE0" stroke="#99AABB" stroke-width="0.3"/>
  <polygon points="1176.50,257.50 1206.81,275.00 1206.81,310.00 1176.50,327.50 1146.19,310.00 1146.19,275.00" fill="#B5CCE0" stroke="#99AABB" stroke-width="0.3"/>
  <polygon points="1237.12,257.50 1267.44,275.00 1267.44,310.00 1237.12,327.50 1206.81,310.00 1206.81,275.00" fill="#B5CCE0" stroke="#99AABB" stroke-width="0.3"/>
  <polygon points="1297.75,257.50 1328.06,275.00 1328.06,310.00 1297.75,327.50 1267.44,310.00 1267.44,275.00" fill="#B5CCE0" stroke="#99AABB" stroke-width="0.3"/>
  <polygon points="1358.37,257.50 1388.68,275.00 1388.68,310.00 1358.37,327.50 1328.06,310.00 1328.06,275.00" fill="#B5CCE0" stroke="#99AABB" stroke-width="0.3"/>
  <polygon points="55.00,310.00 85.31,327.50 85.31,362.50 55.00,380.00 24.69,362.50 24.69,327.50" fill="#B5CCE0" stroke="#99AABB" stroke-width="0.3"/>
  <polygon points="236.87,310.00 267.18,327.50 267.18,362.50 236.87,380.00 206.55,362.50 206.55,327.50" fill="#B5CCE0" stroke="#99AABB" stroke-width="0.3"/>
  <polygon points="297.49,310.00 327.80,327.50 327.80,362.50 297.49,380.00 267.18,362.50 267.18,327.50" fill="#B5CCE0" stroke="#99AABB" stroke-width="0.3"/>
  <polygon points="358.11,310.00 388.42,327.50 388.42,362.50 358.11,380.00 327.80,362.50 327.80,327.50" fill="#B5CCE0" stroke="#99AABB" stroke-width="0.3"/>
  <polygon points="479.35,310.00 509.66,327.50 509.66,362.50 479.35,380.00 449.04,362.50 449.04,327.50" fill="#B5CCE0" stroke="#99AABB" stroke-width="0.3"/>
  <polygon points="782.46,310.00 812.77,327.50 812.77,362.50 782.46,380.00 752.15,362.50 752.15,327.50" fill="#B5CCE0" stroke="#99AABB" stroke-width="0.3"/>
  <polygon points="843.08,310.00 873.39,327.50 873.39,362.50 843.08,380.00 812.77,362.50 812.77,327.50" fill="#B5CCE0" stroke="#99AABB" stroke-width="0.3"/>
  <polygon points="903.70,310.00 934.02,327.50 934.02,362.50 903.70,380.00 873.39,362.50 873.39,327.50" fill="#B5CCE0" stroke="#99AABB" stroke-width="0.3"/>
  <polygon points="964.33,310.00 994.64,327.50 994.64,362.50 964.33,380.00 934.02,362.50 934.02,327.50" fill="#B5CCE0" stroke="#99AABB" stroke-width="0.3"/>
  <polygon points="1085.57,310.00 1115.88,327.50 1115.88,362.50 1085.57,380.00 1055.26,362.50 1055.26,327.50" fill="#B5CCE0" stroke="#99AABB" stroke-width="0.3"/>
  <polygon points="1146.19,310.00 1176.50,327.50 1176.50,362.50 1146.19,380.00 1115.88,362.50 1115.88,327.50" fill="#B5CCE0" stroke="#99AABB" stroke-width="0.3"/>
  <polygon points="1206.81,310.00 1237.12,327.50 1237.12,362.50 1206.81,380.00 1176.50,362.50 1176.50,327.50" fill="#B5CCE0" stroke="#99AABB" stroke-width="0.3"/>
  <polygon points="1267.44,310.00 1297.75,327.50 1297.75,362.50 1267.44,380.00 1237.12,362.50 1237.12,327.50" fill="#B5CCE0" stroke="#99AABB" stroke-width="0.3"/>
  <polygon points="1328.06,310.00 1358.37,327.50 1358.37,362.50 1328.06,380.00 1297.75,362.50 1297.75,327.50" fill="#B5CCE0" stroke="#99AABB" stroke-width="0.3"/>
  <polygon points="85.31,362.50 115.62,380.00 115.62,415.00 85.31,432.50 55.00,415.00 55.00,380.00" fill="#B5CCE0" stroke="#99AABB" stroke-width="0.3"/>
  <polygon points="206.55,362.50 236.87,380.00 236.87,415.00 206.55,432.50 176.24,415.00 176.24,380.00" fill="#B5CCE0" stroke="#99AABB" stroke-width="0.3"/>
  <polygon points="267.18,362.50 297.49,380.00 297.49,415.00 267.18,432.50 236.87,415.00 236.87,380.00" fill="#B5CCE0" stroke="#99AABB" stroke-width="0.3"/>
  <polygon points="327.80,362.50 358.11,380.00 358.11,415.00 327.80,432.50 297.49,415.00 297.49,380.00" fill="#B5CCE0" stroke="#99AABB" stroke-width="0.3"/>
  <polygon points="388.42,362.50 418.73,380.00 418.73,415.00 388.42,432.50 358.11,415.00 358.11,380.00" fill="#B5CCE0" stroke="#99AABB" stroke-width="0.3"/>
  <polygon points="449.04,362.50 479.35,380.00 479.35,415.00 449.04,432.50 418.73,415.00 418.73,380.00" fill="#B5CCE0" stroke="#99AABB" stroke-width="0.3"/>
  <polygon points="509.66,362.50 539.97,380.00 539.97,415.00 509.66,432.50 479.35,415.00 479.35,380.00" fill="#B5CCE0" stroke="#99AABB" stroke-width="0.3"/>
  <polygon points="752.15,362.50 782.46,380.00 782.46,415.00 752.15,432.50 721.84,415.00 721.84,380.00" fill="#B5CCE0" stroke="#99AABB" stroke-width="0.3"/>
  <polygon points="812.77,362.50 843.08,380.00 843.08,415.00 812.77,432.50 782.46,415.00 782.46,380.00" fill="#B5CCE0" stroke="#99AABB" stroke-width="0.3"/>
  <polygon points="873.39,362.50 903.70,380.00 903.70,415.00 873.39,432.50 843.08,415.00 843.08,380.00" fill="#B5CCE0" stroke="#99AABB" stroke-width="0.3"/>
  <polygon points="934.02,362.50 964.33,380.00 964.33,415.00 934.02,432.50 903.70,415.00 903.70,380.00" fill="#B5CCE0" stroke="#99AABB" stroke-width="0.3"/>
  <polygon points="994.64,362.50 1024.95,380.00 1024.95,415.00 994.64,432.50 964.33,415.00 964.33,380.00" fill="#B5CCE0" stroke="#99AABB" stroke-width="0.3"/>
  <polygon points="1115.88,362.50 1146.19,380.00 1146.19,415.00 1115.88,432.50 1085.57,415.00 1085.57,380.00" fill="#B5CCE0" stroke="#99AABB" stroke-width="0.3"/>
  <polygon points="1176.50,362.50 1206.81,380.00 1206.81,415.00 1176.50,432.50 1146.19,415.00 1146.19,380.00" fill="#B5CCE0" stroke="#99AABB" stroke-width="0.3"/>
  <polygon points="1237.12,362.50 1267.44,380.00 1267.44,415.00 1237.12,432.50 1206.81,415.00 1206.81,380.00" fill="#B5CCE0" stroke="#99AABB" stroke-width="0.3"/>
  <polygon points="1297.75,362.50 1328.06,380.00 1328.06,415.00 1297.75,432.50 1267.44,415.00 1267.44,380.00" fill="#B5CCE0" stroke="#99AABB" stroke-width="0.3"/>
  <polygon points="1358.37,362.50 1388.68,380.00 1388.68,415.00 1358.37,432.50 1328.06,415.00 1328.06,380.00" fill="#B5CCE0" stroke="#99AABB" stroke-width="0.3"/>
  <polygon points="55.00,415.00 85.31,432.50 85.31,467.50 55.00,485.00 24.69,467.50 24.69,432.50" fill="#B5CCE0" stroke="#99AABB" stroke-width="0.3"/>
  <polygon points="115.62,415.00 145.93,432.50 145.93,467.50 115.62,485.00 85.31,467.50 85.31,432.50" fill="#B5CCE0" stroke="#99AABB" stroke-width="0.3"/>
  <polygon points="236.87,415.00 267.18,432.50 267.18,467.50 236.87,485.00 206.55,467.50 206.55,432.50" fill="#B5CCE0" stroke="#99AABB" stroke-width="0.3"/>
  <polygon points="297.49,415.00 327.80,432.50 327.80,467.50 297.49,485.00 267.18,467.50 267.18,432.50" fill="#B5CCE0" stroke="#99AABB" stroke-width="0.3"/>
  <polygon points="358.11,415.00 388.42,432.50 388.42,467.50 358.11,485.00 327.80,467.50 327.80,432.50" fill="#B5CCE0" stroke="#99AABB" stroke-width="0.3"/>
  <polygon points="418.73,415.00 449.04,432.50 449.04,467.50 418.73,485.00 388.42,467.50 388.42,432.50" fill="#B5CCE0" stroke="#99AABB" stroke-width="0.3"/>
  <polygon points="479.35,415.00 509.66,432.50 509.66,467.50 479.35,485.00 449.04,467.50 449.04,432.50" fill="#B5CCE0" stroke="#99AABB" stroke-width="0.3"/>
  <polygon points="600.60,415.00 630.91,432.50 630.91,467.50 600.60,485.00 570.29,467.50 570.29,432.50" fill="#B5CCE0" stroke="#99AABB" stroke-width="0.3"/>
  <polygon points="721.84,415.00 752.15,432.50 752.15,467.50 721.84,485.00 691.53,467.50 691.53,432.50" fill="#B5CCE0" stroke="#99AABB" stroke-width="0.3"/>
  <polygon points="782.46,415.00 812.77,432.50 812.77,467.50 782.46,485.00 752.15,467.50 752.15,432.50" fill="#B5CCE0" stroke="#99AABB" stroke-width="0.3"/>
  <polygon points="843.08,415.00 873.39,432.50 873.39,467.50 843.08,485.00 812.77,467.50 812.77,432.50" fill="#B5CCE0" stroke="#99AABB" stroke-width="0.3"/>
  <polygon points="903.70,415.00 934.02,432.50 934.02,467.50 903.70,485.00 873.39,467.50 873.39,432.50" fill="#B5CCE0" stroke="#99AABB" stroke-width="0.3"/>
  <polygon points="964.33,415.00 994.64,432.50 994.64,467.50 964.33,485.00 934.02,467.50 934.02,432.50" fill="#B5CCE0" stroke="#99AABB" stroke-width="0.3"/>
  <polygon points="1024.95,415.00 1055.26,432.50 1055.26,467.50 1024.95,485.00 994.64,467.50 994.64,432.50" fill="#B5CCE0" stroke="#99AABB" stroke-width="0.3"/>
  <polygon points="1085.57,415.00 1115.88,432.50 1115.88,467.50 1085.57,485.00 1055.26,467.50 1055.26,432.50" fill="#B5CCE0" stroke="#99AABB" stroke-width="0.3"/>
  <polygon points="1146.19,415.00 1176.50,432.50 1176.50,467.50 1146.19,485.00 1115.88,467.50 1115.88,432.50" fill="#B5CCE0" stroke="#99AABB" stroke-width="0.3"/>
  <polygon points="1206.81,415.00 1237.12,432.50 1237.12,467.50 1206.81,485.00 1176.50,467.50 1176.50,432.50" fill="#B5CCE0" stroke="#99AABB" stroke-width="0.3"/>
  <polygon points="1267.44,415.00 1297.75,432.50 1297.75,467.50 1267.44,485.00 1237.12,467.50 1237.12,432.50" fill="#B5CCE0" stroke="#99AABB" stroke-width="0.3"/>
  <polygon points="1328.06,415.00 1358.37,432.50 1358.37,467.50 1328.06,485.00 1297.75,467.50 1297.75,432.50" fill="#B5CCE0" stroke="#99AABB" stroke-width="0.3"/>
  <polygon points="85.31,467.50 115.62,485.00 115.62,520.00 85.31,537.50 55.00,520.00 55.00,485.00" fill="#B5CCE0" stroke="#99AABB" stroke-width="0.3"/>
  <polygon points="145.93,467.50 176.24,485.00 176.24,520.00 145.93,537.50 115.62,520.00 115.62,485.00" fill="#B5CCE0" stroke="#99AABB" stroke-width="0.3"/>
  <polygon points="267.18,467.50 297.49,485.00 297.49,520.00 267.18,537.50 236.87,520.00 236.87,485.00" fill="#B5CCE0" stroke="#99AABB" stroke-width="0.3"/>
  <polygon points="327.80,467.50 358.11,485.00 358.11,520.00 327.80,537.50 297.49,520.00 297.49,485.00" fill="#B5CCE0" stroke="#99AABB" stroke-width="0.3"/>
  <polygon points="388.42,467.50 418.73,485.00 418.73,520.00 388.42,537.50 358.11,520.00 358.11,485.00" fill="#B5CCE0" stroke="#99AABB" stroke-width="0.3"/>
  <polygon points="449.04,467.50 479.35,485.00 479.35,520.00 449.04,537.50 418.73,520.00 418.73,485.00" fill="#B5CCE0" stroke="#99AABB" stroke-width="0.3"/>
  <polygon points="509.66,467.50 539.97,485.00 539.97,520.00 509.66,537.50 479.35,520.00 479.35,485.00" fill="#B5CCE0" stroke="#99AABB" stroke-width="0.3"/>
  <polygon points="570.29,467.50 600.60,485.00 600.60,520.00 570.29,537.50 539.97,520.00 539.97,485.00" fill="#B5CCE0" stroke="#99AABB" stroke-width="0.3"/>
  <polygon points="630.91,467.50 661.22,485.00 661.22,520.00 630.91,537.50 600.60,520.00 600.60,485.00" fill="#B5CCE0" stroke="#99AABB" stroke-width="0.3"/>
  <polygon points="691.53,467.50 721.84,485.00 721.84,520.00 691.53,537.50 661.22,520.00 661.22,485.00" fill="#B5CCE0" stroke="#99AABB" stroke-width="0.3"/>
  <polygon points="752.15,467.50 782.46,485.00 782.46,520.00 752.15,537.50 721.84,520.00 721.84,485.00" fill="#B5CCE0" stroke="#99AABB" stroke-width="0.3"/>
  <polygon points="812.77,467.50 843.08,485.00 843.08,520.00 812.77,537.50 782.46,520.00 782.46,485.00" fill="#B5CCE0" stroke="#99AABB" stroke-width="0.3"/>
  <polygon points="873.39,467.50 903.70,485.00 903.70,520.00 873.39,537.50 843.08,520.00 843.08,485.00" fill="#B5CCE0" stroke="#99AABB" stroke-width="0.3"/>
  <polygon points="934.02,467.50 964.33,485.00 964.33,520.00 934.02,537.50 903.70,520.00 903.70,485.00" fill="#B5CCE0" stroke="#99AABB" stroke-width="0.3"/>
  <polygon points="994.64,467.50 1024.95,485.00 1024.95,520.00 994.64,537.50 964.33,520.00 964.33,485.00" fill="#B5CCE0" stroke="#99AABB" stroke-width="0.3"/>
  <polygon points="1055.26,467.50 1085.57,485.00 1085.57,520.00 1055.26,537.50 1024.95,520.00 1024.95,485.00" fill="#B5CCE0" stroke="#99AABB" stroke-width="0.3"/>
  <polygon points="1115.88,467.50 1146.19,485.00 1146.19,520.00 1115.88,537.50 1085.57,520.00 1085.57,485.00" fill="#B5CCE0" stroke="#99AABB" stroke-width="0.3"/>
  <polygon points="1176.50,467.50 1206.81,485.00 1206.81,520.00 1176.50,537.50 1146.19,520.00 1146.19,485.00" fill="#B5CCE0" stroke="#99AABB" stroke-width="0.3"/>
  <polygon points="1237.12,467.50 1267.44,485.00 1267.44,520.00 1237.12,537.50 1206.81,520.00 1206.81,485.00" fill="#B5CCE0" stroke="#99AABB" stroke-width="0.3"/>
  <polygon points="1297.75,467.50 1328.06,485.00 1328.06,520.00 1297.75,537.50 1267.44,520.00 1267.44,485.00" fill="#B5CCE0" stroke="#99AABB" stroke-width="0.3"/>
  <polygon points="1358.37,467.50 1388.68,485.00 1388.68,520.00 1358.37,537.50 1328.06,520.00 1328.06,485.00" fill="#B5CCE0" stroke="#99AABB" stroke-width="0.3"/>
  <polygon points="55.00,520.00 85.31,537.50 85.31,572.50 55.00,590.00 24.69,572.50 24.69,537.50" fill="#B5CCE0" stroke="#99AABB" stroke-width="0.3"/>
  <polygon points="115.62,520.00 145.93,537.50 145.93,572.50 115.62,590.00 85.31,572.50 85.31,537.50" fill="#B5CCE0" stroke="#99AABB" stroke-width="0.3"/>
  <polygon points="176.24,520.00 206.55,537.50 206.55,572.50 176.24,590.00 145.93,572.50 145.93,537.50" fill="#B5CCE0" stroke="#99AABB" stroke-width="0.3"/>
  <polygon points="236.87,520.00 267.18,537.50 267.18,572.50 236.87,590.00 206.55,572.50 206.55,537.50" fill="#B5CCE0" stroke="#99AABB" stroke-width="0.3"/>
  <polygon points="297.49,520.00 327.80,537.50 327.80,572.50 297.49,590.00 267.18,572.50 267.18,537.50" fill="#B5CCE0" stroke="#99AABB" stroke-width="0.3"/>
  <polygon points="358.11,520.00 388.42,537.50 388.42,572.50 358.11,590.00 327.80,572.50 327.80,537.50" fill="#B5CCE0" stroke="#99AABB" stroke-width="0.3"/>
  <polygon points="418.73,520.00 449.04,537.50 449.04,572.50 418.73,590.00 388.42,572.50 388.42,537.50" fill="#B5CCE0" stroke="#99AABB" stroke-width="0.3"/>
  <polygon points="479.35,520.00 509.66,537.50 509.66,572.50 479.35,590.00 449.04,572.50 449.04,537.50" fill="#B5CCE0" stroke="#99AABB" stroke-width="0.3"/>
  <polygon points="539.97,520.00 570.29,537.50 570.29,572.50 539.97,590.00 509.66,572.50 509.66,537.50" fill="#B5CCE0" stroke="#99AABB" stroke-width="0.3"/>
  <polygon points="600.60,520.00 630.91,537.50 630.91,572.50 600.60,590.00 570.29,572.50 570.29,537.50" fill="#B5CCE0" stroke="#99AABB" stroke-width="0.3"/>
  <polygon points="661.22,520.00 691.53,537.50 691.53,572.50 661.22,590.00 630.91,572.50 630.91,537.50" fill="#B5CCE0" stroke="#99AABB" stroke-width="0.3"/>
  <polygon points="721.84,520.00 752.15,537.50 752.15,572.50 721.84,590.00 691.53,572.50 691.53,537.50" fill="#B5CCE0" stroke="#99AABB" stroke-width="0.3"/>
  <polygon points="782.46,520.00 812.77,537.50 812.77,572.50 782.46,590.00 752.15,572.50 752.15,537.50" fill="#B5CCE0" stroke="#99AABB" stroke-width="0.3"/>
  <polygon points="843.08,520.00 873.39,537.50 873.39,572.50 843.08,590.00 812.77,572.50 812.77,537.50" fill="#B5CCE0" stroke="#99AABB" stroke-width="0.3"/>
  <polygon points="903.70,520.00 934.02,537.50 934.02,572.50 903.70,590.00 873.39,572.50 873.39,537.50" fill="#B5CCE0" stroke="#99AABB" stroke-width="0.3"/>
  <polygon points="964.33,520.00 994.64,537.50 994.64,572.50 964.33,590.00 934.02,572.50 934.02,537.50" fill="#B5CCE0" stroke="#99AABB" stroke-width="0.3"/>
  <polygon points="1024.95,520.00 1055.26,537.50 1055.26,572.50 1024.95,590.00 994.64,572.50 994.64,537.50" fill="#B5CCE0" stroke="#99AABB" stroke-width="0.3"/>
  <polygon points="1085.57,520.00 1115.88,537.50 1115.88,572.50 1085.57,590.00 1055.26,572.50 1055.26,537.50" fill="#B5CCE0" stroke="#99AABB" stroke-width="0.3"/>
  <polygon points="1146.19,520.00 1176.50,537.50 1176.50,572.50 1146.19,590.00 1115.88,572.50 1115.88,537.50" fill="#B5CCE0" stroke="#99AABB" stroke-width="0.3"/>
  <polygon points="1206.81,520.00 1237.12,537.50 1237.12,572.50 1206.81,590.00 1176.50,572.50 1176.50,537.50" fill="#B5CCE0" stroke="#99AABB" stroke-width="0.3"/>
  <polygon points="1267.44,520.00 1297.75,537.50 1297.75,572.50 1267.44,590.00 1237.12,572.50 1237.12,537.50" fill="#B5CCE0" stroke="#99AABB" stroke-width="0.3"/>
  <polygon points="1328.06,520.00 1358.37,537.50 1358.37,572.50 1328.06,590.00 1297.75,572.50 1297.75,537.50" fill="#B5CCE0" stroke="#99AABB" stroke-width="0.3"/>
  <polygon points="85.31,572.50 115.62,590.00 115.62,625.00 85.31,642.50 55.00,625.00 55.00,590.00" fill="#B5CCE0" stroke="#99AABB" stroke-width="0.3"/>
  <polygon points="145.93,572.50 176.24,590.00 176.24,625.00 145.93,642.50 115.62,625.00 115.62,590.00" fill="#B5CCE0" stroke="#99AABB" stroke-width="0.3"/>
  <polygon points="206.55,572.50 236.87,590.00 236.87,625.00 206.55,642.50 176.24,625.00 176.24,590.00" fill="#B5CCE0" stroke="#99AABB" stroke-width="0.3"/>
  <polygon points="267.18,572.50 297.49,590.00 297.49,625.00 267.18,642.50 236.87,625.00 236.87,590.00" fill="#B5CCE0" stroke="#99AABB" stroke-width="0.3"/>
  <polygon points="327.80,572.50 358.11,590.00 358.11,625.00 327.80,642.50 297.49,625.00 297.49,590.00" fill="#B5CCE0" stroke="#99AABB" stroke-width="0.3"/>
  <polygon points="388.42,572.50 418.73,590.00 418.73,625.00 388.42,642.50 358.11,625.00 358.11,590.00" fill="#B5CCE0" stroke="#99AABB" stroke-width="0.3"/>
  <polygon points="449.04,572.50 479.35,590.00 479.35,625.00 449.04,642.50 418.73,625.00 418.73,590.00" fill="#B5CCE0" stroke="#99AABB" stroke-width="0.3"/>
  <polygon points="509.66,572.50 539.97,590.00 539.97,625.00 509.66,642.50 479.35,625.00 479.35,590.00" fill="#B5CCE0" stroke="#99AABB" stroke-width="0.3"/>
  <polygon points="570.29,572.50 600.60,590.00 600.60,625.00 570.29,642.50 539.97,625.00 539.97,590.00" fill="#B5CCE0" stroke="#99AABB" stroke-width="0.3"/>
  <polygon points="630.91,572.50 661.22,590.00 661.22,625.00 630.91,642.50 600.60,625.00 600.60,590.00" fill="#B5CCE0" stroke="#99AABB" stroke-width="0.3"/>
  <polygon points="691.53,572.50 721.84,590.00 721.84,625.00 691.53,642.50 661.22,625.00 661.22,590.00" fill="#B5CCE0" stroke="#99AABB" stroke-width="0.3"/>
  <polygon points="752.15,572.50 782.46,590.00 782.46,625.00 752.15,642.50 721.84,625.00 721.84,590.00" fill="#B5CCE0" stroke="#99AABB" stroke-width="0.3"/>
  <polygon points="812.77,572.50 843.08,590.00 843.08,625.00 812.77,642.50 782.46,625.00 782.46,590.00" fill="#B5CCE0" stroke="#99AABB" stroke-width="0.3"/>
  <polygon points="873.39,572.50 903.70,590.00 903.70,625.00 873.39,642.50 843.08,625.00 843.08,590.00" fill="#B5CCE0" stroke="#99AABB" stroke-width="0.3"/>
  <polygon points="934.02,572.50 964.33,590.00 964.33,625.00 934.02,642.50 903.70,625.00 903.70,590.00" fill="#B5CCE0" stroke="#99AABB" stroke-width="0.3"/>
  <polygon points="994.64,572.50 1024.95,590.00 1024.95,625.00 994.64,642.50 964.33,625.00 964.33,590.00" fill="#B5CCE0" stroke="#99AABB" stroke-width="0.3"/>
  <polygon points="1055.26,572.50 1085.57,590.00 1085.57,625.00 1055.26,642.50 1024.95,625.00 1024.95,590.00" fill="#B5CCE0" stroke="#99AABB" stroke-width="0.3"/>
  <polygon points="1115.88,572.50 1146.19,590.00 1146.19,625.00 1115.88,642.50 1085.57,625.00 1085.57,590.00" fill="#B5CCE0" stroke="#99AABB" stroke-width="0.3"/>
  <polygon points="1176.50,572.50 1206.81,590.00 1206.81,625.00 1176.50,642.50 1146.19,625.00 1146.19,590.00" fill="#B5CCE0" stroke="#99AABB" stroke-width="0.3"/>
  <polygon points="1237.12,572.50 1267.44,590.00 1267.44,625.00 1237.12,642.50 1206.81,625.00 1206.81,590.00" fill="#B5CCE0" stroke="#99AABB" stroke-width="0.3"/>
  <polygon points="1297.75,572.50 1328.06,590.00 1328.06,625.00 1297.75,642.50 1267.44,625.00 1267.44,590.00" fill="#B5CCE0" stroke="#99AABB" stroke-width="0.3"/>
  <polygon points="1358.37,572.50 1388.68,590.00 1388.68,625.00 1358.37,642.50 1328.06,625.00 1328.06,590.00" fill="#B5CCE0" stroke="#99AABB" stroke-width="0.3"/>
  <polygon points="55.00,625.00 85.31,642.50 85.31,677.50 55.00,695.00 24.69,677.50 24.69,642.50" fill="#B5CCE0" stroke="#99AABB" stroke-width="0.3"/>
  <polygon points="115.62,625.00 145.93,642.50 145.93,677.50 115.62,695.00 85.31,677.50 85.31,642.50" fill="#B5CCE0" stroke="#99AABB" stroke-width="0.3"/>
  <polygon points="176.24,625.00 206.55,642.50 206.55,677.50 176.24,695.00 145.93,677.50 145.93,642.50" fill="#B5CCE0" stroke="#99AABB" stroke-width="0.3"/>
  <polygon points="236.87,625.00 267.18,642.50 267.18,677.50 236.87,695.00 206.55,677.50 206.55,642.50" fill="#B5CCE0" stroke="#99AABB" stroke-width="0.3"/>
  <polygon points="297.49,625.00 327.80,642.50 327.80,677.50 297.49,695.00 267.18,677.50 267.18,642.50" fill="#B5CCE0" stroke="#99AABB" stroke-width="0.3"/>
  <polygon points="358.11,625.00 388.42,642.50 388.42,677.50 358.11,695.00 327.80,677.50 327.80,642.50" fill="#B5CCE0" stroke="#99AABB" stroke-width="0.3"/>
  <polygon points="418.73,625.00 449.04,642.50 449.04,677.50 418.73,695.00 388.42,677.50 388.42,642.50" fill="#B5CCE0" stroke="#99AABB" stroke-width="0.3"/>
  <polygon points="479.35,625.00 509.66,642.50 509.66,677.50 479.35,695.00 449.04,677.50 449.04,642.50" fill="#B5CCE0" stroke="#99AABB" stroke-width="0.3"/>
  <polygon points="539.97,625.00 570.29,642.50 570.29,677.50 539.97,695.00 509.66,677.50 509.66,642.50" fill="#B5CCE0" stroke="#99AABB" stroke-width="0.3"/>
  <polygon points="600.60,625.00 630.91,642.50 630.91,677.50 600.60,695.00 570.29,677.50 570.29,642.50" fill="#B5CCE0" stroke="#99AABB" stroke-width="0.3"/>
  <polygon points="661.22,625.00 691.53,642.50 691.53,677.50 661.22,695.00 630.91,677.50 630.91,642.50" fill="#B5CCE0" stroke="#99AABB" stroke-width="0.3"/>
  <polygon points="721.84,625.00 752.15,642.50 752.15,677.50 721.84,695.00 691.53,677.50 691.53,642.50" fill="#B5CCE0" stroke="#99AABB" stroke-width="0.3"/>
  <polygon points="782.46,625.00 812.77,642.50 812.77,677.50 782.46,695.00 752.15,677.50 752.15,642.50" fill="#B5CCE0" stroke="#99AABB" stroke-width="0.3"/>
  <polygon points="843.08,625.00 873.39,642.50 873.39,677.50 843.08,695.00 812.77,677.50 812.77,642.50" fill="#B5CCE0" stroke="#99AABB" stroke-width="0.3"/>
  <polygon points="903.70,625.00 934.02,642.50 934.02,677.50 903.70,695.00 873.39,677.50 873.39,642.50" fill="#B5CCE0" stroke="#99AABB" stroke-width="0.3"/>
  <polygon points="964.33,625.00 994.64,642.50 994.64,677.50 964.33,695.00 934.02,677.50 934.02,642.50" fill="#B5CCE0" stroke="#99AABB" stroke-width="0.3"/>
  <polygon points="1024.95,625.00 1055.26,642.50 1055.26,677.50 1024.95,695.00 994.64,677.50 994.64,642.50" fill="#B5CCE0" stroke="#99AABB" stroke-width="0.3"/>
  <polygon points="1085.57,625.00 1115.88,642.50 1115.88,677.50 1085.57,695.00 1055.26,677.50 1055.26,642.50" fill="#B5CCE0" stroke="#99AABB" stroke-width="0.3"/>
  <polygon points="1146.19,625.00 1176.50,642.50 1176.50,677.50 1146.19,695.00 1115.88,677.50 1115.88,642.50" fill="#B5CCE0" stroke="#99AABB" stroke-width="0.3"/>
  <polygon points="1206.81,625.00 1237.12,642.50 1237.12,677.50 1206.81,695.00 1176.50,677.50 1176.50,642.50" fill="#B5CCE0" stroke="#99AABB" stroke-width="0.3"/>
  <polygon points="1267.44,625.00 1297.75,642.50 1297.75,677.50 1267.44,695.00 1237.12,677.50 1237.12,642.50" fill="#B5CCE0" stroke="#99AABB" stroke-width="0.3"/>
  <polygon points="1328.06,625.00 1358.37,642.50 1358.37,677.50 1328.06,695.00 1297.75,677.50 1297.75,642.50" fill="#B5CCE0" stroke="#99AABB" stroke-width="0.3"/>
  <polygon points="85.31,677.50 115.62,695.00 115.62,730.00 85.31,747.50 55.00,730.00 55.00,695.00" fill="#B5CCE0" stroke="#99AABB" stroke-width="0.3"/>
  <polygon points="145.93,677.50 176.24,695.00 176.24,730.00 145.93,747.50 115.62,730.00 115.62,695.00" fill="#B5CCE0" stroke="#99AABB" stroke-width="0.3"/>
  <polygon points="206.55,677.50 236.87,695.00 236.87,730.00 206.55,747.50 176.24,730.00 176.24,695.00" fill="#B5CCE0" stroke="#99AABB" stroke-width="0.3"/>
  <polygon points="267.18,677.50 297.49,695.00 297.49,730.00 267.18,747.50 236.87,730.00 236.87,695.00" fill="#B5CCE0" stroke="#99AABB" stroke-width="0.3"/>
  <polygon points="327.80,677.50 358.11,695.00 358.11,730.00 327.80,747.50 297.49,730.00 297.49,695.00" fill="#B5CCE0" stroke="#99AABB" stroke-width="0.3"/>
  <polygon points="388.42,677.50 418.73,695.00 418.73,730.00 388.42,747.50 358.11,730.00 358.11,695.00" fill="#B5CCE0" stroke="#99AABB" stroke-width="0.3"/>
  <polygon points="449.04,677.50 479.35,695.00 479.35,730.00 449.04,747.50 418.73,730.00 418.73,695.00" fill="#B5CCE0" stroke="#99AABB" stroke-width="0.3"/>
  <polygon points="509.66,677.50 539.97,695.00 539.97,730.00 509.66,747.50 479.35,730.00 479.35,695.00" fill="#B5CCE0" stroke="#99AABB" stroke-width="0.3"/>
  <polygon points="570.29,677.50 600.60,695.00 600.60,730.00 570.29,747.50 539.97,730.00 539.97,695.00" fill="#B5CCE0" stroke="#99AABB" stroke-width="0.3"/>
  <polygon points="630.91,677.50 661.22,695.00 661.22,730.00 630.91,747.50 600.60,730.00 600.60,695.00" fill="#B5CCE0" stroke="#99AABB" stroke-width="0.3"/>
  <polygon points="691.53,677.50 721.84,695.00 721.84,730.00 691.53,747.50 661.22,730.00 661.22,695.00" fill="#B5CCE0" stroke="#99AABB" stroke-width="0.3"/>
  <polygon points="752.15,677.50 782.46,695.00 782.46,730.00 752.15,747.50 721.84,730.00 721.84,695.00" fill="#B5CCE0" stroke="#99AABB" stroke-width="0.3"/>
  <polygon points="812.77,677.50 843.08,695.00 843.08,730.00 812.77,747.50 782.46,730.00 782.46,695.00" fill="#B5CCE0" stroke="#99AABB" stroke-width="0.3"/>
  <polygon points="873.39,677.50 903.70,695.00 903.70,730.00 873.39,747.50 843.08,730.00 843.08,695.00" fill="#B5CCE0" stroke="#99AABB" stroke-width="0.3"/>
  <polygon points="934.02,677.50 964.33,695.00 964.33,730.00 934.02,747.50 903.70,730.00 903.70,695.00" fill="#B5CCE0" stroke="#99AABB" stroke-width="0.3"/>
  <polygon points="994.64,677.50 1024.95,695.00 1024.95,730.00 994.64,747.50 964.33,730.00 964.33,695.00" fill="#B5CCE0" stroke="#99AABB" stroke-width="0.3"/>
  <polygon points="1055.26,677.50 1085.57,695.00 1085.57,730.00 1055.26,747.50 1024.95,730.00 1024.95,695.00" fill="#B5CCE0" stroke="#99AABB" stroke-width="0.3"/>
  <polygon points="1115.88,677.50 1146.19,695.00 1146.19,730.00 1115.88,747.50 1085.57,730.00 1085.57,695.00" fill="#B5CCE0" stroke="#99AABB" stroke-width="0.3"/>
  <polygon points="1176.50,677.50 1206.81,695.00 1206.81,730.00 1176.50,747.50 1146.19,730.00 1146.19,695.00" fill="#B5CCE0" stroke="#99AABB" stroke-width="0.3"/>
  <polygon points="1237.12,677.50 1267.44,695.00 1267.44,730.00 1237.12,747.50 1206.81,730.00 1206.81,695.00" fill="#B5CCE0" stroke="#99AABB" stroke-width="0.3"/>
  <polygon points="1297.75,677.50 1328.06,695.00 1328.06,730.00 1297.75,747.50 1267.44,730.00 1267.44,695.00" fill="#B5CCE0" stroke="#99AABB" stroke-width="0.3"/>
  <polygon points="1358.37,677.50 1388.68,695.00 1388.68,730.00 1358.37,747.50 1328.06,730.00 1328.06,695.00" fill="#B5CCE0" stroke="#99AABB" stroke-width="0.3"/>
  <!-- CHOKEPOINTS -->
  <polygon points="1024.95,310.00 1055.26,327.50 1055.26,362.50 1024.95,380.00 994.64,362.50 994.64,327.50" fill="#B5CCE0" stroke="#D4880F" stroke-width="3"/>
  <polygon points="691.53,362.50 721.84,380.00 721.84,415.00 691.53,432.50 661.22,415.00 661.22,380.00" fill="#B5CCE0" stroke="#D4880F" stroke-width="3"/>
  <polygon points="176.24,415.00 206.55,432.50 206.55,467.50 176.24,485.00 145.93,467.50 145.93,432.50" fill="#B5CCE0" stroke="#D4880F" stroke-width="3"/>
  <!-- LAND -->
  <polygon points="691.53,47.50 721.84,65.00 721.84,100.00 691.53,117.50 661.22,100.00 661.22,65.00" fill="#D4A5A5" stroke="#666" stroke-width="1.5"/>
  <polygon points="297.49,100.00 327.80,117.50 327.80,152.50 297.49,170.00 267.18,152.50 267.18,117.50" fill="#8FB59A" stroke="#666" stroke-width="1.5"/>
  <polygon points="600.60,100.00 630.91,117.50 630.91,152.50 600.60,170.00 570.29,152.50 570.29,117.50" fill="#D4A5A5" stroke="#666" stroke-width="1.5"/>
  <polygon points="661.22,100.00 691.53,117.50 691.53,152.50 661.22,170.00 630.91,152.50 630.91,117.50" fill="#D4A5A5" stroke="#666" stroke-width="1.5"/>
  <polygon points="721.84,100.00 752.15,117.50 752.15,152.50 721.84,170.00 691.53,152.50 691.53,117.50" fill="#D4A5A5" stroke="#666" stroke-width="1.5"/>
  <polygon points="782.46,100.00 812.77,117.50 812.77,152.50 782.46,170.00 752.15,152.50 752.15,117.50" fill="#D4A5A5" stroke="#666" stroke-width="1.5"/>
  <polygon points="843.08,100.00 873.39,117.50 873.39,152.50 843.08,170.00 812.77,152.50 812.77,117.50" fill="#D4A5A5" stroke="#666" stroke-width="1.5"/>
  <polygon points="964.33,100.00 994.64,117.50 994.64,152.50 964.33,170.00 934.02,152.50 934.02,117.50" fill="#8A8A8A" stroke="#666" stroke-width="1.5"/>
  <polygon points="509.66,152.50 539.97,170.00 539.97,205.00 509.66,222.50 479.35,205.00 479.35,170.00" fill="#8FB59A" stroke="#666" stroke-width="1.5"/>
  <polygon points="570.29,152.50 600.60,170.00 600.60,205.00 570.29,222.50 539.97,205.00 539.97,170.00" fill="#D4B58A" stroke="#666" stroke-width="1.5"/>
  <polygon points="630.91,152.50 661.22,170.00 661.22,205.00 630.91,222.50 600.60,205.00 600.60,170.00" fill="#D4A5A5" stroke="#666" stroke-width="1.5"/>
  <polygon points="691.53,152.50 721.84,170.00 721.84,205.00 691.53,222.50 661.22,205.00 661.22,170.00" fill="#D4A5A5" stroke="#666" stroke-width="1.5"/>
  <polygon points="752.15,152.50 782.46,170.00 782.46,205.00 752.15,222.50 721.84,205.00 721.84,170.00" fill="#C8C8A5" stroke="#666" stroke-width="1.5"/>
  <polygon points="812.77,152.50 843.08,170.00 843.08,205.00 812.77,222.50 782.46,205.00 782.46,170.00" fill="#C8C8A5" stroke="#666" stroke-width="1.5"/>
  <polygon points="873.39,152.50 903.70,170.00 903.70,205.00 873.39,222.50 843.08,205.00 843.08,170.00" fill="#E8D5A3" stroke="#666" stroke-width="1.5"/>
  <polygon points="994.64,152.50 1024.95,170.00 1024.95,205.00 994.64,222.50 964.33,205.00 964.33,170.00" fill="#A5C8D4" stroke="#666" stroke-width="1.5"/>
  <polygon points="1176.50,152.50 1206.81,170.00 1206.81,205.00 1176.50,222.50 1146.19,205.00 1146.19,170.00" fill="#A5B5C8" stroke="#666" stroke-width="1.5"/>
  <polygon points="115.62,205.00 145.93,222.50 145.93,257.50 115.62,275.00 85.31,257.50 85.31,222.50" fill="#D4B896" stroke="#666" stroke-width="1.5"/>
  <polygon points="358.11,205.00 388.42,222.50 388.42,257.50 358.11,275.00 327.80,257.50 327.80,222.50" fill="#8AA5B5" stroke="#666" stroke-width="1.5"/>
  <polygon points="479.35,205.00 509.66,222.50 509.66,257.50 479.35,275.00 449.04,257.50 449.04,222.50" fill="#8FB59A" stroke="#666" stroke-width="1.5"/>
  <polygon points="539.97,205.00 570.29,222.50 570.29,257.50 539.97,275.00 509.66,257.50 509.66,222.50" fill="#A5C8A5" stroke="#666" stroke-width="1.5"/>
  <polygon points="782.46,205.00 812.77,222.50 812.77,257.50 782.46,275.00 752.15,257.50 752.15,222.50" fill="#C8C8A5" stroke="#666" stroke-width="1.5"/>
  <polygon points="843.08,205.00 873.39,222.50 873.39,257.50 843.08,275.00 812.77,257.50 812.77,222.50" fill="#D4B5A5" stroke="#666" stroke-width="1.5"/>
  <polygon points="903.70,205.00 934.02,222.50 934.02,257.50 903.70,275.00 873.39,257.50 873.39,222.50" fill="#E8D5A3" stroke="#666" stroke-width="1.5"/>
  <polygon points="964.33,205.00 994.64,222.50 994.64,257.50 964.33,275.00 934.02,257.50 934.02,222.50" fill="#E8D5A3" stroke="#666" stroke-width="1.5"/>
  <polygon points="1024.95,205.00 1055.26,222.50 1055.26,257.50 1024.95,275.00 994.64,257.50 994.64,222.50" fill="#E8D5A3" stroke="#666" stroke-width="1.5"/>
  <polygon points="1146.19,205.00 1176.50,222.50 1176.50,257.50 1146.19,275.00 1115.88,257.50 1115.88,222.50" fill="#A5B5C8" stroke="#666" stroke-width="1.5"/>
  <polygon points="85.31,257.50 115.62,275.00 115.62,310.00 85.31,327.50 55.00,310.00 55.00,275.00" fill="#D4B896" stroke="#666" stroke-width="1.5"/>
  <polygon points="145.93,257.50 176.24,275.00 176.24,310.00 145.93,327.50 115.62,310.00 115.62,275.00" fill="#D4B896" stroke="#666" stroke-width="1.5"/>
  <polygon points="206.55,257.50 236.87,275.00 236.87,310.00 206.55,327.50 176.24,310.00 176.24,275.00" fill="#D4B896" stroke="#666" stroke-width="1.5"/>
  <polygon points="449.04,257.50 479.35,275.00 479.35,310.00 449.04,327.50 418.73,310.00 418.73,275.00" fill="#B5A5C8" stroke="#666" stroke-width="1.5"/>
  <polygon points="509.66,257.50 539.97,275.00 539.97,310.00 509.66,327.50 479.35,310.00 479.35,275.00" fill="#B5A5C8" stroke="#666" stroke-width="1.5"/>
  <polygon points="570.29,257.50 600.60,275.00 600.60,310.00 570.29,327.50 539.97,310.00 539.97,275.00" fill="#A5C8A5" stroke="#666" stroke-width="1.5"/>
  <polygon points="630.91,257.50 661.22,275.00 661.22,310.00 630.91,327.50 600.60,310.00 600.60,275.00" fill="#B5A08A" stroke="#666" stroke-width="1.5"/>
  <polygon points="752.15,257.50 782.46,275.00 782.46,310.00 752.15,327.50 721.84,310.00 721.84,275.00" fill="#C8A57A" stroke="#666" stroke-width="1.5"/>
  <polygon points="812.77,257.50 843.08,275.00 843.08,310.00 812.77,327.50 782.46,310.00 782.46,275.00" fill="#D4B5A5" stroke="#666" stroke-width="1.5"/>
  <polygon points="873.39,257.50 903.70,275.00 903.70,310.00 873.39,327.50 843.08,310.00 843.08,275.00" fill="#D4B5A5" stroke="#666" stroke-width="1.5"/>
  <polygon points="934.02,257.50 964.33,275.00 964.33,310.00 934.02,327.50 903.70,310.00 903.70,275.00" fill="#E8D5A3" stroke="#666" stroke-width="1.5"/>
  <polygon points="994.64,257.50 1024.95,275.00 1024.95,310.00 994.64,327.50 964.33,310.00 964.33,275.00" fill="#E8D5A3" stroke="#666" stroke-width="1.5"/>
  <polygon points="1055.26,257.50 1085.57,275.00 1085.57,310.00 1055.26,327.50 1024.95,310.00 1024.95,275.00" fill="#E8D5A3" stroke="#666" stroke-width="1.5"/>
  <polygon points="115.62,310.00 145.93,327.50 145.93,362.50 115.62,380.00 85.31,362.50 85.31,327.50" fill="#D4B896" stroke="#666" stroke-width="1.5"/>
  <polygon points="176.24,310.00 206.55,327.50 206.55,362.50 176.24,380.00 145.93,362.50 145.93,327.50" fill="#D4B896" stroke="#666" stroke-width="1.5"/>
  <polygon points="418.73,310.00 449.04,327.50 449.04,362.50 418.73,380.00 388.42,362.50 388.42,327.50" fill="#D4A5B5" stroke="#666" stroke-width="1.5"/>
  <polygon points="539.97,310.00 570.29,327.50 570.29,362.50 539.97,380.00 509.66,362.50 509.66,327.50" fill="#D4D4A5" stroke="#666" stroke-width="1.5"/>
  <polygon points="600.60,310.00 630.91,327.50 630.91,362.50 600.60,380.00 570.29,362.50 570.29,327.50" fill="#B5A08A" stroke="#666" stroke-width="1.5"/>
  <polygon points="661.22,310.00 691.53,327.50 691.53,362.50 661.22,380.00 630.91,362.50 630.91,327.50" fill="#C8A57A" stroke="#666" stroke-width="1.5"/>
  <polygon points="721.84,310.00 752.15,327.50 752.15,362.50 721.84,380.00 691.53,362.50 691.53,327.50" fill="#C8A57A" stroke="#666" stroke-width="1.5"/>
  <polygon points="145.93,362.50 176.24,380.00 176.24,415.00 145.93,432.50 115.62,415.00 115.62,380.00" fill="#D4B896" stroke="#666" stroke-width="1.5"/>
  <polygon points="570.29,362.50 600.60,380.00 600.60,415.00 570.29,432.50 539.97,415.00 539.97,380.00" fill="#C8B896" stroke="#666" stroke-width="1.5"/>
  <polygon points="630.91,362.50 661.22,380.00 661.22,415.00 630.91,432.50 600.60,415.00 600.60,380.00" fill="#C8B896" stroke="#666" stroke-width="1.5"/>
  <polygon points="1055.26,362.50 1085.57,380.00 1085.57,415.00 1055.26,432.50 1024.95,415.00 1024.95,380.00" fill="#8AC8B5" stroke="#666" stroke-width="1.5"/>
  <polygon points="539.97,415.00 570.29,432.50 570.29,467.50 539.97,485.00 509.66,467.50 509.66,432.50" fill="#B5A896" stroke="#666" stroke-width="1.5"/>
  <polygon points="661.22,415.00 691.53,432.50 691.53,467.50 661.22,485.00 630.91,467.50 630.91,432.50" fill="#D4BFA5" stroke="#666" stroke-width="1.5"/>
  <polygon points="206.55,467.50 236.87,485.00 236.87,520.00 206.55,537.50 176.24,520.00 176.24,485.00" fill="#A5C8A0" stroke="#666" stroke-width="1.5"/>
  <!-- INTERNAL BORDERS -->
  <line x1="115.62" y1="275.00" x2="85.31" y2="257.50" stroke="#BBB" stroke-width="0.5" stroke-dasharray="2,3"/>
  <line x1="145.93" y1="257.50" x2="115.62" y2="275.00" stroke="#BBB" stroke-width="0.5" stroke-dasharray="2,3"/>
  <line x1="115.62" y1="275.00" x2="115.62" y2="310.00" stroke="#BBB" stroke-width="0.5" stroke-dasharray="2,3"/>
  <line x1="115.62" y1="310.00" x2="85.31" y2="327.50" stroke="#BBB" stroke-width="0.5" stroke-dasharray="2,3"/>
  <line x1="176.24" y1="275.00" x2="176.24" y2="310.00" stroke="#BBB" stroke-width="0.5" stroke-dasharray="2,3"/>
  <line x1="145.93" y1="327.50" x2="115.62" y2="310.00" stroke="#BBB" stroke-width="0.5" stroke-dasharray="2,3"/>
  <line x1="176.24" y1="310.00" x2="145.93" y2="327.50" stroke="#BBB" stroke-width="0.5" stroke-dasharray="2,3"/>
  <line x1="206.55" y1="327.50" x2="176.24" y2="310.00" stroke="#BBB" stroke-width="0.5" stroke-dasharray="2,3"/>
  <line x1="145.93" y1="327.50" x2="145.93" y2="362.50" stroke="#BBB" stroke-width="0.5" stroke-dasharray="2,3"/>
  <line x1="145.93" y1="362.50" x2="115.62" y2="380.00" stroke="#BBB" stroke-width="0.5" stroke-dasharray="2,3"/>
  <line x1="176.24" y1="380.00" x2="145.93" y2="362.50" stroke="#BBB" stroke-width="0.5" stroke-dasharray="2,3"/>
  <line x1="509.66" y1="222.50" x2="479.35" y2="205.00" stroke="#BBB" stroke-width="0.5" stroke-dasharray="2,3"/>
  <line x1="570.29" y1="257.50" x2="539.97" y2="275.00" stroke="#BBB" stroke-width="0.5" stroke-dasharray="2,3"/>
  <line x1="479.35" y1="275.00" x2="479.35" y2="310.00" stroke="#BBB" stroke-width="0.5" stroke-dasharray="2,3"/>
  <line x1="630.91" y1="327.50" x2="600.60" y2="310.00" stroke="#BBB" stroke-width="0.5" stroke-dasharray="2,3"/>
  <line x1="691.53" y1="117.50" x2="661.22" y2="100.00" stroke="#BBB" stroke-width="0.5" stroke-dasharray="2,3"/>
  <line x1="721.84" y1="100.00" x2="691.53" y2="117.50" stroke="#BBB" stroke-width="0.5" stroke-dasharray="2,3"/>
  <line x1="630.91" y1="117.50" x2="630.91" y2="152.50" stroke="#BBB" stroke-width="0.5" stroke-dasharray="2,3"/>
  <line x1="630.91" y1="152.50" x2="600.60" y2="170.00" stroke="#BBB" stroke-width="0.5" stroke-dasharray="2,3"/>
  <line x1="691.53" y1="117.50" x2="691.53" y2="152.50" stroke="#BBB" stroke-width="0.5" stroke-dasharray="2,3"/>
  <line x1="661.22" y1="170.00" x2="630.91" y2="152.50" stroke="#BBB" stroke-width="0.5" stroke-dasharray="2,3"/>
  <line x1="691.53" y1="152.50" x2="661.22" y2="170.00" stroke="#BBB" stroke-width="0.5" stroke-dasharray="2,3"/>
  <line x1="752.15" y1="117.50" x2="752.15" y2="152.50" stroke="#BBB" stroke-width="0.5" stroke-dasharray="2,3"/>
  <line x1="721.84" y1="170.00" x2="691.53" y2="152.50" stroke="#BBB" stroke-width="0.5" stroke-dasharray="2,3"/>
  <line x1="812.77" y1="117.50" x2="812.77" y2="152.50" stroke="#BBB" stroke-width="0.5" stroke-dasharray="2,3"/>
  <line x1="661.22" y1="170.00" x2="661.22" y2="205.00" stroke="#BBB" stroke-width="0.5" stroke-dasharray="2,3"/>
  <line x1="782.46" y1="170.00" x2="782.46" y2="205.00" stroke="#BBB" stroke-width="0.5" stroke-dasharray="2,3"/>
  <line x1="782.46" y1="205.00" x2="752.15" y2="222.50" stroke="#BBB" stroke-width="0.5" stroke-dasharray="2,3"/>
  <line x1="812.77" y1="222.50" x2="782.46" y2="205.00" stroke="#BBB" stroke-width="0.5" stroke-dasharray="2,3"/>
  <line x1="752.15" y1="327.50" x2="721.84" y2="310.00" stroke="#BBB" stroke-width="0.5" stroke-dasharray="2,3"/>
  <line x1="691.53" y1="327.50" x2="691.53" y2="362.50" stroke="#BBB" stroke-width="0.5" stroke-dasharray="2,3"/>
  <line x1="600.60" y1="380.00" x2="600.60" y2="415.00" stroke="#BBB" stroke-width="0.5" stroke-dasharray="2,3"/>
  <line x1="843.08" y1="275.00" x2="812.77" y2="257.50" stroke="#BBB" stroke-width="0.5" stroke-dasharray="2,3"/>
  <line x1="873.39" y1="257.50" x2="843.08" y2="275.00" stroke="#BBB" stroke-width="0.5" stroke-dasharray="2,3"/>
  <line x1="843.08" y1="275.00" x2="843.08" y2="310.00" stroke="#BBB" stroke-width="0.5" stroke-dasharray="2,3"/>
  <line x1="903.70" y1="205.00" x2="873.39" y2="222.50" stroke="#BBB" stroke-width="0.5" stroke-dasharray="2,3"/>
  <line x1="934.02" y1="222.50" x2="934.02" y2="257.50" stroke="#BBB" stroke-width="0.5" stroke-dasharray="2,3"/>
  <line x1="934.02" y1="257.50" x2="903.70" y2="275.00" stroke="#BBB" stroke-width="0.5" stroke-dasharray="2,3"/>
  <line x1="994.64" y1="222.50" x2="994.64" y2="257.50" stroke="#BBB" stroke-width="0.5" stroke-dasharray="2,3"/>
  <line x1="964.33" y1="275.00" x2="934.02" y2="257.50" stroke="#BBB" stroke-width="0.5" stroke-dasharray="2,3"/>
  <line x1="994.64" y1="257.50" x2="964.33" y2="275.00" stroke="#BBB" stroke-width="0.5" stroke-dasharray="2,3"/>
  <line x1="1024.95" y1="275.00" x2="994.64" y2="257.50" stroke="#BBB" stroke-width="0.5" stroke-dasharray="2,3"/>
  <line x1="1055.26" y1="257.50" x2="1024.95" y2="275.00" stroke="#BBB" stroke-width="0.5" stroke-dasharray="2,3"/>
  <line x1="964.33" y1="275.00" x2="964.33" y2="310.00" stroke="#BBB" stroke-width="0.5" stroke-dasharray="2,3"/>
  <line x1="1024.95" y1="275.00" x2="1024.95" y2="310.00" stroke="#BBB" stroke-width="0.5" stroke-dasharray="2,3"/>
  <line x1="1176.50" y1="222.50" x2="1146.19" y2="205.00" stroke="#BBB" stroke-width="0.5" stroke-dasharray="2,3"/>
  <!-- LABELS -->
  <text x="358.1" y="240.0" class="cl" font-size="9">ALBION</text>
  <text x="843.1" y="275.0" class="cl" font-size="10">BHARATA</text>
  <text x="206.6" y="502.5" class="cl" font-size="9">CARIBE</text>
  <text x="964.3" y="255.0" class="cl" font-size="12">CATHAY</text>
  <text x="964.3" y="135.0" class="cl" font-size="9">CHOSON</text>
  <text x="141.6" y="315.0" class="cl" font-size="12">COLUMBIA</text>
  <text x="1055.3" y="397.5" class="cl" font-size="9">FORMOSA</text>
  <text x="570.3" y="187.5" class="cl" font-size="9">FREELAND</text>
  <text x="479.4" y="292.5" class="cl" font-size="9">GALLIA</text>
  <text x="994.6" y="187.5" class="cl" font-size="9">HANGUK</text>
  <text x="555.1" y="266.2" class="cl" font-size="9">HEARTLAND</text>
  <text x="540.0" y="450.0" class="cl" font-size="9">HORN</text>
  <text x="540.0" y="345.0" class="cl" font-size="9">LEVANTIA</text>
  <text x="661.2" y="450.0" class="cl" font-size="9">MIRAGE</text>
  <text x="702.9" y="141.6" class="cl" font-size="12">NORDOSTAN</text>
  <text x="711.7" y="327.5" class="cl" font-size="10">PERSIA</text>
  <text x="615.8" y="318.8" class="cl" font-size="9">PHRYGIA</text>
  <text x="418.7" y="345.0" class="cl" font-size="9">PONTE</text>
  <text x="782.5" y="205.0" class="cl" font-size="10">SOGDIANA</text>
  <text x="600.6" y="397.5" class="cl" font-size="9">SOLARIA</text>
  <text x="494.5" y="213.8" class="cl" font-size="10">TEUTONIA</text>
  <text x="297.5" y="135.0" class="cl" font-size="9">THULE</text>
  <text x="1161.3" y="213.8" class="cl" font-size="9">YAMATO</text>
  <text x="267.2" y="292.5" class="ol" font-size="22">TETHYS</text>
  <text x="1206.8" y="240.0" class="ol" font-size="24">MIROVIA</text>
  <text x="691.5" y="607.5" class="ol" font-size="20">RHEIC OCEAN</text>
  <text x="721.8" y="30.0" class="ol" font-size="18">ARCTIC SEA</text>
  <text x="691.5" y="419.5" class="cpl">Gulf Gate</text>
  <text x="1024.9" y="367.0" class="cpl">Formosa Strait</text>
  <text x="176.2" y="472.0" class="cpl">Caribe Passage</text>
  <rect x="20" y="680" width="220" height="210" rx="6" fill="white" fill-opacity="0.85" stroke="#aaa" stroke-width="0.5"/>
  <text x="35" y="702" class="ltt">THE THUCYDIDES TRAP</text>
  <text x="35" y="718" class="lt" font-size="8" fill="#666">Strategic Hex World Map</text>
  <rect x="35" y="735" width="12" height="10" rx="1" fill="#D4B896" stroke="#666" stroke-width="0.5"/>
  <text x="53" y="743" class="lt">Columbia</text>
  <rect x="35" y="751" width="12" height="10" rx="1" fill="#E8D5A3" stroke="#666" stroke-width="0.5"/>
  <text x="53" y="759" class="lt">Cathay</text>
  <rect x="35" y="767" width="12" height="10" rx="1" fill="#D4A5A5" stroke="#666" stroke-width="0.5"/>
  <text x="53" y="775" class="lt">Nordostan</text>
  <rect x="35" y="783" width="12" height="10" rx="1" fill="#A5C8A5" stroke="#666" stroke-width="0.5"/>
  <text x="53" y="791" class="lt">Heartland</text>
  <rect x="35" y="799" width="12" height="10" rx="1" fill="#8FB59A" stroke="#666" stroke-width="0.5"/>
  <text x="53" y="807" class="lt">Teutonia</text>
  <rect x="35" y="815" width="12" height="10" rx="1" fill="#C8A57A" stroke="#666" stroke-width="0.5"/>
  <text x="53" y="823" class="lt">Persia</text>
  <rect x="35" y="831" width="12" height="10" rx="1" fill="#D4B5A5" stroke="#666" stroke-width="0.5"/>
  <text x="53" y="839" class="lt">Bharata</text>
  <rect x="35" y="847" width="12" height="10" rx="1" fill="#A5B5C8" stroke="#666" stroke-width="0.5"/>
  <text x="53" y="855" class="lt">Yamato</text>
  <rect x="35" y="863" width="12" height="10" rx="1" fill="#B5CCE0" stroke="#D4880F" stroke-width="2"/>
  <text x="53" y="871" class="lt">Chokepoint</text>
  <text x="35" y="881" class="lt" font-size="7" fill="#888">1 hex = 1 strategic zone</text>
</svg>