<svg xmlns="http://www.w3.org/2000/svg" viewBox="0 0 1200 700" width="1200" height="700">
  <defs>
    <style>
      .hex-label { font-family: 'Segoe UI', 'Helvetica Neue', Arial, sans-serif; font-size: 7px; fill: #3a3a3a; text-anchor: middle; dominant-baseline: central; }
      .hex-label-sea { font-family: 'Segoe UI', 'Helvetica Neue', Arial, sans-serif; font-size: 6.5px; fill: #1a3a5a; text-anchor: middle; dominant-baseline: central; font-style: italic; }
      .country-name { font-family: 'Segoe UI', 'Helvetica Neue', Arial, sans-serif; font-size: 11px; fill: #2a2a2a; text-anchor: middle; font-weight: 600; letter-spacing: 1px; }
      .continent-label { font-family: 'Segoe UI', 'Helvetica Neue', Arial, sans-serif; font-size: 14px; fill: #999; text-anchor: middle; font-weight: 300; letter-spacing: 3px; text-transform: uppercase; }
      .chokepoint-label { font-family: 'Segoe UI', 'Helvetica Neue', Arial, sans-serif; font-size: 5.5px; fill: #8b2222; text-anchor: middle; font-weight: 700; }
      .unit-box { rx: 2; ry: 2; }
      .unit-text { font-family: 'Segoe UI', 'Helvetica Neue', Arial, sans-serif; font-size: 5px; fill: white; text-anchor: middle; dominant-baseline: central; font-weight: 700; }
      .legend-text { font-family: 'Segoe UI', 'Helvetica Neue', Arial, sans-serif; font-size: 8px; fill: #3a3a3a; }
      .legend-title { font-family: 'Segoe UI', 'Helvetica Neue', Arial, sans-serif; font-size: 10px; fill: #2a2a2a; font-weight: 700; }
      .theater-indicator { font-family: 'Segoe UI', 'Helvetica Neue', Arial, sans-serif; font-size: 6px; fill: #cc3333; text-anchor: middle; font-weight: 700; }
    </style>
    <!-- Hex template pointing flat-top, diameter ~65px -->
    <!-- Flat-top hex: width=65, height=56.3 -->
    <!-- w=65, h=56.3, col spacing=48.75 (3/4 * w), row spacing=56.3 -->
  </defs>

  <!-- Background -->
  <rect width="1200" height="700" fill="#e8e4de"/>

  <!-- Title -->
  <text x="600" y="22" font-family="'Segoe UI', Arial, sans-serif" font-size="16" fill="#2a2a2a" text-anchor="middle" font-weight="700" letter-spacing="2">THUCYDIDES TRAP — GLOBAL STRATEGIC MAP</text>
  <text x="600" y="36" font-family="'Segoe UI', Arial, sans-serif" font-size="9" fill="#888" text-anchor="middle" letter-spacing="1">HEX WORLD PROJECTION • 45 ZONES • INDIAN OCEAN CENTERED</text>

  <!-- ============================================ -->
  <!-- HEX GRID — Flat-top hexagons                -->
  <!-- Flat-top hex points: cx,cy-r  cx+r*cos30,cy-r/2  cx+r*cos30,cy+r/2  cx,cy+r  cx-r*cos30,cy+r/2  cx-r*cos30,cy-r/2 -->
  <!-- r=32, so offsets: 0,-32  27.7,-16  27.7,16  0,32  -27.7,16  -27.7,-16 -->
  <!-- ============================================ -->

  <!-- AMERICAS REGION (left side) -->

  <!-- Columbia Continental -->
  <polygon points="120,178 147.7,162 147.7,194 120,210 92.3,194 92.3,162" fill="#b8c4a8" stroke="#666" stroke-width="1"/>
  <text x="120" y="183" class="hex-label">Columbia</text>
  <text x="120" y="192" class="hex-label">(Cont.)</text>
  <!-- Ground unit -->
  <rect x="107" y="197" width="26" height="9" fill="#5a8a5a" class="unit-box"/>
  <text x="120" y="202" class="unit-text">GND x8</text>

  <!-- Columbia Alaska -->
  <polygon points="120,114 147.7,98 147.7,130 120,146 92.3,130 92.3,98" fill="#b8c4a8" stroke="#666" stroke-width="1"/>
  <text x="120" y="119" class="hex-label">Alaska</text>

  <!-- Columbia Hawaii/Pacific Command -->
  <polygon points="55,242 82.7,226 82.7,258 55,274 27.3,258 27.3,226" fill="#b8c4a8" stroke="#666" stroke-width="1"/>
  <text x="55" y="245" class="hex-label">Hawaii</text>
  <text x="55" y="254" class="hex-label">(PACOM)</text>

  <!-- Caribe -->
  <polygon points="168,242 195.7,226 195.7,258 168,274 140.3,258 140.3,226" fill="#c4a8a8" stroke="#666" stroke-width="1"/>
  <text x="168" y="247" class="hex-label">Caribe</text>

  <!-- COUNTRY LABEL: COLUMBIA -->
  <text x="105" y="155" class="country-name" fill="#4a6a4a">COLUMBIA</text>

  <!-- SEA: Western Atlantic -->
  <polygon points="216,178 243.7,162 243.7,194 216,210 188.3,194 188.3,162" fill="#7ba7cc" stroke="#5a87ac" stroke-width="0.8"/>
  <text x="216" y="183" class="hex-label-sea">W.</text>
  <text x="216" y="192" class="hex-label-sea">Atlantic</text>
  <!-- Columbia naval -->
  <rect x="203" y="197" width="26" height="9" fill="#4a7fa5" class="unit-box"/>
  <text x="216" y="202" class="unit-text">NAV x3</text>

  <!-- SEA: Gulf & Caribbean -->
  <polygon points="168,306 195.7,290 195.7,322 168,338 140.3,322 140.3,290" fill="#7ba7cc" stroke="#5a87ac" stroke-width="0.8"/>
  <text x="168" y="306" class="hex-label-sea">Gulf &</text>
  <text x="168" y="315" class="hex-label-sea">Caribbean</text>
  <!-- Chokepoint marker -->
  <circle cx="168" cy="326" r="4" fill="none" stroke="#8b2222" stroke-width="1.5"/>
  <text x="168" y="336" class="chokepoint-label">CARIBBEAN PASS.</text>

  <!-- SEA: Central Pacific -->
  <polygon points="55,306 82.7,290 82.7,322 55,338 27.3,322 27.3,290" fill="#6a97bc" stroke="#5a87ac" stroke-width="0.8"/>
  <text x="55" y="309" class="hex-label-sea">Central</text>
  <text x="55" y="318" class="hex-label-sea">Pacific</text>

  <!-- SEA: North Pacific -->
  <polygon points="55,178 82.7,162 82.7,194 55,210 27.3,194 27.3,162" fill="#6a97bc" stroke="#5a87ac" stroke-width="0.8"/>
  <text x="55" y="183" class="hex-label-sea">North</text>
  <text x="55" y="192" class="hex-label-sea">Pacific</text>
  <!-- Columbia naval -->
  <rect x="42" y="197" width="26" height="9" fill="#4a7fa5" class="unit-box"/>
  <text x="55" y="202" class="unit-text">NAV x2</text>

  <!-- CONTINENT LABEL -->
  <text x="120" y="88" class="continent-label">AMERICAS</text>

  <!-- ============================================ -->
  <!-- EUROPE REGION (center-left) -->
  <!-- ============================================ -->

  <!-- Albion -->
  <polygon points="312,130 339.7,114 339.7,146 312,162 284.3,146 284.3,114" fill="#c0c8d0" stroke="#666" stroke-width="1"/>
  <text x="312" y="135" class="hex-label">Albion</text>

  <!-- Gallia -->
  <polygon points="360,194 387.7,178 387.7,210 360,226 332.3,210 332.3,178" fill="#d0c0c8" stroke="#666" stroke-width="1"/>
  <text x="360" y="194" class="hex-label">Gallia</text>

  <!-- Teutonia -->
  <polygon points="408,130 435.7,114 435.7,146 408,162 380.3,146 380.3,114" fill="#c8d0c0" stroke="#666" stroke-width="1"/>
  <text x="408" y="135" class="hex-label">Teutonia</text>

  <!-- Ponte -->
  <polygon points="408,194 435.7,178 435.7,210 408,226 380.3,210 380.3,178" fill="#d8d0c0" stroke="#666" stroke-width="1"/>
  <text x="408" y="194" class="hex-label">Ponte</text>

  <!-- Freeland -->
  <polygon points="456,130 483.7,114 483.7,146 456,162 428.3,146 428.3,114" fill="#c8c0d0" stroke="#666" stroke-width="1"/>
  <text x="456" y="135" class="hex-label">Freeland</text>
  <!-- Theater indicator -->
  <rect x="440" y="152" width="32" height="8" rx="2" fill="#cc3333" opacity="0.15"/>
  <text x="456" y="157" class="theater-indicator">EE THEATER</text>

  <!-- COUNTRY LABEL: EUROPE -->
  <text x="390" y="100" class="country-name" fill="#5a5a6a">EUROPE</text>

  <!-- SEA: Eastern Atlantic -->
  <polygon points="312,194 339.7,178 339.7,210 312,226 284.3,210 284.3,178" fill="#7ba7cc" stroke="#5a87ac" stroke-width="0.8"/>
  <text x="312" y="194" class="hex-label-sea">E. Atl.</text>
  <!-- Columbia naval -->
  <rect x="299" y="209" width="26" height="9" fill="#4a7fa5" class="unit-box"/>
  <text x="312" y="214" class="unit-text">NAV x2</text>

  <!-- SEA: GIUK Gap -->
  <polygon points="312,66 339.7,50 339.7,82 312,98 284.3,82 284.3,50" fill="#5a87ac" stroke="#4a77a0" stroke-width="0.8"/>
  <text x="312" y="71" class="hex-label-sea">GIUK</text>
  <text x="312" y="80" class="hex-label-sea">Gap</text>
  <circle cx="312" cy="88" r="4" fill="none" stroke="#8b2222" stroke-width="1.5"/>

  <!-- SEA: Baltic -->
  <polygon points="456,66 483.7,50 483.7,82 456,98 428.3,82 428.3,50" fill="#8ab5d0" stroke="#5a87ac" stroke-width="0.8"/>
  <text x="456" y="71" class="hex-label-sea">Baltic</text>
  <text x="456" y="80" class="hex-label-sea">Sea</text>

  <!-- SEA: W. Mediterranean -->
  <polygon points="360,258 387.7,242 387.7,274 360,290 332.3,274 332.3,242" fill="#8ab5d0" stroke="#5a87ac" stroke-width="0.8"/>
  <text x="360" y="258" class="hex-label-sea">W. Med</text>

  <!-- SEA: E. Mediterranean -->
  <polygon points="456,258 483.7,242 483.7,274 456,290 428.3,274 428.3,242" fill="#8ab5d0" stroke="#5a87ac" stroke-width="0.8"/>
  <text x="456" y="258" class="hex-label-sea">E. Med</text>
  <!-- Chokepoint: Suez + Bosphorus -->
  <circle cx="474" cy="270" r="4" fill="none" stroke="#8b2222" stroke-width="1.5"/>
  <text x="474" y="282" class="chokepoint-label">SUEZ</text>

  <!-- SEA: Black Sea -->
  <polygon points="504,194 531.7,178 531.7,210 504,226 476.3,210 476.3,178" fill="#7095b5" stroke="#5a87ac" stroke-width="0.8"/>
  <text x="504" y="194" class="hex-label-sea">Black</text>
  <text x="504" y="203" class="hex-label-sea">Sea</text>
  <circle cx="490" cy="215" r="4" fill="none" stroke="#8b2222" stroke-width="1.5"/>
  <text x="490" y="225" class="chokepoint-label">BOSPHORUS</text>

  <!-- ============================================ -->
  <!-- NORDOSTAN (top center) -->
  <!-- ============================================ -->

  <!-- Nordostan Western -->
  <polygon points="504,114 531.7,98 531.7,130 504,146 476.3,130 476.3,98" fill="#c0b0a0" stroke="#666" stroke-width="1"/>
  <text x="504" y="114" class="hex-label">Nordostan</text>
  <text x="504" y="123" class="hex-label">(West)</text>
  <!-- Ground units -->
  <rect x="491" y="132" width="26" height="9" fill="#5a8a5a" class="unit-box"/>
  <text x="504" y="137" class="unit-text">GND x6</text>

  <!-- Nordostan Central -->
  <polygon points="600,82 627.7,66 627.7,98 600,114 572.3,98 572.3,66" fill="#c0b0a0" stroke="#666" stroke-width="1"/>
  <text x="600" y="82" class="hex-label">Nordostan</text>
  <text x="600" y="91" class="hex-label">(Central)</text>

  <!-- Nordostan Far East -->
  <polygon points="744,82 771.7,66 771.7,98 744,114 716.3,98 716.3,66" fill="#c0b0a0" stroke="#666" stroke-width="1"/>
  <text x="744" y="82" class="hex-label">Nordostan</text>
  <text x="744" y="91" class="hex-label">(Far East)</text>

  <!-- COUNTRY LABEL -->
  <text x="640" y="56" class="country-name" fill="#6a5a4a">NORDOSTAN</text>

  <!-- SEA: Arctic -->
  <polygon points="456,178 483.7,162 483.7,194 456,210 428.3,194 428.3,162" fill="#a0c0d8" stroke="#5a87ac" stroke-width="0.5" opacity="0"/>
  <!-- Reusing space, arctic shown up top -->
  <polygon points="600,50 627.7,34 627.7,66 600,82 572.3,66 572.3,34" fill="#b0d0e0" stroke="#8ab0c8" stroke-width="0.8"/>
  <text x="600" y="52" class="hex-label-sea">Arctic</text>
  <text x="600" y="61" class="hex-label-sea">Ocean</text>

  <!-- Thule (contested) -->
  <polygon points="264,66 291.7,50 291.7,82 264,98 236.3,82 236.3,50" fill="#d0d0d0" stroke="#999" stroke-width="1" stroke-dasharray="3,2"/>
  <text x="264" y="76" class="hex-label">Thule</text>

  <!-- ============================================ -->
  <!-- MIDDLE EAST (center) -->
  <!-- ============================================ -->

  <!-- Phrygia -->
  <polygon points="504,258 531.7,242 531.7,274 504,290 476.3,274 476.3,242" fill="#d0c8b8" stroke="#666" stroke-width="1"/>
  <text x="504" y="261" class="hex-label">Phrygia</text>

  <!-- Levantia -->
  <polygon points="552,258 579.7,242 579.7,274 552,290 524.3,274 524.3,242" fill="#c8d8c0" stroke="#666" stroke-width="1"/>
  <text x="552" y="261" class="hex-label">Levantia</text>

  <!-- Persia -->
  <polygon points="648,258 675.7,242 675.7,274 648,290 620.3,274 620.3,242" fill="#d0b898" stroke="#666" stroke-width="1"/>
  <text x="648" y="258" class="hex-label">Persia</text>
  <!-- Theater indicator -->
  <rect x="618" y="278" width="60" height="8" rx="2" fill="#cc3333" opacity="0.15"/>
  <text x="648" y="283" class="theater-indicator">ME THEATER ACTIVE</text>

  <!-- Solaria -->
  <polygon points="600,322 627.7,306 627.7,338 600,354 572.3,338 572.3,306" fill="#f0e6d0" stroke="#666" stroke-width="1"/>
  <text x="600" y="322" class="hex-label">Solaria</text>

  <!-- Mirage -->
  <polygon points="696,322 723.7,306 723.7,338 696,354 668.3,338 668.3,306" fill="#e0d8c8" stroke="#666" stroke-width="1"/>
  <text x="696" y="322" class="hex-label">Mirage</text>

  <!-- COUNTRY LABEL -->
  <text x="600" y="240" class="country-name" fill="#6a5a3a">MIDDLE EAST</text>

  <!-- SEA: Red Sea -->
  <polygon points="552,322 579.7,306 579.7,338 552,354 524.3,338 524.3,306" fill="#6a97bc" stroke="#5a87ac" stroke-width="0.8"/>
  <text x="552" y="322" class="hex-label-sea">Red</text>
  <text x="552" y="331" class="hex-label-sea">Sea</text>
  <!-- Chokepoint: Bab el-Mandeb -->
  <circle cx="540" cy="340" r="4" fill="none" stroke="#8b2222" stroke-width="1.5"/>

  <!-- SEA: Persian Gulf -->
  <polygon points="648,322 675.7,306 675.7,338 648,354 620.3,338 620.3,306" fill="#6a97bc" stroke="#5a87ac" stroke-width="0.8"/>
  <text x="648" y="322" class="hex-label-sea">Persian</text>
  <text x="648" y="331" class="hex-label-sea">Gulf</text>
  <!-- Chokepoint: Gulf Gate -->
  <circle cx="663" cy="342" r="4" fill="none" stroke="#8b2222" stroke-width="1.5"/>
  <text x="663" y="352" class="chokepoint-label">HORMUZ</text>

  <!-- Horn of Africa (contested) -->
  <polygon points="552,386 579.7,370 579.7,402 552,418 524.3,402 524.3,370" fill="#d0d0d0" stroke="#999" stroke-width="1" stroke-dasharray="3,2"/>
  <text x="552" y="386" class="hex-label">Horn of</text>
  <text x="552" y="395" class="hex-label">Africa</text>

  <!-- Central Africa (contested) -->
  <polygon points="408,386 435.7,370 435.7,402 408,418 380.3,402 380.3,370" fill="#d0d0d0" stroke="#999" stroke-width="1" stroke-dasharray="3,2"/>
  <text x="408" y="386" class="hex-label">Central</text>
  <text x="408" y="395" class="hex-label">Africa</text>

  <!-- Central Asia (contested) -->
  <polygon points="648,194 675.7,178 675.7,210 648,226 620.3,210 620.3,178" fill="#d0d0d0" stroke="#999" stroke-width="1" stroke-dasharray="3,2"/>
  <text x="648" y="194" class="hex-label">Central</text>
  <text x="648" y="203" class="hex-label">Asia</text>

  <!-- SEA: Arabian Sea -->
  <polygon points="696,386 723.7,370 723.7,402 696,418 668.3,402 668.3,370" fill="#5a87ac" stroke="#4a77a0" stroke-width="0.8"/>
  <text x="696" y="386" class="hex-label-sea">Arabian</text>
  <text x="696" y="395" class="hex-label-sea">Sea</text>
  <!-- Columbia naval -->
  <rect x="683" y="402" width="26" height="9" fill="#4a7fa5" class="unit-box"/>
  <text x="696" y="407" class="unit-text">NAV x2</text>

  <!-- ============================================ -->
  <!-- SOUTH ASIA (center-right) -->
  <!-- ============================================ -->

  <!-- Bharata -->
  <polygon points="792,322 819.7,306 819.7,338 792,354 764.3,338 764.3,306" fill="#c8b8d0" stroke="#666" stroke-width="1"/>
  <text x="792" y="322" class="hex-label">Bharata</text>
  <!-- Ground units -->
  <rect x="779" y="340" width="26" height="9" fill="#5a8a5a" class="unit-box"/>
  <text x="792" y="345" class="unit-text">GND x4</text>

  <!-- SEA: Indian Ocean -->
  <polygon points="792,386 819.7,370 819.7,402 792,418 764.3,402 764.3,370" fill="#5a87ac" stroke="#4a77a0" stroke-width="0.8"/>
  <text x="792" y="386" class="hex-label-sea">Indian</text>
  <text x="792" y="395" class="hex-label-sea">Ocean</text>

  <!-- SEA: SE Asia & Malacca -->
  <polygon points="888,386 915.7,370 915.7,402 888,418 860.3,402 860.3,370" fill="#6a97bc" stroke="#5a87ac" stroke-width="0.8"/>
  <text x="888" y="386" class="hex-label-sea">SE Asia</text>
  <text x="888" y="395" class="hex-label-sea">Malacca</text>
  <!-- Chokepoint -->
  <circle cx="888" cy="405" r="4" fill="none" stroke="#8b2222" stroke-width="1.5"/>
  <text x="888" y="415" class="chokepoint-label">MALACCA</text>

  <!-- ============================================ -->
  <!-- EAST ASIA (right) -->
  <!-- ============================================ -->

  <!-- Cathay Eastern -->
  <polygon points="936,194 963.7,178 963.7,210 936,226 908.3,210 908.3,178" fill="#d8c0a8" stroke="#666" stroke-width="1"/>
  <text x="936" y="194" class="hex-label">Cathay</text>
  <text x="936" y="203" class="hex-label">(East)</text>
  <!-- Ground units -->
  <rect x="923" y="212" width="26" height="9" fill="#5a8a5a" class="unit-box"/>
  <text x="936" y="217" class="unit-text">GND x8</text>

  <!-- Cathay Western/Interior -->
  <polygon points="840,194 867.7,178 867.7,210 840,226 812.3,210 812.3,178" fill="#d8c0a8" stroke="#666" stroke-width="1"/>
  <text x="840" y="194" class="hex-label">Cathay</text>
  <text x="840" y="203" class="hex-label">(Interior)</text>

  <!-- Cathay Southern -->
  <polygon points="888,258 915.7,242 915.7,274 888,290 860.3,274 860.3,242" fill="#d8c0a8" stroke="#666" stroke-width="1"/>
  <text x="888" y="258" class="hex-label">Cathay</text>
  <text x="888" y="267" class="hex-label">(South)</text>

  <!-- COUNTRY LABEL -->
  <text x="900" y="168" class="country-name" fill="#6a5a3a">CATHAY</text>

  <!-- SEA: South China Sea -->
  <polygon points="936,258 963.7,242 963.7,274 936,290 908.3,274 908.3,242" fill="#5a87ac" stroke="#4a77a0" stroke-width="0.8"/>
  <text x="936" y="258" class="hex-label-sea">South</text>
  <text x="936" y="267" class="hex-label-sea">China Sea</text>
  <!-- Chokepoint + Cathay naval -->
  <circle cx="950" cy="278" r="4" fill="none" stroke="#8b2222" stroke-width="1.5"/>
  <rect x="923" y="280" width="26" height="9" fill="#7a6a4a" class="unit-box"/>
  <text x="936" y="285" class="unit-text">NAV x3</text>

  <!-- SEA: East China Sea -->
  <polygon points="984,194 1011.7,178 1011.7,210 984,226 956.3,210 956.3,178" fill="#6a97bc" stroke="#5a87ac" stroke-width="0.8"/>
  <text x="984" y="194" class="hex-label-sea">E. China</text>
  <text x="984" y="203" class="hex-label-sea">Sea</text>
  <!-- Chokepoint: Taiwan Strait -->
  <circle cx="970" cy="215" r="4" fill="none" stroke="#8b2222" stroke-width="1.5"/>
  <text x="970" y="225" class="chokepoint-label">TAIWAN STR.</text>
  <!-- Cathay naval -->
  <rect x="971" y="210" width="26" height="9" fill="#7a6a4a" class="unit-box"/>
  <text x="984" y="215" class="unit-text">NAV x2</text>

  <!-- Formosa -->
  <polygon points="1032,258 1059.7,242 1059.7,274 1032,290 1004.3,274 1004.3,242" fill="#b8d0b8" stroke="#666" stroke-width="1"/>
  <text x="1032" y="261" class="hex-label">Formosa</text>
  <!-- Ground units -->
  <rect x="1019" y="270" width="26" height="9" fill="#5a8a5a" class="unit-box"/>
  <text x="1032" y="275" class="unit-text">GND x3</text>

  <!-- Yamato -->
  <polygon points="1032,178 1059.7,162 1059.7,194 1032,210 1004.3,194 1004.3,162" fill="#c0d0d8" stroke="#666" stroke-width="1"/>
  <text x="1032" y="183" class="hex-label">Yamato</text>
  <!-- Ground units -->
  <rect x="1019" y="192" width="26" height="9" fill="#5a8a5a" class="unit-box"/>
  <text x="1032" y="197" class="unit-text">GND x2</text>

  <!-- Hanguk -->
  <polygon points="984,130 1011.7,114 1011.7,146 984,162 956.3,146 956.3,114" fill="#c0c8d8" stroke="#666" stroke-width="1"/>
  <text x="984" y="135" class="hex-label">Hanguk</text>
  <!-- Ground units -->
  <rect x="971" y="145" width="26" height="9" fill="#5a8a5a" class="unit-box"/>
  <text x="984" y="150" class="unit-text">GND x3</text>

  <!-- Choson -->
  <polygon points="936,130 963.7,114 963.7,146 936,162 908.3,146 908.3,114" fill="#c8c0b8" stroke="#666" stroke-width="1"/>
  <text x="936" y="135" class="hex-label">Choson</text>
  <!-- Missiles -->
  <rect x="923" y="145" width="26" height="9" fill="#cc4444" class="unit-box"/>
  <text x="936" y="150" class="unit-text">MSL x2</text>

  <!-- CONTINENT LABEL -->
  <text x="980" y="100" class="continent-label">EAST ASIA</text>

  <!-- ============================================ -->
  <!-- GRAY filler hexes (non-playing landmass) -->
  <!-- ============================================ -->

  <!-- South America gray -->
  <polygon points="168,370 195.7,354 195.7,386 168,402 140.3,386 140.3,354" fill="#ccc" stroke="#bbb" stroke-width="0.5"/>
  <text x="168" y="378" class="hex-label" fill="#999">S. America</text>

  <!-- Southern Africa gray -->
  <polygon points="456,450 483.7,434 483.7,466 456,482 428.3,466 428.3,434" fill="#ccc" stroke="#bbb" stroke-width="0.5"/>
  <text x="456" y="455" class="hex-label" fill="#999">S. Africa</text>

  <!-- Southeast Asia gray land -->
  <polygon points="888,322 915.7,306 915.7,338 888,354 860.3,338 860.3,306" fill="#ccc" stroke="#bbb" stroke-width="0.5"/>
  <text x="888" y="327" class="hex-label" fill="#999">SE Asia</text>
  <text x="888" y="336" class="hex-label" fill="#999">(lands)</text>

  <!-- Nordostan units in EE theater area -->
  <!-- Placing EE theater indicator near Freeland -->
  <rect x="444" y="162" width="26" height="9" fill="#5a8a5a" class="unit-box" opacity="0.9"/>
  <text x="457" y="167" class="unit-text">GND x4</text>

  <!-- ============================================ -->
  <!-- DEEP OCEAN filler hexes -->
  <!-- ============================================ -->

  <!-- Row of deep ocean across bottom -->
  <polygon points="264,450 291.7,434 291.7,466 264,482 236.3,466 236.3,434" fill="#4a77a0" stroke="#3a6790" stroke-width="0.5"/>
  <polygon points="360,450 387.7,434 387.7,466 360,482 332.3,466 332.3,434" fill="#4a77a0" stroke="#3a6790" stroke-width="0.5"/>
  <polygon points="552,450 579.7,434 579.7,466 552,482 524.3,466 524.3,434" fill="#4a77a0" stroke="#3a6790" stroke-width="0.5"/>
  <polygon points="648,450 675.7,434 675.7,466 648,482 620.3,466 620.3,434" fill="#4a77a0" stroke="#3a6790" stroke-width="0.5"/>
  <polygon points="744,450 771.7,434 771.7,466 744,482 716.3,466 716.3,434" fill="#4a77a0" stroke="#3a6790" stroke-width="0.5"/>
  <polygon points="840,450 867.7,434 867.7,466 840,482 812.3,466 812.3,434" fill="#4a77a0" stroke="#3a6790" stroke-width="0.5"/>
  <polygon points="936,450 963.7,434 963.7,466 936,482 908.3,466 908.3,434" fill="#4a77a0" stroke="#3a6790" stroke-width="0.5"/>
  <polygon points="1032,450 1059.7,434 1059.7,466 1032,482 1004.3,466 1004.3,434" fill="#4a77a0" stroke="#3a6790" stroke-width="0.5"/>

  <!-- Additional sea hexes for connectivity -->
  <polygon points="312,322 339.7,306 339.7,338 312,354 284.3,338 284.3,306" fill="#7ba7cc" stroke="#5a87ac" stroke-width="0.5"/>
  <polygon points="264,258 291.7,242 291.7,274 264,290 236.3,274 236.3,242" fill="#7ba7cc" stroke="#5a87ac" stroke-width="0.5"/>
  <polygon points="744,322 771.7,306 771.7,338 744,354 716.3,338 716.3,306" fill="#6a97bc" stroke="#5a87ac" stroke-width="0.5"/>

  <!-- More ocean fill -->
  <polygon points="120,370 147.7,354 147.7,386 120,402 92.3,386 92.3,354" fill="#5a87ac" stroke="#4a77a0" stroke-width="0.5"/>
  <polygon points="264,370 291.7,354 291.7,386 264,402 236.3,386 236.3,354" fill="#5a87ac" stroke="#4a77a0" stroke-width="0.5"/>
  <polygon points="456,322 483.7,306 483.7,338 456,354 428.3,338 428.3,306" fill="#6a97bc" stroke="#5a87ac" stroke-width="0.5"/>
  <polygon points="360,386 387.7,370 387.7,402 360,418 332.3,402 332.3,370" fill="#5a87ac" stroke="#4a77a0" stroke-width="0.5"/>
  <polygon points="648,386 675.7,370 675.7,402 648,418 620.3,402 620.3,370" fill="#5a87ac" stroke="#4a77a0" stroke-width="0.5"/>
  <polygon points="984,322 1011.7,306 1011.7,338 984,354 956.3,338 956.3,306" fill="#5a87ac" stroke="#4a77a0" stroke-width="0.5"/>
  <polygon points="1080,322 1107.7,306 1107.7,338 1080,354 1052.3,338 1052.3,306" fill="#5a87ac" stroke="#4a77a0" stroke-width="0.5"/>

  <!-- ============================================ -->
  <!-- ACTIVE THEATER MARKERS -->
  <!-- ============================================ -->

  <!-- Eastern Ereb theater glow -->
  <rect x="430" y="107" width="52" height="60" rx="5" fill="none" stroke="#cc3333" stroke-width="1.5" stroke-dasharray="4,3" opacity="0.6"/>

  <!-- Mashriq theater glow -->
  <rect x="528" y="235" width="190" height="130" rx="5" fill="none" stroke="#cc3333" stroke-width="1.5" stroke-dasharray="4,3" opacity="0.6"/>

  <!-- ============================================ -->
  <!-- LEGEND -->
  <!-- ============================================ -->
  <rect x="20" y="480" width="280" height="200" fill="white" stroke="#ccc" stroke-width="1" rx="4"/>
  <text x="35" y="498" class="legend-title">LEGEND</text>

  <!-- Land hexes -->
  <polygon points="50,518 63.9,510 63.9,526 50,534 36.1,526 36.1,510" fill="#b8c4a8" stroke="#666" stroke-width="0.8"/>
  <text x="78" y="522" class="legend-text">Home Territory (country colored)</text>

  <polygon points="50,548 63.9,540 63.9,556 50,564 36.1,556 36.1,540" fill="#d0d0d0" stroke="#999" stroke-width="0.8" stroke-dasharray="2,1"/>
  <text x="78" y="552" class="legend-text">Contested / Non-playing Territory</text>

  <polygon points="50,578 63.9,570 63.9,586 50,594 36.1,586 36.1,570" fill="#7ba7cc" stroke="#5a87ac" stroke-width="0.8"/>
  <text x="78" y="582" class="legend-text">Sea Zone (graduated blue)</text>

  <!-- Chokepoint -->
  <polygon points="50,608 63.9,600 63.9,616 50,624 36.1,616 36.1,600" fill="#5a87ac" stroke="#5a87ac" stroke-width="0.8"/>
  <circle cx="50" cy="612" r="5" fill="none" stroke="#8b2222" stroke-width="1.5"/>
  <text x="78" y="612" class="legend-text">Chokepoint (8 total)</text>

  <!-- Units -->
  <text x="35" y="638" class="legend-text" font-weight="700">UNIT COUNTERS:</text>
  <rect x="35" y="644" width="24" height="9" fill="#5a8a5a" rx="2"/>
  <text x="47" y="650" class="unit-text">GND</text>
  <text x="65" y="650" class="legend-text">Ground</text>

  <rect x="100" y="644" width="24" height="9" fill="#4a7fa5" rx="2"/>
  <text x="112" y="650" class="unit-text">NAV</text>
  <text x="130" y="650" class="legend-text">Naval</text>

  <rect x="165" y="644" width="24" height="9" fill="#888" rx="2"/>
  <text x="177" y="650" class="unit-text">AIR</text>
  <text x="195" y="650" class="legend-text">Air</text>

  <rect x="220" y="644" width="24" height="9" fill="#cc4444" rx="2"/>
  <text x="232" y="650" class="unit-text">MSL</text>
  <text x="250" y="650" class="legend-text">Missile</text>

  <!-- Theater indicator -->
  <rect x="35" y="662" width="40" height="8" rx="2" fill="#cc3333" opacity="0.15" stroke="#cc3333" stroke-width="0.5"/>
  <text x="82" y="669" class="legend-text">Active Theater Zone</text>

  <!-- ============================================ -->
  <!-- COUNTRY COLOR KEY -->
  <!-- ============================================ -->
  <rect x="320" y="480" width="260" height="200" fill="white" stroke="#ccc" stroke-width="1" rx="4"/>
  <text x="335" y="498" class="legend-title">COUNTRY COLORS</text>

  <rect x="335" y="508" width="14" height="14" fill="#b8c4a8" stroke="#666" stroke-width="0.5"/>
  <text x="356" y="519" class="legend-text">Columbia (pale sage)</text>

  <rect x="335" y="528" width="14" height="14" fill="#d8c0a8" stroke="#666" stroke-width="0.5"/>
  <text x="356" y="539" class="legend-text">Cathay (warm sand)</text>

  <rect x="335" y="548" width="14" height="14" fill="#c0b0a0" stroke="#666" stroke-width="0.5"/>
  <text x="356" y="559" class="legend-text">Nordostan (dusty taupe)</text>

  <rect x="335" y="568" width="14" height="14" fill="#d0c0c8" stroke="#666" stroke-width="0.5"/>
  <text x="356" y="579" class="legend-text">Gallia (dusty rose)</text>

  <rect x="335" y="588" width="14" height="14" fill="#c8d0c0" stroke="#666" stroke-width="0.5"/>
  <text x="356" y="599" class="legend-text">Teutonia (light sage)</text>

  <rect x="335" y="608" width="14" height="14" fill="#c8c0d0" stroke="#666" stroke-width="0.5"/>
  <text x="356" y="619" class="legend-text">Freeland (lavender)</text>

  <rect x="335" y="628" width="14" height="14" fill="#c0c8d0" stroke="#666" stroke-width="0.5"/>
  <text x="356" y="639" class="legend-text">Albion (light slate)</text>

  <rect x="335" y="648" width="14" height="14" fill="#d8d0c0" stroke="#666" stroke-width="0.5"/>
  <text x="356" y="659" class="legend-text">Ponte (warm cream)</text>

  <rect x="500" y="508" width="14" height="14" fill="#d0b898" stroke="#666" stroke-width="0.5"/>
  <text x="521" y="519" class="legend-text">Persia (warm sand)</text>

  <rect x="500" y="528" width="14" height="14" fill="#c8d8c0" stroke="#666" stroke-width="0.5"/>
  <text x="521" y="539" class="legend-text">Levantia (sage green)</text>

  <rect x="500" y="548" width="14" height="14" fill="#f0e6d0" stroke="#666" stroke-width="0.5"/>
  <text x="521" y="559" class="legend-text">Solaria (pale cream)</text>

  <rect x="500" y="568" width="14" height="14" fill="#d0c8b8" stroke="#666" stroke-width="0.5"/>
  <text x="521" y="579" class="legend-text">Phrygia (warm taupe)</text>

  <rect x="500" y="588" width="14" height="14" fill="#c8b8d0" stroke="#666" stroke-width="0.5"/>
  <text x="521" y="599" class="legend-text">Bharata (soft lavender)</text>

  <rect x="500" y="608" width="14" height="14" fill="#e0d8c8" stroke="#666" stroke-width="0.5"/>
  <text x="521" y="619" class="legend-text">Mirage (light sand)</text>

  <rect x="500" y="628" width="14" height="14" fill="#c0d0d8" stroke="#666" stroke-width="0.5"/>
  <text x="521" y="639" class="legend-text">Yamato (cool slate)</text>

  <rect x="500" y="648" width="14" height="14" fill="#c0c8d8" stroke="#666" stroke-width="0.5"/>
  <text x="521" y="659" class="legend-text">Hanguk (blue-gray)</text>

  <!-- ============================================ -->
  <!-- CHOKEPOINTS KEY -->
  <!-- ============================================ -->
  <rect x="600" y="480" width="200" height="200" fill="white" stroke="#ccc" stroke-width="1" rx="4"/>
  <text x="615" y="498" class="legend-title">8 CHOKEPOINTS</text>
  <text x="615" y="514" class="legend-text">1. Gulf Gate</text>
  <text x="615" y="528" class="legend-text">2. Suez Canal</text>
  <text x="615" y="542" class="legend-text">3. Bab el-Mandeb (Red Sea)</text>
  <text x="615" y="556" class="legend-text">4. Bosphorus Strait</text>
  <text x="615" y="570" class="legend-text">5. GIUK Gap</text>
  <text x="615" y="584" class="legend-text">6. Malacca Strait</text>
  <text x="615" y="598" class="legend-text">7. Taiwan Strait / SCS</text>
  <text x="615" y="612" class="legend-text">8. Caribbean Passages</text>
  <line x1="615" y1="622" x2="785" y2="622" stroke="#ddd" stroke-width="0.5"/>
  <text x="615" y="636" class="legend-text" font-style="italic">Chokepoints marked with</text>
  <text x="615" y="648" class="legend-text" font-style="italic">red ring on sea hexes</text>
  <text x="615" y="664" class="legend-text" font-style="italic">Active theaters: dashed red border</text>

  <!-- Watermark -->
  <text x="1100" y="690" font-family="'Segoe UI', Arial, sans-serif" font-size="7" fill="#bbb" text-anchor="end">OPTION E: HEX WORLD v1.0 | Thucydides Trap SIM</text>
</svg>