<svg xmlns="http://www.w3.org/2000/svg" viewBox="0 0 1200 700" width="1200" height="700">
  <defs>
    <style>
      .node-label { font-family: 'Inter', 'Helvetica Neue', Arial, sans-serif; font-size: 6.5px; fill: #fff; text-anchor: middle; dominant-baseline: central; font-weight: 600; }
      .node-label-dark { font-family: 'Inter', 'Helvetica Neue', Arial, sans-serif; font-size: 6.5px; fill: #222; text-anchor: middle; dominant-baseline: central; font-weight: 600; }
      .node-label-sea { font-family: 'Inter', 'Helvetica Neue', Arial, sans-serif; font-size: 5.5px; fill: #fff; text-anchor: middle; dominant-baseline: central; font-weight: 500; }
      .country-label { font-family: 'Inter', 'Helvetica Neue', Arial, sans-serif; font-size: 12px; text-anchor: middle; font-weight: 700; letter-spacing: 1.5px; }
      .continent-label { font-family: 'Inter', 'Helvetica Neue', Arial, sans-serif; font-size: 15px; fill: #bbb; text-anchor: middle; font-weight: 200; letter-spacing: 5px; }
      .unit-info { font-family: 'Inter', 'Helvetica Neue', Arial, sans-serif; font-size: 5px; fill: #444; text-anchor: middle; font-weight: 600; }
      .unit-badge { font-family: 'Inter', 'Helvetica Neue', Arial, sans-serif; font-size: 5px; fill: white; text-anchor: middle; dominant-baseline: central; font-weight: 700; }
      .legend-text { font-family: 'Inter', 'Helvetica Neue', Arial, sans-serif; font-size: 7.5px; fill: #444; }
      .legend-title { font-family: 'Inter', 'Helvetica Neue', Arial, sans-serif; font-size: 10px; fill: #222; font-weight: 700; }
      .chokepoint-label { font-family: 'Inter', Arial, sans-serif; font-size: 5px; fill: #aa2222; text-anchor: middle; font-weight: 700; }
      .link-land { stroke: #888; stroke-width: 1.2; fill: none; }
      .link-sea { stroke: #7aa5cc; stroke-width: 1; fill: none; stroke-dasharray: 4,3; }
      .link-mixed { stroke: #8a9aaa; stroke-width: 1; fill: none; stroke-dasharray: 2,2; }
    </style>
  </defs>

  <!-- Background -->
  <rect width="1200" height="700" fill="#f8f8f5"/>

  <!-- Title -->
  <text x="600" y="24" font-family="'Inter', 'Helvetica Neue', Arial, sans-serif" font-size="16" fill="#222" text-anchor="middle" font-weight="700" letter-spacing="2">THUCYDIDES TRAP — STRATEGIC NETWORK</text>
  <text x="600" y="38" font-family="'Inter', Arial, sans-serif" font-size="9" fill="#999" text-anchor="middle" letter-spacing="1">ADJACENCY GRAPH  /  45 ZONES  /  8 CHOKEPOINTS  /  20 COUNTRIES</text>

  <!-- ================================================ -->
  <!-- COUNTRY CLUSTER BACKGROUNDS                      -->
  <!-- ================================================ -->

  <!-- Columbia cluster bg -->
  <ellipse cx="115" cy="210" rx="90" ry="100" fill="#d5e0c8" opacity="0.3"/>
  <text x="115" y="110" class="country-label" fill="#5a7a4a">COLUMBIA</text>

  <!-- Europe cluster bg -->
  <ellipse cx="350" cy="180" rx="95" ry="90" fill="#d0c8d8" opacity="0.25"/>
  <text x="350" y="95" class="country-label" fill="#5a4a6a">EUROPE</text>

  <!-- Nordostan cluster bg -->
  <ellipse cx="570" cy="105" rx="110" ry="55" fill="#d8d0c0" opacity="0.25"/>
  <text x="570" y="58" class="country-label" fill="#6a5a3a">NORDOSTAN</text>

  <!-- Mashriq cluster bg -->
  <ellipse cx="590" cy="310" rx="100" ry="80" fill="#e0d8c0" opacity="0.25"/>
  <text x="590" y="240" class="country-label" fill="#7a5a2a">MIDDLE EAST</text>

  <!-- South Asia cluster bg -->
  <ellipse cx="780" cy="340" rx="55" ry="50" fill="#d0c8d8" opacity="0.25"/>

  <!-- Asu cluster bg -->
  <ellipse cx="960" cy="200" rx="120" ry="100" fill="#d8c8b0" opacity="0.25"/>
  <text x="960" y="105" class="country-label" fill="#7a5a2a">EAST ASIA</text>

  <!-- Continent labels (very faint, behind everything) -->
  <text x="115" y="330" class="continent-label" opacity="0.3">AMERICAS</text>
  <text x="780" y="410" class="continent-label" opacity="0.3" font-size="10">S. ASIA</text>

  <!-- ================================================ -->
  <!-- ADJACENCY LINKS (drawn first, behind nodes)      -->
  <!-- ================================================ -->

  <!-- COLUMBIA internal links (land) -->
  <line x1="115" y1="175" x2="115" y2="215" class="link-land"/>
  <line x1="115" y1="175" x2="60" y2="240" class="link-land"/>
  <line x1="115" y1="215" x2="60" y2="240" class="link-mixed"/>

  <!-- Columbia to seas -->
  <line x1="115" y1="175" x2="80" y2="135" class="link-mixed"/><!-- Alaska to N.Pacific -->
  <line x1="60" y1="240" x2="50" y2="300" class="link-mixed"/><!-- Hawaii to C.Pacific -->
  <line x1="60" y1="240" x2="80" y2="135" class="link-mixed"/><!-- Hawaii to N.Pacific -->
  <line x1="115" y1="215" x2="195" y2="225" class="link-mixed"/><!-- Cont to W.Atlantic -->
  <line x1="115" y1="215" x2="165" y2="285" class="link-mixed"/><!-- Cont to Gulf/Carib -->
  <line x1="115" y1="215" x2="150" y2="270" class="link-land"/><!-- Cont to Caribe -->

  <!-- Caribe links -->
  <line x1="150" y1="270" x2="165" y2="285" class="link-mixed"/><!-- Caribe to Gulf/Carib -->
  <line x1="150" y1="270" x2="195" y2="225" class="link-mixed"/><!-- Caribe to W.Atlantic -->

  <!-- Atlantic links -->
  <line x1="195" y1="225" x2="280" y2="220" class="link-sea"/><!-- W.Atl to E.Atl -->
  <line x1="195" y1="225" x2="240" y2="105" class="link-sea"/><!-- W.Atl to Thule -->

  <!-- GIUK and Arctic -->
  <line x1="280" y1="220" x2="300" y2="140" class="link-sea"/><!-- E.Atl to GIUK -->
  <line x1="300" y1="140" x2="240" y2="105" class="link-sea"/><!-- GIUK to Thule -->
  <line x1="300" y1="140" x2="430" y2="72" class="link-sea"/><!-- GIUK to Arctic -->
  <line x1="240" y1="105" x2="430" y2="72" class="link-sea"/><!-- Thule to Arctic -->
  <line x1="80" y1="135" x2="430" y2="72" class="link-sea"/><!-- N.Pacific to Arctic -->
  <line x1="115" y1="175" x2="430" y2="72" class="link-mixed"/><!-- Alaska to Arctic -->

  <!-- Europe internal links -->
  <line x1="320" y1="155" x2="280" y2="220" class="link-mixed"/><!-- Albion to E.Atl -->
  <line x1="320" y1="155" x2="300" y2="140" class="link-mixed"/><!-- Albion to GIUK -->
  <line x1="320" y1="155" x2="355" y2="195" class="link-land"/><!-- Albion to Gallia -->
  <line x1="355" y1="195" x2="375" y2="155" class="link-land"/><!-- Gallia to Teutonia -->
  <line x1="355" y1="195" x2="390" y2="215" class="link-land"/><!-- Gallia to Ponte -->
  <line x1="375" y1="155" x2="390" y2="215" class="link-land"/><!-- Teutonia to Ponte -->
  <line x1="375" y1="155" x2="410" y2="155" class="link-land"/><!-- Teutonia to Freeland -->
  <line x1="375" y1="155" x2="395" y2="120" class="link-mixed"/><!-- Teutonia to Baltic -->

  <!-- Baltic links -->
  <line x1="395" y1="120" x2="410" y2="155" class="link-mixed"/><!-- Baltic to Freeland -->
  <line x1="395" y1="120" x2="500" y2="100" class="link-mixed"/><!-- Baltic to Nordostan W -->

  <!-- Freeland to Nordostan -->
  <line x1="410" y1="155" x2="500" y2="100" class="link-land"/>

  <!-- Med links -->
  <line x1="355" y1="195" x2="370" y2="260" class="link-mixed"/><!-- Gallia to W.Med -->
  <line x1="280" y1="220" x2="370" y2="260" class="link-sea"/><!-- E.Atl to W.Med -->
  <line x1="390" y1="215" x2="370" y2="260" class="link-mixed"/><!-- Ponte to W.Med -->
  <line x1="390" y1="215" x2="440" y2="265" class="link-mixed"/><!-- Ponte to E.Med -->
  <line x1="370" y1="260" x2="440" y2="265" class="link-sea"/><!-- W.Med to E.Med -->

  <!-- E.Med connections -->
  <line x1="440" y1="265" x2="500" y2="260" class="link-mixed"/><!-- E.Med to Phrygia -->
  <line x1="440" y1="265" x2="535" y2="290" class="link-mixed"/><!-- E.Med to Levantia -->
  <line x1="440" y1="265" x2="530" y2="345" class="link-sea"/><!-- E.Med to Red Sea -->

  <!-- Black Sea -->
  <line x1="500" y1="260" x2="490" y2="195" class="link-mixed"/><!-- Phrygia to Black Sea -->
  <line x1="490" y1="195" x2="500" y2="100" class="link-mixed"/><!-- Black Sea to Nordostan W -->

  <!-- Nordostan internal -->
  <line x1="500" y1="100" x2="580" y2="100" class="link-land"/><!-- W to C -->
  <line x1="580" y1="100" x2="660" y2="100" class="link-land"/><!-- C to E -->
  <line x1="580" y1="100" x2="430" y2="72" class="link-mixed"/><!-- C to Arctic -->
  <line x1="660" y1="100" x2="430" y2="72" class="link-mixed"/><!-- E to Arctic -->
  <line x1="660" y1="100" x2="80" y2="135" class="link-mixed"/><!-- E to N.Pacific (long) -->

  <!-- Central Asia links -->
  <line x1="580" y1="100" x2="640" y2="195" class="link-land"/><!-- Nordostan C to C.Asia -->
  <line x1="640" y1="195" x2="610" y2="280" class="link-land"/><!-- C.Asia to Persia -->
  <line x1="640" y1="195" x2="780" y2="310" class="link-land"/><!-- C.Asia to Bharata -->
  <line x1="640" y1="195" x2="870" y2="180" class="link-land"/><!-- C.Asia to Cathay W -->

  <!-- Mashriq links -->
  <line x1="500" y1="260" x2="500" y2="100" class="link-mixed"/><!-- Phrygia to Nordostan W (already exists) -->
  <line x1="535" y1="290" x2="500" y2="260" class="link-land"/><!-- Levantia to Phrygia -->
  <line x1="535" y1="290" x2="570" y2="310" class="link-land"/><!-- Levantia to Solaria -->
  <line x1="570" y1="310" x2="610" y2="280" class="link-land"/><!-- Solaria to Persia -->
  <line x1="570" y1="310" x2="610" y2="340" class="link-land"/><!-- Solaria to Mirage -->
  <line x1="570" y1="310" x2="530" y2="345" class="link-mixed"/><!-- Solaria to Red Sea -->
  <line x1="610" y1="280" x2="610" y2="340" class="link-land"/><!-- Persia to Mirage -->
  <line x1="610" y1="280" x2="640" y2="330" class="link-mixed"/><!-- Persia to P.Gulf -->
  <line x1="570" y1="310" x2="640" y2="330" class="link-mixed"/><!-- Solaria to P.Gulf -->
  <line x1="610" y1="340" x2="640" y2="330" class="link-mixed"/><!-- Mirage to P.Gulf -->
  <line x1="610" y1="340" x2="680" y2="370" class="link-mixed"/><!-- Mirage to Arabian Sea -->
  <line x1="640" y1="330" x2="680" y2="370" class="link-sea"/><!-- P.Gulf to Arabian Sea -->
  <line x1="530" y1="345" x2="680" y2="370" class="link-sea"/><!-- Red Sea to Arabian Sea -->

  <!-- Horn links -->
  <line x1="570" y1="390" x2="530" y2="345" class="link-mixed"/><!-- Horn to Red Sea -->
  <line x1="570" y1="390" x2="680" y2="370" class="link-mixed"/><!-- Horn to Arabian Sea -->
  <line x1="570" y1="390" x2="570" y2="310" class="link-land"/><!-- Horn to Solaria -->
  <line x1="570" y1="390" x2="470" y2="400" class="link-land"/><!-- Horn to C.Africa -->

  <!-- C.Africa -->
  <line x1="470" y1="400" x2="280" y2="220" class="link-mixed"/><!-- C.Africa to E.Atl -->

  <!-- Arabian Sea connections -->
  <line x1="680" y1="370" x2="780" y2="310" class="link-mixed"/><!-- Arabian to Bharata -->
  <line x1="680" y1="370" x2="740" y2="400" class="link-sea"/><!-- Arabian to Indian Ocean -->

  <!-- Indian Ocean links -->
  <line x1="740" y1="400" x2="780" y2="310" class="link-mixed"/><!-- Indian Ocean to Bharata -->
  <line x1="740" y1="400" x2="830" y2="370" class="link-sea"/><!-- Indian Ocean to SE Asia/Malacca -->

  <!-- SE Asia / Malacca to SCS -->
  <line x1="830" y1="370" x2="910" y2="310" class="link-sea"/><!-- SE Asia to SCS -->
  <line x1="830" y1="370" x2="920" y2="250" class="link-mixed"/><!-- SE Asia to Cathay S -->

  <!-- Cathay internal -->
  <line x1="920" y1="170" x2="870" y2="180" class="link-land"/><!-- E to W -->
  <line x1="920" y1="170" x2="920" y2="250" class="link-land"/><!-- E to S -->
  <line x1="870" y1="180" x2="920" y2="250" class="link-land"/><!-- W to S -->

  <!-- Cathay sea connections -->
  <line x1="920" y1="170" x2="970" y2="225" class="link-mixed"/><!-- Cathay E to E.China Sea -->
  <line x1="920" y1="170" x2="910" y2="310" class="link-mixed"/><!-- Cathay E to SCS -->
  <line x1="920" y1="250" x2="910" y2="310" class="link-mixed"/><!-- Cathay S to SCS -->
  <line x1="920" y1="250" x2="830" y2="370" class="link-mixed"/><!-- Cathay S to SE Asia -->

  <!-- East China Sea links -->
  <line x1="970" y1="225" x2="1020" y2="260" class="link-mixed"/><!-- E.China to Formosa -->
  <line x1="970" y1="225" x2="1020" y2="170" class="link-mixed"/><!-- E.China to Yamato -->
  <line x1="970" y1="225" x2="980" y2="155" class="link-mixed"/><!-- E.China to Hanguk -->
  <line x1="970" y1="225" x2="910" y2="310" class="link-sea"/><!-- E.China to SCS -->
  <line x1="970" y1="225" x2="1060" y2="155" class="link-sea"/><!-- E.China to N.Pacific(east) -->

  <!-- SCS to Formosa -->
  <line x1="910" y1="310" x2="1020" y2="260" class="link-mixed"/>

  <!-- Formosa -->
  <!-- (already linked to E.China and SCS) -->

  <!-- Yamato links -->
  <line x1="1020" y1="170" x2="980" y2="155" class="link-land"/><!-- Yamato to Hanguk -->
  <line x1="1020" y1="170" x2="1060" y2="155" class="link-mixed"/><!-- Yamato to N.Pacific east -->

  <!-- Hanguk/Choson/Cathay -->
  <line x1="980" y1="155" x2="950" y2="135" class="link-land"/><!-- Hanguk to Choson -->
  <line x1="980" y1="155" x2="920" y2="170" class="link-land"/><!-- Hanguk to Cathay E -->
  <line x1="950" y1="135" x2="920" y2="170" class="link-land"/><!-- Choson to Cathay E -->
  <line x1="950" y1="135" x2="660" y2="100" class="link-land"/><!-- Choson to Nordostan E -->

  <!-- N.Pacific links -->
  <line x1="80" y1="135" x2="1060" y2="155" class="link-sea" opacity="0.4"/><!-- Wide Pacific link (faint) -->
  <line x1="80" y1="135" x2="60" y2="240" class="link-sea"/><!-- N.Pacific to Hawaii -->
  <line x1="50" y1="300" x2="80" y2="135" class="link-sea"/><!-- C.Pacific to N.Pacific -->
  <line x1="50" y1="300" x2="165" y2="285" class="link-sea"/><!-- C.Pacific to Gulf/Carib -->

  <!-- ================================================ -->
  <!-- LAND ZONE NODES (large circles)                  -->
  <!-- ================================================ -->

  <!-- COLUMBIA -->
  <circle cx="115" cy="175" r="18" fill="#6a8a5a" stroke="#4a6a3a" stroke-width="2"/>
  <text x="115" y="173" class="node-label">ALASKA</text>
  <text x="115" y="181" class="node-label" font-size="5"></text>

  <!-- Reposition: Alaska up, Continental center, Hawaii down-left -->
  <!-- Actually let me place them correctly: -->
  <!-- Alaska -->
  <circle cx="80" cy="135" r="5" fill="#6a8a5a" stroke="#4a6a3a" stroke-width="1" opacity="0"/><!-- N.Pacific placeholder -->

  <!-- Let me redo the land nodes properly -->
  <!-- Columbia Alaska -->
  <circle cx="115" cy="175" r="18" fill="#6a8a5a" stroke="#4a6a3a" stroke-width="2"/>
  <text x="115" y="170" class="node-label">COL</text>
  <text x="115" y="179" class="node-label">ALASKA</text>

  <!-- Columbia Continental -->
  <circle cx="115" cy="215" r="20" fill="#5a7a4a" stroke="#4a6a3a" stroke-width="2"/>
  <text x="115" y="210" class="node-label">COL</text>
  <text x="115" y="219" class="node-label">CONT.</text>
  <!-- Unit badge -->
  <circle cx="132" cy="228" r="7" fill="#3a5a2a"/>
  <text x="132" y="229" class="unit-badge">G8</text>

  <!-- Columbia Hawaii -->
  <circle cx="60" cy="240" r="16" fill="#6a8a5a" stroke="#4a6a3a" stroke-width="2"/>
  <text x="60" y="237" class="node-label">COL</text>
  <text x="60" y="246" class="node-label">PACOM</text>

  <!-- Caribe -->
  <circle cx="150" cy="270" r="14" fill="#8a6a5a" stroke="#6a4a3a" stroke-width="1.5"/>
  <text x="150" y="271" class="node-label">CARIBE</text>

  <!-- EUROPE -->
  <!-- Albion -->
  <circle cx="320" cy="155" r="16" fill="#5a6a7a" stroke="#3a4a5a" stroke-width="2"/>
  <text x="320" y="156" class="node-label">ALBION</text>

  <!-- Gallia -->
  <circle cx="355" cy="195" r="16" fill="#7a5a7a" stroke="#5a3a5a" stroke-width="2"/>
  <text x="355" y="196" class="node-label">GALLIA</text>

  <!-- Teutonia -->
  <circle cx="375" cy="155" r="16" fill="#5a7a5a" stroke="#3a5a3a" stroke-width="2"/>
  <text x="375" y="156" class="node-label">TEUTONIA</text>

  <!-- Ponte -->
  <circle cx="390" cy="215" r="14" fill="#7a6a4a" stroke="#5a4a2a" stroke-width="1.5"/>
  <text x="390" y="216" class="node-label">PONTE</text>

  <!-- Freeland -->
  <circle cx="410" cy="155" r="16" fill="#6a5a7a" stroke="#4a3a5a" stroke-width="2"/>
  <text x="410" y="152" class="node-label">FREE-</text>
  <text x="410" y="161" class="node-label">LAND</text>
  <!-- Theater indicator -->
  <circle cx="410" cy="155" r="20" fill="none" stroke="#cc2222" stroke-width="1.5" stroke-dasharray="3,2"/>

  <!-- NORDOSTAN -->
  <!-- Western -->
  <circle cx="500" cy="100" r="18" fill="#7a6a4a" stroke="#5a4a2a" stroke-width="2"/>
  <text x="500" y="95" class="node-label">NOR</text>
  <text x="500" y="104" class="node-label">WEST</text>
  <!-- Unit badge -->
  <circle cx="516" cy="112" r="7" fill="#5a4a2a"/>
  <text x="516" y="113" class="unit-badge">G6</text>

  <!-- Central -->
  <circle cx="580" cy="100" r="18" fill="#7a6a4a" stroke="#5a4a2a" stroke-width="2"/>
  <text x="580" y="95" class="node-label">NOR</text>
  <text x="580" y="104" class="node-label">CENT.</text>

  <!-- Far East -->
  <circle cx="660" cy="100" r="16" fill="#7a6a4a" stroke="#5a4a2a" stroke-width="2"/>
  <text x="660" y="95" class="node-label">NOR</text>
  <text x="660" y="104" class="node-label">EAST</text>

  <!-- MIDDLE EAST -->
  <!-- Phrygia -->
  <circle cx="500" cy="260" r="15" fill="#8a7a4a" stroke="#6a5a2a" stroke-width="1.5"/>
  <text x="500" y="258" class="node-label">PHRY-</text>
  <text x="500" y="267" class="node-label">GIA</text>

  <!-- Levantia -->
  <circle cx="535" cy="290" r="14" fill="#5a7a4a" stroke="#3a5a2a" stroke-width="1.5"/>
  <text x="535" y="288" class="node-label">LEVAN-</text>
  <text x="535" y="297" class="node-label">TIA</text>

  <!-- Solaria -->
  <circle cx="570" cy="310" r="16" fill="#8a7a3a" stroke="#6a5a1a" stroke-width="2"/>
  <text x="570" y="308" class="node-label">SOLA-</text>
  <text x="570" y="317" class="node-label">RIA</text>

  <!-- Persia -->
  <circle cx="610" cy="280" r="18" fill="#8a5a3a" stroke="#6a3a1a" stroke-width="2"/>
  <text x="610" y="278" class="node-label">PERSIA</text>
  <!-- Theater indicator -->
  <circle cx="610" cy="280" r="22" fill="none" stroke="#cc2222" stroke-width="1.5" stroke-dasharray="3,2"/>

  <!-- Mirage -->
  <circle cx="610" cy="340" r="13" fill="#8a8a5a" stroke="#6a6a3a" stroke-width="1.5"/>
  <text x="610" y="341" class="node-label">MIRAGE</text>

  <!-- Bharata -->
  <circle cx="780" cy="310" r="20" fill="#6a5a7a" stroke="#4a3a5a" stroke-width="2"/>
  <text x="780" y="305" class="node-label">BHA-</text>
  <text x="780" y="314" class="node-label">RATA</text>
  <!-- Unit badge -->
  <circle cx="798" cy="323" r="7" fill="#4a3a5a"/>
  <text x="798" y="324" class="unit-badge">G4</text>

  <!-- EAST ASIA -->
  <!-- Cathay Eastern -->
  <circle cx="920" cy="170" r="20" fill="#8a6a2a" stroke="#6a4a0a" stroke-width="2"/>
  <text x="920" y="165" class="node-label">CATHAY</text>
  <text x="920" y="175" class="node-label">EAST</text>
  <!-- Unit badge -->
  <circle cx="938" cy="183" r="7" fill="#6a4a0a"/>
  <text x="938" y="184" class="unit-badge">G8</text>

  <!-- Cathay Interior -->
  <circle cx="870" cy="180" r="17" fill="#8a6a2a" stroke="#6a4a0a" stroke-width="2"/>
  <text x="870" y="175" class="node-label">CATHAY</text>
  <text x="870" y="184" class="node-label">INT.</text>

  <!-- Cathay Southern -->
  <circle cx="920" cy="250" r="17" fill="#8a6a2a" stroke="#6a4a0a" stroke-width="2"/>
  <text x="920" y="245" class="node-label">CATHAY</text>
  <text x="920" y="254" class="node-label">SOUTH</text>

  <!-- Yamato -->
  <circle cx="1020" cy="170" r="16" fill="#3a6a8a" stroke="#1a4a6a" stroke-width="2"/>
  <text x="1020" y="168" class="node-label">YAMA-</text>
  <text x="1020" y="177" class="node-label">TO</text>
  <!-- Unit badge -->
  <circle cx="1034" cy="181" r="7" fill="#1a4a6a"/>
  <text x="1034" y="182" class="unit-badge">G2</text>

  <!-- Hanguk -->
  <circle cx="980" cy="155" r="14" fill="#4a6a8a" stroke="#2a4a6a" stroke-width="2"/>
  <text x="980" y="153" class="node-label">HAN-</text>
  <text x="980" y="162" class="node-label">GUK</text>
  <!-- Unit badge -->
  <circle cx="992" cy="165" r="7" fill="#2a4a6a"/>
  <text x="992" y="166" class="unit-badge">G3</text>

  <!-- Choson -->
  <circle cx="950" cy="135" r="13" fill="#6a5a4a" stroke="#4a3a2a" stroke-width="1.5"/>
  <text x="950" y="133" class="node-label">CHO-</text>
  <text x="950" y="142" class="node-label">SON</text>
  <!-- Missile badge -->
  <circle cx="961" cy="145" r="7" fill="#aa2222"/>
  <text x="961" y="146" class="unit-badge">M2</text>

  <!-- Formosa -->
  <circle cx="1020" cy="260" r="15" fill="#4a8a5a" stroke="#2a6a3a" stroke-width="2"/>
  <text x="1020" y="255" class="node-label">FOR-</text>
  <text x="1020" y="264" class="node-label">MOSA</text>
  <!-- Unit badge -->
  <circle cx="1033" cy="271" r="7" fill="#2a6a3a"/>
  <text x="1033" y="272" class="unit-badge">G3</text>

  <!-- ================================================ -->
  <!-- SEA ZONE NODES (smaller blue circles)            -->
  <!-- ================================================ -->

  <!-- North Pacific -->
  <circle cx="80" cy="135" r="13" fill="#4a7fa5" stroke="#3a6f95" stroke-width="1.5"/>
  <text x="80" y="133" class="node-label-sea">N.PAC</text>
  <!-- Columbia naval badge -->
  <circle cx="92" cy="145" r="7" fill="#3a5a2a"/>
  <text x="92" y="146" class="unit-badge">N2</text>

  <!-- Central Pacific -->
  <circle cx="50" cy="300" r="12" fill="#3a6f95" stroke="#2a5f85" stroke-width="1.5"/>
  <text x="50" y="301" class="node-label-sea">C.PAC</text>

  <!-- Western Atlantic -->
  <circle cx="195" cy="225" r="13" fill="#4a7fa5" stroke="#3a6f95" stroke-width="1.5"/>
  <text x="195" y="223" class="node-label-sea">W.ATL</text>
  <!-- Columbia naval badge -->
  <circle cx="207" cy="235" r="7" fill="#3a5a2a"/>
  <text x="207" y="236" class="unit-badge">N3</text>

  <!-- Gulf & Caribbean -->
  <circle cx="165" cy="285" r="12" fill="#4a7fa5" stroke="#3a6f95" stroke-width="1.5"/>
  <text x="165" y="283" class="node-label-sea">GULF</text>
  <text x="165" y="291" class="node-label-sea">CARIB</text>
  <!-- Chokepoint ring -->
  <circle cx="165" cy="285" r="16" fill="none" stroke="#aa2222" stroke-width="2"/>

  <!-- Eastern Atlantic -->
  <circle cx="280" cy="220" r="12" fill="#4a7fa5" stroke="#3a6f95" stroke-width="1.5"/>
  <text x="280" y="218" class="node-label-sea">E.ATL</text>
  <!-- Columbia naval badge -->
  <circle cx="292" cy="230" r="7" fill="#3a5a2a"/>
  <text x="292" y="231" class="unit-badge">N2</text>

  <!-- GIUK Gap -->
  <circle cx="300" cy="140" r="12" fill="#3a6f95" stroke="#2a5f85" stroke-width="1.5"/>
  <text x="300" y="141" class="node-label-sea">GIUK</text>
  <!-- Chokepoint ring -->
  <circle cx="300" cy="140" r="16" fill="none" stroke="#aa2222" stroke-width="2"/>

  <!-- Arctic -->
  <circle cx="430" cy="72" r="14" fill="#7aa5cc" stroke="#5a85ac" stroke-width="1.5"/>
  <text x="430" y="73" class="node-label-sea">ARCTIC</text>

  <!-- Baltic -->
  <circle cx="395" cy="120" r="11" fill="#6a95b5" stroke="#4a75a5" stroke-width="1.5"/>
  <text x="395" y="121" class="node-label-sea">BALTIC</text>

  <!-- Black Sea -->
  <circle cx="490" cy="195" r="12" fill="#5a85a5" stroke="#3a6585" stroke-width="1.5"/>
  <text x="490" y="193" class="node-label-sea">BLACK</text>
  <text x="490" y="201" class="node-label-sea">SEA</text>
  <!-- Chokepoint ring (Bosphorus) -->
  <circle cx="490" cy="195" r="16" fill="none" stroke="#aa2222" stroke-width="2"/>
  <text x="490" y="215" class="chokepoint-label">BOSPHORUS</text>

  <!-- W. Mediterranean -->
  <circle cx="370" cy="260" r="12" fill="#5a8aaa" stroke="#3a6a8a" stroke-width="1.5"/>
  <text x="370" y="261" class="node-label-sea">W.MED</text>

  <!-- E. Mediterranean -->
  <circle cx="440" cy="265" r="12" fill="#5a8aaa" stroke="#3a6a8a" stroke-width="1.5"/>
  <text x="440" y="263" class="node-label-sea">E.MED</text>
  <!-- Chokepoint ring (Suez) -->
  <circle cx="440" cy="265" r="16" fill="none" stroke="#aa2222" stroke-width="2"/>
  <text x="440" y="285" class="chokepoint-label">SUEZ</text>

  <!-- Red Sea -->
  <circle cx="530" cy="345" r="12" fill="#5a85a5" stroke="#3a6585" stroke-width="1.5"/>
  <text x="530" y="343" class="node-label-sea">RED</text>
  <text x="530" y="351" class="node-label-sea">SEA</text>
  <!-- Chokepoint ring (Bab el-Mandeb) -->
  <circle cx="530" cy="345" r="16" fill="none" stroke="#aa2222" stroke-width="2"/>
  <text x="530" y="365" class="chokepoint-label">BAB EL-M.</text>

  <!-- Persian Gulf -->
  <circle cx="640" cy="330" r="12" fill="#5a85a5" stroke="#3a6585" stroke-width="1.5"/>
  <text x="640" y="328" class="node-label-sea">PERS.</text>
  <text x="640" y="336" class="node-label-sea">GULF</text>
  <!-- Chokepoint ring (Hormuz) -->
  <circle cx="640" cy="330" r="16" fill="none" stroke="#aa2222" stroke-width="2"/>
  <text x="640" y="350" class="chokepoint-label">HORMUZ</text>

  <!-- Arabian Sea -->
  <circle cx="680" cy="370" r="13" fill="#4a7fa5" stroke="#3a6f95" stroke-width="1.5"/>
  <text x="680" y="368" class="node-label-sea">ARAB.</text>
  <text x="680" y="376" class="node-label-sea">SEA</text>
  <!-- Columbia naval badge -->
  <circle cx="694" cy="380" r="7" fill="#3a5a2a"/>
  <text x="694" y="381" class="unit-badge">N2</text>

  <!-- Indian Ocean -->
  <circle cx="740" cy="400" r="13" fill="#3a6f95" stroke="#2a5f85" stroke-width="1.5"/>
  <text x="740" y="398" class="node-label-sea">INDIAN</text>
  <text x="740" y="406" class="node-label-sea">OCEAN</text>

  <!-- SE Asia / Malacca -->
  <circle cx="830" cy="370" r="13" fill="#4a7fa5" stroke="#3a6f95" stroke-width="1.5"/>
  <text x="830" y="368" class="node-label-sea">SE.ASI</text>
  <text x="830" y="376" class="node-label-sea">MALAC</text>
  <!-- Chokepoint ring -->
  <circle cx="830" cy="370" r="17" fill="none" stroke="#aa2222" stroke-width="2"/>

  <!-- South China Sea -->
  <circle cx="910" cy="310" r="14" fill="#4a7fa5" stroke="#3a6f95" stroke-width="1.5"/>
  <text x="910" y="308" class="node-label-sea">SCS</text>
  <!-- Chokepoint ring -->
  <circle cx="910" cy="310" r="18" fill="none" stroke="#aa2222" stroke-width="2"/>
  <!-- Cathay naval badge -->
  <circle cx="926" cy="322" r="7" fill="#6a4a0a"/>
  <text x="926" y="323" class="unit-badge">N3</text>

  <!-- East China Sea -->
  <circle cx="970" cy="225" r="13" fill="#4a7fa5" stroke="#3a6f95" stroke-width="1.5"/>
  <text x="970" y="223" class="node-label-sea">E.CHI</text>
  <text x="970" y="231" class="node-label-sea">SEA</text>
  <!-- Cathay naval badge -->
  <circle cx="984" cy="235" r="7" fill="#6a4a0a"/>
  <text x="984" y="236" class="unit-badge">N2</text>

  <!-- N.Pacific (east side near Japan) - represented as same node as N.Pacific west -->
  <circle cx="1060" cy="155" r="10" fill="#4a7fa5" stroke="#3a6f95" stroke-width="1"/>
  <text x="1060" y="156" class="node-label-sea" font-size="5">N.PAC-E</text>

  <!-- ================================================ -->
  <!-- CONTESTED ZONE NODES (gray, dashed border)       -->
  <!-- ================================================ -->

  <!-- Thule -->
  <circle cx="240" cy="105" r="14" fill="#b0b0b0" stroke="#888" stroke-width="1.5" stroke-dasharray="3,2"/>
  <text x="240" y="108" class="node-label-dark" font-size="5.5">THULE</text>

  <!-- Central Asia -->
  <circle cx="640" cy="195" r="15" fill="#b0b0b0" stroke="#888" stroke-width="1.5" stroke-dasharray="3,2"/>
  <text x="640" y="193" class="node-label-dark" font-size="5.5">CENT.</text>
  <text x="640" y="201" class="node-label-dark" font-size="5.5">ASIA</text>

  <!-- Horn of Africa -->
  <circle cx="570" cy="390" r="13" fill="#b0b0b0" stroke="#888" stroke-width="1.5" stroke-dasharray="3,2"/>
  <text x="570" y="391" class="node-label-dark" font-size="5.5">HORN</text>

  <!-- Central Africa -->
  <circle cx="470" cy="400" r="13" fill="#b0b0b0" stroke="#888" stroke-width="1.5" stroke-dasharray="3,2"/>
  <text x="470" y="398" class="node-label-dark" font-size="5.5">C.AFR-</text>
  <text x="470" y="406" class="node-label-dark" font-size="5.5">ICA</text>

  <!-- ================================================ -->
  <!-- ACTIVE THEATER INDICATORS (larger dashed circles) -->
  <!-- ================================================ -->

  <!-- EE Theater label -->
  <text x="410" y="138" font-family="'Inter', Arial, sans-serif" font-size="6" fill="#cc2222" text-anchor="middle" font-weight="700">EE THEATER</text>

  <!-- ME Theater label -->
  <text x="610" y="258" font-family="'Inter', Arial, sans-serif" font-size="6" fill="#cc2222" text-anchor="middle" font-weight="700">ME THEATER</text>

  <!-- ================================================ -->
  <!-- LEGEND -->
  <!-- ================================================ -->
  <rect x="20" y="460" width="360" height="225" fill="white" stroke="#ddd" stroke-width="1" rx="5"/>
  <text x="200" y="480" class="legend-title" text-anchor="middle">LEGEND — STRATEGIC NETWORK MAP</text>

  <!-- Node types -->
  <text x="35" y="500" class="legend-text" font-weight="700">NODES:</text>
  <circle cx="45" cy="512" r="9" fill="#5a7a4a" stroke="#3a5a2a" stroke-width="1.5"/>
  <text x="60" y="515" class="legend-text">Home territory (country color, large)</text>
  <circle cx="45" cy="532" r="8" fill="#4a7fa5" stroke="#3a6f95" stroke-width="1.5"/>
  <text x="60" y="535" class="legend-text">Sea zone (blue, smaller)</text>
  <circle cx="45" cy="552" r="8" fill="#b0b0b0" stroke="#888" stroke-width="1.5" stroke-dasharray="2,1"/>
  <text x="60" y="555" class="legend-text">Contested zone (gray, dashed)</text>
  <circle cx="45" cy="572" r="8" fill="#4a7fa5" stroke="#aa2222" stroke-width="2"/>
  <text x="60" y="575" class="legend-text">Chokepoint (red ring on sea node)</text>

  <!-- Link types -->
  <text x="35" y="598" class="legend-text" font-weight="700">LINKS (adjacency):</text>
  <line x1="35" y1="608" x2="60" y2="608" class="link-land"/>
  <text x="68" y="611" class="legend-text">Land-land adjacency (solid)</text>
  <line x1="35" y1="622" x2="60" y2="622" class="link-sea"/>
  <text x="68" y="625" class="legend-text">Sea-sea adjacency (dashed blue)</text>
  <line x1="35" y1="636" x2="60" y2="636" class="link-mixed"/>
  <text x="68" y="639" class="legend-text">Land-sea adjacency (dotted)</text>

  <!-- Unit badges -->
  <text x="35" y="658" class="legend-text" font-weight="700">UNIT BADGES:</text>
  <circle cx="45" cy="668" r="7" fill="#3a5a2a"/>
  <text x="45" y="669" class="unit-badge">G4</text>
  <text x="58" y="671" class="legend-text">= Ground x4</text>
  <circle cx="110" cy="668" r="7" fill="#3a5a2a"/>
  <text x="110" y="669" class="unit-badge">N2</text>
  <text x="123" y="671" class="legend-text">= Naval x2</text>
  <circle cx="175" cy="668" r="7" fill="#aa2222"/>
  <text x="175" y="669" class="unit-badge">M2</text>
  <text x="188" y="671" class="legend-text">= Missile x2</text>

  <!-- Theater -->
  <circle cx="295" cy="668" r="9" fill="none" stroke="#cc2222" stroke-width="1.5" stroke-dasharray="2,1"/>
  <text x="310" y="671" class="legend-text">= Active theater</text>

  <!-- ================================================ -->
  <!-- CHOKEPOINTS LIST -->
  <!-- ================================================ -->
  <rect x="400" y="460" width="200" height="225" fill="white" stroke="#ddd" stroke-width="1" rx="5"/>
  <text x="500" y="480" class="legend-title" text-anchor="middle">8 CHOKEPOINTS</text>
  <text x="415" y="498" class="legend-text">1. Strait of Hormuz</text>
  <text x="415" y="512" class="legend-text">2. Suez Canal</text>
  <text x="415" y="526" class="legend-text">3. Bab el-Mandeb</text>
  <text x="415" y="540" class="legend-text">4. Bosphorus Strait</text>
  <text x="415" y="554" class="legend-text">5. GIUK Gap</text>
  <text x="415" y="568" class="legend-text">6. Malacca Strait</text>
  <text x="415" y="582" class="legend-text">7. South China Sea / Taiwan Str.</text>
  <text x="415" y="596" class="legend-text">8. Caribbean Passages</text>
  <line x1="415" y1="606" x2="585" y2="606" stroke="#eee"/>
  <text x="415" y="620" class="legend-text" font-style="italic">Active theaters marked with</text>
  <text x="415" y="634" class="legend-text" font-style="italic">dashed red ring around node</text>
  <text x="415" y="654" class="legend-text" font-style="italic">2 active: Eastern Ereb,</text>
  <text x="415" y="668" class="legend-text" font-style="italic">Mashriq</text>

  <!-- NOTE box -->
  <rect x="620" y="460" width="240" height="100" fill="white" stroke="#ddd" stroke-width="1" rx="5"/>
  <text x="740" y="480" class="legend-title" text-anchor="middle">ABOUT THIS VIEW</text>
  <text x="635" y="498" class="legend-text">This graph shows the logical</text>
  <text x="635" y="512" class="legend-text">adjacency structure of all 45</text>
  <text x="635" y="526" class="legend-text">global zones. Geography is</text>
  <text x="635" y="540" class="legend-text">approximated by layout. Lines</text>
  <text x="635" y="554" class="legend-text">show which zones can interact.</text>

  <!-- Watermark -->
  <text x="1100" y="690" font-family="'Inter', Arial, sans-serif" font-size="7" fill="#ccc" text-anchor="end">OPTION G: STRATEGIC NETWORK v1.0 | Thucydides Trap SIM</text>
</svg>