<svg xmlns="http://www.w3.org/2000/svg" viewBox="0 0 1600 900" width="1600" height="900">
  <defs>
    <style>
      .cl { font-family: "Inter","Helvetica Neue",Arial,sans-serif; font-weight: 700; text-anchor: middle; dominant-baseline: central; fill: #333; letter-spacing: 1px; }
      .ol { font-family: "Inter","Helvetica Neue",Arial,sans-serif; font-weight: 300; font-style: italic; text-anchor: middle; dominant-baseline: central; fill: #6688AA; letter-spacing: 3px; opacity: 0.6; }
      .cpl { font-family: "Inter",Arial,sans-serif; font-size: 8px; font-weight: 700; text-anchor: middle; dominant-baseline: central; fill: #B8720C; }
      .lt { font-family: "Inter","Helvetica Neue",Arial,sans-serif; font-size: 9px; fill: #3a3a3a; }
      .ltt { font-family: "Inter","Helvetica Neue",Arial,sans-serif; font-size: 12px; fill: #1a1a1a; font-weight: 700; letter-spacing: 1.5px; }
    </style>
  </defs>
  <rect width="1600" height="900" fill="#C5D9E8"/>
  <!-- OCEAN -->
  <polygon points="50.00,15.00 80.31,32.50 80.31,67.50 50.00,85.00 19.69,67.50 19.69,32.50" fill="#B5CCE0" stroke="#99AABB" stroke-width="0.3"/>
  <polygon points="110.62,15.00 140.93,32.50 140.93,67.50 110.62,85.00 80.31,67.50 80.31,32.50" fill="#B5CCE0" stroke="#99AABB" stroke-width="0.3"/>
  <polygon points="171.24,15.00 201.55,32.50 201.55,67.50 171.24,85.00 140.93,67.50 140.93,32.50" fill="#B5CCE0" stroke="#99AABB" stroke-width="0.3"/>
  <polygon points="231.87,15.00 262.18,32.50 262.18,67.50 231.87,85.00 201.56,67.50 201.56,32.50" fill="#B5CCE0" stroke="#99AABB" stroke-width="0.3"/>
  <polygon points="292.49,15.00 322.80,32.50 322.80,67.50 292.49,85.00 262.18,67.50 262.18,32.50" fill="#B5CCE0" stroke="#99AABB" stroke-width="0.3"/>
  <polygon points="353.11,15.00 383.42,32.50 383.42,67.50 353.11,85.00 322.80,67.50 322.80,32.50" fill="#B5CCE0" stroke="#99AABB" stroke-width="0.3"/>
  <polygon points="413.73,15.00 444.04,32.50 444.04,67.50 413.73,85.00 383.42,67.50 383.42,32.50" fill="#B5CCE0" stroke="#99AABB" stroke-width="0.3"/>
  <polygon points="474.35,15.00 504.66,32.50 504.66,67.50 474.35,85.00 444.04,67.50 444.04,32.50" fill="#B5CCE0" stroke="#99AABB" stroke-width="0.3"/>
  <polygon points="534.97,15.00 565.28,32.50 565.28,67.50 534.97,85.00 504.66,67.50 504.66,32.50" fill="#B5CCE0" stroke="#99AABB" stroke-width="0.3"/>
  <polygon points="595.60,15.00 625.91,32.50 625.91,67.50 595.60,85.00 565.29,67.50 565.29,32.50" fill="#B5CCE0" stroke="#99AABB" stroke-width="0.3"/>
  <polygon points="656.22,15.00 686.53,32.50 686.53,67.50 656.22,85.00 625.91,67.50 625.91,32.50" fill="#B5CCE0" stroke="#99AABB" stroke-width="0.3"/>
  <polygon points="716.84,15.00 747.15,32.50 747.15,67.50 716.84,85.00 686.53,67.50 686.53,32.50" fill="#B5CCE0" stroke="#99AABB" stroke-width="0.3"/>
  <polygon points="777.46,15.00 807.77,32.50 807.77,67.50 777.46,85.00 747.15,67.50 747.15,32.50" fill="#B5CCE0" stroke="#99AABB" stroke-width="0.3"/>
  <polygon points="838.08,15.00 868.39,32.50 868.39,67.50 838.08,85.00 807.77,67.50 807.77,32.50" fill="#B5CCE0" stroke="#99AABB" stroke-width="0.3"/>
  <polygon points="898.70,15.00 929.01,32.50 929.01,67.50 898.70,85.00 868.39,67.50 868.39,32.50" fill="#B5CCE0" stroke="#99AABB" stroke-width="0.3"/>
  <polygon points="959.33,15.00 989.64,32.50 989.64,67.50 959.33,85.00 929.02,67.50 929.02,32.50" fill="#B5CCE0" stroke="#99AABB" stroke-width="0.3"/>
  <polygon points="1019.95,15.00 1050.26,32.50 1050.26,67.50 1019.95,85.00 989.64,67.50 989.64,32.50" fill="#B5CCE0" stroke="#99AABB" stroke-width="0.3"/>
  <polygon points="1080.57,15.00 1110.88,32.50 1110.88,67.50 1080.57,85.00 1050.26,67.50 1050.26,32.50" fill="#B5CCE0" stroke="#99AABB" stroke-width="0.3"/>
  <polygon points="1141.19,15.00 1171.50,32.50 1171.50,67.50 1141.19,85.00 1110.88,67.50 1110.88,32.50" fill="#B5CCE0" stroke="#99AABB" stroke-width="0.3"/>
  <polygon points="1201.81,15.00 1232.12,32.50 1232.12,67.50 1201.81,85.00 1171.50,67.50 1171.50,32.50" fill="#B5CCE0" stroke="#99AABB" stroke-width="0.3"/>
  <polygon points="1262.44,15.00 1292.75,32.50 1292.75,67.50 1262.44,85.00 1232.13,67.50 1232.13,32.50" fill="#B5CCE0" stroke="#99AABB" stroke-width="0.3"/>
  <polygon points="1323.06,15.00 1353.37,32.50 1353.37,67.50 1323.06,85.00 1292.75,67.50 1292.75,32.50" fill="#B5CCE0" stroke="#99AABB" stroke-width="0.3"/>
  <polygon points="1383.68,15.00 1413.99,32.50 1413.99,67.50 1383.68,85.00 1353.37,67.50 1353.37,32.50" fill="#B5CCE0" stroke="#99AABB" stroke-width="0.3"/>
  <polygon points="1444.30,15.00 1474.61,32.50 1474.61,67.50 1444.30,85.00 1413.99,67.50 1413.99,32.50" fill="#B5CCE0" stroke="#99AABB" stroke-width="0.3"/>
  <polygon points="1504.92,15.00 1535.23,32.50 1535.23,67.50 1504.92,85.00 1474.61,67.50 1474.61,32.50" fill="#B5CCE0" stroke="#99AABB" stroke-width="0.3"/>
  <polygon points="80.31,67.50 110.62,85.00 110.62,120.00 80.31,137.50 50.00,120.00 50.00,85.00" fill="#B5CCE0" stroke="#99AABB" stroke-width="0.3"/>
  <polygon points="140.93,67.50 171.24,85.00 171.24,120.00 140.93,137.50 110.62,120.00 110.62,85.00" fill="#B5CCE0" stroke="#99AABB" stroke-width="0.3"/>
  <polygon points="201.55,67.50 231.86,85.00 231.86,120.00 201.55,137.50 171.24,120.00 171.24,85.00" fill="#B5CCE0" stroke="#99AABB" stroke-width="0.3"/>
  <polygon points="262.18,67.50 292.49,85.00 292.49,120.00 262.18,137.50 231.87,120.00 231.87,85.00" fill="#B5CCE0" stroke="#99AABB" stroke-width="0.3"/>
  <polygon points="322.80,67.50 353.11,85.00 353.11,120.00 322.80,137.50 292.49,120.00 292.49,85.00" fill="#B5CCE0" stroke="#99AABB" stroke-width="0.3"/>
  <polygon points="383.42,67.50 413.73,85.00 413.73,120.00 383.42,137.50 353.11,120.00 353.11,85.00" fill="#B5CCE0" stroke="#99AABB" stroke-width="0.3"/>
  <polygon points="444.04,67.50 474.35,85.00 474.35,120.00 444.04,137.50 413.73,120.00 413.73,85.00" fill="#B5CCE0" stroke="#99AABB" stroke-width="0.3"/>
  <polygon points="504.66,67.50 534.97,85.00 534.97,120.00 504.66,137.50 474.35,120.00 474.35,85.00" fill="#B5CCE0" stroke="#99AABB" stroke-width="0.3"/>
  <polygon points="565.29,67.50 595.60,85.00 595.60,120.00 565.29,137.50 534.98,120.00 534.98,85.00" fill="#B5CCE0" stroke="#99AABB" stroke-width="0.3"/>
  <polygon points="625.91,67.50 656.22,85.00 656.22,120.00 625.91,137.50 595.60,120.00 595.60,85.00" fill="#B5CCE0" stroke="#99AABB" stroke-width="0.3"/>
  <polygon points="686.53,67.50 716.84,85.00 716.84,120.00 686.53,137.50 656.22,120.00 656.22,85.00" fill="#B5CCE0" stroke="#99AABB" stroke-width="0.3"/>
  <polygon points="747.15,67.50 777.46,85.00 777.46,120.00 747.15,137.50 716.84,120.00 716.84,85.00" fill="#B5CCE0" stroke="#99AABB" stroke-width="0.3"/>
  <polygon points="807.77,67.50 838.08,85.00 838.08,120.00 807.77,137.50 777.46,120.00 777.46,85.00" fill="#B5CCE0" stroke="#99AABB" stroke-width="0.3"/>
  <polygon points="868.39,67.50 898.70,85.00 898.70,120.00 868.39,137.50 838.08,120.00 838.08,85.00" fill="#B5CCE0" stroke="#99AABB" stroke-width="0.3"/>
  <polygon points="929.02,67.50 959.33,85.00 959.33,120.00 929.02,137.50 898.71,120.00 898.71,85.00" fill="#B5CCE0" stroke="#99AABB" stroke-width="0.3"/>
  <polygon points="989.64,67.50 1019.95,85.00 1019.95,120.00 989.64,137.50 959.33,120.00 959.33,85.00" fill="#B5CCE0" stroke="#99AABB" stroke-width="0.3"/>
  <polygon points="1050.26,67.50 1080.57,85.00 1080.57,120.00 1050.26,137.50 1019.95,120.00 1019.95,85.00" fill="#B5CCE0" stroke="#99AABB" stroke-width="0.3"/>
  <polygon points="1110.88,67.50 1141.19,85.00 1141.19,120.00 1110.88,137.50 1080.57,120.00 1080.57,85.00" fill="#B5CCE0" stroke="#99AABB" stroke-width="0.3"/>
  <polygon points="1171.50,67.50 1201.81,85.00 1201.81,120.00 1171.50,137.50 1141.19,120.00 1141.19,85.00" fill="#B5CCE0" stroke="#99AABB" stroke-width="0.3"/>
  <polygon points="1232.12,67.50 1262.43,85.00 1262.43,120.00 1232.12,137.50 1201.81,120.00 1201.81,85.00" fill="#B5CCE0" stroke="#99AABB" stroke-width="0.3"/>
  <polygon points="1292.75,67.50 1323.06,85.00 1323.06,120.00 1292.75,137.50 1262.44,120.00 1262.44,85.00" fill="#B5CCE0" stroke="#99AABB" stroke-width="0.3"/>
  <polygon points="1353.37,67.50 1383.68,85.00 1383.68,120.00 1353.37,137.50 1323.06,120.00 1323.06,85.00" fill="#B5CCE0" stroke="#99AABB" stroke-width="0.3"/>
  <polygon points="1413.99,67.50 1444.30,85.00 1444.30,120.00 1413.99,137.50 1383.68,120.00 1383.68,85.00" fill="#B5CCE0" stroke="#99AABB" stroke-width="0.3"/>
  <polygon points="1474.61,67.50 1504.92,85.00 1504.92,120.00 1474.61,137.50 1444.30,120.00 1444.30,85.00" fill="#B5CCE0" stroke="#99AABB" stroke-width="0.3"/>
  <polygon points="1535.23,67.50 1565.54,85.00 1565.54,120.00 1535.23,137.50 1504.92,120.00 1504.92,85.00" fill="#B5CCE0" stroke="#99AABB" stroke-width="0.3"/>
  <polygon points="50.00,120.00 80.31,137.50 80.31,172.50 50.00,190.00 19.69,172.50 19.69,137.50" fill="#B5CCE0" stroke="#99AABB" stroke-width="0.3"/>
  <polygon points="110.62,120.00 140.93,137.50 140.93,172.50 110.62,190.00 80.31,172.50 80.31,137.50" fill="#B5CCE0" stroke="#99AABB" stroke-width="0.3"/>
  <polygon points="171.24,120.00 201.55,137.50 201.55,172.50 171.24,190.00 140.93,172.50 140.93,137.50" fill="#B5CCE0" stroke="#99AABB" stroke-width="0.3"/>
  <polygon points="231.87,120.00 262.18,137.50 262.18,172.50 231.87,190.00 201.56,172.50 201.56,137.50" fill="#B5CCE0" stroke="#99AABB" stroke-width="0.3"/>
  <polygon points="292.49,120.00 322.80,137.50 322.80,172.50 292.49,190.00 262.18,172.50 262.18,137.50" fill="#B5CCE0" stroke="#99AABB" stroke-width="0.3"/>
  <polygon points="353.11,120.00 383.42,137.50 383.42,172.50 353.11,190.00 322.80,172.50 322.80,137.50" fill="#B5CCE0" stroke="#99AABB" stroke-width="0.3"/>
  <polygon points="413.73,120.00 444.04,137.50 444.04,172.50 413.73,190.00 383.42,172.50 383.42,137.50" fill="#B5CCE0" stroke="#99AABB" stroke-width="0.3"/>
  <polygon points="474.35,120.00 504.66,137.50 504.66,172.50 474.35,190.00 444.04,172.50 444.04,137.50" fill="#B5CCE0" stroke="#99AABB" stroke-width="0.3"/>
  <polygon points="595.60,120.00 625.91,137.50 625.91,172.50 595.60,190.00 565.29,172.50 565.29,137.50" fill="#B5CCE0" stroke="#99AABB" stroke-width="0.3"/>
  <polygon points="656.22,120.00 686.53,137.50 686.53,172.50 656.22,190.00 625.91,172.50 625.91,137.50" fill="#B5CCE0" stroke="#99AABB" stroke-width="0.3"/>
  <polygon points="777.46,120.00 807.77,137.50 807.77,172.50 777.46,190.00 747.15,172.50 747.15,137.50" fill="#B5CCE0" stroke="#99AABB" stroke-width="0.3"/>
  <polygon points="838.08,120.00 868.39,137.50 868.39,172.50 838.08,190.00 807.77,172.50 807.77,137.50" fill="#B5CCE0" stroke="#99AABB" stroke-width="0.3"/>
  <polygon points="898.70,120.00 929.01,137.50 929.01,172.50 898.70,190.00 868.39,172.50 868.39,137.50" fill="#B5CCE0" stroke="#99AABB" stroke-width="0.3"/>
  <polygon points="959.33,120.00 989.64,137.50 989.64,172.50 959.33,190.00 929.02,172.50 929.02,137.50" fill="#B5CCE0" stroke="#99AABB" stroke-width="0.3"/>
  <polygon points="1019.95,120.00 1050.26,137.50 1050.26,172.50 1019.95,190.00 989.64,172.50 989.64,137.50" fill="#B5CCE0" stroke="#99AABB" stroke-width="0.3"/>
  <polygon points="1080.57,120.00 1110.88,137.50 1110.88,172.50 1080.57,190.00 1050.26,172.50 1050.26,137.50" fill="#B5CCE0" stroke="#99AABB" stroke-width="0.3"/>
  <polygon points="1141.19,120.00 1171.50,137.50 1171.50,172.50 1141.19,190.00 1110.88,172.50 1110.88,137.50" fill="#B5CCE0" stroke="#99AABB" stroke-width="0.3"/>
  <polygon points="1201.81,120.00 1232.12,137.50 1232.12,172.50 1201.81,190.00 1171.50,172.50 1171.50,137.50" fill="#B5CCE0" stroke="#99AABB" stroke-width="0.3"/>
  <polygon points="1262.44,120.00 1292.75,137.50 1292.75,172.50 1262.44,190.00 1232.13,172.50 1232.13,137.50" fill="#B5CCE0" stroke="#99AABB" stroke-width="0.3"/>
  <polygon points="1323.06,120.00 1353.37,137.50 1353.37,172.50 1323.06,190.00 1292.75,172.50 1292.75,137.50" fill="#B5CCE0" stroke="#99AABB" stroke-width="0.3"/>
  <polygon points="1383.68,120.00 1413.99,137.50 1413.99,172.50 1383.68,190.00 1353.37,172.50 1353.37,137.50" fill="#B5CCE0" stroke="#99AABB" stroke-width="0.3"/>
  <polygon points="1444.30,120.00 1474.61,137.50 1474.61,172.50 1444.30,190.00 1413.99,172.50 1413.99,137.50" fill="#B5CCE0" stroke="#99AABB" stroke-width="0.3"/>
  <polygon points="1504.92,120.00 1535.23,137.50 1535.23,172.50 1504.92,190.00 1474.61,172.50 1474.61,137.50" fill="#B5CCE0" stroke="#99AABB" stroke-width="0.3"/>
  <polygon points="80.31,172.50 110.62,190.00 110.62,225.00 80.31,242.50 50.00,225.00 50.00,190.00" fill="#B5CCE0" stroke="#99AABB" stroke-width="0.3"/>
  <polygon points="140.93,172.50 171.24,190.00 171.24,225.00 140.93,242.50 110.62,225.00 110.62,190.00" fill="#B5CCE0" stroke="#99AABB" stroke-width="0.3"/>
  <polygon points="201.55,172.50 231.86,190.00 231.86,225.00 201.55,242.50 171.24,225.00 171.24,190.00" fill="#B5CCE0" stroke="#99AABB" stroke-width="0.3"/>
  <polygon points="262.18,172.50 292.49,190.00 292.49,225.00 262.18,242.50 231.87,225.00 231.87,190.00" fill="#B5CCE0" stroke="#99AABB" stroke-width="0.3"/>
  <polygon points="322.80,172.50 353.11,190.00 353.11,225.00 322.80,242.50 292.49,225.00 292.49,190.00" fill="#B5CCE0" stroke="#99AABB" stroke-width="0.3"/>
  <polygon points="383.42,172.50 413.73,190.00 413.73,225.00 383.42,242.50 353.11,225.00 353.11,190.00" fill="#B5CCE0" stroke="#99AABB" stroke-width="0.3"/>
  <polygon points="504.66,172.50 534.97,190.00 534.97,225.00 504.66,242.50 474.35,225.00 474.35,190.00" fill="#B5CCE0" stroke="#99AABB" stroke-width="0.3"/>
  <polygon points="565.29,172.50 595.60,190.00 595.60,225.00 565.29,242.50 534.98,225.00 534.98,190.00" fill="#B5CCE0" stroke="#99AABB" stroke-width="0.3"/>
  <polygon points="625.91,172.50 656.22,190.00 656.22,225.00 625.91,242.50 595.60,225.00 595.60,190.00" fill="#B5CCE0" stroke="#99AABB" stroke-width="0.3"/>
  <polygon points="989.64,172.50 1019.95,190.00 1019.95,225.00 989.64,242.50 959.33,225.00 959.33,190.00" fill="#B5CCE0" stroke="#99AABB" stroke-width="0.3"/>
  <polygon points="1110.88,172.50 1141.19,190.00 1141.19,225.00 1110.88,242.50 1080.57,225.00 1080.57,190.00" fill="#B5CCE0" stroke="#99AABB" stroke-width="0.3"/>
  <polygon points="1171.50,172.50 1201.81,190.00 1201.81,225.00 1171.50,242.50 1141.19,225.00 1141.19,190.00" fill="#B5CCE0" stroke="#99AABB" stroke-width="0.3"/>
  <polygon points="1232.12,172.50 1262.43,190.00 1262.43,225.00 1232.12,242.50 1201.81,225.00 1201.81,190.00" fill="#B5CCE0" stroke="#99AABB" stroke-width="0.3"/>
  <polygon points="1292.75,172.50 1323.06,190.00 1323.06,225.00 1292.75,242.50 1262.44,225.00 1262.44,190.00" fill="#B5CCE0" stroke="#99AABB" stroke-width="0.3"/>
  <polygon points="1353.37,172.50 1383.68,190.00 1383.68,225.00 1353.37,242.50 1323.06,225.00 1323.06,190.00" fill="#B5CCE0" stroke="#99AABB" stroke-width="0.3"/>
  <polygon points="1413.99,172.50 1444.30,190.00 1444.30,225.00 1413.99,242.50 1383.68,225.00 1383.68,190.00" fill="#B5CCE0" stroke="#99AABB" stroke-width="0.3"/>
  <polygon points="1474.61,172.50 1504.92,190.00 1504.92,225.00 1474.61,242.50 1444.30,225.00 1444.30,190.00" fill="#B5CCE0" stroke="#99AABB" stroke-width="0.3"/>
  <polygon points="1535.23,172.50 1565.54,190.00 1565.54,225.00 1535.23,242.50 1504.92,225.00 1504.92,190.00" fill="#B5CCE0" stroke="#99AABB" stroke-width="0.3"/>
  <polygon points="50.00,225.00 80.31,242.50 80.31,277.50 50.00,295.00 19.69,277.50 19.69,242.50" fill="#B5CCE0" stroke="#99AABB" stroke-width="0.3"/>
  <polygon points="110.62,225.00 140.93,242.50 140.93,277.50 110.62,295.00 80.31,277.50 80.31,242.50" fill="#B5CCE0" stroke="#99AABB" stroke-width="0.3"/>
  <polygon points="171.24,225.00 201.55,242.50 201.55,277.50 171.24,295.00 140.93,277.50 140.93,242.50" fill="#B5CCE0" stroke="#99AABB" stroke-width="0.3"/>
  <polygon points="231.87,225.00 262.18,242.50 262.18,277.50 231.87,295.00 201.56,277.50 201.56,242.50" fill="#B5CCE0" stroke="#99AABB" stroke-width="0.3"/>
  <polygon points="292.49,225.00 322.80,242.50 322.80,277.50 292.49,295.00 262.18,277.50 262.18,242.50" fill="#B5CCE0" stroke="#99AABB" stroke-width="0.3"/>
  <polygon points="353.11,225.00 383.42,242.50 383.42,277.50 353.11,295.00 322.80,277.50 322.80,242.50" fill="#B5CCE0" stroke="#99AABB" stroke-width="0.3"/>
  <polygon points="413.73,225.00 444.04,242.50 444.04,277.50 413.73,295.00 383.42,277.50 383.42,242.50" fill="#B5CCE0" stroke="#99AABB" stroke-width="0.3"/>
  <polygon points="474.35,225.00 504.66,242.50 504.66,277.50 474.35,295.00 444.04,277.50 444.04,242.50" fill="#B5CCE0" stroke="#99AABB" stroke-width="0.3"/>
  <polygon points="1019.95,225.00 1050.26,242.50 1050.26,277.50 1019.95,295.00 989.64,277.50 989.64,242.50" fill="#B5CCE0" stroke="#99AABB" stroke-width="0.3"/>
  <polygon points="1141.19,225.00 1171.50,242.50 1171.50,277.50 1141.19,295.00 1110.88,277.50 1110.88,242.50" fill="#B5CCE0" stroke="#99AABB" stroke-width="0.3"/>
  <polygon points="1262.44,225.00 1292.75,242.50 1292.75,277.50 1262.44,295.00 1232.13,277.50 1232.13,242.50" fill="#B5CCE0" stroke="#99AABB" stroke-width="0.3"/>
  <polygon points="1323.06,225.00 1353.37,242.50 1353.37,277.50 1323.06,295.00 1292.75,277.50 1292.75,242.50" fill="#B5CCE0" stroke="#99AABB" stroke-width="0.3"/>
  <polygon points="1383.68,225.00 1413.99,242.50 1413.99,277.50 1383.68,295.00 1353.37,277.50 1353.37,242.50" fill="#B5CCE0" stroke="#99AABB" stroke-width="0.3"/>
  <polygon points="1444.30,225.00 1474.61,242.50 1474.61,277.50 1444.30,295.00 1413.99,277.50 1413.99,242.50" fill="#B5CCE0" stroke="#99AABB" stroke-width="0.3"/>
  <polygon points="1504.92,225.00 1535.23,242.50 1535.23,277.50 1504.92,295.00 1474.61,277.50 1474.61,242.50" fill="#B5CCE0" stroke="#99AABB" stroke-width="0.3"/>
  <polygon points="80.31,277.50 110.62,295.00 110.62,330.00 80.31,347.50 50.00,330.00 50.00,295.00" fill="#B5CCE0" stroke="#99AABB" stroke-width="0.3"/>
  <polygon points="201.55,277.50 231.86,295.00 231.86,330.00 201.55,347.50 171.24,330.00 171.24,295.00" fill="#B5CCE0" stroke="#99AABB" stroke-width="0.3"/>
  <polygon points="262.18,277.50 292.49,295.00 292.49,330.00 262.18,347.50 231.87,330.00 231.87,295.00" fill="#B5CCE0" stroke="#99AABB" stroke-width="0.3"/>
  <polygon points="322.80,277.50 353.11,295.00 353.11,330.00 322.80,347.50 292.49,330.00 292.49,295.00" fill="#B5CCE0" stroke="#99AABB" stroke-width="0.3"/>
  <polygon points="383.42,277.50 413.73,295.00 413.73,330.00 383.42,347.50 353.11,330.00 353.11,295.00" fill="#B5CCE0" stroke="#99AABB" stroke-width="0.3"/>
  <polygon points="444.04,277.50 474.35,295.00 474.35,330.00 444.04,347.50 413.73,330.00 413.73,295.00" fill="#B5CCE0" stroke="#99AABB" stroke-width="0.3"/>
  <polygon points="686.53,277.50 716.84,295.00 716.84,330.00 686.53,347.50 656.22,330.00 656.22,295.00" fill="#B5CCE0" stroke="#99AABB" stroke-width="0.3"/>
  <polygon points="747.15,277.50 777.46,295.00 777.46,330.00 747.15,347.50 716.84,330.00 716.84,295.00" fill="#B5CCE0" stroke="#99AABB" stroke-width="0.3"/>
  <polygon points="1110.88,277.50 1141.19,295.00 1141.19,330.00 1110.88,347.50 1080.57,330.00 1080.57,295.00" fill="#B5CCE0" stroke="#99AABB" stroke-width="0.3"/>
  <polygon points="1171.50,277.50 1201.81,295.00 1201.81,330.00 1171.50,347.50 1141.19,330.00 1141.19,295.00" fill="#B5CCE0" stroke="#99AABB" stroke-width="0.3"/>
  <polygon points="1292.75,277.50 1323.06,295.00 1323.06,330.00 1292.75,347.50 1262.44,330.00 1262.44,295.00" fill="#B5CCE0" stroke="#99AABB" stroke-width="0.3"/>
  <polygon points="1353.37,277.50 1383.68,295.00 1383.68,330.00 1353.37,347.50 1323.06,330.00 1323.06,295.00" fill="#B5CCE0" stroke="#99AABB" stroke-width="0.3"/>
  <polygon points="1413.99,277.50 1444.30,295.00 1444.30,330.00 1413.99,347.50 1383.68,330.00 1383.68,295.00" fill="#B5CCE0" stroke="#99AABB" stroke-width="0.3"/>
  <polygon points="1474.61,277.50 1504.92,295.00 1504.92,330.00 1474.61,347.50 1444.30,330.00 1444.30,295.00" fill="#B5CCE0" stroke="#99AABB" stroke-width="0.3"/>
  <polygon points="1535.23,277.50 1565.54,295.00 1565.54,330.00 1535.23,347.50 1504.92,330.00 1504.92,295.00" fill="#B5CCE0" stroke="#99AABB" stroke-width="0.3"/>
  <polygon points="50.00,330.00 80.31,347.50 80.31,382.50 50.00,400.00 19.69,382.50 19.69,347.50" fill="#B5CCE0" stroke="#99AABB" stroke-width="0.3"/>
  <polygon points="231.87,330.00 262.18,347.50 262.18,382.50 231.87,400.00 201.56,382.50 201.56,347.50" fill="#B5CCE0" stroke="#99AABB" stroke-width="0.3"/>
  <polygon points="292.49,330.00 322.80,347.50 322.80,382.50 292.49,400.00 262.18,382.50 262.18,347.50" fill="#B5CCE0" stroke="#99AABB" stroke-width="0.3"/>
  <polygon points="353.11,330.00 383.42,347.50 383.42,382.50 353.11,400.00 322.80,382.50 322.80,347.50" fill="#B5CCE0" stroke="#99AABB" stroke-width="0.3"/>
  <polygon points="413.73,330.00 444.04,347.50 444.04,382.50 413.73,400.00 383.42,382.50 383.42,347.50" fill="#B5CCE0" stroke="#99AABB" stroke-width="0.3"/>
  <polygon points="534.97,330.00 565.28,347.50 565.28,382.50 534.97,400.00 504.66,382.50 504.66,347.50" fill="#B5CCE0" stroke="#99AABB" stroke-width="0.3"/>
  <polygon points="716.84,330.00 747.15,347.50 747.15,382.50 716.84,400.00 686.53,382.50 686.53,347.50" fill="#B5CCE0" stroke="#99AABB" stroke-width="0.3"/>
  <polygon points="838.08,330.00 868.39,347.50 868.39,382.50 838.08,400.00 807.77,382.50 807.77,347.50" fill="#B5CCE0" stroke="#99AABB" stroke-width="0.3"/>
  <polygon points="959.33,330.00 989.64,347.50 989.64,382.50 959.33,400.00 929.02,382.50 929.02,347.50" fill="#B5CCE0" stroke="#99AABB" stroke-width="0.3"/>
  <polygon points="1019.95,330.00 1050.26,347.50 1050.26,382.50 1019.95,400.00 989.64,382.50 989.64,347.50" fill="#B5CCE0" stroke="#99AABB" stroke-width="0.3"/>
  <polygon points="1141.19,330.00 1171.50,347.50 1171.50,382.50 1141.19,400.00 1110.88,382.50 1110.88,347.50" fill="#B5CCE0" stroke="#99AABB" stroke-width="0.3"/>
  <polygon points="1201.81,330.00 1232.12,347.50 1232.12,382.50 1201.81,400.00 1171.50,382.50 1171.50,347.50" fill="#B5CCE0" stroke="#99AABB" stroke-width="0.3"/>
  <polygon points="1262.44,330.00 1292.75,347.50 1292.75,382.50 1262.44,400.00 1232.13,382.50 1232.13,347.50" fill="#B5CCE0" stroke="#99AABB" stroke-width="0.3"/>
  <polygon points="1323.06,330.00 1353.37,347.50 1353.37,382.50 1323.06,400.00 1292.75,382.50 1292.75,347.50" fill="#B5CCE0" stroke="#99AABB" stroke-width="0.3"/>
  <polygon points="1383.68,330.00 1413.99,347.50 1413.99,382.50 1383.68,400.00 1353.37,382.50 1353.37,347.50" fill="#B5CCE0" stroke="#99AABB" stroke-width="0.3"/>
  <polygon points="1444.30,330.00 1474.61,347.50 1474.61,382.50 1444.30,400.00 1413.99,382.50 1413.99,347.50" fill="#B5CCE0" stroke="#99AABB" stroke-width="0.3"/>
  <polygon points="1504.92,330.00 1535.23,347.50 1535.23,382.50 1504.92,400.00 1474.61,382.50 1474.61,347.50" fill="#B5CCE0" stroke="#99AABB" stroke-width="0.3"/>
  <polygon points="80.31,382.50 110.62,400.00 110.62,435.00 80.31,452.50 50.00,435.00 50.00,400.00" fill="#B5CCE0" stroke="#99AABB" stroke-width="0.3"/>
  <polygon points="201.55,382.50 231.86,400.00 231.86,435.00 201.55,452.50 171.24,435.00 171.24,400.00" fill="#B5CCE0" stroke="#99AABB" stroke-width="0.3"/>
  <polygon points="262.18,382.50 292.49,400.00 292.49,435.00 262.18,452.50 231.87,435.00 231.87,400.00" fill="#B5CCE0" stroke="#99AABB" stroke-width="0.3"/>
  <polygon points="322.80,382.50 353.11,400.00 353.11,435.00 322.80,452.50 292.49,435.00 292.49,400.00" fill="#B5CCE0" stroke="#99AABB" stroke-width="0.3"/>
  <polygon points="383.42,382.50 413.73,400.00 413.73,435.00 383.42,452.50 353.11,435.00 353.11,400.00" fill="#B5CCE0" stroke="#99AABB" stroke-width="0.3"/>
  <polygon points="444.04,382.50 474.35,400.00 474.35,435.00 444.04,452.50 413.73,435.00 413.73,400.00" fill="#B5CCE0" stroke="#99AABB" stroke-width="0.3"/>
  <polygon points="565.29,382.50 595.60,400.00 595.60,435.00 565.29,452.50 534.98,435.00 534.98,400.00" fill="#B5CCE0" stroke="#99AABB" stroke-width="0.3"/>
  <polygon points="625.91,382.50 656.22,400.00 656.22,435.00 625.91,452.50 595.60,435.00 595.60,400.00" fill="#B5CCE0" stroke="#99AABB" stroke-width="0.3"/>
  <polygon points="989.64,382.50 1019.95,400.00 1019.95,435.00 989.64,452.50 959.33,435.00 959.33,400.00" fill="#B5CCE0" stroke="#99AABB" stroke-width="0.3"/>
  <polygon points="1050.26,382.50 1080.57,400.00 1080.57,435.00 1050.26,452.50 1019.95,435.00 1019.95,400.00" fill="#B5CCE0" stroke="#99AABB" stroke-width="0.3"/>
  <polygon points="1171.50,382.50 1201.81,400.00 1201.81,435.00 1171.50,452.50 1141.19,435.00 1141.19,400.00" fill="#B5CCE0" stroke="#99AABB" stroke-width="0.3"/>
  <polygon points="1232.12,382.50 1262.43,400.00 1262.43,435.00 1232.12,452.50 1201.81,435.00 1201.81,400.00" fill="#B5CCE0" stroke="#99AABB" stroke-width="0.3"/>
  <polygon points="1292.75,382.50 1323.06,400.00 1323.06,435.00 1292.75,452.50 1262.44,435.00 1262.44,400.00" fill="#B5CCE0" stroke="#99AABB" stroke-width="0.3"/>
  <polygon points="1353.37,382.50 1383.68,400.00 1383.68,435.00 1353.37,452.50 1323.06,435.00 1323.06,400.00" fill="#B5CCE0" stroke="#99AABB" stroke-width="0.3"/>
  <polygon points="1413.99,382.50 1444.30,400.00 1444.30,435.00 1413.99,452.50 1383.68,435.00 1383.68,400.00" fill="#B5CCE0" stroke="#99AABB" stroke-width="0.3"/>
  <polygon points="1474.61,382.50 1504.92,400.00 1504.92,435.00 1474.61,452.50 1444.30,435.00 1444.30,400.00" fill="#B5CCE0" stroke="#99AABB" stroke-width="0.3"/>
  <polygon points="1535.23,382.50 1565.54,400.00 1565.54,435.00 1535.23,452.50 1504.92,435.00 1504.92,400.00" fill="#B5CCE0" stroke="#99AABB" stroke-width="0.3"/>
  <polygon points="50.00,435.00 80.31,452.50 80.31,487.50 50.00,505.00 19.69,487.50 19.69,452.50" fill="#B5CCE0" stroke="#99AABB" stroke-width="0.3"/>
  <polygon points="110.62,435.00 140.93,452.50 140.93,487.50 110.62,505.00 80.31,487.50 80.31,452.50" fill="#B5CCE0" stroke="#99AABB" stroke-width="0.3"/>
  <polygon points="231.87,435.00 262.18,452.50 262.18,487.50 231.87,505.00 201.56,487.50 201.56,452.50" fill="#B5CCE0" stroke="#99AABB" stroke-width="0.3"/>
  <polygon points="292.49,435.00 322.80,452.50 322.80,487.50 292.49,505.00 262.18,487.50 262.18,452.50" fill="#B5CCE0" stroke="#99AABB" stroke-width="0.3"/>
  <polygon points="353.11,435.00 383.42,452.50 383.42,487.50 353.11,505.00 322.80,487.50 322.80,452.50" fill="#B5CCE0" stroke="#99AABB" stroke-width="0.3"/>
  <polygon points="413.73,435.00 444.04,452.50 444.04,487.50 413.73,505.00 383.42,487.50 383.42,452.50" fill="#B5CCE0" stroke="#99AABB" stroke-width="0.3"/>
  <polygon points="474.35,435.00 504.66,452.50 504.66,487.50 474.35,505.00 444.04,487.50 444.04,452.50" fill="#B5CCE0" stroke="#99AABB" stroke-width="0.3"/>
  <polygon points="534.97,435.00 565.28,452.50 565.28,487.50 534.97,505.00 504.66,487.50 504.66,452.50" fill="#B5CCE0" stroke="#99AABB" stroke-width="0.3"/>
  <polygon points="595.60,435.00 625.91,452.50 625.91,487.50 595.60,505.00 565.29,487.50 565.29,452.50" fill="#B5CCE0" stroke="#99AABB" stroke-width="0.3"/>
  <polygon points="656.22,435.00 686.53,452.50 686.53,487.50 656.22,505.00 625.91,487.50 625.91,452.50" fill="#B5CCE0" stroke="#99AABB" stroke-width="0.3"/>
  <polygon points="898.70,435.00 929.01,452.50 929.01,487.50 898.70,505.00 868.39,487.50 868.39,452.50" fill="#B5CCE0" stroke="#99AABB" stroke-width="0.3"/>
  <polygon points="959.33,435.00 989.64,452.50 989.64,487.50 959.33,505.00 929.02,487.50 929.02,452.50" fill="#B5CCE0" stroke="#99AABB" stroke-width="0.3"/>
  <polygon points="1019.95,435.00 1050.26,452.50 1050.26,487.50 1019.95,505.00 989.64,487.50 989.64,452.50" fill="#B5CCE0" stroke="#99AABB" stroke-width="0.3"/>
  <polygon points="1080.57,435.00 1110.88,452.50 1110.88,487.50 1080.57,505.00 1050.26,487.50 1050.26,452.50" fill="#B5CCE0" stroke="#99AABB" stroke-width="0.3"/>
  <polygon points="1141.19,435.00 1171.50,452.50 1171.50,487.50 1141.19,505.00 1110.88,487.50 1110.88,452.50" fill="#B5CCE0" stroke="#99AABB" stroke-width="0.3"/>
  <polygon points="1201.81,435.00 1232.12,452.50 1232.12,487.50 1201.81,505.00 1171.50,487.50 1171.50,452.50" fill="#B5CCE0" stroke="#99AABB" stroke-width="0.3"/>
  <polygon points="1262.44,435.00 1292.75,452.50 1292.75,487.50 1262.44,505.00 1232.13,487.50 1232.13,452.50" fill="#B5CCE0" stroke="#99AABB" stroke-width="0.3"/>
  <polygon points="1323.06,435.00 1353.37,452.50 1353.37,487.50 1323.06,505.00 1292.75,487.50 1292.75,452.50" fill="#B5CCE0" stroke="#99AABB" stroke-width="0.3"/>
  <polygon points="1383.68,435.00 1413.99,452.50 1413.99,487.50 1383.68,505.00 1353.37,487.50 1353.37,452.50" fill="#B5CCE0" stroke="#99AABB" stroke-width="0.3"/>
  <polygon points="1444.30,435.00 1474.61,452.50 1474.61,487.50 1444.30,505.00 1413.99,487.50 1413.99,452.50" fill="#B5CCE0" stroke="#99AABB" stroke-width="0.3"/>
  <polygon points="1504.92,435.00 1535.23,452.50 1535.23,487.50 1504.92,505.00 1474.61,487.50 1474.61,452.50" fill="#B5CCE0" stroke="#99AABB" stroke-width="0.3"/>
  <polygon points="80.31,487.50 110.62,505.00 110.62,540.00 80.31,557.50 50.00,540.00 50.00,505.00" fill="#B5CCE0" stroke="#99AABB" stroke-width="0.3"/>
  <polygon points="140.93,487.50 171.24,505.00 171.24,540.00 140.93,557.50 110.62,540.00 110.62,505.00" fill="#B5CCE0" stroke="#99AABB" stroke-width="0.3"/>
  <polygon points="322.80,487.50 353.11,505.00 353.11,540.00 322.80,557.50 292.49,540.00 292.49,505.00" fill="#B5CCE0" stroke="#99AABB" stroke-width="0.3"/>
  <polygon points="383.42,487.50 413.73,505.00 413.73,540.00 383.42,557.50 353.11,540.00 353.11,505.00" fill="#B5CCE0" stroke="#99AABB" stroke-width="0.3"/>
  <polygon points="444.04,487.50 474.35,505.00 474.35,540.00 444.04,557.50 413.73,540.00 413.73,505.00" fill="#B5CCE0" stroke="#99AABB" stroke-width="0.3"/>
  <polygon points="504.66,487.50 534.97,505.00 534.97,540.00 504.66,557.50 474.35,540.00 474.35,505.00" fill="#B5CCE0" stroke="#99AABB" stroke-width="0.3"/>
  <polygon points="565.29,487.50 595.60,505.00 595.60,540.00 565.29,557.50 534.98,540.00 534.98,505.00" fill="#B5CCE0" stroke="#99AABB" stroke-width="0.3"/>
  <polygon points="625.91,487.50 656.22,505.00 656.22,540.00 625.91,557.50 595.60,540.00 595.60,505.00" fill="#B5CCE0" stroke="#99AABB" stroke-width="0.3"/>
  <polygon points="747.15,487.50 777.46,505.00 777.46,540.00 747.15,557.50 716.84,540.00 716.84,505.00" fill="#B5CCE0" stroke="#99AABB" stroke-width="0.3"/>
  <polygon points="868.39,487.50 898.70,505.00 898.70,540.00 868.39,557.50 838.08,540.00 838.08,505.00" fill="#B5CCE0" stroke="#99AABB" stroke-width="0.3"/>
  <polygon points="929.02,487.50 959.33,505.00 959.33,540.00 929.02,557.50 898.71,540.00 898.71,505.00" fill="#B5CCE0" stroke="#99AABB" stroke-width="0.3"/>
  <polygon points="989.64,487.50 1019.95,505.00 1019.95,540.00 989.64,557.50 959.33,540.00 959.33,505.00" fill="#B5CCE0" stroke="#99AABB" stroke-width="0.3"/>
  <polygon points="1050.26,487.50 1080.57,505.00 1080.57,540.00 1050.26,557.50 1019.95,540.00 1019.95,505.00" fill="#B5CCE0" stroke="#99AABB" stroke-width="0.3"/>
  <polygon points="1110.88,487.50 1141.19,505.00 1141.19,540.00 1110.88,557.50 1080.57,540.00 1080.57,505.00" fill="#B5CCE0" stroke="#99AABB" stroke-width="0.3"/>
  <polygon points="1171.50,487.50 1201.81,505.00 1201.81,540.00 1171.50,557.50 1141.19,540.00 1141.19,505.00" fill="#B5CCE0" stroke="#99AABB" stroke-width="0.3"/>
  <polygon points="1232.12,487.50 1262.43,505.00 1262.43,540.00 1232.12,557.50 1201.81,540.00 1201.81,505.00" fill="#B5CCE0" stroke="#99AABB" stroke-width="0.3"/>
  <polygon points="1292.75,487.50 1323.06,505.00 1323.06,540.00 1292.75,557.50 1262.44,540.00 1262.44,505.00" fill="#B5CCE0" stroke="#99AABB" stroke-width="0.3"/>
  <polygon points="1353.37,487.50 1383.68,505.00 1383.68,540.00 1353.37,557.50 1323.06,540.00 1323.06,505.00" fill="#B5CCE0" stroke="#99AABB" stroke-width="0.3"/>
  <polygon points="1413.99,487.50 1444.30,505.00 1444.30,540.00 1413.99,557.50 1383.68,540.00 1383.68,505.00" fill="#B5CCE0" stroke="#99AABB" stroke-width="0.3"/>
  <polygon points="1474.61,487.50 1504.92,505.00 1504.92,540.00 1474.61,557.50 1444.30,540.00 1444.30,505.00" fill="#B5CCE0" stroke="#99AABB" stroke-width="0.3"/>
  <polygon points="1535.23,487.50 1565.54,505.00 1565.54,540.00 1535.23,557.50 1504.92,540.00 1504.92,505.00" fill="#B5CCE0" stroke="#99AABB" stroke-width="0.3"/>
  <polygon points="50.00,540.00 80.31,557.50 80.31,592.50 50.00,610.00 19.69,592.50 19.69,557.50" fill="#B5CCE0" stroke="#99AABB" stroke-width="0.3"/>
  <polygon points="110.62,540.00 140.93,557.50 140.93,592.50 110.62,610.00 80.31,592.50 80.31,557.50" fill="#B5CCE0" stroke="#99AABB" stroke-width="0.3"/>
  <polygon points="171.24,540.00 201.55,557.50 201.55,592.50 171.24,610.00 140.93,592.50 140.93,557.50" fill="#B5CCE0" stroke="#99AABB" stroke-width="0.3"/>
  <polygon points="231.87,540.00 262.18,557.50 262.18,592.50 231.87,610.00 201.56,592.50 201.56,557.50" fill="#B5CCE0" stroke="#99AABB" stroke-width="0.3"/>
  <polygon points="292.49,540.00 322.80,557.50 322.80,592.50 292.49,610.00 262.18,592.50 262.18,557.50" fill="#B5CCE0" stroke="#99AABB" stroke-width="0.3"/>
  <polygon points="353.11,540.00 383.42,557.50 383.42,592.50 353.11,610.00 322.80,592.50 322.80,557.50" fill="#B5CCE0" stroke="#99AABB" stroke-width="0.3"/>
  <polygon points="413.73,540.00 444.04,557.50 444.04,592.50 413.73,610.00 383.42,592.50 383.42,557.50" fill="#B5CCE0" stroke="#99AABB" stroke-width="0.3"/>
  <polygon points="474.35,540.00 504.66,557.50 504.66,592.50 474.35,610.00 444.04,592.50 444.04,557.50" fill="#B5CCE0" stroke="#99AABB" stroke-width="0.3"/>
  <polygon points="534.97,540.00 565.28,557.50 565.28,592.50 534.97,610.00 504.66,592.50 504.66,557.50" fill="#B5CCE0" stroke="#99AABB" stroke-width="0.3"/>
  <polygon points="595.60,540.00 625.91,557.50 625.91,592.50 595.60,610.00 565.29,592.50 565.29,557.50" fill="#B5CCE0" stroke="#99AABB" stroke-width="0.3"/>
  <polygon points="656.22,540.00 686.53,557.50 686.53,592.50 656.22,610.00 625.91,592.50 625.91,557.50" fill="#B5CCE0" stroke="#99AABB" stroke-width="0.3"/>
  <polygon points="716.84,540.00 747.15,557.50 747.15,592.50 716.84,610.00 686.53,592.50 686.53,557.50" fill="#B5CCE0" stroke="#99AABB" stroke-width="0.3"/>
  <polygon points="777.46,540.00 807.77,557.50 807.77,592.50 777.46,610.00 747.15,592.50 747.15,557.50" fill="#B5CCE0" stroke="#99AABB" stroke-width="0.3"/>
  <polygon points="838.08,540.00 868.39,557.50 868.39,592.50 838.08,610.00 807.77,592.50 807.77,557.50" fill="#B5CCE0" stroke="#99AABB" stroke-width="0.3"/>
  <polygon points="898.70,540.00 929.01,557.50 929.01,592.50 898.70,610.00 868.39,592.50 868.39,557.50" fill="#B5CCE0" stroke="#99AABB" stroke-width="0.3"/>
  <polygon points="959.33,540.00 989.64,557.50 989.64,592.50 959.33,610.00 929.02,592.50 929.02,557.50" fill="#B5CCE0" stroke="#99AABB" stroke-width="0.3"/>
  <polygon points="1019.95,540.00 1050.26,557.50 1050.26,592.50 1019.95,610.00 989.64,592.50 989.64,557.50" fill="#B5CCE0" stroke="#99AABB" stroke-width="0.3"/>
  <polygon points="1080.57,540.00 1110.88,557.50 1110.88,592.50 1080.57,610.00 1050.26,592.50 1050.26,557.50" fill="#B5CCE0" stroke="#99AABB" stroke-width="0.3"/>
  <polygon points="1141.19,540.00 1171.50,557.50 1171.50,592.50 1141.19,610.00 1110.88,592.50 1110.88,557.50" fill="#B5CCE0" stroke="#99AABB" stroke-width="0.3"/>
  <polygon points="1201.81,540.00 1232.12,557.50 1232.12,592.50 1201.81,610.00 1171.50,592.50 1171.50,557.50" fill="#B5CCE0" stroke="#99AABB" stroke-width="0.3"/>
  <polygon points="1262.44,540.00 1292.75,557.50 1292.75,592.50 1262.44,610.00 1232.13,592.50 1232.13,557.50" fill="#B5CCE0" stroke="#99AABB" stroke-width="0.3"/>
  <polygon points="1323.06,540.00 1353.37,557.50 1353.37,592.50 1323.06,610.00 1292.75,592.50 1292.75,557.50" fill="#B5CCE0" stroke="#99AABB" stroke-width="0.3"/>
  <polygon points="1383.68,540.00 1413.99,557.50 1413.99,592.50 1383.68,610.00 1353.37,592.50 1353.37,557.50" fill="#B5CCE0" stroke="#99AABB" stroke-width="0.3"/>
  <polygon points="1444.30,540.00 1474.61,557.50 1474.61,592.50 1444.30,610.00 1413.99,592.50 1413.99,557.50" fill="#B5CCE0" stroke="#99AABB" stroke-width="0.3"/>
  <polygon points="1504.92,540.00 1535.23,557.50 1535.23,592.50 1504.92,610.00 1474.61,592.50 1474.61,557.50" fill="#B5CCE0" stroke="#99AABB" stroke-width="0.3"/>
  <polygon points="80.31,592.50 110.62,610.00 110.62,645.00 80.31,662.50 50.00,645.00 50.00,610.00" fill="#B5CCE0" stroke="#99AABB" stroke-width="0.3"/>
  <polygon points="140.93,592.50 171.24,610.00 171.24,645.00 140.93,662.50 110.62,645.00 110.62,610.00" fill="#B5CCE0" stroke="#99AABB" stroke-width="0.3"/>
  <polygon points="201.55,592.50 231.86,610.00 231.86,645.00 201.55,662.50 171.24,645.00 171.24,610.00" fill="#B5CCE0" stroke="#99AABB" stroke-width="0.3"/>
  <polygon points="262.18,592.50 292.49,610.00 292.49,645.00 262.18,662.50 231.87,645.00 231.87,610.00" fill="#B5CCE0" stroke="#99AABB" stroke-width="0.3"/>
  <polygon points="322.80,592.50 353.11,610.00 353.11,645.00 322.80,662.50 292.49,645.00 292.49,610.00" fill="#B5CCE0" stroke="#99AABB" stroke-width="0.3"/>
  <polygon points="383.42,592.50 413.73,610.00 413.73,645.00 383.42,662.50 353.11,645.00 353.11,610.00" fill="#B5CCE0" stroke="#99AABB" stroke-width="0.3"/>
  <polygon points="444.04,592.50 474.35,610.00 474.35,645.00 444.04,662.50 413.73,645.00 413.73,610.00" fill="#B5CCE0" stroke="#99AABB" stroke-width="0.3"/>
  <polygon points="504.66,592.50 534.97,610.00 534.97,645.00 504.66,662.50 474.35,645.00 474.35,610.00" fill="#B5CCE0" stroke="#99AABB" stroke-width="0.3"/>
  <polygon points="565.29,592.50 595.60,610.00 595.60,645.00 565.29,662.50 534.98,645.00 534.98,610.00" fill="#B5CCE0" stroke="#99AABB" stroke-width="0.3"/>
  <polygon points="625.91,592.50 656.22,610.00 656.22,645.00 625.91,662.50 595.60,645.00 595.60,610.00" fill="#B5CCE0" stroke="#99AABB" stroke-width="0.3"/>
  <polygon points="686.53,592.50 716.84,610.00 716.84,645.00 686.53,662.50 656.22,645.00 656.22,610.00" fill="#B5CCE0" stroke="#99AABB" stroke-width="0.3"/>
  <polygon points="747.15,592.50 777.46,610.00 777.46,645.00 747.15,662.50 716.84,645.00 716.84,610.00" fill="#B5CCE0" stroke="#99AABB" stroke-width="0.3"/>
  <polygon points="807.77,592.50 838.08,610.00 838.08,645.00 807.77,662.50 777.46,645.00 777.46,610.00" fill="#B5CCE0" stroke="#99AABB" stroke-width="0.3"/>
  <polygon points="868.39,592.50 898.70,610.00 898.70,645.00 868.39,662.50 838.08,645.00 838.08,610.00" fill="#B5CCE0" stroke="#99AABB" stroke-width="0.3"/>
  <polygon points="929.02,592.50 959.33,610.00 959.33,645.00 929.02,662.50 898.71,645.00 898.71,610.00" fill="#B5CCE0" stroke="#99AABB" stroke-width="0.3"/>
  <polygon points="989.64,592.50 1019.95,610.00 1019.95,645.00 989.64,662.50 959.33,645.00 959.33,610.00" fill="#B5CCE0" stroke="#99AABB" stroke-width="0.3"/>
  <polygon points="1050.26,592.50 1080.57,610.00 1080.57,645.00 1050.26,662.50 1019.95,645.00 1019.95,610.00" fill="#B5CCE0" stroke="#99AABB" stroke-width="0.3"/>
  <polygon points="1110.88,592.50 1141.19,610.00 1141.19,645.00 1110.88,662.50 1080.57,645.00 1080.57,610.00" fill="#B5CCE0" stroke="#99AABB" stroke-width="0.3"/>
  <polygon points="1171.50,592.50 1201.81,610.00 1201.81,645.00 1171.50,662.50 1141.19,645.00 1141.19,610.00" fill="#B5CCE0" stroke="#99AABB" stroke-width="0.3"/>
  <polygon points="1232.12,592.50 1262.43,610.00 1262.43,645.00 1232.12,662.50 1201.81,645.00 1201.81,610.00" fill="#B5CCE0" stroke="#99AABB" stroke-width="0.3"/>
  <polygon points="1292.75,592.50 1323.06,610.00 1323.06,645.00 1292.75,662.50 1262.44,645.00 1262.44,610.00" fill="#B5CCE0" stroke="#99AABB" stroke-width="0.3"/>
  <polygon points="1353.37,592.50 1383.68,610.00 1383.68,645.00 1353.37,662.50 1323.06,645.00 1323.06,610.00" fill="#B5CCE0" stroke="#99AABB" stroke-width="0.3"/>
  <polygon points="1413.99,592.50 1444.30,610.00 1444.30,645.00 1413.99,662.50 1383.68,645.00 1383.68,610.00" fill="#B5CCE0" stroke="#99AABB" stroke-width="0.3"/>
  <polygon points="1474.61,592.50 1504.92,610.00 1504.92,645.00 1474.61,662.50 1444.30,645.00 1444.30,610.00" fill="#B5CCE0" stroke="#99AABB" stroke-width="0.3"/>
  <polygon points="1535.23,592.50 1565.54,610.00 1565.54,645.00 1535.23,662.50 1504.92,645.00 1504.92,610.00" fill="#B5CCE0" stroke="#99AABB" stroke-width="0.3"/>
  <polygon points="50.00,645.00 80.31,662.50 80.31,697.50 50.00,715.00 19.69,697.50 19.69,662.50" fill="#B5CCE0" stroke="#99AABB" stroke-width="0.3"/>
  <polygon points="110.62,645.00 140.93,662.50 140.93,697.50 110.62,715.00 80.31,697.50 80.31,662.50" fill="#B5CCE0" stroke="#99AABB" stroke-width="0.3"/>
  <polygon points="171.24,645.00 201.55,662.50 201.55,697.50 171.24,715.00 140.93,697.50 140.93,662.50" fill="#B5CCE0" stroke="#99AABB" stroke-width="0.3"/>
  <polygon points="231.87,645.00 262.18,662.50 262.18,697.50 231.87,715.00 201.56,697.50 201.56,662.50" fill="#B5CCE0" stroke="#99AABB" stroke-width="0.3"/>
  <polygon points="292.49,645.00 322.80,662.50 322.80,697.50 292.49,715.00 262.18,697.50 262.18,662.50" fill="#B5CCE0" stroke="#99AABB" stroke-width="0.3"/>
  <polygon points="353.11,645.00 383.42,662.50 383.42,697.50 353.11,715.00 322.80,697.50 322.80,662.50" fill="#B5CCE0" stroke="#99AABB" stroke-width="0.3"/>
  <polygon points="413.73,645.00 444.04,662.50 444.04,697.50 413.73,715.00 383.42,697.50 383.42,662.50" fill="#B5CCE0" stroke="#99AABB" stroke-width="0.3"/>
  <polygon points="474.35,645.00 504.66,662.50 504.66,697.50 474.35,715.00 444.04,697.50 444.04,662.50" fill="#B5CCE0" stroke="#99AABB" stroke-width="0.3"/>
  <polygon points="534.97,645.00 565.28,662.50 565.28,697.50 534.97,715.00 504.66,697.50 504.66,662.50" fill="#B5CCE0" stroke="#99AABB" stroke-width="0.3"/>
  <polygon points="595.60,645.00 625.91,662.50 625.91,697.50 595.60,715.00 565.29,697.50 565.29,662.50" fill="#B5CCE0" stroke="#99AABB" stroke-width="0.3"/>
  <polygon points="656.22,645.00 686.53,662.50 686.53,697.50 656.22,715.00 625.91,697.50 625.91,662.50" fill="#B5CCE0" stroke="#99AABB" stroke-width="0.3"/>
  <polygon points="716.84,645.00 747.15,662.50 747.15,697.50 716.84,715.00 686.53,697.50 686.53,662.50" fill="#B5CCE0" stroke="#99AABB" stroke-width="0.3"/>
  <polygon points="777.46,645.00 807.77,662.50 807.77,697.50 777.46,715.00 747.15,697.50 747.15,662.50" fill="#B5CCE0" stroke="#99AABB" stroke-width="0.3"/>
  <polygon points="838.08,645.00 868.39,662.50 868.39,697.50 838.08,715.00 807.77,697.50 807.77,662.50" fill="#B5CCE0" stroke="#99AABB" stroke-width="0.3"/>
  <polygon points="898.70,645.00 929.01,662.50 929.01,697.50 898.70,715.00 868.39,697.50 868.39,662.50" fill="#B5CCE0" stroke="#99AABB" stroke-width="0.3"/>
  <polygon points="959.33,645.00 989.64,662.50 989.64,697.50 959.33,715.00 929.02,697.50 929.02,662.50" fill="#B5CCE0" stroke="#99AABB" stroke-width="0.3"/>
  <polygon points="1019.95,645.00 1050.26,662.50 1050.26,697.50 1019.95,715.00 989.64,697.50 989.64,662.50" fill="#B5CCE0" stroke="#99AABB" stroke-width="0.3"/>
  <polygon points="1080.57,645.00 1110.88,662.50 1110.88,697.50 1080.57,715.00 1050.26,697.50 1050.26,662.50" fill="#B5CCE0" stroke="#99AABB" stroke-width="0.3"/>
  <polygon points="1141.19,645.00 1171.50,662.50 1171.50,697.50 1141.19,715.00 1110.88,697.50 1110.88,662.50" fill="#B5CCE0" stroke="#99AABB" stroke-width="0.3"/>
  <polygon points="1201.81,645.00 1232.12,662.50 1232.12,697.50 1201.81,715.00 1171.50,697.50 1171.50,662.50" fill="#B5CCE0" stroke="#99AABB" stroke-width="0.3"/>
  <polygon points="1262.44,645.00 1292.75,662.50 1292.75,697.50 1262.44,715.00 1232.13,697.50 1232.13,662.50" fill="#B5CCE0" stroke="#99AABB" stroke-width="0.3"/>
  <polygon points="1323.06,645.00 1353.37,662.50 1353.37,697.50 1323.06,715.00 1292.75,697.50 1292.75,662.50" fill="#B5CCE0" stroke="#99AABB" stroke-width="0.3"/>
  <polygon points="1383.68,645.00 1413.99,662.50 1413.99,697.50 1383.68,715.00 1353.37,697.50 1353.37,662.50" fill="#B5CCE0" stroke="#99AABB" stroke-width="0.3"/>
  <polygon points="1444.30,645.00 1474.61,662.50 1474.61,697.50 1444.30,715.00 1413.99,697.50 1413.99,662.50" fill="#B5CCE0" stroke="#99AABB" stroke-width="0.3"/>
  <polygon points="1504.92,645.00 1535.23,662.50 1535.23,697.50 1504.92,715.00 1474.61,697.50 1474.61,662.50" fill="#B5CCE0" stroke="#99AABB" stroke-width="0.3"/>
  <polygon points="80.31,697.50 110.62,715.00 110.62,750.00 80.31,767.50 50.00,750.00 50.00,715.00" fill="#B5CCE0" stroke="#99AABB" stroke-width="0.3"/>
  <polygon points="140.93,697.50 171.24,715.00 171.24,750.00 140.93,767.50 110.62,750.00 110.62,715.00" fill="#B5CCE0" stroke="#99AABB" stroke-width="0.3"/>
  <polygon points="201.55,697.50 231.86,715.00 231.86,750.00 201.55,767.50 171.24,750.00 171.24,715.00" fill="#B5CCE0" stroke="#99AABB" stroke-width="0.3"/>
  <polygon points="262.18,697.50 292.49,715.00 292.49,750.00 262.18,767.50 231.87,750.00 231.87,715.00" fill="#B5CCE0" stroke="#99AABB" stroke-width="0.3"/>
  <polygon points="322.80,697.50 353.11,715.00 353.11,750.00 322.80,767.50 292.49,750.00 292.49,715.00" fill="#B5CCE0" stroke="#99AABB" stroke-width="0.3"/>
  <polygon points="383.42,697.50 413.73,715.00 413.73,750.00 383.42,767.50 353.11,750.00 353.11,715.00" fill="#B5CCE0" stroke="#99AABB" stroke-width="0.3"/>
  <polygon points="444.04,697.50 474.35,715.00 474.35,750.00 444.04,767.50 413.73,750.00 413.73,715.00" fill="#B5CCE0" stroke="#99AABB" stroke-width="0.3"/>
  <polygon points="504.66,697.50 534.97,715.00 534.97,750.00 504.66,767.50 474.35,750.00 474.35,715.00" fill="#B5CCE0" stroke="#99AABB" stroke-width="0.3"/>
  <polygon points="565.29,697.50 595.60,715.00 595.60,750.00 565.29,767.50 534.98,750.00 534.98,715.00" fill="#B5CCE0" stroke="#99AABB" stroke-width="0.3"/>
  <polygon points="625.91,697.50 656.22,715.00 656.22,750.00 625.91,767.50 595.60,750.00 595.60,715.00" fill="#B5CCE0" stroke="#99AABB" stroke-width="0.3"/>
  <polygon points="686.53,697.50 716.84,715.00 716.84,750.00 686.53,767.50 656.22,750.00 656.22,715.00" fill="#B5CCE0" stroke="#99AABB" stroke-width="0.3"/>
  <polygon points="747.15,697.50 777.46,715.00 777.46,750.00 747.15,767.50 716.84,750.00 716.84,715.00" fill="#B5CCE0" stroke="#99AABB" stroke-width="0.3"/>
  <polygon points="807.77,697.50 838.08,715.00 838.08,750.00 807.77,767.50 777.46,750.00 777.46,715.00" fill="#B5CCE0" stroke="#99AABB" stroke-width="0.3"/>
  <polygon points="868.39,697.50 898.70,715.00 898.70,750.00 868.39,767.50 838.08,750.00 838.08,715.00" fill="#B5CCE0" stroke="#99AABB" stroke-width="0.3"/>
  <polygon points="929.02,697.50 959.33,715.00 959.33,750.00 929.02,767.50 898.71,750.00 898.71,715.00" fill="#B5CCE0" stroke="#99AABB" stroke-width="0.3"/>
  <polygon points="989.64,697.50 1019.95,715.00 1019.95,750.00 989.64,767.50 959.33,750.00 959.33,715.00" fill="#B5CCE0" stroke="#99AABB" stroke-width="0.3"/>
  <polygon points="1050.26,697.50 1080.57,715.00 1080.57,750.00 1050.26,767.50 1019.95,750.00 1019.95,715.00" fill="#B5CCE0" stroke="#99AABB" stroke-width="0.3"/>
  <polygon points="1110.88,697.50 1141.19,715.00 1141.19,750.00 1110.88,767.50 1080.57,750.00 1080.57,715.00" fill="#B5CCE0" stroke="#99AABB" stroke-width="0.3"/>
  <polygon points="1171.50,697.50 1201.81,715.00 1201.81,750.00 1171.50,767.50 1141.19,750.00 1141.19,715.00" fill="#B5CCE0" stroke="#99AABB" stroke-width="0.3"/>
  <polygon points="1232.12,697.50 1262.43,715.00 1262.43,750.00 1232.12,767.50 1201.81,750.00 1201.81,715.00" fill="#B5CCE0" stroke="#99AABB" stroke-width="0.3"/>
  <polygon points="1292.75,697.50 1323.06,715.00 1323.06,750.00 1292.75,767.50 1262.44,750.00 1262.44,715.00" fill="#B5CCE0" stroke="#99AABB" stroke-width="0.3"/>
  <polygon points="1353.37,697.50 1383.68,715.00 1383.68,750.00 1353.37,767.50 1323.06,750.00 1323.06,715.00" fill="#B5CCE0" stroke="#99AABB" stroke-width="0.3"/>
  <polygon points="1413.99,697.50 1444.30,715.00 1444.30,750.00 1413.99,767.50 1383.68,750.00 1383.68,715.00" fill="#B5CCE0" stroke="#99AABB" stroke-width="0.3"/>
  <polygon points="1474.61,697.50 1504.92,715.00 1504.92,750.00 1474.61,767.50 1444.30,750.00 1444.30,715.00" fill="#B5CCE0" stroke="#99AABB" stroke-width="0.3"/>
  <polygon points="1535.23,697.50 1565.54,715.00 1565.54,750.00 1535.23,767.50 1504.92,750.00 1504.92,715.00" fill="#B5CCE0" stroke="#99AABB" stroke-width="0.3"/>
  <polygon points="50.00,750.00 80.31,767.50 80.31,802.50 50.00,820.00 19.69,802.50 19.69,767.50" fill="#B5CCE0" stroke="#99AABB" stroke-width="0.3"/>
  <polygon points="110.62,750.00 140.93,767.50 140.93,802.50 110.62,820.00 80.31,802.50 80.31,767.50" fill="#B5CCE0" stroke="#99AABB" stroke-width="0.3"/>
  <polygon points="171.24,750.00 201.55,767.50 201.55,802.50 171.24,820.00 140.93,802.50 140.93,767.50" fill="#B5CCE0" stroke="#99AABB" stroke-width="0.3"/>
  <polygon points="231.87,750.00 262.18,767.50 262.18,802.50 231.87,820.00 201.56,802.50 201.56,767.50" fill="#B5CCE0" stroke="#99AABB" stroke-width="0.3"/>
  <polygon points="292.49,750.00 322.80,767.50 322.80,802.50 292.49,820.00 262.18,802.50 262.18,767.50" fill="#B5CCE0" stroke="#99AABB" stroke-width="0.3"/>
  <polygon points="353.11,750.00 383.42,767.50 383.42,802.50 353.11,820.00 322.80,802.50 322.80,767.50" fill="#B5CCE0" stroke="#99AABB" stroke-width="0.3"/>
  <polygon points="413.73,750.00 444.04,767.50 444.04,802.50 413.73,820.00 383.42,802.50 383.42,767.50" fill="#B5CCE0" stroke="#99AABB" stroke-width="0.3"/>
  <polygon points="474.35,750.00 504.66,767.50 504.66,802.50 474.35,820.00 444.04,802.50 444.04,767.50" fill="#B5CCE0" stroke="#99AABB" stroke-width="0.3"/>
  <polygon points="534.97,750.00 565.28,767.50 565.28,802.50 534.97,820.00 504.66,802.50 504.66,767.50" fill="#B5CCE0" stroke="#99AABB" stroke-width="0.3"/>
  <polygon points="595.60,750.00 625.91,767.50 625.91,802.50 595.60,820.00 565.29,802.50 565.29,767.50" fill="#B5CCE0" stroke="#99AABB" stroke-width="0.3"/>
  <polygon points="656.22,750.00 686.53,767.50 686.53,802.50 656.22,820.00 625.91,802.50 625.91,767.50" fill="#B5CCE0" stroke="#99AABB" stroke-width="0.3"/>
  <polygon points="716.84,750.00 747.15,767.50 747.15,802.50 716.84,820.00 686.53,802.50 686.53,767.50" fill="#B5CCE0" stroke="#99AABB" stroke-width="0.3"/>
  <polygon points="777.46,750.00 807.77,767.50 807.77,802.50 777.46,820.00 747.15,802.50 747.15,767.50" fill="#B5CCE0" stroke="#99AABB" stroke-width="0.3"/>
  <polygon points="838.08,750.00 868.39,767.50 868.39,802.50 838.08,820.00 807.77,802.50 807.77,767.50" fill="#B5CCE0" stroke="#99AABB" stroke-width="0.3"/>
  <polygon points="898.70,750.00 929.01,767.50 929.01,802.50 898.70,820.00 868.39,802.50 868.39,767.50" fill="#B5CCE0" stroke="#99AABB" stroke-width="0.3"/>
  <polygon points="959.33,750.00 989.64,767.50 989.64,802.50 959.33,820.00 929.02,802.50 929.02,767.50" fill="#B5CCE0" stroke="#99AABB" stroke-width="0.3"/>
  <polygon points="1019.95,750.00 1050.26,767.50 1050.26,802.50 1019.95,820.00 989.64,802.50 989.64,767.50" fill="#B5CCE0" stroke="#99AABB" stroke-width="0.3"/>
  <polygon points="1080.57,750.00 1110.88,767.50 1110.88,802.50 1080.57,820.00 1050.26,802.50 1050.26,767.50" fill="#B5CCE0" stroke="#99AABB" stroke-width="0.3"/>
  <polygon points="1141.19,750.00 1171.50,767.50 1171.50,802.50 1141.19,820.00 1110.88,802.50 1110.88,767.50" fill="#B5CCE0" stroke="#99AABB" stroke-width="0.3"/>
  <polygon points="1201.81,750.00 1232.12,767.50 1232.12,802.50 1201.81,820.00 1171.50,802.50 1171.50,767.50" fill="#B5CCE0" stroke="#99AABB" stroke-width="0.3"/>
  <polygon points="1262.44,750.00 1292.75,767.50 1292.75,802.50 1262.44,820.00 1232.13,802.50 1232.13,767.50" fill="#B5CCE0" stroke="#99AABB" stroke-width="0.3"/>
  <polygon points="1323.06,750.00 1353.37,767.50 1353.37,802.50 1323.06,820.00 1292.75,802.50 1292.75,767.50" fill="#B5CCE0" stroke="#99AABB" stroke-width="0.3"/>
  <polygon points="1383.68,750.00 1413.99,767.50 1413.99,802.50 1383.68,820.00 1353.37,802.50 1353.37,767.50" fill="#B5CCE0" stroke="#99AABB" stroke-width="0.3"/>
  <polygon points="1444.30,750.00 1474.61,767.50 1474.61,802.50 1444.30,820.00 1413.99,802.50 1413.99,767.50" fill="#B5CCE0" stroke="#99AABB" stroke-width="0.3"/>
  <polygon points="1504.92,750.00 1535.23,767.50 1535.23,802.50 1504.92,820.00 1474.61,802.50 1474.61,767.50" fill="#B5CCE0" stroke="#99AABB" stroke-width="0.3"/>
  <polygon points="80.31,802.50 110.62,820.00 110.62,855.00 80.31,872.50 50.00,855.00 50.00,820.00" fill="#B5CCE0" stroke="#99AABB" stroke-width="0.3"/>
  <polygon points="140.93,802.50 171.24,820.00 171.24,855.00 140.93,872.50 110.62,855.00 110.62,820.00" fill="#B5CCE0" stroke="#99AABB" stroke-width="0.3"/>
  <polygon points="201.55,802.50 231.86,820.00 231.86,855.00 201.55,872.50 171.24,855.00 171.24,820.00" fill="#B5CCE0" stroke="#99AABB" stroke-width="0.3"/>
  <polygon points="262.18,802.50 292.49,820.00 292.49,855.00 262.18,872.50 231.87,855.00 231.87,820.00" fill="#B5CCE0" stroke="#99AABB" stroke-width="0.3"/>
  <polygon points="322.80,802.50 353.11,820.00 353.11,855.00 322.80,872.50 292.49,855.00 292.49,820.00" fill="#B5CCE0" stroke="#99AABB" stroke-width="0.3"/>
  <polygon points="383.42,802.50 413.73,820.00 413.73,855.00 383.42,872.50 353.11,855.00 353.11,820.00" fill="#B5CCE0" stroke="#99AABB" stroke-width="0.3"/>
  <polygon points="444.04,802.50 474.35,820.00 474.35,855.00 444.04,872.50 413.73,855.00 413.73,820.00" fill="#B5CCE0" stroke="#99AABB" stroke-width="0.3"/>
  <polygon points="504.66,802.50 534.97,820.00 534.97,855.00 504.66,872.50 474.35,855.00 474.35,820.00" fill="#B5CCE0" stroke="#99AABB" stroke-width="0.3"/>
  <polygon points="565.29,802.50 595.60,820.00 595.60,855.00 565.29,872.50 534.98,855.00 534.98,820.00" fill="#B5CCE0" stroke="#99AABB" stroke-width="0.3"/>
  <polygon points="625.91,802.50 656.22,820.00 656.22,855.00 625.91,872.50 595.60,855.00 595.60,820.00" fill="#B5CCE0" stroke="#99AABB" stroke-width="0.3"/>
  <polygon points="686.53,802.50 716.84,820.00 716.84,855.00 686.53,872.50 656.22,855.00 656.22,820.00" fill="#B5CCE0" stroke="#99AABB" stroke-width="0.3"/>
  <polygon points="747.15,802.50 777.46,820.00 777.46,855.00 747.15,872.50 716.84,855.00 716.84,820.00" fill="#B5CCE0" stroke="#99AABB" stroke-width="0.3"/>
  <polygon points="807.77,802.50 838.08,820.00 838.08,855.00 807.77,872.50 777.46,855.00 777.46,820.00" fill="#B5CCE0" stroke="#99AABB" stroke-width="0.3"/>
  <polygon points="868.39,802.50 898.70,820.00 898.70,855.00 868.39,872.50 838.08,855.00 838.08,820.00" fill="#B5CCE0" stroke="#99AABB" stroke-width="0.3"/>
  <polygon points="929.02,802.50 959.33,820.00 959.33,855.00 929.02,872.50 898.71,855.00 898.71,820.00" fill="#B5CCE0" stroke="#99AABB" stroke-width="0.3"/>
  <polygon points="989.64,802.50 1019.95,820.00 1019.95,855.00 989.64,872.50 959.33,855.00 959.33,820.00" fill="#B5CCE0" stroke="#99AABB" stroke-width="0.3"/>
  <polygon points="1050.26,802.50 1080.57,820.00 1080.57,855.00 1050.26,872.50 1019.95,855.00 1019.95,820.00" fill="#B5CCE0" stroke="#99AABB" stroke-width="0.3"/>
  <polygon points="1110.88,802.50 1141.19,820.00 1141.19,855.00 1110.88,872.50 1080.57,855.00 1080.57,820.00" fill="#B5CCE0" stroke="#99AABB" stroke-width="0.3"/>
  <polygon points="1171.50,802.50 1201.81,820.00 1201.81,855.00 1171.50,872.50 1141.19,855.00 1141.19,820.00" fill="#B5CCE0" stroke="#99AABB" stroke-width="0.3"/>
  <polygon points="1232.12,802.50 1262.43,820.00 1262.43,855.00 1232.12,872.50 1201.81,855.00 1201.81,820.00" fill="#B5CCE0" stroke="#99AABB" stroke-width="0.3"/>
  <polygon points="1292.75,802.50 1323.06,820.00 1323.06,855.00 1292.75,872.50 1262.44,855.00 1262.44,820.00" fill="#B5CCE0" stroke="#99AABB" stroke-width="0.3"/>
  <polygon points="1353.37,802.50 1383.68,820.00 1383.68,855.00 1353.37,872.50 1323.06,855.00 1323.06,820.00" fill="#B5CCE0" stroke="#99AABB" stroke-width="0.3"/>
  <polygon points="1413.99,802.50 1444.30,820.00 1444.30,855.00 1413.99,872.50 1383.68,855.00 1383.68,820.00" fill="#B5CCE0" stroke="#99AABB" stroke-width="0.3"/>
  <polygon points="1474.61,802.50 1504.92,820.00 1504.92,855.00 1474.61,872.50 1444.30,855.00 1444.30,820.00" fill="#B5CCE0" stroke="#99AABB" stroke-width="0.3"/>
  <polygon points="1535.23,802.50 1565.54,820.00 1565.54,855.00 1535.23,872.50 1504.92,855.00 1504.92,820.00" fill="#B5CCE0" stroke="#99AABB" stroke-width="0.3"/>
  <!-- CHOKEPOINTS -->
  <polygon points="1080.57,330.00 1110.88,347.50 1110.88,382.50 1080.57,400.00 1050.26,382.50 1050.26,347.50" fill="#B5CCE0" stroke="#D4880F" stroke-width="3"/>
  <polygon points="838.08,435.00 868.39,452.50 868.39,487.50 838.08,505.00 807.77,487.50 807.77,452.50" fill="#B5CCE0" stroke="#D4880F" stroke-width="3"/>
  <polygon points="201.55,487.50 231.86,505.00 231.86,540.00 201.55,557.50 171.24,540.00 171.24,505.00" fill="#B5CCE0" stroke="#D4880F" stroke-width="3"/>
  <!-- LAND -->
  <polygon points="534.97,120.00 565.28,137.50 565.28,172.50 534.97,190.00 504.66,172.50 504.66,137.50" fill="#8FB59A" stroke="#666" stroke-width="1.5"/>
  <polygon points="716.84,120.00 747.15,137.50 747.15,172.50 716.84,190.00 686.53,172.50 686.53,137.50" fill="#D4A5A5" stroke="#666" stroke-width="1.5"/>
  <polygon points="444.04,172.50 474.35,190.00 474.35,225.00 444.04,242.50 413.73,225.00 413.73,190.00" fill="#8AA5B5" stroke="#666" stroke-width="1.5"/>
  <polygon points="686.53,172.50 716.84,190.00 716.84,225.00 686.53,242.50 656.22,225.00 656.22,190.00" fill="#D4A5A5" stroke="#666" stroke-width="1.5"/>
  <polygon points="747.15,172.50 777.46,190.00 777.46,225.00 747.15,242.50 716.84,225.00 716.84,190.00" fill="#D4A5A5" stroke="#666" stroke-width="1.5"/>
  <polygon points="807.77,172.50 838.08,190.00 838.08,225.00 807.77,242.50 777.46,225.00 777.46,190.00" fill="#D4A5A5" stroke="#666" stroke-width="1.5"/>
  <polygon points="868.39,172.50 898.70,190.00 898.70,225.00 868.39,242.50 838.08,225.00 838.08,190.00" fill="#D4A5A5" stroke="#666" stroke-width="1.5"/>
  <polygon points="929.02,172.50 959.33,190.00 959.33,225.00 929.02,242.50 898.71,225.00 898.71,190.00" fill="#D4A5A5" stroke="#666" stroke-width="1.5"/>
  <polygon points="1050.26,172.50 1080.57,190.00 1080.57,225.00 1050.26,242.50 1019.95,225.00 1019.95,190.00" fill="#8A8A8A" stroke="#666" stroke-width="1.5"/>
  <polygon points="534.97,225.00 565.28,242.50 565.28,277.50 534.97,295.00 504.66,277.50 504.66,242.50" fill="#8FB59A" stroke="#666" stroke-width="1.5"/>
  <polygon points="595.60,225.00 625.91,242.50 625.91,277.50 595.60,295.00 565.29,277.50 565.29,242.50" fill="#D4B58A" stroke="#666" stroke-width="1.5"/>
  <polygon points="656.22,225.00 686.53,242.50 686.53,277.50 656.22,295.00 625.91,277.50 625.91,242.50" fill="#D4A5A5" stroke="#666" stroke-width="1.5"/>
  <polygon points="716.84,225.00 747.15,242.50 747.15,277.50 716.84,295.00 686.53,277.50 686.53,242.50" fill="#D4A5A5" stroke="#666" stroke-width="1.5"/>
  <polygon points="777.46,225.00 807.77,242.50 807.77,277.50 777.46,295.00 747.15,277.50 747.15,242.50" fill="#C8C8A5" stroke="#666" stroke-width="1.5"/>
  <polygon points="838.08,225.00 868.39,242.50 868.39,277.50 838.08,295.00 807.77,277.50 807.77,242.50" fill="#C8C8A5" stroke="#666" stroke-width="1.5"/>
  <polygon points="898.70,225.00 929.01,242.50 929.01,277.50 898.70,295.00 868.39,277.50 868.39,242.50" fill="#E8D5A3" stroke="#666" stroke-width="1.5"/>
  <polygon points="959.33,225.00 989.64,242.50 989.64,277.50 959.33,295.00 929.02,277.50 929.02,242.50" fill="#E8D5A3" stroke="#666" stroke-width="1.5"/>
  <polygon points="1080.57,225.00 1110.88,242.50 1110.88,277.50 1080.57,295.00 1050.26,277.50 1050.26,242.50" fill="#A5C8D4" stroke="#666" stroke-width="1.5"/>
  <polygon points="1201.81,225.00 1232.12,242.50 1232.12,277.50 1201.81,295.00 1171.50,277.50 1171.50,242.50" fill="#A5B5C8" stroke="#666" stroke-width="1.5"/>
  <polygon points="140.93,277.50 171.24,295.00 171.24,330.00 140.93,347.50 110.62,330.00 110.62,295.00" fill="#D4B896" stroke="#666" stroke-width="1.5"/>
  <polygon points="504.66,277.50 534.97,295.00 534.97,330.00 504.66,347.50 474.35,330.00 474.35,295.00" fill="#B5A5C8" stroke="#666" stroke-width="1.5"/>
  <polygon points="565.29,277.50 595.60,295.00 595.60,330.00 565.29,347.50 534.98,330.00 534.98,295.00" fill="#8FB59A" stroke="#666" stroke-width="1.5"/>
  <polygon points="625.91,277.50 656.22,295.00 656.22,330.00 625.91,347.50 595.60,330.00 595.60,295.00" fill="#A5C8A5" stroke="#666" stroke-width="1.5"/>
  <polygon points="807.77,277.50 838.08,295.00 838.08,330.00 807.77,347.50 777.46,330.00 777.46,295.00" fill="#C8A57A" stroke="#666" stroke-width="1.5"/>
  <polygon points="868.39,277.50 898.70,295.00 898.70,330.00 868.39,347.50 838.08,330.00 838.08,295.00" fill="#C8C8A5" stroke="#666" stroke-width="1.5"/>
  <polygon points="929.02,277.50 959.33,295.00 959.33,330.00 929.02,347.50 898.71,330.00 898.71,295.00" fill="#E8D5A3" stroke="#666" stroke-width="1.5"/>
  <polygon points="989.64,277.50 1019.95,295.00 1019.95,330.00 989.64,347.50 959.33,330.00 959.33,295.00" fill="#E8D5A3" stroke="#666" stroke-width="1.5"/>
  <polygon points="1050.26,277.50 1080.57,295.00 1080.57,330.00 1050.26,347.50 1019.95,330.00 1019.95,295.00" fill="#E8D5A3" stroke="#666" stroke-width="1.5"/>
  <polygon points="1232.12,277.50 1262.43,295.00 1262.43,330.00 1232.12,347.50 1201.81,330.00 1201.81,295.00" fill="#A5B5C8" stroke="#666" stroke-width="1.5"/>
  <polygon points="110.62,330.00 140.93,347.50 140.93,382.50 110.62,400.00 80.31,382.50 80.31,347.50" fill="#D4B896" stroke="#666" stroke-width="1.5"/>
  <polygon points="171.24,330.00 201.55,347.50 201.55,382.50 171.24,400.00 140.93,382.50 140.93,347.50" fill="#D4B896" stroke="#666" stroke-width="1.5"/>
  <polygon points="474.35,330.00 504.66,347.50 504.66,382.50 474.35,400.00 444.04,382.50 444.04,347.50" fill="#B5A5C8" stroke="#666" stroke-width="1.5"/>
  <polygon points="595.60,330.00 625.91,347.50 625.91,382.50 595.60,400.00 565.29,382.50 565.29,347.50" fill="#A5C8A5" stroke="#666" stroke-width="1.5"/>
  <polygon points="656.22,330.00 686.53,347.50 686.53,382.50 656.22,400.00 625.91,382.50 625.91,347.50" fill="#B5A08A" stroke="#666" stroke-width="1.5"/>
  <polygon points="777.46,330.00 807.77,347.50 807.77,382.50 777.46,400.00 747.15,382.50 747.15,347.50" fill="#C8A57A" stroke="#666" stroke-width="1.5"/>
  <polygon points="898.70,330.00 929.01,347.50 929.01,382.50 898.70,400.00 868.39,382.50 868.39,347.50" fill="#D4B5A5" stroke="#666" stroke-width="1.5"/>
  <polygon points="140.93,382.50 171.24,400.00 171.24,435.00 140.93,452.50 110.62,435.00 110.62,400.00" fill="#D4B896" stroke="#666" stroke-width="1.5"/>
  <polygon points="504.66,382.50 534.97,400.00 534.97,435.00 504.66,452.50 474.35,435.00 474.35,400.00" fill="#D4A5B5" stroke="#666" stroke-width="1.5"/>
  <polygon points="686.53,382.50 716.84,400.00 716.84,435.00 686.53,452.50 656.22,435.00 656.22,400.00" fill="#B5A08A" stroke="#666" stroke-width="1.5"/>
  <polygon points="747.15,382.50 777.46,400.00 777.46,435.00 747.15,452.50 716.84,435.00 716.84,400.00" fill="#D4D4A5" stroke="#666" stroke-width="1.5"/>
  <polygon points="807.77,382.50 838.08,400.00 838.08,435.00 807.77,452.50 777.46,435.00 777.46,400.00" fill="#C8A57A" stroke="#666" stroke-width="1.5"/>
  <polygon points="868.39,382.50 898.70,400.00 898.70,435.00 868.39,452.50 838.08,435.00 838.08,400.00" fill="#D4B5A5" stroke="#666" stroke-width="1.5"/>
  <polygon points="929.02,382.50 959.33,400.00 959.33,435.00 929.02,452.50 898.71,435.00 898.71,400.00" fill="#D4B5A5" stroke="#666" stroke-width="1.5"/>
  <polygon points="1110.88,382.50 1141.19,400.00 1141.19,435.00 1110.88,452.50 1080.57,435.00 1080.57,400.00" fill="#8AC8B5" stroke="#666" stroke-width="1.5"/>
  <polygon points="171.24,435.00 201.55,452.50 201.55,487.50 171.24,505.00 140.93,487.50 140.93,452.50" fill="#D4B896" stroke="#666" stroke-width="1.5"/>
  <polygon points="716.84,435.00 747.15,452.50 747.15,487.50 716.84,505.00 686.53,487.50 686.53,452.50" fill="#C8B896" stroke="#666" stroke-width="1.5"/>
  <polygon points="777.46,435.00 807.77,452.50 807.77,487.50 777.46,505.00 747.15,487.50 747.15,452.50" fill="#C8B896" stroke="#666" stroke-width="1.5"/>
  <polygon points="262.18,487.50 292.49,505.00 292.49,540.00 262.18,557.50 231.87,540.00 231.87,505.00" fill="#A5C8A0" stroke="#666" stroke-width="1.5"/>
  <polygon points="686.53,487.50 716.84,505.00 716.84,540.00 686.53,557.50 656.22,540.00 656.22,505.00" fill="#B5A896" stroke="#666" stroke-width="1.5"/>
  <polygon points="807.77,487.50 838.08,505.00 838.08,540.00 807.77,557.50 777.46,540.00 777.46,505.00" fill="#D4BFA5" stroke="#666" stroke-width="1.5"/>
  <!-- INTERNAL BORDERS -->
  <line x1="747.15" y1="172.50" x2="716.84" y2="190.00" stroke="#BBB" stroke-width="0.5" stroke-dasharray="2,3"/>
  <line x1="716.84" y1="190.00" x2="686.53" y2="172.50" stroke="#BBB" stroke-width="0.5" stroke-dasharray="2,3"/>
  <line x1="716.84" y1="190.00" x2="716.84" y2="225.00" stroke="#BBB" stroke-width="0.5" stroke-dasharray="2,3"/>
  <line x1="716.84" y1="225.00" x2="686.53" y2="242.50" stroke="#BBB" stroke-width="0.5" stroke-dasharray="2,3"/>
  <line x1="686.53" y1="242.50" x2="656.22" y2="225.00" stroke="#BBB" stroke-width="0.5" stroke-dasharray="2,3"/>
  <line x1="777.46" y1="190.00" x2="777.46" y2="225.00" stroke="#BBB" stroke-width="0.5" stroke-dasharray="2,3"/>
  <line x1="747.15" y1="242.50" x2="716.84" y2="225.00" stroke="#BBB" stroke-width="0.5" stroke-dasharray="2,3"/>
  <line x1="838.08" y1="190.00" x2="838.08" y2="225.00" stroke="#BBB" stroke-width="0.5" stroke-dasharray="2,3"/>
  <line x1="898.70" y1="190.00" x2="898.70" y2="225.00" stroke="#BBB" stroke-width="0.5" stroke-dasharray="2,3"/>
  <line x1="565.28" y1="277.50" x2="534.97" y2="295.00" stroke="#BBB" stroke-width="0.5" stroke-dasharray="2,3"/>
  <line x1="686.53" y1="242.50" x2="686.53" y2="277.50" stroke="#BBB" stroke-width="0.5" stroke-dasharray="2,3"/>
  <line x1="807.77" y1="242.50" x2="807.77" y2="277.50" stroke="#BBB" stroke-width="0.5" stroke-dasharray="2,3"/>
  <line x1="868.39" y1="277.50" x2="838.08" y2="295.00" stroke="#BBB" stroke-width="0.5" stroke-dasharray="2,3"/>
  <line x1="929.01" y1="242.50" x2="929.01" y2="277.50" stroke="#BBB" stroke-width="0.5" stroke-dasharray="2,3"/>
  <line x1="929.01" y1="277.50" x2="898.70" y2="295.00" stroke="#BBB" stroke-width="0.5" stroke-dasharray="2,3"/>
  <line x1="989.64" y1="277.50" x2="959.33" y2="295.00" stroke="#BBB" stroke-width="0.5" stroke-dasharray="2,3"/>
  <line x1="959.33" y1="295.00" x2="929.02" y2="277.50" stroke="#BBB" stroke-width="0.5" stroke-dasharray="2,3"/>
  <line x1="1232.12" y1="277.50" x2="1201.81" y2="295.00" stroke="#BBB" stroke-width="0.5" stroke-dasharray="2,3"/>
  <line x1="171.24" y1="330.00" x2="140.93" y2="347.50" stroke="#BBB" stroke-width="0.5" stroke-dasharray="2,3"/>
  <line x1="140.93" y1="347.50" x2="110.62" y2="330.00" stroke="#BBB" stroke-width="0.5" stroke-dasharray="2,3"/>
  <line x1="504.66" y1="347.50" x2="474.35" y2="330.00" stroke="#BBB" stroke-width="0.5" stroke-dasharray="2,3"/>
  <line x1="625.91" y1="347.50" x2="595.60" y2="330.00" stroke="#BBB" stroke-width="0.5" stroke-dasharray="2,3"/>
  <line x1="807.77" y1="347.50" x2="777.46" y2="330.00" stroke="#BBB" stroke-width="0.5" stroke-dasharray="2,3"/>
  <line x1="959.33" y1="295.00" x2="959.33" y2="330.00" stroke="#BBB" stroke-width="0.5" stroke-dasharray="2,3"/>
  <line x1="1019.95" y1="295.00" x2="1019.95" y2="330.00" stroke="#BBB" stroke-width="0.5" stroke-dasharray="2,3"/>
  <line x1="140.93" y1="347.50" x2="140.93" y2="382.50" stroke="#BBB" stroke-width="0.5" stroke-dasharray="2,3"/>
  <line x1="140.93" y1="382.50" x2="110.62" y2="400.00" stroke="#BBB" stroke-width="0.5" stroke-dasharray="2,3"/>
  <line x1="171.24" y1="400.00" x2="140.93" y2="382.50" stroke="#BBB" stroke-width="0.5" stroke-dasharray="2,3"/>
  <line x1="686.53" y1="382.50" x2="656.22" y2="400.00" stroke="#BBB" stroke-width="0.5" stroke-dasharray="2,3"/>
  <line x1="807.77" y1="382.50" x2="777.46" y2="400.00" stroke="#BBB" stroke-width="0.5" stroke-dasharray="2,3"/>
  <line x1="929.01" y1="382.50" x2="898.70" y2="400.00" stroke="#BBB" stroke-width="0.5" stroke-dasharray="2,3"/>
  <line x1="898.70" y1="400.00" x2="868.39" y2="382.50" stroke="#BBB" stroke-width="0.5" stroke-dasharray="2,3"/>
  <line x1="171.24" y1="435.00" x2="140.93" y2="452.50" stroke="#BBB" stroke-width="0.5" stroke-dasharray="2,3"/>
  <line x1="898.70" y1="400.00" x2="898.70" y2="435.00" stroke="#BBB" stroke-width="0.5" stroke-dasharray="2,3"/>
  <line x1="747.15" y1="452.50" x2="747.15" y2="487.50" stroke="#BBB" stroke-width="0.5" stroke-dasharray="2,3"/>
  <!-- LABELS -->
  <text x="550.1" y="286.2" class="cl" font-size="10">TEUTONIA</text>
  <text x="535.0" y="155.0" class="cl" font-size="9">THULE</text>
  <text x="766.1" y="214.1" class="cl" font-size="12">NORDOSTAN</text>
  <text x="444.0" y="207.5" class="cl" font-size="9">ALBION</text>
  <text x="1050.3" y="207.5" class="cl" font-size="9">CHOSON</text>
  <text x="595.6" y="260.0" class="cl" font-size="9">FREELAND</text>
  <text x="828.0" y="277.5" class="cl" font-size="10">SOGDIANA</text>
  <text x="965.4" y="291.5" class="cl" font-size="12">CATHAY</text>
  <text x="1080.6" y="260.0" class="cl" font-size="9">HANGUK</text>
  <text x="1217.0" y="286.2" class="cl" font-size="9">YAMATO</text>
  <text x="147.0" y="386.0" class="cl" font-size="12">COLUMBIA</text>
  <text x="489.5" y="338.8" class="cl" font-size="9">GALLIA</text>
  <text x="610.8" y="338.8" class="cl" font-size="9">HEARTLAND</text>
  <text x="797.7" y="365.0" class="cl" font-size="10">PERSIA</text>
  <text x="671.4" y="391.2" class="cl" font-size="9">PHRYGIA</text>
  <text x="898.7" y="400.0" class="cl" font-size="10">BHARATA</text>
  <text x="504.7" y="417.5" class="cl" font-size="9">PONTE</text>
  <text x="747.1" y="417.5" class="cl" font-size="9">LEVANTIA</text>
  <text x="1110.9" y="417.5" class="cl" font-size="9">FORMOSA</text>
  <text x="747.2" y="470.0" class="cl" font-size="9">SOLARIA</text>
  <text x="262.2" y="522.5" class="cl" font-size="9">CARIBE</text>
  <text x="686.5" y="522.5" class="cl" font-size="9">HORN</text>
  <text x="807.8" y="522.5" class="cl" font-size="9">MIRAGE</text>
  <text x="322.8" y="417.5" class="ol" font-size="22">TETHYS</text>
  <text x="1323.1" y="365.0" class="ol" font-size="24">MIROVIA</text>
  <text x="747.1" y="732.5" class="ol" font-size="20">RHEIC OCEAN</text>
  <text x="807.8" y="102.5" class="ol" font-size="18">ARCTIC SEA</text>
  <text x="1080.6" y="387.0" class="cpl">Formosa Strait</text>
  <text x="838.1" y="492.0" class="cpl">Gulf Gate</text>
  <text x="201.6" y="544.5" class="cpl">Caribe Passage</text>
  <rect x="20" y="680" width="220" height="210" rx="6" fill="white" fill-opacity="0.85" stroke="#aaa" stroke-width="0.5"/>
  <text x="35" y="702" class="ltt">THE THUCYDIDES TRAP</text>
  <text x="35" y="718" class="lt" font-size="8" fill="#666">Strategic Hex World Map</text>
  <rect x="35" y="735" width="12" height="10" rx="1" fill="#D4B896" stroke="#666" stroke-width="0.5"/>
  <text x="53" y="743" class="lt">Columbia</text>
  <rect x="35" y="751" width="12" height="10" rx="1" fill="#E8D5A3" stroke="#666" stroke-width="0.5"/>
  <text x="53" y="759" class="lt">Cathay</text>
  <rect x="35" y="767" width="12" height="10" rx="1" fill="#D4A5A5" stroke="#666" stroke-width="0.5"/>
  <text x="53" y="775" class="lt">Nordostan</text>
  <rect x="35" y="783" width="12" height="10" rx="1" fill="#A5C8A5" stroke="#666" stroke-width="0.5"/>
  <text x="53" y="791" class="lt">Heartland</text>
  <rect x="35" y="799" width="12" height="10" rx="1" fill="#8FB59A" stroke="#666" stroke-width="0.5"/>
  <text x="53" y="807" class="lt">Teutonia</text>
  <rect x="35" y="815" width="12" height="10" rx="1" fill="#C8A57A" stroke="#666" stroke-width="0.5"/>
  <text x="53" y="823" class="lt">Persia</text>
  <rect x="35" y="831" width="12" height="10" rx="1" fill="#D4B5A5" stroke="#666" stroke-width="0.5"/>
  <text x="53" y="839" class="lt">Bharata</text>
  <rect x="35" y="847" width="12" height="10" rx="1" fill="#A5B5C8" stroke="#666" stroke-width="0.5"/>
  <text x="53" y="855" class="lt">Yamato</text>
  <rect x="35" y="868" width="12" height="10" rx="1" fill="#B5CCE0" stroke="#D4880F" stroke-width="2"/>
  <text x="53" y="876" class="lt">Chokepoint</text>
  <text x="35" y="890" class="lt" font-size="7" fill="#888">1 hex = 1 strategic zone</text>
</svg>